<svg width="40" height="40" viewBox="0 0 40 40" fill="none" xmlns="http://www.w3.org/2000/svg">
<path d="M16.6667 26.6667V13.3333C16.6667 11.5 18.15 10 20 10H35V8.33333C35 6.5 33.5 5 31.6667 5H8.33333C6.48333 5 5 6.5 5 8.33333V31.6667C5 33.5 6.48333 35 8.33333 35H31.6667C33.5 35 35 33.5 35 31.6667V30H20C18.15 30 16.6667 28.5 16.6667 26.6667ZM21.6667 13.3333C20.75 13.3333 20 14.0833 20 15V25C20 25.9167 20.75 26.6667 21.6667 26.6667H36.6667V13.3333H21.6667ZM26.6667 22.5C25.2833 22.5 24.1667 21.3833 24.1667 20C24.1667 18.6167 25.2833 17.5 26.6667 17.5C28.05 17.5 29.1667 18.6167 29.1667 20C29.1667 21.3833 28.05 22.5 26.6667 22.5Z" fill="#C2C9D1"/>
<path d="M16.6667 26.6667V13.3333C16.6667 11.5 18.15 10 20 10H35V8.33333C35 6.5 33.5 5 31.6667 5H8.33333C6.48333 5 5 6.5 5 8.33333V31.6667C5 33.5 6.48333 35 8.33333 35H31.6667C33.5 35 35 33.5 35 31.6667V30H20C18.15 30 16.6667 28.5 16.6667 26.6667ZM21.6667 13.3333C20.75 13.3333 20 14.0833 20 15V25C20 25.9167 20.75 26.6667 21.6667 26.6667H36.6667V13.3333H21.6667ZM26.6667 22.5C25.2833 22.5 24.1667 21.3833 24.1667 20C24.1667 18.6167 25.2833 17.5 26.6667 17.5C28.05 17.5 29.1667 18.6167 29.1667 20C29.1667 21.3833 28.05 22.5 26.6667 22.5Z" fill="#1ABC9C"/>
</svg>
