<svg xmlns="http://www.w3.org/2000/svg" width="127" height="36">
    <defs>
        <clipPath id="clip-path">
            <rect id="Rectangle_40" data-name="Rectangle 40" width="127" height="36" rx="3" transform="translate(1 309)" style="fill:#0a1f4e"/>
        </clipPath>
        <style>
            .cls-3{fill:#fff}
        </style>
    </defs>
    <g id="a" transform="translate(-1 -309)" style="clip-path:url(#clip-path)">
        <g id="appstore-button" transform="translate(1.775 309)">
            <path id="Path_155" data-name="Path 155" d="M125.418 32.383a3.607 3.607 0 0 1-3.612 3.608H3.617A3.612 3.612 0 0 1 0 32.383V3.612A3.618 3.618 0 0 1 3.617 0h118.189a3.612 3.612 0 0 1 3.61 3.612v28.771z"/>
            <path id="Path_156" data-name="Path 156" class="cls-3" d="M25.091 17.8a5.45 5.45 0 0 1 2.6-4.582 5.59 5.59 0 0 0-4.4-2.381c-1.857-.2-3.655 1.114-4.6 1.114s-2.416-1.089-3.983-1.057A5.863 5.863 0 0 0 9.771 13.9c-2.134 3.695-.542 9.126 1.5 12.113 1.023 1.465 2.218 3.1 3.784 3.039 1.532-.063 2.1-.976 3.949-.976s2.367.976 3.963.939c1.642-.026 2.676-1.469 3.664-2.946a12.135 12.135 0 0 0 1.676-3.413 5.306 5.306 0 0 1-3.216-4.856zm-3.015-8.93A5.387 5.387 0 0 0 23.3 5.019a5.449 5.449 0 0 0-3.54 1.838 5.088 5.088 0 0 0-1.26 3.709 4.55 4.55 0 0 0 3.576-1.696zm27.638 19.968h-2.145L46.4 25.162h-4.072l-1.115 3.677H39.13L43.166 16.3h2.492zm-3.664-5.227-1.06-3.274q-.169-.5-.633-2.362h-.037q-.185.8-.6 2.362l-1.042 3.274zm14.023.593a5.141 5.141 0 0 1-1.252 3.644 3.676 3.676 0 0 1-2.786 1.19 2.79 2.79 0 0 1-2.581-1.282v4.749h-2.009V22.77q0-1.449-.075-2.972h1.766l.112 1.432h.038A3.57 3.57 0 0 1 59 20.874a5.008 5.008 0 0 1 1.072 3.326zm-2.045.073a3.73 3.73 0 0 0-.6-2.177 2.058 2.058 0 0 0-1.748-.893 2.1 2.1 0 0 0-1.348.493 2.288 2.288 0 0 0-.791 1.293 2.686 2.686 0 0 0-.093.613v1.517a2.42 2.42 0 0 0 .605 1.665 2.008 2.008 0 0 0 1.572.679 2.059 2.059 0 0 0 1.766-.873 3.878 3.878 0 0 0 .633-2.313zm12.44-.077a5.137 5.137 0 0 1-1.253 3.644 3.677 3.677 0 0 1-2.787 1.19 2.79 2.79 0 0 1-2.581-1.282v4.749H61.84V22.77q0-1.449-.075-2.972h1.766l.113 1.432h.037a3.562 3.562 0 0 1 5.714-.354 4.972 4.972 0 0 1 1.073 3.324zm-2.047.073a3.73 3.73 0 0 0-.6-2.177 2.056 2.056 0 0 0-1.746-.893 2.1 2.1 0 0 0-1.35.493 2.281 2.281 0 0 0-.79 1.293 2.686 2.686 0 0 0-.093.613v1.517a2.427 2.427 0 0 0 .6 1.665 2.008 2.008 0 0 0 1.576.672 2.057 2.057 0 0 0 1.766-.873 3.857 3.857 0 0 0 .631-2.307zm13.672 1.043a3.34 3.34 0 0 1-1.114 2.6 4.951 4.951 0 0 1-3.415 1.1 5.959 5.959 0 0 1-3.246-.781l.46-1.674a5.583 5.583 0 0 0 2.9.783 2.734 2.734 0 0 0 1.766-.512 1.671 1.671 0 0 0 .634-1.367 1.751 1.751 0 0 0-.522-1.284 4.826 4.826 0 0 0-1.73-.967Q74.537 22 74.535 19.63A3.174 3.174 0 0 1 75.7 17.1a4.591 4.591 0 0 1 3.079-.987 6.078 6.078 0 0 1 2.845.6l-.5 1.638a4.972 4.972 0 0 0-2.4-.577 2.446 2.446 0 0 0-1.662.521 1.5 1.5 0 0 0-.5 1.137 1.532 1.532 0 0 0 .577 1.226 6.5 6.5 0 0 0 1.821.967 6.186 6.186 0 0 1 2.381 1.524 3.175 3.175 0 0 1 .753 2.172zm6.658-4.015h-2.213v4.389q0 1.673 1.172 1.673a3.544 3.544 0 0 0 .892-.094l.055 1.532a4.567 4.567 0 0 1-1.561.222 2.409 2.409 0 0 1-1.861-.726 3.57 3.57 0 0 1-.673-2.443V21.3h-1.319v-1.5h1.319v-1.661l1.973-.594V19.8h2.214zm9.968 2.938a4.951 4.951 0 0 1-1.192 3.422 4.237 4.237 0 0 1-3.309 1.379 4.047 4.047 0 0 1-3.173-1.319 4.8 4.8 0 0 1-1.18-3.321 4.9 4.9 0 0 1 1.226-3.439 4.257 4.257 0 0 1 3.275-1.35 4.121 4.121 0 0 1 3.2 1.321 4.764 4.764 0 0 1 1.154 3.312zm-2.082.046a4.049 4.049 0 0 0-.538-2.132 1.988 1.988 0 0 0-1.806-1.072 2.017 2.017 0 0 0-1.838 1.072 4.11 4.11 0 0 0-.541 2.171 4.027 4.027 0 0 0 .538 2.132 2.023 2.023 0 0 0 1.825 1.072 2 2 0 0 0 1.806-1.094 4.067 4.067 0 0 0 .555-2.149zm8.612-2.725a3.491 3.491 0 0 0-.632-.055 1.9 1.9 0 0 0-1.638.8 3.023 3.023 0 0 0-.5 1.786v4.749h-2.014v-6.2q0-1.561-.059-2.845h1.75l.072 1.729h.057a3.1 3.1 0 0 1 1-1.434 2.44 2.44 0 0 1 1.452-.484 3.342 3.342 0 0 1 .5.037v1.917zm8.982 2.333a4.643 4.643 0 0 1-.074.919h-6.025a2.629 2.629 0 0 0 .875 2.048 3.007 3.007 0 0 0 1.97.631 6.663 6.663 0 0 0 2.437-.427l.316 1.394a7.558 7.558 0 0 1-3.03.558 4.389 4.389 0 0 1-3.3-1.236 4.561 4.561 0 0 1-1.2-3.318 5.186 5.186 0 0 1 1.117-3.4 3.853 3.853 0 0 1 3.161-1.449 3.369 3.369 0 0 1 2.959 1.449 4.808 4.808 0 0 1 .795 2.838zm-1.915-.521a2.714 2.714 0 0 0-.391-1.544 1.753 1.753 0 0 0-1.6-.838 1.9 1.9 0 0 0-1.6.818 3 3 0 0 0-.594 1.563zM45.081 11.816h-1.052l-.576-1.809h-2l-.553 1.809h-1.023l1.984-6.161h1.226zm-1.8-2.569-.521-1.609a22.727 22.727 0 0 1-.306-1.161h-.018c-.064.265-.153.65-.294 1.161l-.51 1.609zm6.762-1.874-1.685 4.443H47.4l-1.631-4.443h1.062l.769 2.349c.129.394.237.766.32 1.124h.028c.074-.319.182-.694.319-1.124l.751-2.348zm3.576 4.443-.074-.512h-.028a1.517 1.517 0 0 1-1.3.613 1.293 1.293 0 0 1-1.362-1.308c0-1.1.951-1.664 2.6-1.664v-.081q0-.878-.919-.878a2.075 2.075 0 0 0-1.16.329l-.2-.656a2.846 2.846 0 0 1 1.532-.385c1.16 0 1.746.613 1.746 1.838v1.642a6.688 6.688 0 0 0 .063 1.06zm-.14-2.216c-1.1 0-1.645.267-1.645.9a.632.632 0 0 0 .675.694.945.945 0 0 0 .97-.9zm3.167-2.961a.59.59 0 1 1 .622-.594.579.579 0 0 1-.622.594zm.512 5.175h-.987V7.373h.987z"/>
            <path id="Path_157" data-name="Path 157" class="cls-3" d="M59.9 11.816h-.99V5.334h.99z"/>
            <path id="Path_158" data-name="Path 158" class="cls-3" d="m64.1 11.816-.074-.512h-.028a1.517 1.517 0 0 1-1.3.613 1.293 1.293 0 0 1-1.362-1.308c0-1.1.951-1.664 2.6-1.664v-.081q0-.878-.919-.878a2.075 2.075 0 0 0-1.16.329l-.207-.656a2.851 2.851 0 0 1 1.532-.383c1.16 0 1.746.613 1.746 1.838v1.639a6.9 6.9 0 0 0 .063 1.062zM63.957 9.6c-1.1 0-1.647.267-1.647.9a.633.633 0 0 0 .677.694.945.945 0 0 0 .97-.9zm4.96 2.315a1.507 1.507 0 0 1-1.4-.787H67.5l-.057.686H66.6c.027-.357.037-.766.037-1.2v-5.28h.988v2.689h.018a1.525 1.525 0 0 1 1.417-.74c1.072 0 1.82.919 1.82 2.249a2.137 2.137 0 0 1-1.962 2.385zm-.2-3.859a1.135 1.135 0 0 0-1.088 1.18v.777a1.088 1.088 0 0 0 1.071 1.116c.738 0 1.18-.6 1.18-1.563-.002-.895-.46-1.508-1.163-1.508z"/>
            <path id="Path_159" data-name="Path 159" class="cls-3" d="M73.33 11.816h-.987V5.334h.987z"/>
            <path id="Path_160" data-name="Path 160" class="cls-3" d="M78.7 9.832h-2.959a1.275 1.275 0 0 0 1.4 1.316 3.332 3.332 0 0 0 1.2-.21l.153.685A3.693 3.693 0 0 1 77 11.9a2.062 2.062 0 0 1-2.212-2.238 2.171 2.171 0 0 1 2.1-2.387 1.867 1.867 0 0 1 1.848 2.113 1.849 1.849 0 0 1-.036.444zm-.905-.7c0-.685-.348-1.169-.979-1.169a1.162 1.162 0 0 0-1.072 1.169zm6.889 2.79a2.119 2.119 0 0 1-2.145-2.286 2.164 2.164 0 0 1 2.214-2.35A2.1 2.1 0 0 1 86.9 9.558a2.178 2.178 0 0 1-2.213 2.359zM84.726 8c-.714 0-1.17.668-1.17 1.6s.466 1.581 1.16 1.581 1.16-.714 1.16-1.6S85.42 8 84.726 8zm7.482 3.813h-.985V9.265c0-.786-.306-1.18-.9-1.18a1.023 1.023 0 0 0-.988 1.088v2.643h-.987V8.643c0-.394-.011-.815-.037-1.271h.869l.046.686h.028a1.593 1.593 0 0 1 1.408-.777c.931 0 1.543.712 1.543 1.874v2.661zm6.46-3.7h-1.085v2.145q0 .824.574.824a2 2 0 0 0 .438-.046l.028.749a2.19 2.19 0 0 1-.766.11c-.778 0-1.242-.429-1.242-1.555V8.119h-.648v-.746h.648V6.56l.968-.294v1.106h1.086zm5.228 3.7h-.988v-2.53c0-.8-.306-1.2-.9-1.2a.968.968 0 0 0-.987 1.052v2.678h-.991V5.334h.988V8h.019a1.493 1.493 0 0 1 1.335-.722c.941 0 1.517.731 1.517 1.892zm5.043-1.984h-2.961a1.273 1.273 0 0 0 1.4 1.316 3.342 3.342 0 0 0 1.2-.21l.153.685a3.686 3.686 0 0 1-1.492.274 2.063 2.063 0 0 1-2.214-2.238 2.172 2.172 0 0 1 2.1-2.387 1.867 1.867 0 0 1 1.848 2.113 1.917 1.917 0 0 1-.031.447zm-.905-.7c0-.685-.347-1.169-.978-1.169a1.159 1.159 0 0 0-1.072 1.169z"/>
        </g>
    </g>
</svg>
