<svg width="61" height="60" viewBox="0 0 61 60" fill="none" xmlns="http://www.w3.org/2000/svg">
<path d="M36.746 27.9661L35.36 28.0981C34.8822 26.8219 34.243 25.612 33.458 24.4981L34.31 23.4721C34.5751 23.1605 34.7384 22.7752 34.778 22.3681C34.8069 22.0578 34.7604 21.7452 34.6423 21.4568C34.5243 21.1685 34.3382 20.913 34.1 20.7121L30.674 17.8741C30.2807 17.5513 29.7759 17.3967 29.2692 17.4438C28.7626 17.491 28.295 17.7362 27.968 18.1261L27.074 19.2001C25.8324 18.6304 24.5211 18.2269 23.174 18.0001L23.048 16.6081C22.9994 16.1013 22.7515 15.6345 22.3589 15.3105C21.9662 14.9864 21.4609 14.8316 20.954 14.8801L16.526 15.2941C16.2737 15.3173 16.0285 15.3904 15.8046 15.5092C15.5807 15.628 15.3826 15.79 15.2219 15.9859C15.0611 16.1818 14.9409 16.4077 14.8681 16.6505C14.7954 16.8932 14.7716 17.148 14.798 17.4001L14.93 18.7861C13.6544 19.2653 12.4448 19.9044 11.33 20.6881L10.25 19.8001C9.85658 19.4764 9.35092 19.3219 8.84376 19.3702C8.3366 19.4186 7.86926 19.6659 7.54404 20.0581L4.74804 23.4001C4.48386 23.7058 4.31859 24.0845 4.27404 24.4861C4.24227 24.7989 4.28806 25.1147 4.40736 25.4056C4.52666 25.6966 4.71579 25.9536 4.95804 26.1541L6.03204 27.0421C5.46236 28.2837 5.05889 29.595 4.83204 30.9421L3.44004 31.0801C2.93171 31.1272 2.4629 31.3743 2.13663 31.7669C1.81036 32.1596 1.65333 32.6657 1.70004 33.1741L2.11404 37.6021C2.16417 38.1082 2.41249 38.574 2.8048 38.8978C3.19711 39.2215 3.70156 39.3769 4.20804 39.3301L5.59404 39.2041C6.07282 40.4799 6.71195 41.6896 7.49604 42.8041L6.60804 43.8781C6.28372 44.2708 6.12815 44.776 6.17537 45.2831C6.2226 45.7902 6.46878 46.258 6.86004 46.5841L10.286 49.4161C10.6789 49.7362 11.1802 49.8924 11.6854 49.8521C12.1906 49.8119 12.6608 49.5783 12.998 49.2001L13.886 48.1261C15.1287 48.6929 16.4396 49.0963 17.786 49.3261L17.9 50.6881C17.9487 51.1942 18.1956 51.6605 18.5867 51.9853C18.9779 52.3102 19.4816 52.4672 19.988 52.4221L24.422 52.0081C24.9271 51.9579 25.3919 51.7104 25.7155 51.3194C26.039 50.9285 26.1952 50.4256 26.15 49.9201L26.018 48.5281C27.2948 48.0513 28.5047 47.4121 29.618 46.6261L30.686 47.5141C31.0845 47.827 31.5878 47.9753 32.0923 47.9284C32.5967 47.8816 33.0641 47.6431 33.398 47.2621L36.23 43.8361C36.3921 43.6423 36.5143 43.4183 36.5894 43.1771C36.6645 42.9358 36.6911 42.6821 36.6677 42.4306C36.6442 42.179 36.5713 41.9346 36.4529 41.7114C36.3345 41.4882 36.1731 41.2906 35.978 41.1301L34.904 40.2421C35.47 39.0011 35.8734 37.6923 36.104 36.3481L37.49 36.2161C37.9968 36.1689 38.4641 35.9225 38.7892 35.531C39.1144 35.1394 39.2708 34.6348 39.224 34.1281L38.84 29.7001C38.7914 29.1928 38.5437 28.7255 38.1512 28.4005C37.7588 28.0755 37.2535 27.9193 36.746 27.9661ZM37.394 34.8421L34.922 35.0761L34.844 35.6161C34.6338 37.1842 34.1655 38.7068 33.458 40.1221L33.212 40.6141L35.12 42.1981C35.1747 42.2427 35.22 42.2978 35.2533 42.3601C35.2866 42.4224 35.3072 42.4907 35.3139 42.561C35.3206 42.6313 35.3132 42.7023 35.2923 42.7698C35.2714 42.8372 35.2373 42.8999 35.192 42.9541L32.354 46.3801C32.2629 46.4892 32.1324 46.5579 31.9908 46.5714C31.8493 46.5849 31.7082 46.542 31.598 46.4521L29.684 44.8681L29.252 45.1981C27.998 46.1545 26.5953 46.8984 25.1 47.4001L24.584 47.5741L24.812 50.0461C24.8203 50.1175 24.8143 50.1899 24.7942 50.259C24.7742 50.328 24.7405 50.3924 24.6953 50.4483C24.65 50.5042 24.594 50.5505 24.5306 50.5844C24.4672 50.6184 24.3977 50.6394 24.326 50.6461L19.898 51.0601C19.8266 51.0684 19.7542 51.0623 19.6851 51.0423C19.6161 51.0222 19.5517 50.9886 19.4958 50.9433C19.4399 50.898 19.3936 50.842 19.3597 50.7786C19.3257 50.7152 19.3048 50.6457 19.298 50.5741L19.07 48.1021L18.5 48.0001C16.9319 47.7898 15.4093 47.3215 13.994 46.6141L13.508 46.3681L11.924 48.2761C11.8788 48.331 11.8232 48.3764 11.7604 48.4097C11.6976 48.4431 11.6288 48.4637 11.558 48.4704C11.4872 48.4771 11.4158 48.4697 11.3478 48.4487C11.2799 48.4277 11.2167 48.3935 11.162 48.3481L7.74204 45.5101C7.63946 45.416 7.57766 45.2856 7.56981 45.1466C7.56197 45.0076 7.6087 44.8711 7.70004 44.7661L9.27804 42.8581L8.94804 42.4201C7.98698 41.1514 7.24289 39.7321 6.74604 38.2201L6.57204 37.7041L4.10004 37.9561C4.02892 37.9652 3.95668 37.96 3.88763 37.9406C3.81858 37.9213 3.75414 37.8882 3.69814 37.8434C3.64215 37.7986 3.59575 37.743 3.56171 37.6799C3.52768 37.6168 3.5067 37.5475 3.50004 37.4761L3.08604 33.0421C3.07774 32.9706 3.08379 32.8982 3.10384 32.8292C3.12389 32.7601 3.15754 32.6957 3.20281 32.6398C3.24809 32.5839 3.30407 32.5376 3.36747 32.5037C3.43088 32.4697 3.50043 32.4488 3.57204 32.4421L6.03804 32.2141L6.11604 31.6561C6.33202 30.093 6.8001 28.5753 7.50204 27.1621L7.74804 26.6761L5.84004 25.1041C5.73054 25.0118 5.66164 24.8803 5.64817 24.7378C5.6347 24.5953 5.67775 24.4532 5.76804 24.3421L8.60604 20.9221C8.65125 20.8672 8.70686 20.8217 8.76968 20.7884C8.83249 20.755 8.90128 20.7344 8.97208 20.7277C9.04288 20.7211 9.11431 20.7284 9.18226 20.7494C9.25021 20.7704 9.31335 20.8046 9.36804 20.8501L11.3 22.4281L11.738 22.0981C13.0053 21.1348 14.425 20.3905 15.938 19.8961L16.454 19.7221L16.226 17.2561C16.2177 17.1846 16.2238 17.1122 16.2438 17.0432C16.2639 16.9741 16.2975 16.9097 16.3428 16.8538C16.3881 16.7979 16.4441 16.7516 16.5075 16.7177C16.5709 16.6837 16.6404 16.6628 16.712 16.6561L21.146 16.2421C21.2176 16.2329 21.2903 16.2383 21.3597 16.2581C21.4292 16.2778 21.4939 16.3114 21.5499 16.3568C21.606 16.4022 21.6523 16.4585 21.686 16.5223C21.7197 16.5862 21.7401 16.6561 21.746 16.7281L21.902 19.2001L22.448 19.2781C24.0156 19.4912 25.5377 19.9594 26.954 20.6641L27.446 20.9101L29.03 19.0021C29.1212 18.893 29.2517 18.8242 29.3932 18.8107C29.5348 18.7972 29.6759 18.8401 29.786 18.9301L33.206 21.7681C33.2616 21.8128 33.3077 21.8682 33.3415 21.931C33.3753 21.9939 33.3962 22.0628 33.4029 22.1339C33.4096 22.2049 33.402 22.2766 33.3806 22.3446C33.3591 22.4127 33.3243 22.4757 33.278 22.5301L31.7 24.4441L32.03 24.8821C32.9933 26.1494 33.7376 27.569 34.232 29.0821L34.406 29.5981L36.878 29.3701C36.9495 29.3618 37.0219 29.3678 37.0909 29.3879C37.16 29.4079 37.2244 29.4416 37.2803 29.4868C37.3362 29.5321 37.3825 29.5881 37.4164 29.6515C37.4504 29.7149 37.4713 29.7844 37.478 29.8561L37.892 34.2841C37.8956 34.423 37.8461 34.558 37.7536 34.6617C37.6611 34.7654 37.5325 34.8299 37.394 34.8421Z" fill="#2AB99D"/>
<path d="M26.426 29.1481C26.2876 29.0097 26.0998 28.9319 25.904 28.9319C25.7082 28.9319 25.5205 29.0097 25.382 29.1481C25.2436 29.2865 25.1658 29.4743 25.1658 29.6701C25.1658 29.8659 25.2436 30.0537 25.382 30.1921L28.844 33.6481L25.382 37.1041C25.2787 37.2073 25.2084 37.3388 25.1799 37.482C25.1514 37.6252 25.166 37.7737 25.2219 37.9086C25.2778 38.0435 25.3724 38.1587 25.4938 38.2398C25.6153 38.3209 25.758 38.3642 25.904 38.3641C26.001 38.3645 26.0971 38.3456 26.1867 38.3085C26.2763 38.2714 26.3577 38.2169 26.426 38.1481L30.38 34.2001C30.5244 34.0551 30.6054 33.8587 30.6054 33.6541C30.6054 33.4495 30.5244 33.2532 30.38 33.1081L26.426 29.1481Z" fill="#2AB99D"/>
<path d="M15.578 29.148C15.5095 29.0794 15.4281 29.025 15.3385 28.9879C15.2489 28.9507 15.1529 28.9316 15.056 28.9316C14.959 28.9316 14.863 28.9507 14.7735 28.9879C14.6839 29.025 14.6025 29.0794 14.534 29.148L10.58 33.102C10.4356 33.247 10.3546 33.4433 10.3546 33.648C10.3546 33.8526 10.4356 34.0489 10.58 34.194L14.534 38.148C14.6023 38.2167 14.6837 38.2713 14.7733 38.3083C14.8629 38.3454 14.959 38.3643 15.056 38.364C15.202 38.364 15.3447 38.3208 15.4662 38.2397C15.5876 38.1586 15.6822 38.0433 15.7381 37.9084C15.794 37.7735 15.8086 37.6251 15.7801 37.4819C15.7516 37.3387 15.6813 37.2072 15.578 37.104L12.116 33.648L15.578 30.192C15.6466 30.1234 15.701 30.042 15.7381 29.9525C15.7752 29.8629 15.7943 29.7669 15.7943 29.67C15.7943 29.573 15.7752 29.477 15.7381 29.3874C15.701 29.2979 15.6466 29.2165 15.578 29.148Z" fill="#2AB99D"/>
<path d="M22.73 27.0781C22.5454 27.0149 22.3433 27.0274 22.1679 27.1129C21.9925 27.1983 21.8581 27.3498 21.794 27.5341L17.768 39.2821C17.7106 39.4651 17.7267 39.6633 17.813 39.8347C17.8992 40.0061 18.0488 40.1371 18.23 40.2001C18.3067 40.229 18.3881 40.2432 18.47 40.2421C18.6234 40.2417 18.7728 40.1935 18.8976 40.1043C19.0223 40.015 19.1161 39.8891 19.166 39.7441L23.192 27.9961C23.2494 27.813 23.2333 27.6148 23.1471 27.4434C23.0608 27.2721 22.9112 27.141 22.73 27.0781Z" fill="#2AB99D"/>
<path d="M58.304 19.9381L57.62 19.722C57.6387 18.9426 57.5682 18.1635 57.41 17.4001L58.01 17.082C58.2655 16.9466 58.4745 16.7376 58.61 16.482C58.7161 16.2793 58.7716 16.0539 58.7716 15.8251C58.7716 15.5962 58.7161 15.3708 58.61 15.1681L57.308 12.678C57.1393 12.3599 56.8563 12.1176 56.516 12C56.3387 11.9426 56.1517 11.9216 55.9662 11.9381C55.7806 11.9546 55.6003 12.0083 55.436 12.096L54.8 12.426C54.2556 11.8681 53.652 11.3712 53 10.944L53.216 10.254C53.2725 10.0768 53.2932 9.8901 53.2769 9.70477C53.2607 9.51945 53.2077 9.33921 53.1212 9.17452C53.0347 9.00984 52.9163 8.86399 52.7729 8.74546C52.6295 8.62692 52.464 8.53807 52.286 8.48405L49.61 7.64405C49.4308 7.58461 49.2416 7.5616 49.0534 7.57636C48.8652 7.59112 48.6818 7.64336 48.5141 7.73001C48.3464 7.81666 48.1977 7.93597 48.0768 8.08091C47.9559 8.22586 47.8651 8.39353 47.81 8.57405L47.594 9.26405C46.8206 9.24223 46.0474 9.31069 45.29 9.46805L44.954 8.82605C44.8691 8.66086 44.7522 8.51423 44.61 8.39473C44.4678 8.27522 44.3033 8.18525 44.126 8.13005C43.7673 8.01947 43.3795 8.05394 43.046 8.22605L40.64 9.50405C40.3853 9.64072 40.1766 9.84942 40.04 10.104C39.9307 10.309 39.8736 10.5378 39.8736 10.7701C39.8736 11.0023 39.9307 11.2311 40.04 11.436L40.376 12.078C39.8166 12.6101 39.3194 13.2039 38.894 13.848L38.204 13.632C38.0248 13.5726 37.8356 13.5496 37.6474 13.5644C37.4592 13.5791 37.2758 13.6314 37.1081 13.718C36.9404 13.8047 36.7917 13.924 36.6708 14.0689C36.5499 14.2139 36.4591 14.3815 36.404 14.5621L35.57 17.238C35.5104 17.4168 35.4871 17.6057 35.5015 17.7936C35.5159 17.9815 35.5676 18.1646 35.6537 18.3322C35.7397 18.4999 35.8584 18.6487 36.0027 18.7699C36.1469 18.8911 36.314 18.9822 36.494 19.038L37.184 19.2541C37.1637 20.0276 37.2342 20.8009 37.394 21.5581L36.752 21.8941C36.4193 22.069 36.1694 22.3686 36.057 22.7272C35.9446 23.0859 35.9787 23.4745 36.152 23.8081L37.454 26.292C37.6356 26.618 37.9353 26.8619 38.2914 26.9735C38.6474 27.0851 39.0327 27.056 39.368 26.892L40.004 26.556C40.5457 27.1168 41.1496 27.6141 41.804 28.038L41.588 28.7281C41.5294 28.9073 41.507 29.0963 41.5221 29.2842C41.5373 29.4722 41.5897 29.6552 41.6762 29.8227C41.7627 29.9902 41.8817 30.1388 42.0262 30.2599C42.1708 30.381 42.3379 30.4722 42.518 30.5281L45.194 31.3621C45.3313 31.4078 45.4753 31.4301 45.62 31.4281C45.9208 31.427 46.2135 31.3307 46.4561 31.1528C46.6987 30.9749 46.8786 30.7246 46.97 30.438L47.186 29.7481C47.9591 29.7641 48.7317 29.6957 49.49 29.5441L49.82 30.18C50.0038 30.5053 50.3046 30.7484 50.6613 30.8599C51.0179 30.9713 51.4036 30.9428 51.74 30.7801L54.224 29.4781C54.3892 29.3932 54.5358 29.2763 54.6553 29.1341C54.7748 28.9919 54.8648 28.8274 54.92 28.6501C55.0296 28.2893 54.9952 27.9 54.824 27.564L54.488 26.9281C55.0488 26.3863 55.546 25.7824 55.97 25.1281L56.66 25.3441C56.8372 25.4006 57.0239 25.4213 57.2092 25.405C57.3946 25.3887 57.5748 25.3358 57.7395 25.2493C57.9042 25.1627 58.05 25.0443 58.1686 24.901C58.2871 24.7576 58.3759 24.5921 58.43 24.414L59.27 21.738C59.3287 21.5565 59.3502 21.365 59.3331 21.175C59.3161 20.9849 59.2607 20.8003 59.1705 20.6322C59.0803 20.4641 58.957 20.3159 58.8081 20.1967C58.6592 20.0774 58.4877 19.9894 58.304 19.9381ZM53.234 26.25L52.844 26.58L53.648 28.1161C53.6554 28.131 53.6592 28.1474 53.6592 28.164C53.6592 28.1807 53.6554 28.1971 53.648 28.2121C53.6447 28.2304 53.6369 28.2476 53.6254 28.2623C53.6139 28.2769 53.599 28.2885 53.582 28.2961L51.104 29.5921C51.0721 29.6093 51.0347 29.6133 50.9999 29.6032C50.9651 29.5931 50.9357 29.5697 50.918 29.538L50.12 28.0081L49.628 28.1341C48.6826 28.378 47.7036 28.4652 46.73 28.392L46.22 28.356L45.71 30C45.6982 30.0332 45.6748 30.061 45.644 30.0781C45.628 30.0855 45.6106 30.0894 45.593 30.0894C45.5753 30.0894 45.5579 30.0855 45.542 30.0781L42.866 29.2441C42.8488 29.2393 42.8328 29.2311 42.8189 29.2199C42.805 29.2088 42.7935 29.1949 42.7851 29.1793C42.7767 29.1636 42.7716 29.1463 42.77 29.1286C42.7684 29.1109 42.7704 29.093 42.776 29.076L43.292 27.4261L42.854 27.168C42.0125 26.6729 41.2584 26.0424 40.622 25.302L40.292 24.9121L38.762 25.7161C38.7301 25.7333 38.6927 25.7373 38.6579 25.7272C38.6231 25.7171 38.5937 25.6937 38.576 25.6621L37.28 23.1901C37.2716 23.1747 37.2663 23.1579 37.2645 23.1405C37.2627 23.1231 37.2643 23.1055 37.2693 23.0888C37.2743 23.072 37.2827 23.0564 37.2937 23.0429C37.3048 23.0294 37.3185 23.0182 37.334 23.01L38.864 22.2001L38.738 21.7081C38.4938 20.7627 38.4066 19.7837 38.48 18.8101L38.516 18.3L36.866 17.784C36.8496 17.7793 36.8343 17.7713 36.8211 17.7604C36.8079 17.7496 36.7971 17.7362 36.7892 17.7211C36.7814 17.7059 36.7767 17.6893 36.7754 17.6723C36.7742 17.6553 36.7764 17.6382 36.782 17.6221L37.622 14.94C37.6274 14.9234 37.636 14.9081 37.6475 14.8948C37.6589 14.8816 37.6728 14.8708 37.6884 14.863C37.704 14.8551 37.7211 14.8505 37.7385 14.8493C37.7559 14.8481 37.7734 14.8504 37.79 14.8561L39.434 15.3721L39.698 14.9221C40.1931 14.0858 40.8213 13.336 41.558 12.702L41.942 12.3661L41.144 10.836C41.1356 10.8207 41.1303 10.8039 41.1285 10.7865C41.1267 10.7691 41.1283 10.7515 41.1333 10.7348C41.1383 10.718 41.1467 10.7024 41.1577 10.6889C41.1688 10.6754 41.1825 10.6642 41.198 10.656L43.7 9.36005C43.7328 9.34482 43.7702 9.34254 43.8047 9.35366C43.8392 9.36478 43.8682 9.38849 43.886 9.42005L44.684 10.95L45.182 10.8181C46.1253 10.5739 47.1023 10.4867 48.074 10.5601L48.584 10.602L49.1 8.95205C49.111 8.91832 49.1346 8.89015 49.1659 8.87339C49.1972 8.85663 49.2338 8.85257 49.268 8.86205L51.944 9.70205C51.9777 9.71311 52.0059 9.73673 52.0226 9.76802C52.0394 9.7993 52.0434 9.83585 52.034 9.87005L51.5 11.5201L51.938 11.778C52.779 12.2714 53.533 12.8998 54.17 13.638L54.5 14.028L56.036 13.2C56.0669 13.1886 56.101 13.1886 56.132 13.2C56.1489 13.205 56.1645 13.2134 56.178 13.2248C56.1914 13.2362 56.2023 13.2502 56.21 13.2661L57.5 15.7681C57.5119 15.801 57.5119 15.8371 57.5 15.8701C57.494 15.8873 57.4845 15.9032 57.4721 15.9166C57.4598 15.93 57.4447 15.9407 57.428 15.948L55.898 16.7521L56.03 17.2441C56.2782 18.1867 56.3694 19.1638 56.3 20.1361L56.264 20.6461L57.914 21.1621C57.9462 21.1754 57.9734 21.1985 57.992 21.2281C58.0039 21.261 58.0039 21.2971 57.992 21.33L57.17 24C57.1659 24.017 57.1583 24.0329 57.1478 24.0467C57.1372 24.0606 57.1239 24.0721 57.1087 24.0806C57.0935 24.089 57.0767 24.0942 57.0593 24.0959C57.042 24.0975 57.0245 24.0955 57.008 24.0901L55.358 23.5741L55.1 24C54.6068 24.8482 53.9762 25.6085 53.234 26.25Z" fill="#D0DAE5"/>
<path d="M50.9 16.962C50.8039 16.87 50.676 16.8186 50.543 16.8186C50.41 16.8186 50.2821 16.87 50.186 16.962C50.095 17.0576 50.0435 17.1841 50.042 17.316C50.0415 17.3816 50.054 17.4466 50.0787 17.5074C50.1034 17.5681 50.1399 17.6234 50.186 17.67L51.986 19.47L50.186 21.27C50.095 21.3656 50.0435 21.4921 50.042 21.624C50.04 21.7243 50.0683 21.8229 50.1233 21.9068C50.1782 21.9908 50.2572 22.0561 50.35 22.0944C50.4427 22.1327 50.5448 22.142 50.643 22.1213C50.7411 22.1005 50.8307 22.0506 50.9 21.978L53.048 19.836C53.1439 19.7359 53.1976 19.6027 53.198 19.464C53.1983 19.3962 53.1852 19.3289 53.1595 19.2661C53.1337 19.2033 53.0958 19.1462 53.048 19.098L50.9 16.962Z" fill="#D0DAE5"/>
<path d="M44.738 17.316C44.7377 17.25 44.7243 17.1847 44.6985 17.1239C44.6728 17.0631 44.6352 17.0081 44.588 16.962C44.4929 16.8703 44.366 16.8191 44.234 16.8191C44.1019 16.8191 43.975 16.8703 43.88 16.962L41.732 19.11C41.6341 19.2078 41.5792 19.3406 41.5792 19.479C41.5792 19.6174 41.6341 19.7501 41.732 19.848L43.88 21.99C43.9261 22.0372 43.9811 22.0747 44.0419 22.1005C44.1027 22.1263 44.168 22.1397 44.234 22.14C44.3 22.14 44.3654 22.1267 44.4262 22.101C44.4871 22.0752 44.5421 22.0374 44.588 21.99C44.636 21.9445 44.6742 21.8896 44.7 21.8286C44.7258 21.7677 44.7387 21.7021 44.738 21.636C44.7377 21.57 44.7243 21.5047 44.6985 21.4439C44.6728 21.3831 44.6352 21.3281 44.588 21.282L42.788 19.482L44.588 17.682C44.6375 17.6351 44.6766 17.5782 44.7024 17.5151C44.7283 17.452 44.7404 17.3841 44.738 17.316Z" fill="#D0DAE5"/>
<path d="M48.65 15.8101C48.5264 15.7625 48.3896 15.7625 48.266 15.8101C48.2063 15.8395 48.1532 15.8808 48.1098 15.9313C48.0665 15.9818 48.0339 16.0406 48.014 16.1041L45.824 22.5001C45.7758 22.6236 45.7758 22.7607 45.824 22.8841C45.8521 22.9454 45.8929 23 45.9435 23.0444C45.9942 23.0889 46.0536 23.1222 46.118 23.1421C46.1716 23.1517 46.2264 23.1517 46.28 23.1421C46.3842 23.1428 46.486 23.1107 46.5711 23.0504C46.6561 22.9901 46.7201 22.9047 46.754 22.8061L48.938 16.4281C48.9648 16.3677 48.9786 16.3023 48.9786 16.2361C48.9786 16.17 48.9648 16.1046 48.938 16.0441C48.8748 15.9327 48.772 15.8492 48.65 15.8101Z" fill="#D0DAE5"/>
</svg>
