<svg width="152" height="113" viewBox="0 0 152 113" fill="none" xmlns="http://www.w3.org/2000/svg">
<path d="M45.3757 104.567C45.315 104.733 45.2011 104.866 45.0645 104.9C44.089 105.807 42.7187 106.661 41.1131 107.317C40.259 107.662 39.3367 107.962 38.3726 108.197C37.4198 108.417 36.4291 108.576 35.4271 108.667C34.4971 108.732 33.4533 108.728 32.3715 108.637C31.8363 108.584 31.2897 108.508 30.7431 108.417C30.1927 108.326 29.6424 108.216 29.1072 108.072C28.572 107.931 28.0406 107.776 27.5243 107.605C27.0081 107.434 26.5223 107.23 26.0516 107.021C25.5847 106.808 25.1368 106.592 24.7307 106.357C24.3283 106.118 23.9563 105.868 23.6299 105.61C24.4118 105.261 25.319 104.972 26.3097 104.722C27.308 104.46 28.386 104.24 29.4867 104.054C30.5951 103.865 31.749 103.686 32.8763 103.554C34.0151 103.406 35.15 103.281 36.228 103.197C37.0972 103.114 37.9892 103.091 38.8622 103.11C39.7466 103.106 40.6083 103.159 41.413 103.231C41.9975 103.273 42.5479 103.337 43.0565 103.421C42.7035 103.045 42.3467 102.624 42.0013 102.173C41.5268 101.528 41.0827 100.807 40.6918 100.071C40.3122 99.3126 39.9971 98.5274 39.7656 97.7573C39.4885 96.7672 39.2722 95.7392 39.1393 94.7036C39.0178 93.6528 38.9571 92.621 38.9875 91.6044C39.0216 90.5839 39.1317 89.6052 39.3063 88.6986C39.4923 87.7806 39.7466 86.9346 40.0541 86.1911C40.2515 86.3808 40.445 86.6008 40.631 86.8587C40.8208 87.1091 41.0144 87.3822 41.1966 87.6819C41.3826 87.9816 41.5534 88.3192 41.7356 88.6531C41.9178 88.9907 42.0924 89.3473 42.2632 89.7228C42.4264 90.0946 42.5934 90.4777 42.7642 90.8684C42.9275 91.2591 43.0831 91.6575 43.2273 92.0634C43.5272 92.8562 43.7967 93.6604 44.0054 94.4418C44.237 95.246 44.4457 96.0996 44.6279 96.9759C44.8177 97.837 44.9885 98.7094 45.1214 99.5819C45.3757 101.206 45.5199 102.765 45.4326 104.111C45.4858 104.236 45.4592 104.411 45.3719 104.563L45.3757 104.567ZM28.3214 98.6601C30.0105 98.4515 31.4833 98.0456 32.6372 97.4463C32.7663 97.4463 32.8991 97.3552 32.9902 97.2186C33.1041 97.101 33.1648 96.9493 33.1344 96.8279C33.4609 95.595 33.6431 94.0587 33.6924 92.4882C33.7304 91.6499 33.7418 90.7888 33.7228 89.9466C33.7 89.1045 33.681 88.2472 33.6089 87.4467C33.5406 86.6918 33.4609 85.8611 33.3166 85.0645C33.18 84.2603 33.032 83.4333 32.8308 82.6784C32.66 81.8969 32.4322 81.1838 32.1969 80.5389C31.9691 79.8864 31.6807 79.3477 31.3884 78.9039C30.9595 79.5488 30.5837 80.2885 30.2573 81.1117C29.9346 81.9311 29.6386 82.8491 29.445 83.7861C29.0312 85.679 28.8908 87.7692 29.073 89.7152C29.1451 90.4891 29.2856 91.2971 29.5133 92.0672C29.7335 92.841 30.0068 93.6073 30.3408 94.2901C30.5571 94.7605 30.7925 95.1929 31.0354 95.5913C30.6065 95.4054 30.1434 95.2233 29.6575 95.0412C28.9212 94.787 28.143 94.5215 27.3346 94.2977C26.5185 94.0815 25.6986 93.8728 24.8825 93.7287C22.829 93.3721 20.5933 93.0497 18.4487 92.8524C17.3669 92.7651 16.3383 92.6817 15.3514 92.6741C14.3683 92.6627 13.4459 92.7082 12.645 92.8183C13.1119 93.4442 13.78 94.0587 14.5239 94.6694C15.2793 95.2764 16.1637 95.8378 17.0747 96.3575C18.0122 96.8545 18.9725 97.3135 19.9442 97.6625C20.9235 98.0077 21.8573 98.2922 22.7493 98.4439C23.6944 98.607 24.632 98.7284 25.5809 98.755C26.5261 98.7815 27.4484 98.7512 28.3252 98.6563L28.3214 98.6601ZM15.3666 86.6198C16.232 86.8891 17.0709 87.1129 17.9211 87.2381C18.76 87.3709 19.5685 87.4429 20.32 87.4429C21.0222 87.4429 21.6827 87.3747 22.2672 87.2533C22.3773 87.2836 22.5102 87.2343 22.6164 87.1357C22.7379 87.056 22.8176 86.9422 22.8176 86.8284C23.0795 86.2935 23.3111 85.6942 23.5312 85.0379C23.7666 84.3323 23.9753 83.5774 24.1537 82.8036C24.3245 82.0335 24.5105 81.2179 24.6434 80.4251C24.7724 79.6323 24.9015 78.828 24.9926 78.0542C25.0343 77.69 25.0609 77.3145 25.0913 76.9313C25.1216 76.5444 25.1444 76.1499 25.152 75.7554C25.1634 74.9739 25.1748 74.1697 25.133 73.4148C25.0571 71.8974 24.8711 70.5128 24.4574 69.5758C23.9563 70.0993 23.4705 70.729 23.015 71.446C22.5519 72.1668 22.161 72.9558 21.7928 73.8169C21.0678 75.5278 20.5781 77.4662 20.3883 79.3364C20.2365 80.8234 20.3883 82.4508 20.7338 83.8695C20.8324 84.3096 20.9615 84.7231 21.0982 85.1062C20.7717 84.8558 20.4225 84.5979 20.0581 84.3323C18.8435 83.4864 17.4163 82.6139 15.9853 81.9349C14.1937 81.0851 12.2009 80.2392 10.2803 79.5109C9.32756 79.1467 8.35585 78.8318 7.46764 78.5625C6.57564 78.297 5.71781 78.0959 4.94348 77.9973C5.51663 79.3402 6.69331 80.9069 8.14329 82.2839C8.87207 82.9743 9.6426 83.6267 10.4549 84.1882C10.8534 84.4689 11.2558 84.7344 11.6506 84.9734C12.0491 85.2124 12.4552 85.421 12.8386 85.6107C13.6585 86.009 14.5012 86.3542 15.3666 86.6198ZM6.23782 70.8504C6.87171 71.4308 7.58911 71.9581 8.29891 72.4361C8.65951 72.6751 9.01251 72.9027 9.3807 73.1075C9.74889 73.3124 10.1209 73.5058 10.4853 73.6803C11.92 74.3745 13.3472 74.7804 14.5429 74.8791C14.6302 74.9208 14.7403 74.9056 14.8466 74.8449C14.9604 74.8032 15.0477 74.7311 15.0743 74.6401C15.7993 73.6879 16.4635 72.4209 17.0936 71.0401C17.2493 70.6911 17.4011 70.3383 17.5453 69.9817C17.6896 69.6252 17.8452 69.2572 17.9818 68.8968C18.2665 68.1685 18.4981 67.4477 18.7372 66.7346C19.1623 65.3917 19.5001 63.8326 19.7127 62.3835C19.8228 61.6551 19.8683 60.9609 19.9025 60.3199C19.9291 59.6788 19.8683 59.106 19.7772 58.6204C19.2117 59.0263 18.6537 59.5384 18.1147 60.134C17.5795 60.7295 17.0253 61.4162 16.5584 62.1559C16.084 62.8956 15.6171 63.7074 15.2413 64.5419C15.0515 64.9592 14.8731 65.3841 14.7099 65.8165C14.5429 66.2452 14.3911 66.6814 14.2734 67.1101C14.0798 67.7929 13.9204 68.5327 13.8407 69.2648C13.7686 69.9969 13.7344 70.7366 13.7572 71.4346C13.7762 71.8064 13.8103 72.163 13.8521 72.5044C13.6471 72.2275 13.4194 71.9467 13.1764 71.6584C12.7323 71.1122 12.2427 70.5508 11.7037 70.0045C11.1723 69.4545 10.6295 68.912 10.0487 68.4226C9.69195 68.1192 9.32376 67.8081 8.94419 67.4857C8.56841 67.1708 8.18504 66.8597 7.79028 66.5487C7.00077 65.9303 6.22644 65.3082 5.42174 64.7316C4.61325 64.155 3.85789 63.605 3.08736 63.1308C2.32442 62.6566 1.58804 62.2507 0.9124 61.9472C0.99211 62.6225 1.23883 63.3812 1.55008 64.1778C1.85374 64.9782 2.29405 65.8052 2.77611 66.617C3.74782 68.2406 5.008 69.7655 6.23403 70.8504H6.23782ZM3.32649 55.0204C3.78198 55.7146 4.26783 56.3899 4.79544 57.0158C5.33823 57.6417 5.9 58.2259 6.46936 58.7456C7.62327 59.785 8.83031 60.5588 9.88933 60.9799C9.90451 60.9875 9.92349 60.9913 9.93867 60.9951C10.0032 61.033 10.0867 61.0406 10.174 61.0178C10.2651 61.0065 10.341 60.9685 10.3828 60.9116C10.398 60.9002 10.4093 60.8927 10.4245 60.8813C11.29 60.1074 12.1516 59.0187 12.9867 57.8238C13.4118 57.2244 13.8179 56.5985 14.1975 55.965C14.5922 55.3315 14.968 54.6904 15.2983 54.0607C15.9397 52.8695 16.5319 51.4546 16.9912 50.1155C17.1961 49.4441 17.4201 48.7916 17.5453 48.1884C17.6099 47.885 17.6554 47.5967 17.6858 47.3197C17.7086 47.0466 17.7199 46.7849 17.7237 46.5459C17.1202 46.838 16.5319 47.2325 15.9246 47.7067C15.321 48.1846 14.7099 48.7423 14.1178 49.3682C13.537 49.9903 12.998 50.6807 12.478 51.4053C11.9656 52.1298 11.5253 52.8923 11.1191 53.6624C10.5042 54.8839 10.0563 56.3178 9.86276 57.6303C9.81721 57.911 9.78305 58.1879 9.75648 58.4535C9.66158 58.2031 9.5553 57.949 9.44143 57.6834C8.88725 56.4619 8.20402 55.1115 7.40312 53.9127C6.92106 53.1578 6.36688 52.3878 5.8165 51.6177C5.27371 50.8476 4.68916 50.0776 4.10841 49.3454C3.54664 48.6095 2.9659 47.9077 2.38894 47.2742C1.81579 46.6407 1.22745 46.0755 0.696042 45.6203C0.650493 45.9313 0.639106 46.2727 0.654289 46.6369C0.665676 47.0011 0.696042 47.3842 0.745387 47.7825C0.847872 48.5792 0.988314 49.4365 1.25022 50.29C1.73228 52.0008 2.49902 53.7117 3.33408 55.0242L3.32649 55.0204ZM4.19572 39.0349C4.39689 39.786 4.70814 40.5371 5.02319 41.254C5.34583 41.971 5.69124 42.6576 6.07461 43.2873C6.87551 44.5543 7.74853 45.6013 8.59498 46.2803C8.64432 46.3221 8.70126 46.3524 8.7582 46.3714C8.79236 46.3866 8.83411 46.3979 8.87966 46.3979C8.92521 46.4017 8.97076 46.3979 9.00492 46.3828C9.06565 46.3676 9.12259 46.3448 9.17952 46.3069C10.1171 45.7189 11.1305 44.8426 12.0947 43.8525C12.5919 43.3594 13.0967 42.8397 13.5674 42.3048C14.0457 41.7737 14.4708 41.2275 14.9187 40.6964C15.3286 40.1919 15.731 39.6266 16.103 39.0425C16.4787 38.4583 16.8773 37.8589 17.1961 37.2633C17.3593 36.9674 17.5074 36.6716 17.644 36.3795C17.7959 36.0912 17.9287 35.8104 18.0464 35.5373C18.2779 34.9911 18.4373 34.4752 18.5019 34.0199C17.9135 34.2058 17.2834 34.4827 16.6344 34.8355C16.3079 35.0138 15.9777 35.2073 15.6475 35.4235C15.4805 35.5297 15.3134 35.6397 15.1464 35.7573C14.9832 35.8749 14.8238 35.9963 14.6644 36.1215C14.0267 36.6222 13.389 37.1799 12.7779 37.7792C12.1706 38.3786 11.6392 39.0273 11.1267 39.6873C10.9256 39.9491 10.732 40.226 10.5422 40.5067C10.36 40.7912 10.2044 41.0871 10.045 41.3868C9.7337 41.9862 9.4642 42.6007 9.23646 43.1963C9.17952 43.3594 9.12638 43.5225 9.07704 43.6818C9.05426 43.5149 9.03149 43.3442 9.00492 43.1735C8.929 42.5438 8.81134 41.8799 8.65571 41.2047C8.5798 40.8671 8.4849 40.5257 8.4014 40.1919C8.31789 39.858 8.22679 39.5242 8.1281 39.198C7.88138 38.3824 7.56254 37.5251 7.26267 36.6753C6.96661 35.8256 6.64397 34.9721 6.29476 34.1413C6.12395 33.7354 5.95314 33.3295 5.78234 32.9274C5.61153 32.5329 5.44072 32.1498 5.26232 31.7818C4.90552 31.0459 4.53354 30.3744 4.15017 29.8016C3.9414 30.3441 3.77818 31.0193 3.66431 31.7628C3.60738 32.1346 3.56183 32.5253 3.52387 32.9274C3.50489 33.3333 3.4973 33.7506 3.50489 34.1679C3.52007 35.01 3.55424 35.8673 3.68329 36.6943C3.81614 37.5251 3.98695 38.3179 4.19192 39.0273L4.19572 39.0349ZM9.33135 28.1515C9.71093 29.5361 10.212 30.7424 10.7851 31.6149C10.8572 31.7211 10.9597 31.797 11.0508 31.8235C11.1457 31.8539 11.271 31.8463 11.3886 31.7932C12.3717 31.3911 13.4725 30.7272 14.5467 29.9534C15.1009 29.5702 15.6627 29.1643 16.1978 28.7433C16.733 28.3222 17.2379 27.8784 17.7465 27.4535C19.5761 25.7806 21.7093 23.4097 22.2862 21.752C21.7017 21.843 21.064 22.0099 20.3921 22.2451C19.7241 22.4841 19.0029 22.7762 18.3273 23.1555C17.6402 23.5273 16.9418 23.9559 16.2624 24.4225C15.6019 24.9005 14.9794 25.4202 14.3835 25.9551C14.1519 26.1675 13.9128 26.3951 13.6965 26.6303C13.4839 26.8693 13.2789 27.1197 13.0777 27.3738C12.6792 27.8822 12.3148 28.4132 11.996 28.9291C11.9808 28.9557 11.9656 28.9822 11.9504 29.0126C11.9542 28.9822 11.958 28.9519 11.9618 28.9178C12.0567 28.326 12.1288 27.6849 12.1706 27.0286C12.1895 26.6986 12.2009 26.3686 12.2047 26.0347C12.2123 25.7047 12.2237 25.3785 12.2161 25.0522C12.2047 24.2367 12.1554 23.3793 12.0984 22.5144C12.0605 21.6571 11.9922 20.7884 11.8973 19.9387C11.791 19.0814 11.7151 18.2696 11.586 17.4995C11.4608 16.7294 11.3051 16.0087 11.1116 15.379C9.79823 17.0898 8.71265 20.8984 8.77338 23.7397C8.7582 24.4832 8.83031 25.2495 8.92521 25.9968C9.0239 26.7441 9.15295 27.4687 9.32376 28.1553L9.33135 28.1515ZM16.6306 18.1027C16.7103 18.1634 16.8545 18.1823 16.995 18.1482C17.9894 17.9206 19.1168 17.4578 20.2783 16.9077C20.8704 16.6384 21.4587 16.3425 22.0319 16.0239C22.3204 15.8607 22.6013 15.6976 22.8821 15.5421C23.1668 15.3828 23.4477 15.2197 23.721 15.0565C24.2372 14.7455 24.7534 14.3775 25.2697 13.9906C25.8011 13.615 26.3173 13.2091 26.788 12.7918C27.251 12.367 27.7103 11.9725 28.0861 11.5666C28.4619 11.1645 28.7655 10.7699 28.9705 10.402C28.4012 10.4096 27.7673 10.4779 27.0954 10.6068C26.4274 10.7396 25.6872 10.9065 24.985 11.1683C24.2714 11.4186 23.5426 11.7221 22.8252 12.0559C22.1192 12.4011 21.4436 12.7994 20.7983 13.2091C20.5402 13.3722 20.2859 13.5505 20.0353 13.7326C19.7962 13.9261 19.5571 14.1271 19.3293 14.332C19.0029 14.6241 18.6954 14.9276 18.4032 15.231C18.574 14.8479 18.7372 14.4458 18.8852 14.0285C18.9915 13.7326 19.0902 13.4329 19.1813 13.1295C19.2838 12.8336 19.3787 12.5339 19.4622 12.238C19.6747 11.4907 19.8569 10.6903 20.0429 9.88608C20.2403 9.09325 20.4149 8.27766 20.5592 7.47345C20.6958 6.65786 20.8514 5.89917 20.9425 5.15186C21.0374 4.41214 21.0944 3.70656 21.0944 3.07306C20.7034 3.37274 20.2821 3.79002 19.8569 4.29075C19.4356 4.79149 18.9953 5.3605 18.6233 6.00539C18.24 6.64268 17.8794 7.31792 17.5605 7.99315C17.2531 8.67597 17.0101 9.37017 16.8166 10.0113C16.7141 10.3527 16.6192 10.6979 16.5357 11.0469C16.4484 11.3921 16.3914 11.7562 16.3307 12.1128C16.2168 12.826 16.1371 13.5316 16.0954 14.2068C16.0308 15.5724 16.1599 16.8394 16.418 17.803C16.456 17.9433 16.5433 18.0571 16.6344 18.0951L16.6306 18.1027ZM23.8387 7.84141C24.3777 7.7921 25.1786 7.49621 26.063 7.05996C26.5109 6.85512 26.9778 6.61234 27.4446 6.33541C27.6762 6.19885 27.9077 6.05091 28.1355 5.89917C28.367 5.75881 28.5947 5.60708 28.8149 5.45534C29.3691 5.06841 29.9346 4.62457 30.5002 4.18074C31.0696 3.75208 31.6389 3.29308 32.1817 2.82269C32.7245 2.34092 33.2521 1.90468 33.7266 1.44188C34.2048 0.986665 34.6338 0.531453 34.9868 0.0876204C34.5578 0.0572729 34.0454 0.0952073 33.4874 0.18625C32.9295 0.281086 32.3184 0.410063 31.711 0.633876C31.0999 0.842515 30.485 1.09288 29.8967 1.3698C29.3121 1.6581 28.7655 1.98813 28.2759 2.31437C28.0178 2.48887 27.7635 2.67095 27.513 2.85683C27.2624 3.04271 27.0233 3.25894 26.7842 3.46758C26.3135 3.88865 25.8694 4.32489 25.467 4.76493C24.6699 5.66398 24.0588 6.60854 23.702 7.42793C23.6185 7.62518 23.6603 7.86038 23.8273 7.8452L23.8387 7.84141ZM106.595 104.567C106.656 104.733 106.77 104.866 106.906 104.9C107.882 105.807 109.252 106.661 110.858 107.317C111.712 107.662 112.634 107.962 113.594 108.197C114.547 108.417 115.541 108.576 116.54 108.667C117.47 108.732 118.514 108.728 119.592 108.637C120.127 108.584 120.673 108.508 121.22 108.417C121.77 108.326 122.321 108.216 122.856 108.072C123.391 107.931 123.922 107.776 124.439 107.605C124.955 107.434 125.441 107.23 125.911 107.021C126.378 106.808 126.826 106.592 127.232 106.357C127.635 106.118 128.007 105.868 128.333 105.61C127.551 105.261 126.644 104.972 125.653 104.722C124.655 104.46 123.577 104.24 122.476 104.054C121.368 103.865 120.214 103.686 119.087 103.554C117.948 103.406 116.813 103.281 115.735 103.197C114.866 103.114 113.974 103.091 113.101 103.11C112.213 103.106 111.355 103.159 110.55 103.231C109.966 103.273 109.415 103.337 108.907 103.421C109.26 103.045 109.616 102.624 109.962 102.173C110.436 101.528 110.88 100.807 111.271 100.071C111.651 99.3126 111.966 98.5274 112.197 97.7573C112.475 96.7672 112.691 95.7392 112.824 94.7036C112.945 93.6528 113.006 92.621 112.976 91.6044C112.941 90.5839 112.831 89.6052 112.657 88.6986C112.471 87.7806 112.216 86.9346 111.905 86.1911C111.708 86.3808 111.514 86.6008 111.328 86.8587C111.138 87.1091 110.945 87.3822 110.763 87.6819C110.577 87.9816 110.406 88.3192 110.224 88.6531C110.041 88.9907 109.867 89.3473 109.7 89.7228C109.537 90.0946 109.37 90.4777 109.199 90.8684C109.036 91.2591 108.88 91.6575 108.736 92.0634C108.436 92.8562 108.166 93.6604 107.961 94.4418C107.73 95.246 107.521 96.0996 107.339 96.9759C107.149 97.837 106.978 98.7094 106.845 99.5819C106.591 101.206 106.447 102.765 106.534 104.111C106.481 104.236 106.508 104.411 106.595 104.563V104.567ZM126.394 98.7626C127.342 98.736 128.28 98.6146 129.225 98.4515C130.121 98.2998 131.055 98.0115 132.03 97.6701C133.002 97.3211 133.962 96.8621 134.9 96.3651C135.807 95.8454 136.695 95.284 137.447 94.677C138.194 94.0625 138.859 93.448 139.326 92.8258C138.525 92.712 137.602 92.6665 136.619 92.6817C135.632 92.6931 134.607 92.7727 133.522 92.86C131.377 93.0572 129.142 93.3759 127.088 93.7363C126.272 93.8804 125.452 94.0891 124.636 94.3053C123.828 94.5291 123.049 94.7908 122.313 95.0488C121.823 95.2309 121.364 95.413 120.935 95.5988C121.178 95.2043 121.413 94.7681 121.63 94.2977C121.964 93.6149 122.237 92.8486 122.457 92.0747C122.685 91.3085 122.829 90.5005 122.898 89.7228C123.08 87.7768 122.939 85.6866 122.526 83.7937C122.332 82.8567 122.036 81.9387 121.713 81.1193C121.387 80.2961 121.011 79.5564 120.582 78.9115C120.29 79.3553 120.001 79.894 119.774 80.5465C119.538 81.1914 119.311 81.9045 119.14 82.686C118.939 83.4409 118.791 84.264 118.654 85.072C118.51 85.8725 118.43 86.7032 118.362 87.4543C118.293 88.2547 118.271 89.1121 118.248 89.9542C118.229 90.7963 118.24 91.6575 118.278 92.4958C118.328 94.0625 118.514 95.6026 118.836 96.8355C118.806 96.9569 118.867 97.1086 118.977 97.2262C119.068 97.3628 119.201 97.4538 119.33 97.4538C120.484 98.0532 121.956 98.4591 123.645 98.6677C124.522 98.7626 125.445 98.7967 126.39 98.7664L126.394 98.7626ZM139.136 85.6107C139.523 85.4248 139.925 85.2124 140.324 84.9734C140.719 84.7306 141.121 84.4689 141.52 84.1882C142.332 83.6305 143.102 82.9743 143.827 82.2839C145.277 80.9031 146.454 79.3364 147.027 77.9973C146.249 78.0997 145.395 78.297 144.503 78.5625C143.615 78.8318 142.647 79.1467 141.69 79.5109C139.77 80.2392 137.777 81.0851 135.985 81.9349C134.554 82.6139 133.127 83.4864 131.913 84.3323C131.548 84.5979 131.199 84.8558 130.872 85.1062C131.013 84.7193 131.138 84.3096 131.237 83.8695C131.586 82.4508 131.734 80.8234 131.582 79.3364C131.392 77.4662 130.907 75.5278 130.178 73.8169C129.81 72.9558 129.419 72.1668 128.956 71.446C128.5 70.729 128.014 70.0955 127.513 69.5758C127.1 70.5128 126.914 71.8974 126.838 73.4148C126.796 74.1735 126.807 74.9739 126.819 75.7554C126.83 76.1499 126.849 76.5444 126.883 76.9313C126.91 77.3183 126.936 77.69 126.982 78.0542C127.073 78.828 127.202 79.6285 127.331 80.4251C127.464 81.2179 127.65 82.0373 127.821 82.8036C128.003 83.5774 128.208 84.3323 128.447 85.0379C128.663 85.6942 128.895 86.2897 129.161 86.8284C129.161 86.9422 129.24 87.056 129.362 87.1357C129.468 87.2343 129.601 87.2836 129.711 87.2533C130.299 87.3709 130.956 87.4429 131.658 87.4429C132.41 87.4429 133.214 87.3709 134.057 87.2381C134.907 87.1091 135.746 86.8853 136.612 86.6198C137.481 86.3542 138.324 86.0052 139.14 85.6107H139.136ZM149.195 66.6208C149.677 65.809 150.117 64.982 150.421 64.1816C150.732 63.3812 150.979 62.6225 151.058 61.951C150.386 62.2545 149.65 62.6604 148.883 63.1346C148.117 63.6088 147.357 64.1588 146.549 64.7354C145.744 65.312 144.97 65.9304 144.18 66.5525C143.786 66.8635 143.402 67.1746 143.026 67.4894C142.651 67.8081 142.282 68.123 141.922 68.4264C141.341 68.9158 140.802 69.462 140.267 70.0083C139.728 70.5546 139.238 71.1198 138.794 71.6622C138.551 71.9505 138.324 72.235 138.119 72.5082C138.16 72.1668 138.194 71.8064 138.213 71.4384C138.236 70.7404 138.206 70.0007 138.13 69.2686C138.05 68.5364 137.891 67.7967 137.697 67.1139C137.576 66.6852 137.428 66.2528 137.261 65.8203C137.094 65.3917 136.919 64.963 136.729 64.5457C136.354 63.7112 135.883 62.8994 135.412 62.1597C134.941 61.4199 134.387 60.7295 133.856 60.1378C133.317 59.5422 132.759 59.0339 132.193 58.6242C132.102 59.1135 132.042 59.6863 132.068 60.3236C132.102 60.9647 132.148 61.6589 132.258 62.3873C132.47 63.8364 132.808 65.3955 133.233 66.7383C133.473 67.4515 133.708 68.1723 133.989 68.9006C134.125 69.2648 134.277 69.629 134.425 69.9855C134.57 70.3421 134.721 70.6949 134.877 71.0439C135.507 72.4209 136.171 73.6879 136.896 74.6439C136.923 74.7349 137.01 74.807 137.124 74.8487C137.23 74.9056 137.344 74.9246 137.428 74.8829C138.62 74.788 140.051 74.3821 141.485 73.6841C141.85 73.5096 142.222 73.32 142.59 73.1113C142.958 72.9027 143.311 72.6751 143.672 72.4399C144.382 71.9619 145.103 71.4346 145.737 70.8542C146.963 69.7693 148.223 68.2443 149.195 66.6208ZM150.732 50.2862C150.994 49.4327 151.134 48.5754 151.237 47.7787C151.286 47.3804 151.316 46.9973 151.328 46.6331C151.343 46.269 151.328 45.9313 151.286 45.6165C150.755 46.0717 150.17 46.6407 149.593 47.2704C149.016 47.9039 148.435 48.6057 147.874 49.3416C147.297 50.0776 146.708 50.8438 146.166 51.6139C145.615 52.384 145.061 53.1578 144.579 53.9089C143.778 55.1077 143.095 56.4581 142.541 57.6796C142.427 57.9414 142.32 58.1993 142.226 58.4497C142.195 58.1804 142.161 57.9072 142.115 57.6265C141.922 56.314 141.474 54.8801 140.859 53.6586C140.453 52.8885 140.013 52.1298 139.5 51.4015C138.98 50.6769 138.437 49.9865 137.86 49.3644C137.264 48.7385 136.657 48.1808 136.054 47.7029C135.446 47.2287 134.858 46.8342 134.254 46.5421C134.258 46.7811 134.27 47.039 134.292 47.3159C134.319 47.5891 134.365 47.8812 134.429 48.1846C134.554 48.7878 134.778 49.4403 134.983 50.1117C135.443 51.4508 136.035 52.8657 136.676 54.0569C137.006 54.6866 137.382 55.3277 137.777 55.9612C138.156 56.5947 138.563 57.2206 138.988 57.82C139.823 59.0149 140.684 60.1036 141.55 60.8775C141.561 60.8889 141.576 60.9003 141.592 60.9078C141.637 60.9647 141.713 61.0027 141.8 61.0141C141.888 61.0368 141.975 61.0292 142.036 60.9913C142.051 60.9875 142.07 60.9837 142.085 60.9761C143.144 60.5588 144.351 59.7812 145.505 58.7418C146.074 58.2221 146.64 57.6417 147.179 57.012C147.703 56.3823 148.192 55.7108 148.648 55.0166C149.483 53.7041 150.254 51.997 150.732 50.2824V50.2862ZM148.284 36.7019C148.413 35.8749 148.447 35.0176 148.462 34.1755C148.466 33.7544 148.462 33.3371 148.439 32.935C148.405 32.5329 148.359 32.1422 148.299 31.7704C148.185 31.0269 148.022 30.3555 147.813 29.8092C147.429 30.382 147.058 31.0535 146.701 31.7894C146.522 32.1574 146.348 32.5405 146.181 32.935C146.01 33.3371 145.839 33.743 145.668 34.1489C145.323 34.9797 144.996 35.8332 144.7 36.6829C144.4 37.5327 144.082 38.3862 143.835 39.2056C143.732 39.5318 143.641 39.8656 143.562 40.1995C143.478 40.5333 143.379 40.8747 143.307 41.2123C143.152 41.8875 143.034 42.5552 142.958 43.1811C142.932 43.3556 142.909 43.5225 142.886 43.6894C142.837 43.5301 142.784 43.367 142.727 43.2039C142.503 42.6083 142.229 41.9938 141.918 41.3944C141.762 41.0947 141.603 40.7988 141.421 40.5143C141.235 40.2298 141.037 39.9567 140.836 39.6949C140.324 39.0387 139.792 38.39 139.185 37.7868C138.574 37.1875 137.936 36.626 137.295 36.1291C137.135 36.0039 136.976 35.8825 136.813 35.7649C136.646 35.6511 136.479 35.5373 136.312 35.4311C135.978 35.2187 135.648 35.0214 135.325 34.8431C134.676 34.4903 134.046 34.2134 133.457 34.0275C133.518 34.4827 133.678 34.9986 133.913 35.5449C134.031 35.818 134.163 36.0987 134.315 36.387C134.452 36.6753 134.6 36.975 134.763 37.2709C135.082 37.8665 135.48 38.4659 135.856 39.05C136.228 39.6342 136.631 40.1994 137.041 40.704C137.488 41.2351 137.914 41.7813 138.392 42.3124C138.863 42.8435 139.367 43.3632 139.865 43.8601C140.829 44.8502 141.842 45.7265 142.78 46.3145C142.837 46.3486 142.897 46.3752 142.954 46.3903C142.992 46.4055 143.034 46.4093 143.08 46.4055C143.125 46.4055 143.167 46.3979 143.201 46.379C143.258 46.3562 143.315 46.3259 143.364 46.2879C144.211 45.6051 145.084 44.5619 145.885 43.2949C146.268 42.6614 146.613 41.9786 146.936 41.2616C147.251 40.5447 147.562 39.7936 147.764 39.0425C147.968 38.3331 148.139 37.5365 148.272 36.7095L148.284 36.7019ZM143.042 25.9968C143.137 25.2495 143.209 24.4832 143.193 23.7397C143.254 20.9022 142.169 17.0898 140.855 15.379C140.662 16.0087 140.506 16.7294 140.381 17.4995C140.252 18.2734 140.176 19.0814 140.07 19.9387C139.978 20.7922 139.91 21.6609 139.872 22.5144C139.811 23.3793 139.762 24.2405 139.755 25.0522C139.747 25.3785 139.762 25.7047 139.766 26.0347C139.766 26.3686 139.781 26.6986 139.8 27.0286C139.838 27.6849 139.91 28.3222 140.009 28.9178C140.013 28.9481 140.016 28.9785 140.02 29.0126C140.005 28.986 139.99 28.9557 139.975 28.9291C139.656 28.4132 139.291 27.8822 138.897 27.3738C138.699 27.1197 138.491 26.8693 138.278 26.6303C138.062 26.3913 137.822 26.1675 137.591 25.9551C136.999 25.4202 136.372 24.9005 135.712 24.4225C135.033 23.9559 134.338 23.5273 133.647 23.1555C132.972 22.7762 132.247 22.4803 131.582 22.2451C130.91 22.0099 130.273 21.843 129.688 21.752C130.265 23.4097 132.398 25.7806 134.228 27.4535C134.74 27.8822 135.245 28.3222 135.78 28.7433C136.312 29.1681 136.877 29.574 137.432 29.9534C138.506 30.7272 139.606 31.3873 140.586 31.7932C140.703 31.8425 140.832 31.8539 140.924 31.8235C141.018 31.797 141.121 31.7211 141.189 31.6149C141.762 30.7462 142.263 29.5361 142.643 28.1515C142.814 27.4649 142.943 26.7403 143.042 25.993V25.9968ZM135.564 17.8144C135.822 16.8508 135.951 15.58 135.887 14.2182C135.845 13.5429 135.765 12.8374 135.651 12.1242C135.591 11.7714 135.534 11.4072 135.446 11.0582C135.359 10.7093 135.264 10.364 135.165 10.0226C134.972 9.38155 134.725 8.68735 134.421 8.00453C134.103 7.3293 133.742 6.65406 133.359 6.01677C132.987 5.37188 132.546 4.80287 132.125 4.30213C131.7 3.8014 131.282 3.38412 130.888 3.08444C130.888 3.71794 130.945 4.41973 131.039 5.16324C131.131 5.91055 131.29 6.66924 131.423 7.48483C131.567 8.28904 131.742 9.10463 131.939 9.89745C132.121 10.7017 132.307 11.5021 132.52 12.2494C132.603 12.5491 132.698 12.845 132.801 13.1408C132.892 13.4443 132.99 13.744 133.097 14.0399C133.249 14.4572 133.408 14.8593 133.579 15.2424C133.287 14.9389 132.979 14.6355 132.653 14.3434C132.425 14.1385 132.186 13.9375 131.947 13.744C131.696 13.5581 131.438 13.3836 131.184 13.2205C130.535 12.8108 129.859 12.4125 129.153 12.0673C128.436 11.7297 127.707 11.43 126.993 11.1796C126.291 10.9179 125.555 10.751 124.883 10.6182C124.207 10.493 123.573 10.4209 123.008 10.4134C123.209 10.7851 123.513 11.1796 123.892 11.5779C124.264 11.9801 124.727 12.3784 125.19 12.8032C125.661 13.2205 126.177 13.6226 126.709 14.002C127.229 14.3889 127.745 14.7568 128.257 15.0679C128.527 15.2348 128.808 15.3941 129.096 15.5535C129.377 15.7128 129.658 15.8721 129.946 16.0352C130.519 16.3501 131.112 16.6498 131.7 16.9191C132.861 17.4692 133.989 17.932 134.983 18.1596C135.128 18.1937 135.268 18.1709 135.348 18.114C135.439 18.0761 135.526 17.9623 135.564 17.8219V17.8144ZM128.265 7.42793C127.908 6.60854 127.297 5.66398 126.5 4.76493C126.097 4.32489 125.657 3.88865 125.183 3.46758C124.947 3.25894 124.708 3.0465 124.458 2.85683C124.207 2.66716 123.953 2.48887 123.695 2.31437C123.209 1.98813 122.658 1.6581 122.074 1.3698C121.486 1.09668 120.871 0.846308 120.26 0.633876C119.652 0.410063 119.041 0.281086 118.483 0.18625C117.925 0.0952073 117.409 0.0572729 116.984 0.0876204C117.337 0.527659 117.766 0.982872 118.244 1.44188C118.719 1.90468 119.25 2.33713 119.789 2.82269C120.332 3.29308 120.901 3.75208 121.47 4.18074C122.04 4.62457 122.602 5.06841 123.16 5.45534C123.38 5.61087 123.607 5.75881 123.839 5.89917C124.067 6.0547 124.298 6.19885 124.53 6.33541C124.997 6.61234 125.464 6.85512 125.911 7.05996C126.8 7.49241 127.597 7.7921 128.136 7.84141C128.303 7.85658 128.348 7.62518 128.261 7.42413L128.265 7.42793Z" fill="#CE993C"/>
<path d="M40.9056 18.7932C41.4915 18.918 41.9621 19.211 42.3175 19.672C42.6728 20.1234 42.8505 20.642 42.8505 21.2279C42.8505 22.0731 42.5528 22.7454 41.9573 23.2448C41.3714 23.7346 40.5502 23.9796 39.4938 23.9796H34.7828V13.8661H39.3353C40.363 13.8661 41.1649 14.1014 41.7412 14.572C42.3271 15.0426 42.62 15.6813 42.62 16.4881C42.62 17.0836 42.4615 17.5782 42.1446 17.972C41.8372 18.3658 41.4242 18.6395 40.9056 18.7932ZM37.2463 17.9576H38.8599C39.2632 17.9576 39.5706 17.8711 39.7819 17.6983C40.0028 17.5158 40.1132 17.2517 40.1132 16.9059C40.1132 16.5601 40.0028 16.296 39.7819 16.1135C39.5706 15.931 39.2632 15.8398 38.8599 15.8398H37.2463V17.9576ZM39.0616 21.9914C39.4745 21.9914 39.7915 21.9002 40.0124 21.7177C40.2429 21.5256 40.3581 21.2519 40.3581 20.8965C40.3581 20.5412 40.2381 20.2626 39.998 20.0609C39.7675 19.8593 39.4457 19.7584 39.0327 19.7584H37.2463V21.9914H39.0616ZM46.7429 15.8398V17.8855H50.042V19.7872H46.7429V22.0058H50.4742V23.9796H44.2793V13.8661H50.4742V15.8398H46.7429ZM55.7328 24.0804C54.9933 24.0804 54.3306 23.9603 53.7447 23.7202C53.1589 23.4801 52.6882 23.1248 52.3329 22.6541C51.9871 22.1835 51.8046 21.6169 51.7854 20.9542H54.4074C54.4458 21.3287 54.5755 21.6169 54.7964 21.8186C55.0173 22.0106 55.3054 22.1067 55.6608 22.1067C56.0258 22.1067 56.3139 22.0251 56.5252 21.8618C56.7365 21.6889 56.8421 21.4536 56.8421 21.1559C56.8421 20.9061 56.7557 20.6996 56.5828 20.5364C56.4196 20.3731 56.2131 20.2386 55.9633 20.133C55.7232 20.0273 55.3775 19.9073 54.9261 19.7728C54.273 19.5711 53.7399 19.3694 53.3269 19.1677C52.9139 18.966 52.5586 18.6683 52.2608 18.2745C51.9631 17.8807 51.8142 17.3669 51.8142 16.733C51.8142 15.7918 52.1552 15.057 52.8371 14.5288C53.519 13.991 54.4074 13.722 55.5023 13.722C56.6164 13.722 57.5145 13.991 58.1964 14.5288C58.8783 15.057 59.2433 15.7966 59.2913 16.7474H56.626C56.6068 16.4209 56.4868 16.1664 56.2659 15.9839C56.045 15.7918 55.7617 15.6957 55.4159 15.6957C55.1182 15.6957 54.878 15.7774 54.6956 15.9407C54.5131 16.0943 54.4218 16.32 54.4218 16.6178C54.4218 16.9443 54.5755 17.1988 54.8828 17.3813C55.1902 17.5638 55.6704 17.7607 56.3235 17.972C56.9766 18.1929 57.5049 18.4042 57.9082 18.6059C58.3212 18.8076 58.6766 19.1005 58.9743 19.4847C59.2721 19.8689 59.4209 20.3635 59.4209 20.9686C59.4209 21.5448 59.2721 22.0683 58.9743 22.5389C58.6862 23.0095 58.2636 23.3841 57.7065 23.6626C57.1495 23.9411 56.4916 24.0804 55.7328 24.0804ZM68.2124 13.8661V15.8398H65.5327V23.9796H63.0692V15.8398H60.3896V13.8661H68.2124ZM79.0855 13.8661V15.8398H74.9652V17.972H78.0483V19.8881H74.9652V23.9796H72.5017V13.8661H79.0855ZM85.1633 24.0804C84.2125 24.0804 83.3385 23.8595 82.5413 23.4177C81.7538 22.9759 81.1247 22.3612 80.6541 21.5736C80.193 20.7765 79.9625 19.8833 79.9625 18.894C79.9625 17.9048 80.193 17.0163 80.6541 16.2288C81.1247 15.4412 81.7538 14.8265 82.5413 14.3847C83.3385 13.9429 84.2125 13.722 85.1633 13.722C86.1142 13.722 86.9834 13.9429 87.7709 14.3847C88.5681 14.8265 89.1924 15.4412 89.6438 16.2288C90.1048 17.0163 90.3353 17.9048 90.3353 18.894C90.3353 19.8833 90.1048 20.7765 89.6438 21.5736C89.1828 22.3612 88.5585 22.9759 87.7709 23.4177C86.9834 23.8595 86.1142 24.0804 85.1633 24.0804ZM85.1633 21.833C85.9701 21.833 86.6136 21.564 87.0938 21.0262C87.5836 20.4883 87.8286 19.7776 87.8286 18.894C87.8286 18.0008 87.5836 17.2901 87.0938 16.7618C86.6136 16.224 85.9701 15.9551 85.1633 15.9551C84.347 15.9551 83.6939 16.2192 83.204 16.7474C82.7238 17.2757 82.4837 17.9912 82.4837 18.894C82.4837 19.7872 82.7238 20.5028 83.204 21.0406C83.6939 21.5688 84.347 21.833 85.1633 21.833ZM96.8634 23.9796L94.7601 20.1618H94.1694V23.9796H91.7059V13.8661H95.8406C96.6377 13.8661 97.3148 14.0054 97.8719 14.2839C98.4386 14.5624 98.8611 14.9466 99.1397 15.4364C99.4182 15.9166 99.5575 16.4545 99.5575 17.05C99.5575 17.7223 99.3654 18.3225 98.9812 18.8508C98.6066 19.379 98.0496 19.7536 97.31 19.9745L99.6439 23.9796H96.8634ZM94.1694 18.4186H95.6965C96.1479 18.4186 96.4841 18.3081 96.705 18.0872C96.9355 17.8663 97.0507 17.5542 97.0507 17.1508C97.0507 16.7666 96.9355 16.4641 96.705 16.2432C96.4841 16.0223 96.1479 15.9118 95.6965 15.9118H94.1694V18.4186ZM103.567 15.8398V17.8855H106.867V19.7872H103.567V22.0058H107.299V23.9796H101.104V13.8661H107.299V15.8398H103.567ZM115.093 23.9796L113.033 20.8821L111.218 23.9796H108.423L111.664 18.8364L108.351 13.8661H111.218L113.249 16.9203L115.035 13.8661H117.83L114.618 18.966L117.96 23.9796H115.093ZM51.7376 28.8661V30.8398H49.058V38.9796H46.5944V30.8398H43.9148V28.8661H51.7376ZM58.1315 38.9796L56.0282 35.1618H55.4375V38.9796H52.974V28.8661H57.1087C57.9058 28.8661 58.5829 29.0054 59.14 29.2839C59.7067 29.5624 60.1293 29.9466 60.4078 30.4364C60.6863 30.9166 60.8256 31.4545 60.8256 32.05C60.8256 32.7223 60.6335 33.3225 60.2493 33.8508C59.8747 34.379 59.3177 34.7536 58.5781 34.9745L60.912 38.9796H58.1315ZM55.4375 33.4186H56.9646C57.416 33.4186 57.7522 33.3081 57.9731 33.0872C58.2036 32.8663 58.3188 32.5542 58.3188 32.1508C58.3188 31.7666 58.2036 31.4641 57.9731 31.2432C57.7522 31.0223 57.416 30.9118 56.9646 30.9118H55.4375V33.4186ZM68.6677 37.1931H64.8932L64.2881 38.9796H61.7093L65.3686 28.8661H68.2211L71.8804 38.9796H69.2728L68.6677 37.1931ZM68.0338 35.2915L66.7805 31.589L65.5415 35.2915H68.0338ZM76.7831 28.8661C77.8492 28.8661 78.7808 29.0774 79.5779 29.5C80.3751 29.9226 80.9898 30.5181 81.422 31.2864C81.8638 32.0452 82.0847 32.924 82.0847 33.9228C82.0847 34.9121 81.8638 35.7909 81.422 36.5592C80.9898 37.3276 80.3703 37.9231 79.5635 38.3457C78.7664 38.7683 77.8395 38.9796 76.7831 38.9796H72.9941V28.8661H76.7831ZM76.6246 36.8474C77.5562 36.8474 78.2814 36.5929 78.8 36.0838C79.3186 35.5748 79.5779 34.8545 79.5779 33.9228C79.5779 32.9912 79.3186 32.2661 78.8 31.7474C78.2814 31.2288 77.5562 30.9695 76.6246 30.9695H75.4577V36.8474H76.6246ZM85.925 28.8661V38.9796H83.4614V28.8661H85.925ZM96.7576 38.9796H94.2941L90.1738 32.7415V38.9796H87.7103V28.8661H90.1738L94.2941 35.133V28.8661H96.7576V38.9796ZM105.257 32.0644C105.074 31.7282 104.81 31.4737 104.464 31.3008C104.128 31.1183 103.73 31.0271 103.269 31.0271C102.472 31.0271 101.833 31.2912 101.353 31.8195C100.872 32.3381 100.632 33.0344 100.632 33.9084C100.632 34.84 100.882 35.57 101.381 36.0982C101.891 36.6169 102.587 36.8762 103.47 36.8762C104.076 36.8762 104.585 36.7225 104.998 36.4152C105.42 36.1078 105.727 35.666 105.92 35.0898H102.793V33.2745H108.153V35.5652C107.97 36.1799 107.658 36.7513 107.216 37.2796C106.784 37.8078 106.232 38.2352 105.559 38.5618C104.887 38.8883 104.128 39.0516 103.283 39.0516C102.284 39.0516 101.391 38.8355 100.604 38.4033C99.8256 37.9615 99.2157 37.3516 98.7739 36.5736C98.3417 35.7957 98.1256 34.9073 98.1256 33.9084C98.1256 32.9096 98.3417 32.0212 98.7739 31.2432C99.2157 30.4556 99.8256 29.8457 100.604 29.4136C101.381 28.9717 102.27 28.7508 103.269 28.7508C104.479 28.7508 105.497 29.0438 106.323 29.6296C107.159 30.2155 107.711 31.0271 107.98 32.0644H105.257ZM46.289 47.122C46.289 47.7079 46.1545 48.2457 45.8856 48.7355C45.6166 49.2158 45.2037 49.6047 44.6466 49.9025C44.0895 50.2002 43.398 50.3491 42.572 50.3491H41.0449V53.9796H38.5814V43.8661H42.572C43.3788 43.8661 44.0607 44.0054 44.6178 44.2839C45.1748 44.5624 45.5926 44.9466 45.8712 45.4364C46.1497 45.9262 46.289 46.4881 46.289 47.122ZM42.3848 48.3898C42.8554 48.3898 43.2059 48.2793 43.4364 48.0584C43.6669 47.8375 43.7822 47.5254 43.7822 47.122C43.7822 46.7186 43.6669 46.4065 43.4364 46.1856C43.2059 45.9647 42.8554 45.8542 42.3848 45.8542H41.0449V48.3898H42.3848ZM50.035 52.0779H53.2621V53.9796H47.5715V43.8661H50.035V52.0779ZM60.7328 52.1931H56.9583L56.3532 53.9796H53.7744L57.4337 43.8661H60.2862L63.9455 53.9796H61.3379L60.7328 52.1931ZM60.0989 50.2915L58.8456 46.589L57.6066 50.2915H60.0989ZM72.3346 43.8661V45.8398H69.6549V53.9796H67.1914V45.8398H64.5118V43.8661H72.3346ZM80.1548 43.8661V45.8398H76.0345V47.972H79.1175V49.8881H76.0345V53.9796H73.5709V43.8661H80.1548ZM86.2326 54.0804C85.2817 54.0804 84.4077 53.8595 83.6106 53.4177C82.823 52.9759 82.1939 52.3612 81.7233 51.5736C81.2623 50.7765 81.0318 49.8833 81.0318 48.894C81.0318 47.9048 81.2623 47.0163 81.7233 46.2288C82.1939 45.4412 82.823 44.8265 83.6106 44.3847C84.4077 43.9429 85.2817 43.722 86.2326 43.722C87.1834 43.722 88.0526 43.9429 88.8402 44.3847C89.6373 44.8265 90.2616 45.4412 90.713 46.2288C91.174 47.0163 91.4046 47.9048 91.4046 48.894C91.4046 49.8833 91.174 50.7765 90.713 51.5736C90.252 52.3612 89.6277 52.9759 88.8402 53.4177C88.0526 53.8595 87.1834 54.0804 86.2326 54.0804ZM86.2326 51.833C87.0393 51.833 87.6828 51.564 88.1631 51.0262C88.6529 50.4883 88.8978 49.7776 88.8978 48.894C88.8978 48.0008 88.6529 47.2901 88.1631 46.7618C87.6828 46.224 87.0393 45.9551 86.2326 45.9551C85.4162 45.9551 84.7631 46.2192 84.2733 46.7474C83.7931 47.2757 83.5529 47.9912 83.5529 48.894C83.5529 49.7872 83.7931 50.5028 84.2733 51.0406C84.7631 51.5688 85.4162 51.833 86.2326 51.833ZM97.9327 53.9796L95.8293 50.1618H95.2386V53.9796H92.7751V43.8661H96.9098C97.707 43.8661 98.3841 44.0054 98.9411 44.2839C99.5078 44.5624 99.9304 44.9466 100.209 45.4364C100.487 45.9166 100.627 46.4545 100.627 47.05C100.627 47.7223 100.435 48.3225 100.05 48.8508C99.6759 49.379 99.1188 49.7536 98.3793 49.9745L100.713 53.9796H97.9327ZM95.2386 48.4186H96.7657C97.2171 48.4186 97.5533 48.3081 97.7742 48.0872C98.0047 47.8663 98.12 47.5542 98.12 47.1508C98.12 46.7666 98.0047 46.4641 97.7742 46.2432C97.5533 46.0223 97.2171 45.9118 96.7657 45.9118H95.2386V48.4186ZM113.626 43.8661V53.9796H111.163V47.9144L108.901 53.9796H106.913L104.637 47.9V53.9796H102.173V43.8661H105.083L107.921 50.8677L110.731 43.8661H113.626ZM55.6286 63.0644C55.4461 62.7282 55.182 62.4737 54.8362 62.3008C54.5 62.1183 54.1015 62.0271 53.6404 62.0271C52.8433 62.0271 52.2046 62.2912 51.7244 62.8195C51.2441 63.3381 51.004 64.0344 51.004 64.9084C51.004 65.84 51.2537 66.57 51.7532 67.0982C52.2622 67.6169 52.9585 67.8762 53.8421 67.8762C54.4472 67.8762 54.9562 67.7225 55.3692 67.4152C55.7918 67.1078 56.0992 66.666 56.2913 66.0898H53.165V64.2745H58.5243V66.5652C58.3418 67.1799 58.0297 67.7513 57.5879 68.2796C57.1557 68.8078 56.6034 69.2352 55.9311 69.5618C55.2588 69.8883 54.5 70.0516 53.6549 70.0516C52.656 70.0516 51.7628 69.8355 50.9752 69.4033C50.1973 68.9615 49.5874 68.3516 49.1456 67.5736C48.7134 66.7957 48.4973 65.9073 48.4973 64.9084C48.4973 63.9096 48.7134 63.0212 49.1456 62.2432C49.5874 61.4556 50.1973 60.8457 50.9752 60.4136C51.7532 59.9717 52.6416 59.7508 53.6404 59.7508C54.8506 59.7508 55.8687 60.0438 56.6947 60.6296C57.5302 61.2155 58.0825 62.0271 58.3514 63.0644H55.6286ZM62.3524 68.0779H65.5795V69.9796H59.8889V59.8661H62.3524V68.0779ZM71.5375 70.0804C70.5867 70.0804 69.7127 69.8595 68.9155 69.4177C68.128 68.9759 67.4989 68.3612 67.0283 67.5736C66.5672 66.7765 66.3367 65.8833 66.3367 64.894C66.3367 63.9048 66.5672 63.0163 67.0283 62.2288C67.4989 61.4412 68.128 60.8265 68.9155 60.3847C69.7127 59.9429 70.5867 59.722 71.5375 59.722C72.4884 59.722 73.3576 59.9429 74.1451 60.3847C74.9423 60.8265 75.5666 61.4412 76.018 62.2288C76.479 63.0163 76.7095 63.9048 76.7095 64.894C76.7095 65.8833 76.479 66.7765 76.018 67.5736C75.557 68.3612 74.9327 68.9759 74.1451 69.4177C73.3576 69.8595 72.4884 70.0804 71.5375 70.0804ZM71.5375 67.833C72.3443 67.833 72.9878 67.564 73.468 67.0262C73.9578 66.4883 74.2028 65.7776 74.2028 64.894C74.2028 64.0008 73.9578 63.2901 73.468 62.7618C72.9878 62.224 72.3443 61.9551 71.5375 61.9551C70.7212 61.9551 70.0681 62.2192 69.5782 62.7474C69.098 63.2757 68.8579 63.9912 68.8579 64.894C68.8579 65.7872 69.098 66.5028 69.5782 67.0406C70.0681 67.5688 70.7212 67.833 71.5375 67.833ZM84.2029 64.7932C84.7887 64.918 85.2594 65.211 85.6147 65.672C85.9701 66.1234 86.1478 66.642 86.1478 67.2279C86.1478 68.0731 85.85 68.7454 85.2546 69.2448C84.6687 69.7346 83.8475 69.9796 82.791 69.9796H78.0801V59.8661H82.6326C83.6602 59.8661 84.4622 60.1014 85.0385 60.572C85.6243 61.0426 85.9173 61.6813 85.9173 62.4881C85.9173 63.0836 85.7588 63.5782 85.4418 63.972C85.1345 64.3658 84.7215 64.6395 84.2029 64.7932ZM80.5436 63.9576H82.1571C82.5605 63.9576 82.8679 63.8711 83.0792 63.6983C83.3001 63.5158 83.4105 63.2517 83.4105 62.9059C83.4105 62.5601 83.3001 62.296 83.0792 62.1135C82.8679 61.931 82.5605 61.8398 82.1571 61.8398H80.5436V63.9576ZM82.3588 67.9914C82.7718 67.9914 83.0888 67.9002 83.3097 67.7177C83.5402 67.5256 83.6554 67.2519 83.6554 66.8965C83.6554 66.5412 83.5354 66.2626 83.2953 66.0609C83.0647 65.8593 82.743 65.7584 82.33 65.7584H80.5436V67.9914H82.3588ZM93.8723 68.1931H90.0978L89.4927 69.9796H86.9139L90.5732 59.8661H93.4257L97.085 69.9796H94.4774L93.8723 68.1931ZM93.2384 66.2915L91.985 62.589L90.7461 66.2915H93.2384ZM100.662 68.0779H103.889V69.9796H98.1987V59.8661H100.662V68.0779Z" fill="white"/>
<path d="M50.5488 79.1818C50.3756 78.8177 50.1249 78.5371 49.7965 78.34C49.4681 78.137 49.086 78.0355 48.6502 78.0355C48.2144 78.0355 47.8203 78.137 47.4681 78.34C47.1218 78.5371 46.8472 78.8236 46.6442 79.1998C46.4472 79.5699 46.3486 79.9998 46.3486 80.4893C46.3486 80.9789 46.4472 81.4088 46.6442 81.7789C46.8472 82.1491 47.1218 82.4357 47.4681 82.6387C47.8203 82.8357 48.2144 82.9342 48.6502 82.9342C49.2592 82.9342 49.7607 82.7521 50.1547 82.3879C50.5488 82.0237 50.7786 81.5312 50.8443 80.9103H48.3547V80.2475H51.713V80.8744C51.6652 81.3879 51.504 81.8595 51.2294 82.2894C50.9547 82.7133 50.5935 83.0506 50.1458 83.3014C49.698 83.5461 49.1995 83.6685 48.6502 83.6685C48.0711 83.6685 47.5427 83.5342 47.0651 83.2655C46.5875 82.9909 46.2083 82.6118 45.9277 82.1282C45.6531 81.6446 45.5158 81.0983 45.5158 80.4893C45.5158 79.8804 45.6531 79.3341 45.9277 78.8505C46.2083 78.3609 46.5875 77.9818 47.0651 77.7132C47.5427 77.4385 48.0711 77.3012 48.6502 77.3012C49.3129 77.3012 49.898 77.4654 50.4055 77.7938C50.9189 78.1221 51.2921 78.5848 51.5249 79.1818H50.5488ZM53.6054 82.9521H55.7906V83.6148H52.7905V77.3728H53.6054V82.9521ZM59.486 83.6775C58.9069 83.6775 58.3785 83.5432 57.9009 83.2745C57.4232 82.9999 57.0441 82.6207 56.7635 82.1372C56.4889 81.6476 56.3516 81.0983 56.3516 80.4893C56.3516 79.8804 56.4889 79.3341 56.7635 78.8505C57.0441 78.3609 57.4232 77.9818 57.9009 77.7132C58.3785 77.4385 58.9069 77.3012 59.486 77.3012C60.0711 77.3012 60.6024 77.4385 61.08 77.7132C61.5577 77.9818 61.9338 78.3579 62.2084 78.8415C62.4831 79.3251 62.6204 79.8744 62.6204 80.4893C62.6204 81.1043 62.4831 81.6536 62.2084 82.1372C61.9338 82.6207 61.5577 82.9999 61.08 83.2745C60.6024 83.5432 60.0711 83.6775 59.486 83.6775ZM59.486 82.97C59.9218 82.97 60.3129 82.8685 60.6591 82.6655C61.0114 82.4625 61.286 82.173 61.483 81.7968C61.686 81.4207 61.7875 80.9849 61.7875 80.4893C61.7875 79.9878 61.686 79.552 61.483 79.1818C61.286 78.8057 61.0144 78.5162 60.6681 78.3132C60.3218 78.1102 59.9278 78.0087 59.486 78.0087C59.0442 78.0087 58.6501 78.1102 58.3039 78.3132C57.9576 78.5162 57.6829 78.8057 57.4799 79.1818C57.2829 79.552 57.1844 79.9878 57.1844 80.4893C57.1844 80.9849 57.2829 81.4207 57.4799 81.7968C57.6829 82.173 57.9576 82.4625 58.3039 82.6655C58.6561 82.8685 59.0501 82.97 59.486 82.97ZM66.8217 80.3998C67.0486 80.4356 67.2545 80.5282 67.4396 80.6774C67.6307 80.8267 67.7799 81.0117 67.8874 81.2327C68.0008 81.4536 68.0575 81.6894 68.0575 81.9401C68.0575 82.2566 67.9769 82.5431 67.8158 82.7999C67.6546 83.0506 67.4187 83.2506 67.1083 83.3999C66.8038 83.5432 66.4426 83.6148 66.0247 83.6148H63.6962V77.3728H65.9351C66.359 77.3728 66.7202 77.4445 67.0187 77.5878C67.3172 77.7251 67.5411 77.9132 67.6904 78.152C67.8396 78.3908 67.9143 78.6594 67.9143 78.958C67.9143 79.3281 67.8128 79.6356 67.6098 79.8804C67.4128 80.1192 67.1501 80.2923 66.8217 80.3998ZM64.5112 80.0684H65.8814C66.2635 80.0684 66.559 79.9789 66.768 79.7998C66.9769 79.6207 67.0814 79.3729 67.0814 79.0565C67.0814 78.74 66.9769 78.4923 66.768 78.3132C66.559 78.1341 66.2575 78.0445 65.8635 78.0445H64.5112V80.0684ZM65.953 82.9431C66.359 82.9431 66.6754 82.8476 66.9023 82.6566C67.1292 82.4655 67.2426 82.1998 67.2426 81.8595C67.2426 81.5133 67.1232 81.2416 66.8844 81.0446C66.6456 80.8416 66.3262 80.7401 65.9261 80.7401H64.5112V82.9431H65.953ZM72.8781 82.2267H70.1556L69.6541 83.6148H68.7944L71.0512 77.4087H71.9915L74.2393 83.6148H73.3796L72.8781 82.2267ZM72.6453 81.564L71.5169 78.4117L70.3885 81.564H72.6453ZM76.0379 82.9521H78.223V83.6148H75.2229V77.3728H76.0379V82.9521ZM85.0045 77.3728V78.0355H82.2909V80.1401H84.494V80.8028H82.2909V83.6148H81.476V77.3728H85.0045ZM88.8186 83.6775C88.2395 83.6775 87.7111 83.5432 87.2335 83.2745C86.7559 82.9999 86.3768 82.6207 86.0962 82.1372C85.8215 81.6476 85.6842 81.0983 85.6842 80.4893C85.6842 79.8804 85.8215 79.3341 86.0962 78.8505C86.3768 78.3609 86.7559 77.9818 87.2335 77.7132C87.7111 77.4385 88.2395 77.3012 88.8186 77.3012C89.4037 77.3012 89.9351 77.4385 90.4127 77.7132C90.8903 77.9818 91.2665 78.3579 91.5411 78.8415C91.8157 79.3251 91.9531 79.8744 91.9531 80.4893C91.9531 81.1043 91.8157 81.6536 91.5411 82.1372C91.2665 82.6207 90.8903 82.9999 90.4127 83.2745C89.9351 83.5432 89.4037 83.6775 88.8186 83.6775ZM88.8186 82.97C89.2545 82.97 89.6455 82.8685 89.9918 82.6655C90.3441 82.4625 90.6187 82.173 90.8157 81.7968C91.0187 81.4207 91.1202 80.9849 91.1202 80.4893C91.1202 79.9878 91.0187 79.552 90.8157 79.1818C90.6187 78.8057 90.347 78.5162 90.0008 78.3132C89.6545 78.1102 89.2604 78.0087 88.8186 78.0087C88.3768 78.0087 87.9828 78.1102 87.6365 78.3132C87.2902 78.5162 87.0156 78.8057 86.8126 79.1818C86.6156 79.552 86.5171 79.9878 86.5171 80.4893C86.5171 80.9849 86.6156 81.4207 86.8126 81.7968C87.0156 82.173 87.2902 82.4625 87.6365 82.6655C87.9888 82.8685 88.3828 82.97 88.8186 82.97ZM96.3156 83.6148L94.829 81.0625H93.8439V83.6148H93.0289V77.3728H95.0439C95.5155 77.3728 95.9126 77.4534 96.235 77.6146C96.5633 77.7758 96.8081 77.9938 96.9693 78.2684C97.1305 78.543 97.2111 78.8565 97.2111 79.2087C97.2111 79.6386 97.0857 80.0177 96.835 80.3461C96.5902 80.6744 96.22 80.8923 95.7245 80.9998L97.2917 83.6148H96.3156ZM93.8439 80.4087H95.0439C95.4857 80.4087 95.817 80.3013 96.0379 80.0864C96.2588 79.8654 96.3693 79.5729 96.3693 79.2087C96.3693 78.8386 96.2588 78.552 96.0379 78.349C95.823 78.146 95.4917 78.0445 95.0439 78.0445H93.8439V80.4087ZM99.2923 78.0355V80.1222H101.567V80.7938H99.2923V82.9431H101.836V83.6148H98.4774V77.3639H101.836V78.0355H99.2923ZM105.621 80.4983L107.538 83.6148H106.615L105.12 81.1789L103.696 83.6148H102.791L104.699 80.4983L102.782 77.3728H103.696L105.2 79.8177L106.633 77.3728H107.547L105.621 80.4983ZM61.9942 91.2267H59.2718L58.7703 92.6148H57.9105L60.1673 86.4087H61.1076L63.3555 92.6148H62.4957L61.9942 91.2267ZM61.7614 90.564L60.633 87.4117L59.5046 90.564H61.7614ZM72.184 86.3728L70.375 92.6148H69.4616L68.0108 87.5908L66.5063 92.6148L65.6018 92.6238L63.8554 86.3728H64.7241L66.0854 91.6655L67.5899 86.3728H68.5033L69.9362 91.6476L71.3064 86.3728H72.184ZM76.7655 91.2267H74.0431L73.5416 92.6148H72.6818L74.9386 86.4087H75.8789L78.1268 92.6148H77.267L76.7655 91.2267ZM76.5327 90.564L75.4043 87.4117L74.2759 90.564H76.5327ZM82.397 92.6148L80.9104 90.0625H79.9253V92.6148H79.1103V86.3728H81.1253C81.597 86.3728 81.994 86.4534 82.3164 86.6146C82.6447 86.7758 82.8895 86.9938 83.0507 87.2684C83.2119 87.543 83.2925 87.8565 83.2925 88.2087C83.2925 88.6386 83.1671 89.0177 82.9164 89.3461C82.6716 89.6744 82.3015 89.8923 81.8059 89.9998L83.3731 92.6148H82.397ZM79.9253 89.4087H81.1253C81.5671 89.4087 81.8985 89.3013 82.1194 89.0864C82.3403 88.8654 82.4507 88.5729 82.4507 88.2087C82.4507 87.8386 82.3403 87.552 82.1194 87.349C81.9044 87.146 81.5731 87.0445 81.1253 87.0445H79.9253V89.4087ZM86.5021 86.3728C87.1828 86.3728 87.7708 86.5012 88.2664 86.7579C88.7679 87.0087 89.15 87.3699 89.4127 87.8415C89.6813 88.3132 89.8157 88.8684 89.8157 89.5073C89.8157 90.1461 89.6813 90.7013 89.4127 91.173C89.15 91.6387 88.7679 91.9969 88.2664 92.2476C87.7708 92.4924 87.1828 92.6148 86.5021 92.6148H84.5588V86.3728H86.5021ZM86.5021 91.9431C87.3081 91.9431 87.9231 91.7312 88.347 91.3073C88.7709 90.8774 88.9828 90.2774 88.9828 89.5073C88.9828 88.7311 88.7679 88.1251 88.338 87.6893C87.9141 87.2535 87.3022 87.0355 86.5021 87.0355H85.3738V91.9431H86.5021ZM92.8698 92.6775C92.4578 92.6775 92.0877 92.6059 91.7593 92.4626C91.4369 92.3133 91.1832 92.1103 90.9981 91.8536C90.813 91.5909 90.7175 91.2894 90.7115 90.9491H91.5802C91.61 91.2416 91.7294 91.4894 91.9384 91.6924C92.1533 91.8894 92.4638 91.9879 92.8698 91.9879C93.2578 91.9879 93.5623 91.8924 93.7832 91.7013C94.0101 91.5043 94.1235 91.2536 94.1235 90.9491C94.1235 90.7103 94.0579 90.5162 93.9265 90.367C93.7952 90.2177 93.631 90.1043 93.434 90.0267C93.2369 89.9491 92.9713 89.8655 92.6369 89.7759C92.225 89.6685 91.8936 89.561 91.6429 89.4535C91.3981 89.3461 91.1861 89.1789 91.007 88.952C90.8339 88.7192 90.7473 88.4087 90.7473 88.0206C90.7473 87.6803 90.8339 87.3788 91.007 87.1161C91.1802 86.8535 91.422 86.6505 91.7324 86.5072C92.0489 86.3639 92.4101 86.2922 92.816 86.2922C93.4011 86.2922 93.8788 86.4385 94.2489 86.7311C94.625 87.0236 94.837 87.4117 94.8848 87.8953H93.9892C93.9594 87.6565 93.834 87.4475 93.6131 87.2684C93.3922 87.0833 93.0996 86.9908 92.7354 86.9908C92.3951 86.9908 92.1175 87.0803 91.9026 87.2594C91.6876 87.4326 91.5802 87.6774 91.5802 87.9938C91.5802 88.2207 91.6429 88.4057 91.7682 88.549C91.8996 88.6923 92.0578 88.8028 92.2429 88.8804C92.4339 88.952 92.6996 89.0356 93.0399 89.1311C93.4519 89.2446 93.7832 89.358 94.034 89.4714C94.2847 89.5789 94.4997 89.7491 94.6788 89.9819C94.8579 90.2088 94.9474 90.5192 94.9474 90.9133C94.9474 91.2178 94.8668 91.5043 94.7056 91.773C94.5444 92.0417 94.3056 92.2596 93.9892 92.4267C93.6728 92.5939 93.2996 92.6775 92.8698 92.6775Z" fill="white"/>
<path d="M61.7991 107.659C62.0904 107.428 62.2231 107.321 62.1974 107.338C63.0369 106.644 63.6965 106.074 64.1762 105.629C64.6645 105.183 65.0757 104.717 65.4097 104.228C65.7438 103.74 65.9108 103.265 65.9108 102.802C65.9108 102.451 65.8295 102.177 65.6667 101.98C65.504 101.783 65.2598 101.684 64.9343 101.684C64.6088 101.684 64.3518 101.808 64.1634 102.057C63.9835 102.297 63.8935 102.639 63.8935 103.085H61.7734C61.7906 102.357 61.9447 101.748 62.236 101.26C62.5358 100.772 62.9256 100.412 63.4053 100.181C63.8935 99.9496 64.4332 99.8339 65.0243 99.8339C66.0436 99.8339 66.8103 100.095 67.3243 100.618C67.8468 101.14 68.1081 101.821 68.1081 102.661C68.1081 103.577 67.7954 104.43 67.1701 105.218C66.5447 105.997 65.7481 106.76 64.7801 107.505H68.2494V109.291H61.7991V107.659ZM69.2168 104.601C69.2168 103.128 69.4995 101.967 70.0648 101.119C70.6388 100.271 71.5596 99.8468 72.8274 99.8468C74.0952 99.8468 75.0118 100.271 75.5771 101.119C76.1511 101.967 76.438 103.128 76.438 104.601C76.438 106.091 76.1511 107.261 75.5771 108.109C75.0118 108.957 74.0952 109.381 72.8274 109.381C71.5596 109.381 70.6388 108.957 70.0648 108.109C69.4995 107.261 69.2168 106.091 69.2168 104.601ZM74.2794 104.601C74.2794 103.736 74.1851 103.072 73.9967 102.609C73.8082 102.138 73.4185 101.903 72.8274 101.903C72.2363 101.903 71.8466 102.138 71.6581 102.609C71.4697 103.072 71.3755 103.736 71.3755 104.601C71.3755 105.183 71.4097 105.667 71.4782 106.053C71.5468 106.43 71.6838 106.738 71.8894 106.978C72.1036 107.209 72.4162 107.325 72.8274 107.325C73.2386 107.325 73.547 107.209 73.7525 106.978C73.9667 106.738 74.108 106.43 74.1766 106.053C74.2451 105.667 74.2794 105.183 74.2794 104.601ZM77.5218 107.659C77.813 107.428 77.9458 107.321 77.9201 107.338C78.7596 106.644 79.4192 106.074 79.8989 105.629C80.3871 105.183 80.7983 104.717 81.1324 104.228C81.4665 103.74 81.6335 103.265 81.6335 102.802C81.6335 102.451 81.5521 102.177 81.3894 101.98C81.2266 101.783 80.9825 101.684 80.657 101.684C80.3314 101.684 80.0745 101.808 79.886 102.057C79.7061 102.297 79.6162 102.639 79.6162 103.085H77.4961C77.5132 102.357 77.6674 101.748 77.9586 101.26C78.2585 100.772 78.6482 100.412 79.1279 100.181C79.6162 99.9496 80.1558 99.8339 80.7469 99.8339C81.7663 99.8339 82.5329 100.095 83.0469 100.618C83.5694 101.14 83.8307 101.821 83.8307 102.661C83.8307 103.577 83.518 104.43 82.8927 105.218C82.2674 105.997 81.4707 106.76 80.5028 107.505H83.972V109.291H77.5218V107.659ZM84.8623 107.659C85.1536 107.428 85.2864 107.321 85.2607 107.338C86.1001 106.644 86.7597 106.074 87.2394 105.629C87.7277 105.183 88.1389 104.717 88.473 104.228C88.807 103.74 88.9741 103.265 88.9741 102.802C88.9741 102.451 88.8927 102.177 88.7299 101.98C88.5672 101.783 88.3231 101.684 87.9975 101.684C87.672 101.684 87.415 101.808 87.2266 102.057C87.0467 102.297 86.9568 102.639 86.9568 103.085H84.8366C84.8538 102.357 85.008 101.748 85.2992 101.26C85.599 100.772 85.9888 100.412 86.4685 100.181C86.9568 99.9496 87.4964 99.8339 88.0875 99.8339C89.1069 99.8339 89.8735 100.095 90.3875 100.618C90.91 101.14 91.1713 101.821 91.1713 102.661C91.1713 103.577 90.8586 104.43 90.2333 105.218C89.608 105.997 88.8113 106.76 87.8434 107.505H91.3126V109.291H84.8623V107.659Z" fill="white"/>
</svg>
