<svg width="152" height="114" viewBox="0 0 152 114" fill="none" xmlns="http://www.w3.org/2000/svg">
<path d="M45.3757 105.025C45.315 105.192 45.2011 105.325 45.0645 105.359C44.089 106.265 42.7187 107.119 41.1131 107.775C40.259 108.12 39.3367 108.42 38.3726 108.655C37.4198 108.875 36.4291 109.035 35.4271 109.126C34.4971 109.19 33.4533 109.186 32.3715 109.095C31.8363 109.042 31.2897 108.966 30.7431 108.875C30.1927 108.784 29.6424 108.674 29.1072 108.53C28.572 108.39 28.0406 108.234 27.5243 108.064C27.0081 107.893 26.5223 107.688 26.0516 107.479C25.5847 107.267 25.1368 107.051 24.7307 106.816C24.3283 106.577 23.9563 106.326 23.6299 106.068C24.4118 105.719 25.319 105.431 26.3097 105.181C27.308 104.919 28.386 104.699 29.4867 104.513C30.5951 104.323 31.749 104.145 32.8763 104.012C34.0151 103.864 35.15 103.739 36.228 103.656C37.0972 103.572 37.9892 103.549 38.8622 103.568C39.7466 103.565 40.6083 103.618 41.413 103.69C41.9975 103.731 42.5479 103.796 43.0565 103.879C42.7035 103.504 42.3467 103.083 42.0013 102.631C41.5268 101.986 41.0827 101.266 40.6918 100.53C40.3122 99.7711 39.9971 98.9859 39.7656 98.2158C39.4885 97.2257 39.2722 96.1977 39.1393 95.1621C39.0178 94.1113 38.9571 93.0795 38.9875 92.0629C39.0216 91.0424 39.1317 90.0637 39.3063 89.1571C39.4923 88.2391 39.7466 87.3931 40.0541 86.6496C40.2515 86.8393 40.445 87.0593 40.631 87.3172C40.8208 87.5676 41.0144 87.8407 41.1966 88.1404C41.3826 88.4401 41.5534 88.7777 41.7356 89.1116C41.9178 89.4492 42.0924 89.8057 42.2632 90.1813C42.4264 90.5531 42.5934 90.9362 42.7642 91.3269C42.9275 91.7176 43.0831 92.116 43.2273 92.5219C43.5272 93.3147 43.7967 94.1189 44.0054 94.9003C44.237 95.7045 44.4457 96.5581 44.6279 97.4344C44.8177 98.2955 44.9885 99.1679 45.1214 100.04C45.3757 101.664 45.5199 103.223 45.4326 104.57C45.4858 104.695 45.4592 104.869 45.3719 105.021L45.3757 105.025ZM28.3214 99.1186C30.0105 98.91 31.4833 98.5041 32.6372 97.9047C32.7663 97.9047 32.8991 97.8137 32.9902 97.6771C33.1041 97.5595 33.1648 97.4078 33.1344 97.2864C33.4609 96.0535 33.6431 94.5172 33.6924 92.9467C33.7304 92.1084 33.7418 91.2473 33.7228 90.4051C33.7 89.563 33.681 88.7057 33.6089 87.9052C33.5406 87.1503 33.4609 86.3196 33.3166 85.523C33.18 84.7188 33.032 83.8918 32.8308 83.1369C32.66 82.3554 32.4322 81.6423 32.1969 80.9974C31.9691 80.3449 31.6807 79.8062 31.3884 79.3624C30.9595 80.0073 30.5837 80.747 30.2573 81.5702C29.9346 82.3896 29.6386 83.3076 29.445 84.2446C29.0312 86.1375 28.8908 88.2277 29.073 90.1737C29.1451 90.9476 29.2856 91.7556 29.5133 92.5257C29.7335 93.2995 30.0068 94.0658 30.3408 94.7486C30.5571 95.219 30.7925 95.6514 31.0354 96.0498C30.6065 95.8639 30.1434 95.6818 29.6575 95.4997C28.9212 95.2455 28.143 94.98 27.3346 94.7562C26.5185 94.54 25.6986 94.3313 24.8825 94.1872C22.829 93.8306 20.5933 93.5081 18.4487 93.3109C17.3669 93.2236 16.3383 93.1402 15.3514 93.1326C14.3683 93.1212 13.4459 93.1667 12.645 93.2767C13.1119 93.9027 13.78 94.5172 14.5239 95.1279C15.2793 95.7349 16.1637 96.2963 17.0747 96.816C18.0122 97.313 18.9725 97.772 19.9442 98.121C20.9235 98.4662 21.8573 98.7507 22.7493 98.9024C23.6944 99.0655 24.632 99.1869 25.5809 99.2135C26.5261 99.24 27.4484 99.2097 28.3252 99.1148L28.3214 99.1186ZM15.3666 87.0783C16.232 87.3476 17.0709 87.5714 17.9211 87.6966C18.76 87.8294 19.5685 87.9014 20.32 87.9014C21.0222 87.9014 21.6827 87.8332 22.2672 87.7118C22.3773 87.7421 22.5102 87.6928 22.6164 87.5942C22.7379 87.5145 22.8176 87.4007 22.8176 87.2869C23.0795 86.752 23.3111 86.1527 23.5312 85.4964C23.7666 84.7908 23.9753 84.0359 24.1537 83.2621C24.3245 82.492 24.5105 81.6764 24.6434 80.8836C24.7724 80.0908 24.9015 79.2865 24.9926 78.5127C25.0343 78.1485 25.0609 77.773 25.0913 77.3898C25.1216 77.0029 25.1444 76.6084 25.152 76.2139C25.1634 75.4324 25.1748 74.6282 25.133 73.8733C25.0571 72.3559 24.8711 70.9713 24.4574 70.0343C23.9563 70.5578 23.4705 71.1875 23.015 71.9045C22.5519 72.6253 22.161 73.4143 21.7928 74.2754C21.0678 75.9863 20.5781 77.9247 20.3883 79.7949C20.2365 81.2819 20.3883 82.9093 20.7338 84.328C20.8324 84.7681 20.9615 85.1815 21.0982 85.5647C20.7717 85.3143 20.4225 85.0564 20.0581 84.7908C18.8435 83.9449 17.4163 83.0724 15.9853 82.3934C14.1937 81.5436 12.2009 80.6977 10.2803 79.9694C9.32756 79.6052 8.35585 79.2903 7.46764 79.021C6.57564 78.7555 5.71781 78.5544 4.94348 78.4558C5.51663 79.7987 6.69331 81.3653 8.14329 82.7424C8.87207 83.4328 9.6426 84.0852 10.4549 84.6467C10.8534 84.9274 11.2558 85.1929 11.6506 85.4319C12.0491 85.6709 12.4552 85.8795 12.8386 86.0692C13.6585 86.4675 14.5012 86.8127 15.3666 87.0783ZM6.23782 71.3089C6.87171 71.8893 7.58911 72.4166 8.29891 72.8946C8.65951 73.1336 9.01251 73.3612 9.3807 73.566C9.74889 73.7709 10.1209 73.9643 10.4853 74.1388C11.92 74.833 13.3472 75.2389 14.5429 75.3376C14.6302 75.3793 14.7403 75.3641 14.8466 75.3034C14.9604 75.2617 15.0477 75.1896 15.0743 75.0986C15.7993 74.1464 16.4635 72.8794 17.0936 71.4986C17.2493 71.1496 17.4011 70.7968 17.5453 70.4402C17.6896 70.0837 17.8452 69.7157 17.9818 69.3553C18.2665 68.627 18.4981 67.9062 18.7372 67.1931C19.1623 65.8502 19.5001 64.2911 19.7127 62.842C19.8228 62.1136 19.8683 61.4194 19.9025 60.7784C19.9291 60.1373 19.8683 59.5645 19.7772 59.0789C19.2117 59.4848 18.6537 59.9969 18.1147 60.5925C17.5795 61.188 17.0253 61.8747 16.5584 62.6144C16.084 63.3541 15.6171 64.1659 15.2413 65.0004C15.0515 65.4177 14.8731 65.8426 14.7099 66.275C14.5429 66.7037 14.3911 67.1399 14.2734 67.5686C14.0798 68.2514 13.9204 68.9911 13.8407 69.7233C13.7686 70.4554 13.7344 71.1951 13.7572 71.8931C13.7762 72.2649 13.8103 72.6215 13.8521 72.9629C13.6471 72.686 13.4194 72.4052 13.1764 72.1169C12.7323 71.5707 12.2427 71.0093 11.7037 70.463C11.1723 69.913 10.6295 69.3705 10.0487 68.8811C9.69195 68.5777 9.32376 68.2666 8.94419 67.9442C8.56841 67.6293 8.18504 67.3182 7.79028 67.0072C7.00077 66.3888 6.22644 65.7667 5.42174 65.1901C4.61325 64.6135 3.85789 64.0635 3.08736 63.5893C2.32442 63.1151 1.58804 62.7092 0.9124 62.4057C0.99211 63.081 1.23883 63.8397 1.55008 64.6363C1.85374 65.4367 2.29405 66.2637 2.77611 67.0755C3.74782 68.6991 5.008 70.224 6.23403 71.3089H6.23782ZM3.32649 55.4789C3.78198 56.1731 4.26783 56.8483 4.79544 57.4743C5.33823 58.1002 5.9 58.6844 6.46936 59.2041C7.62327 60.2435 8.83031 61.0173 9.88933 61.4384C9.90451 61.446 9.92349 61.4498 9.93867 61.4536C10.0032 61.4915 10.0867 61.4991 10.174 61.4763C10.2651 61.465 10.341 61.427 10.3828 61.3701C10.398 61.3587 10.4093 61.3512 10.4245 61.3398C11.29 60.5659 12.1516 59.4772 12.9867 58.2823C13.4118 57.6829 13.8179 57.057 14.1975 56.4235C14.5922 55.79 14.968 55.1489 15.2983 54.5192C15.9397 53.328 16.5319 51.9131 16.9912 50.574C17.1961 49.9026 17.4201 49.2501 17.5453 48.6469C17.6099 48.3435 17.6554 48.0552 17.6858 47.7782C17.7086 47.5051 17.7199 47.2434 17.7237 47.0044C17.1202 47.2965 16.5319 47.691 15.9246 48.1652C15.321 48.6431 14.7099 49.2008 14.1178 49.8267C13.537 50.4488 12.998 51.1392 12.478 51.8638C11.9656 52.5883 11.5253 53.3508 11.1191 54.1209C10.5042 55.3424 10.0563 56.7763 9.86276 58.0888C9.81721 58.3695 9.78305 58.6464 9.75648 58.912C9.66158 58.6616 9.5553 58.4075 9.44143 58.1419C8.88725 56.9204 8.20402 55.57 7.40312 54.3712C6.92106 53.6163 6.36688 52.8463 5.8165 52.0762C5.27371 51.3061 4.68916 50.5361 4.10841 49.8039C3.54664 49.068 2.9659 48.3662 2.38894 47.7327C1.81579 47.0992 1.22745 46.534 0.696042 46.0788C0.650493 46.3898 0.639106 46.7312 0.654289 47.0954C0.665676 47.4596 0.696042 47.8427 0.745387 48.241C0.847872 49.0377 0.988314 49.895 1.25022 50.7485C1.73228 52.4593 2.49902 54.1702 3.33408 55.4827L3.32649 55.4789ZM4.19572 39.4934C4.39689 40.2445 4.70814 40.9956 5.02319 41.7125C5.34583 42.4295 5.69124 43.1161 6.07461 43.7458C6.87551 45.0128 7.74853 46.0598 8.59498 46.7388C8.64432 46.7806 8.70126 46.8109 8.7582 46.8299C8.79236 46.845 8.83411 46.8564 8.87966 46.8564C8.92521 46.8602 8.97076 46.8564 9.00492 46.8413C9.06565 46.8261 9.12259 46.8033 9.17952 46.7654C10.1171 46.1774 11.1305 45.3011 12.0947 44.311C12.5919 43.8179 13.0967 43.2982 13.5674 42.7633C14.0457 42.2322 14.4708 41.686 14.9187 41.1549C15.3286 40.6504 15.731 40.0851 16.103 39.5009C16.4787 38.9168 16.8773 38.3174 17.1961 37.7218C17.3593 37.4259 17.5074 37.1301 17.644 36.838C17.7959 36.5497 17.9287 36.2689 18.0464 35.9958C18.2779 35.4496 18.4373 34.9336 18.5019 34.4784C17.9135 34.6643 17.2834 34.9412 16.6344 35.294C16.3079 35.4723 15.9777 35.6658 15.6475 35.882C15.4805 35.9882 15.3134 36.0982 15.1464 36.2158C14.9832 36.3334 14.8238 36.4548 14.6644 36.58C14.0267 37.0807 13.389 37.6384 12.7779 38.2377C12.1706 38.8371 11.6392 39.4858 11.1267 40.1458C10.9256 40.4076 10.732 40.6845 10.5422 40.9652C10.36 41.2497 10.2044 41.5456 10.045 41.8453C9.7337 42.4447 9.4642 43.0592 9.23646 43.6548C9.17952 43.8179 9.12638 43.981 9.07704 44.1403C9.05426 43.9734 9.03149 43.8027 9.00492 43.632C8.929 43.0023 8.81134 42.3384 8.65571 41.6632C8.5798 41.3256 8.4849 40.9842 8.4014 40.6504C8.31789 40.3165 8.22679 39.9827 8.1281 39.6565C7.88138 38.8409 7.56254 37.9836 7.26267 37.1338C6.96661 36.2841 6.64397 35.4306 6.29476 34.5998C6.12395 34.1939 5.95314 33.788 5.78234 33.3859C5.61153 32.9914 5.44072 32.6083 5.26232 32.2403C4.90552 31.5044 4.53354 30.8329 4.15017 30.2601C3.9414 30.8026 3.77818 31.4778 3.66431 32.2213C3.60738 32.5931 3.56183 32.9838 3.52387 33.3859C3.50489 33.7918 3.4973 34.2091 3.50489 34.6264C3.52007 35.4685 3.55424 36.3258 3.68329 37.1528C3.81614 37.9836 3.98695 38.7764 4.19192 39.4858L4.19572 39.4934ZM9.33135 28.61C9.71093 29.9946 10.212 31.2009 10.7851 32.0734C10.8572 32.1796 10.9597 32.2555 11.0508 32.282C11.1457 32.3124 11.271 32.3048 11.3886 32.2517C12.3717 31.8496 13.4725 31.1857 14.5467 30.4119C15.1009 30.0287 15.6627 29.6228 16.1978 29.2018C16.733 28.7807 17.2379 28.3369 17.7465 27.912C19.5761 26.2391 21.7093 23.8682 22.2862 22.2104C21.7017 22.3015 21.064 22.4684 20.3921 22.7036C19.7241 22.9426 19.0029 23.2347 18.3273 23.614C17.6402 23.9858 16.9418 24.4144 16.2624 24.881C15.6019 25.359 14.9794 25.8787 14.3835 26.4136C14.1519 26.626 13.9128 26.8536 13.6965 27.0888C13.4839 27.3278 13.2789 27.5782 13.0777 27.8323C12.6792 28.3406 12.3148 28.8717 11.996 29.3876C11.9808 29.4142 11.9656 29.4407 11.9504 29.4711C11.9542 29.4407 11.958 29.4104 11.9618 29.3763C12.0567 28.7845 12.1288 28.1434 12.1706 27.4871C12.1895 27.1571 12.2009 26.8271 12.2047 26.4932C12.2123 26.1632 12.2237 25.837 12.2161 25.5107C12.2047 24.6952 12.1554 23.8378 12.0984 22.9729C12.0605 22.1156 11.9922 21.2469 11.8973 20.3972C11.791 19.5399 11.7151 18.7281 11.586 17.958C11.4608 17.1879 11.3051 16.4672 11.1116 15.8375C9.79823 17.5483 8.71265 21.3569 8.77338 24.1982C8.7582 24.9417 8.83031 25.708 8.92521 26.4553C9.0239 27.2026 9.15295 27.9272 9.32376 28.6138L9.33135 28.61ZM16.6306 18.5612C16.7103 18.6219 16.8545 18.6408 16.995 18.6067C17.9894 18.3791 19.1168 17.9163 20.2783 17.3662C20.8704 17.0969 21.4587 16.801 22.0319 16.4824C22.3204 16.3192 22.6013 16.1561 22.8821 16.0006C23.1668 15.8413 23.4477 15.6781 23.721 15.515C24.2372 15.204 24.7534 14.836 25.2697 14.4491C25.8011 14.0735 26.3173 13.6676 26.788 13.2503C27.251 12.8255 27.7103 12.431 28.0861 12.0251C28.4619 11.623 28.7655 11.2284 28.9705 10.8605C28.4012 10.8681 27.7673 10.9363 27.0954 11.0653C26.4274 11.1981 25.6872 11.365 24.985 11.6268C24.2714 11.8771 23.5426 12.1806 22.8252 12.5144C22.1192 12.8596 21.4436 13.2579 20.7983 13.6676C20.5402 13.8307 20.2859 14.009 20.0353 14.1911C19.7962 14.3846 19.5571 14.5856 19.3293 14.7905C19.0029 15.0826 18.6954 15.3861 18.4032 15.6895C18.574 15.3064 18.7372 14.9043 18.8852 14.487C18.9915 14.1911 19.0902 13.8914 19.1813 13.588C19.2838 13.2921 19.3787 12.9924 19.4622 12.6965C19.6747 11.9492 19.8569 11.1488 20.0429 10.3446C20.2403 9.55174 20.4149 8.73615 20.5592 7.93194C20.6958 7.11635 20.8514 6.35767 20.9425 5.61036C21.0374 4.87064 21.0944 4.16506 21.0944 3.53155C20.7034 3.83124 20.2821 4.24851 19.8569 4.74925C19.4356 5.24998 18.9953 5.819 18.6233 6.46388C18.24 7.10118 17.8794 7.77641 17.5605 8.45164C17.2531 9.13446 17.0101 9.82866 16.8166 10.4698C16.7141 10.8112 16.6192 11.1564 16.5357 11.5054C16.4484 11.8506 16.3914 12.2147 16.3307 12.5713C16.2168 13.2845 16.1371 13.9901 16.0954 14.6653C16.0308 16.0309 16.1599 17.2979 16.418 18.2615C16.456 18.4018 16.5433 18.5156 16.6344 18.5536L16.6306 18.5612ZM23.8387 8.29991C24.3777 8.25059 25.1786 7.9547 26.063 7.51846C26.5109 7.31361 26.9778 7.07083 27.4446 6.79391C27.6762 6.65735 27.9077 6.5094 28.1355 6.35767C28.367 6.21731 28.5947 6.06557 28.8149 5.91383C29.3691 5.5269 29.9346 5.08307 30.5002 4.63924C31.0696 4.21058 31.6389 3.75157 32.1817 3.28119C32.7245 2.79942 33.2521 2.36317 33.7266 1.90037C34.2048 1.44516 34.6338 0.989949 34.9868 0.546116C34.5578 0.515769 34.0454 0.553703 33.4874 0.644746C32.9295 0.739582 32.3184 0.868559 31.711 1.09237C31.0999 1.30101 30.485 1.55138 29.8967 1.8283C29.3121 2.1166 28.7655 2.44663 28.2759 2.77287C28.0178 2.94736 27.7635 3.12945 27.513 3.31533C27.2624 3.50121 27.0233 3.71743 26.7842 3.92607C26.3135 4.34714 25.8694 4.78339 25.467 5.22343C24.6699 6.12247 24.0588 7.06704 23.702 7.88642C23.6185 8.08368 23.6603 8.31887 23.8273 8.3037L23.8387 8.29991ZM106.595 105.025C106.656 105.192 106.77 105.325 106.906 105.359C107.882 106.265 109.252 107.119 110.858 107.775C111.712 108.12 112.634 108.42 113.594 108.655C114.547 108.875 115.541 109.035 116.54 109.126C117.47 109.19 118.514 109.186 119.592 109.095C120.127 109.042 120.673 108.966 121.22 108.875C121.77 108.784 122.321 108.674 122.856 108.53C123.391 108.39 123.922 108.234 124.439 108.064C124.955 107.893 125.441 107.688 125.911 107.479C126.378 107.267 126.826 107.051 127.232 106.816C127.635 106.577 128.007 106.326 128.333 106.068C127.551 105.719 126.644 105.431 125.653 105.181C124.655 104.919 123.577 104.699 122.476 104.513C121.368 104.323 120.214 104.145 119.087 104.012C117.948 103.864 116.813 103.739 115.735 103.656C114.866 103.572 113.974 103.549 113.101 103.568C112.213 103.565 111.355 103.618 110.55 103.69C109.966 103.731 109.415 103.796 108.907 103.879C109.26 103.504 109.616 103.083 109.962 102.631C110.436 101.986 110.88 101.266 111.271 100.53C111.651 99.7711 111.966 98.9859 112.197 98.2158C112.475 97.2257 112.691 96.1977 112.824 95.1621C112.945 94.1113 113.006 93.0795 112.976 92.0629C112.941 91.0424 112.831 90.0637 112.657 89.1571C112.471 88.2391 112.216 87.3931 111.905 86.6496C111.708 86.8393 111.514 87.0593 111.328 87.3172C111.138 87.5676 110.945 87.8407 110.763 88.1404C110.577 88.4401 110.406 88.7777 110.224 89.1116C110.041 89.4492 109.867 89.8057 109.7 90.1813C109.537 90.5531 109.37 90.9362 109.199 91.3269C109.036 91.7176 108.88 92.116 108.736 92.5219C108.436 93.3147 108.166 94.1189 107.961 94.9003C107.73 95.7045 107.521 96.5581 107.339 97.4344C107.149 98.2955 106.978 99.1679 106.845 100.04C106.591 101.664 106.447 103.223 106.534 104.57C106.481 104.695 106.508 104.869 106.595 105.021V105.025ZM126.394 99.2211C127.342 99.1945 128.28 99.0731 129.225 98.91C130.121 98.7583 131.055 98.47 132.03 98.1286C133.002 97.7796 133.962 97.3206 134.9 96.8236C135.807 96.3039 136.695 95.7425 137.447 95.1355C138.194 94.521 138.859 93.9065 139.326 93.2843C138.525 93.1705 137.602 93.125 136.619 93.1402C135.632 93.1516 134.607 93.2312 133.522 93.3185C131.377 93.5157 129.142 93.8344 127.088 94.1948C126.272 94.3389 125.452 94.5475 124.636 94.7638C123.828 94.9876 123.049 95.2493 122.313 95.5073C121.823 95.6894 121.364 95.8715 120.935 96.0573C121.178 95.6628 121.413 95.2266 121.63 94.7562C121.964 94.0734 122.237 93.3071 122.457 92.5332C122.685 91.767 122.829 90.959 122.898 90.1813C123.08 88.2353 122.939 86.1451 122.526 84.2522C122.332 83.3152 122.036 82.3972 121.713 81.5778C121.387 80.7546 121.011 80.0149 120.582 79.37C120.29 79.8138 120.001 80.3525 119.774 81.005C119.538 81.6499 119.311 82.363 119.14 83.1445C118.939 83.8994 118.791 84.7225 118.654 85.5305C118.51 86.331 118.43 87.1617 118.362 87.9128C118.293 88.7132 118.271 89.5706 118.248 90.4127C118.229 91.2548 118.24 92.116 118.278 92.9543C118.328 94.521 118.514 96.0611 118.836 97.294C118.806 97.4154 118.867 97.5671 118.977 97.6847C119.068 97.8213 119.201 97.9123 119.33 97.9123C120.484 98.5117 121.956 98.9176 123.645 99.1262C124.522 99.2211 125.445 99.2552 126.39 99.2249L126.394 99.2211ZM139.136 86.0692C139.523 85.8833 139.925 85.6709 140.324 85.4319C140.719 85.1891 141.121 84.9274 141.52 84.6467C142.332 84.089 143.102 83.4328 143.827 82.7424C145.277 81.3616 146.454 79.7949 147.027 78.4558C146.249 78.5582 145.395 78.7555 144.503 79.021C143.615 79.2903 142.647 79.6052 141.69 79.9694C139.77 80.6977 137.777 81.5436 135.985 82.3934C134.554 83.0724 133.127 83.9449 131.913 84.7908C131.548 85.0564 131.199 85.3143 130.872 85.5647C131.013 85.1778 131.138 84.7681 131.237 84.328C131.586 82.9093 131.734 81.2819 131.582 79.7949C131.392 77.9247 130.907 75.9863 130.178 74.2754C129.81 73.4143 129.419 72.6253 128.956 71.9045C128.5 71.1875 128.014 70.554 127.513 70.0343C127.1 70.9713 126.914 72.3559 126.838 73.8733C126.796 74.632 126.807 75.4324 126.819 76.2139C126.83 76.6084 126.849 77.0029 126.883 77.3898C126.91 77.7768 126.936 78.1485 126.982 78.5127C127.073 79.2865 127.202 80.087 127.331 80.8836C127.464 81.6764 127.65 82.4958 127.821 83.2621C128.003 84.0359 128.208 84.7908 128.447 85.4964C128.663 86.1527 128.895 86.7482 129.161 87.2869C129.161 87.4007 129.24 87.5145 129.362 87.5942C129.468 87.6928 129.601 87.7421 129.711 87.7118C130.299 87.8294 130.956 87.9014 131.658 87.9014C132.41 87.9014 133.214 87.8294 134.057 87.6966C134.907 87.5676 135.746 87.3438 136.612 87.0783C137.481 86.8127 138.324 86.4637 139.14 86.0692H139.136ZM149.195 67.0793C149.677 66.2675 150.117 65.4405 150.421 64.6401C150.732 63.8397 150.979 63.081 151.058 62.4095C150.386 62.713 149.65 63.1189 148.883 63.5931C148.117 64.0673 147.357 64.6173 146.549 65.1939C145.744 65.7705 144.97 66.3888 144.18 67.011C143.786 67.322 143.402 67.6331 143.026 67.9479C142.651 68.2666 142.282 68.5815 141.922 68.8849C141.341 69.3743 140.802 69.9205 140.267 70.4668C139.728 71.013 139.238 71.5783 138.794 72.1207C138.551 72.409 138.324 72.6935 138.119 72.9667C138.16 72.6253 138.194 72.2649 138.213 71.8969C138.236 71.1989 138.206 70.4592 138.13 69.7271C138.05 68.9949 137.891 68.2552 137.697 67.5724C137.576 67.1437 137.428 66.7113 137.261 66.2788C137.094 65.8502 136.919 65.4215 136.729 65.0042C136.354 64.1697 135.883 63.3579 135.412 62.6182C134.941 61.8784 134.387 61.188 133.856 60.5963C133.317 60.0007 132.759 59.4924 132.193 59.0827C132.102 59.572 132.042 60.1448 132.068 60.7821C132.102 61.4232 132.148 62.1174 132.258 62.8458C132.47 64.2949 132.808 65.854 133.233 67.1968C133.473 67.91 133.708 68.6308 133.989 69.3591C134.125 69.7233 134.277 70.0874 134.425 70.444C134.57 70.8006 134.721 71.1534 134.877 71.5024C135.507 72.8794 136.171 74.1464 136.896 75.1024C136.923 75.1934 137.01 75.2655 137.124 75.3072C137.23 75.3641 137.344 75.3831 137.428 75.3414C138.62 75.2465 140.051 74.8406 141.485 74.1426C141.85 73.9681 142.222 73.7785 142.59 73.5698C142.958 73.3612 143.311 73.1336 143.672 72.8984C144.382 72.4204 145.103 71.8931 145.737 71.3127C146.963 70.2278 148.223 68.7028 149.195 67.0793ZM150.732 50.7447C150.994 49.8912 151.134 49.0339 151.237 48.2372C151.286 47.8389 151.316 47.4558 151.328 47.0916C151.343 46.7275 151.328 46.3898 151.286 46.075C150.755 46.5302 150.17 47.0992 149.593 47.7289C149.016 48.3624 148.435 49.0642 147.874 49.8001C147.297 50.5361 146.708 51.3023 146.166 52.0724C145.615 52.8425 145.061 53.6163 144.579 54.3674C143.778 55.5662 143.095 56.9166 142.541 58.1381C142.427 58.3999 142.32 58.6578 142.226 58.9082C142.195 58.6388 142.161 58.3657 142.115 58.085C141.922 56.7725 141.474 55.3386 140.859 54.1171C140.453 53.347 140.013 52.5883 139.5 51.86C138.98 51.1354 138.437 50.445 137.86 49.8229C137.264 49.197 136.657 48.6393 136.054 48.1614C135.446 47.6872 134.858 47.2927 134.254 47.0006C134.258 47.2396 134.27 47.4975 134.292 47.7744C134.319 48.0476 134.365 48.3397 134.429 48.6431C134.554 49.2463 134.778 49.8988 134.983 50.5702C135.443 51.9093 136.035 53.3242 136.676 54.5154C137.006 55.1451 137.382 55.7862 137.777 56.4197C138.156 57.0532 138.563 57.6791 138.988 58.2785C139.823 59.4734 140.684 60.5621 141.55 61.336C141.561 61.3474 141.576 61.3587 141.592 61.3663C141.637 61.4232 141.713 61.4612 141.8 61.4725C141.888 61.4953 141.975 61.4877 142.036 61.4498C142.051 61.446 142.07 61.4422 142.085 61.4346C143.144 61.0173 144.351 60.2397 145.505 59.2003C146.074 58.6806 146.64 58.1002 147.179 57.4705C147.703 56.8408 148.192 56.1693 148.648 55.4751C149.483 54.1626 150.254 52.4555 150.732 50.7409V50.7447ZM148.284 37.1604C148.413 36.3334 148.447 35.4761 148.462 34.634C148.466 34.2129 148.462 33.7956 148.439 33.3935C148.405 32.9914 148.359 32.6007 148.299 32.2289C148.185 31.4854 148.022 30.814 147.813 30.2677C147.429 30.8405 147.058 31.512 146.701 32.2479C146.522 32.6159 146.348 32.999 146.181 33.3935C146.01 33.7956 145.839 34.2015 145.668 34.6074C145.323 35.4382 144.996 36.2917 144.7 37.1414C144.4 37.9912 144.082 38.8447 143.835 39.6641C143.732 39.9903 143.641 40.3241 143.562 40.6579C143.478 40.9918 143.379 41.3332 143.307 41.6708C143.152 42.346 143.034 43.0137 142.958 43.6396C142.932 43.8141 142.909 43.981 142.886 44.1479C142.837 43.9886 142.784 43.8255 142.727 43.6624C142.503 43.0668 142.229 42.4522 141.918 41.8529C141.762 41.5532 141.603 41.2573 141.421 40.9728C141.235 40.6883 141.037 40.4152 140.836 40.1534C140.324 39.4972 139.792 38.8485 139.185 38.2453C138.574 37.646 137.936 37.0845 137.295 36.5876C137.135 36.4624 136.976 36.341 136.813 36.2234C136.646 36.1096 136.479 35.9958 136.312 35.8896C135.978 35.6772 135.648 35.4799 135.325 35.3016C134.676 34.9488 134.046 34.6719 133.457 34.486C133.518 34.9412 133.678 35.4571 133.913 36.0034C134.031 36.2765 134.163 36.5572 134.315 36.8455C134.452 37.1338 134.6 37.4335 134.763 37.7294C135.082 38.325 135.48 38.9243 135.856 39.5085C136.228 40.0927 136.631 40.6579 137.041 41.1625C137.488 41.6936 137.914 42.2398 138.392 42.7709C138.863 43.302 139.367 43.8217 139.865 44.3186C140.829 45.3087 141.842 46.185 142.78 46.773C142.837 46.8071 142.897 46.8337 142.954 46.8488C142.992 46.864 143.034 46.8678 143.08 46.864C143.125 46.864 143.167 46.8564 143.201 46.8375C143.258 46.8147 143.315 46.7844 143.364 46.7464C144.211 46.0636 145.084 45.0204 145.885 43.7534C146.268 43.1199 146.613 42.4371 146.936 41.7201C147.251 41.0032 147.562 40.2521 147.764 39.5009C147.968 38.7916 148.139 37.9949 148.272 37.168L148.284 37.1604ZM143.042 26.4553C143.137 25.708 143.209 24.9417 143.193 24.1982C143.254 21.3607 142.169 17.5483 140.855 15.8375C140.662 16.4672 140.506 17.1879 140.381 17.958C140.252 18.7319 140.176 19.5399 140.07 20.3972C139.978 21.2507 139.91 22.1194 139.872 22.9729C139.811 23.8378 139.762 24.6989 139.755 25.5107C139.747 25.837 139.762 26.1632 139.766 26.4932C139.766 26.8271 139.781 27.1571 139.8 27.4871C139.838 28.1434 139.91 28.7807 140.009 29.3763C140.013 29.4066 140.016 29.437 140.02 29.4711C140.005 29.4445 139.99 29.4142 139.975 29.3876C139.656 28.8717 139.291 28.3406 138.897 27.8323C138.699 27.5782 138.491 27.3278 138.278 27.0888C138.062 26.8498 137.822 26.626 137.591 26.4136C136.999 25.8787 136.372 25.359 135.712 24.881C135.033 24.4144 134.338 23.9858 133.647 23.614C132.972 23.2347 132.247 22.9388 131.582 22.7036C130.91 22.4684 130.273 22.3015 129.688 22.2104C130.265 23.8682 132.398 26.2391 134.228 27.912C134.74 28.3406 135.245 28.7807 135.78 29.2018C136.312 29.6266 136.877 30.0325 137.432 30.4119C138.506 31.1857 139.606 31.8458 140.586 32.2517C140.703 32.301 140.832 32.3124 140.924 32.282C141.018 32.2555 141.121 32.1796 141.189 32.0734C141.762 31.2047 142.263 29.9946 142.643 28.61C142.814 27.9234 142.943 27.1988 143.042 26.4515V26.4553ZM135.564 18.2729C135.822 17.3093 135.951 16.0385 135.887 14.6767C135.845 14.0014 135.765 13.2959 135.651 12.5827C135.591 12.2299 135.534 11.8657 135.446 11.5167C135.359 11.1677 135.264 10.8225 135.165 10.4811C134.972 9.84004 134.725 9.14584 134.421 8.46302C134.103 7.78779 133.742 7.11256 133.359 6.47526C132.987 5.83038 132.546 5.26136 132.125 4.76063C131.7 4.25989 131.282 3.84262 130.888 3.54293C130.888 4.17644 130.945 4.87822 131.039 5.62174C131.131 6.36905 131.29 7.12773 131.423 7.94332C131.567 8.74753 131.742 9.56312 131.939 10.356C132.121 11.1602 132.307 11.9606 132.52 12.7079C132.603 13.0076 132.698 13.3035 132.801 13.5993C132.892 13.9028 132.99 14.2025 133.097 14.4984C133.249 14.9157 133.408 15.3178 133.579 15.7009C133.287 15.3974 132.979 15.094 132.653 14.8019C132.425 14.597 132.186 14.396 131.947 14.2025C131.696 14.0166 131.438 13.8421 131.184 13.679C130.535 13.2693 129.859 12.871 129.153 12.5258C128.436 12.1882 127.707 11.8885 126.993 11.6381C126.291 11.3764 125.555 11.2095 124.883 11.0767C124.207 10.9515 123.573 10.8794 123.008 10.8719C123.209 11.2436 123.513 11.6381 123.892 12.0364C124.264 12.4385 124.727 12.8369 125.19 13.2617C125.661 13.679 126.177 14.0811 126.709 14.4605C127.229 14.8474 127.745 15.2153 128.257 15.5264C128.527 15.6933 128.808 15.8526 129.096 16.012C129.377 16.1713 129.658 16.3306 129.946 16.4937C130.519 16.8086 131.112 17.1083 131.7 17.3776C132.861 17.9277 133.989 18.3905 134.983 18.6181C135.128 18.6522 135.268 18.6294 135.348 18.5725C135.439 18.5346 135.526 18.4208 135.564 18.2804V18.2729ZM128.265 7.88642C127.908 7.06704 127.297 6.12247 126.5 5.22343C126.097 4.78339 125.657 4.34714 125.183 3.92607C124.947 3.71743 124.708 3.505 124.458 3.31533C124.207 3.12566 123.953 2.94736 123.695 2.77287C123.209 2.44663 122.658 2.1166 122.074 1.8283C121.486 1.55517 120.871 1.3048 120.26 1.09237C119.652 0.868559 119.041 0.739582 118.483 0.644746C117.925 0.553703 117.409 0.515769 116.984 0.546116C117.337 0.986155 117.766 1.44137 118.244 1.90037C118.719 2.36317 119.25 2.79563 119.789 3.28119C120.332 3.75157 120.901 4.21058 121.47 4.63924C122.04 5.08307 122.602 5.5269 123.16 5.91383C123.38 6.06936 123.607 6.21731 123.839 6.35767C124.067 6.5132 124.298 6.65735 124.53 6.79391C124.997 7.07083 125.464 7.31361 125.911 7.51846C126.8 7.95091 127.597 8.25059 128.136 8.29991C128.303 8.31508 128.348 8.08368 128.261 7.88263L128.265 7.88642Z" fill="#CE993C"/>
<path d="M40.9056 19.2517C41.4915 19.3766 41.9621 19.6695 42.3175 20.1305C42.6728 20.5819 42.8505 21.1006 42.8505 21.6864C42.8505 22.5316 42.5528 23.2039 41.9573 23.7034C41.3714 24.1932 40.5502 24.4381 39.4938 24.4381H34.7828V14.3247H39.3353C40.363 14.3247 41.1649 14.56 41.7412 15.0306C42.3271 15.5012 42.62 16.1399 42.62 16.9467C42.62 17.5421 42.4615 18.0368 42.1446 18.4305C41.8372 18.8243 41.4242 19.0981 40.9056 19.2517ZM37.2463 18.4161H38.8599C39.2632 18.4161 39.5706 18.3297 39.7819 18.1568C40.0028 17.9743 40.1132 17.7102 40.1132 17.3645C40.1132 17.0187 40.0028 16.7546 39.7819 16.5721C39.5706 16.3896 39.2632 16.2984 38.8599 16.2984H37.2463V18.4161ZM39.0616 22.45C39.4745 22.45 39.7915 22.3588 40.0124 22.1763C40.2429 21.9842 40.3581 21.7105 40.3581 21.3551C40.3581 20.9997 40.2381 20.7212 39.998 20.5195C39.7675 20.3178 39.4457 20.217 39.0327 20.217H37.2463V22.45H39.0616ZM46.7429 16.2984V18.3441H50.042V20.2458H46.7429V22.4644H50.4742V24.4381H44.2793V14.3247H50.4742V16.2984H46.7429ZM55.7328 24.539C54.9933 24.539 54.3306 24.4189 53.7447 24.1788C53.1589 23.9387 52.6882 23.5833 52.3329 23.1127C51.9871 22.6421 51.8046 22.0754 51.7854 21.4127H54.4074C54.4458 21.7873 54.5755 22.0754 54.7964 22.2771C55.0173 22.4692 55.3054 22.5652 55.6608 22.5652C56.0258 22.5652 56.3139 22.4836 56.5252 22.3203C56.7365 22.1475 56.8421 21.9121 56.8421 21.6144C56.8421 21.3647 56.7557 21.1582 56.5828 20.9949C56.4196 20.8317 56.2131 20.6972 55.9633 20.5915C55.7232 20.4859 55.3775 20.3658 54.9261 20.2314C54.273 20.0297 53.7399 19.828 53.3269 19.6263C52.9139 19.4246 52.5586 19.1269 52.2608 18.7331C51.9631 18.3393 51.8142 17.8255 51.8142 17.1916C51.8142 16.2503 52.1552 15.5156 52.8371 14.9874C53.519 14.4495 54.4074 14.1806 55.5023 14.1806C56.6164 14.1806 57.5145 14.4495 58.1964 14.9874C58.8783 15.5156 59.2433 16.2551 59.2913 17.206H56.626C56.6068 16.8794 56.4868 16.6249 56.2659 16.4424C56.045 16.2503 55.7617 16.1543 55.4159 16.1543C55.1182 16.1543 54.878 16.2359 54.6956 16.3992C54.5131 16.5529 54.4218 16.7786 54.4218 17.0763C54.4218 17.4029 54.5755 17.6574 54.8828 17.8399C55.1902 18.0224 55.6704 18.2192 56.3235 18.4305C56.9766 18.6514 57.5049 18.8627 57.9082 19.0644C58.3212 19.2661 58.6766 19.5591 58.9743 19.9432C59.2721 20.3274 59.4209 20.822 59.4209 21.4271C59.4209 22.0034 59.2721 22.5268 58.9743 22.9974C58.6862 23.4681 58.2636 23.8426 57.7065 24.1212C57.1495 24.3997 56.4916 24.539 55.7328 24.539ZM68.2124 14.3247V16.2984H65.5327V24.4381H63.0692V16.2984H60.3896V14.3247H68.2124ZM79.0855 14.3247V16.2984H74.9652V18.4305H78.0483V20.3466H74.9652V24.4381H72.5017V14.3247H79.0855ZM85.1633 24.539C84.2125 24.539 83.3385 24.3181 82.5413 23.8763C81.7538 23.4344 81.1247 22.8198 80.6541 22.0322C80.193 21.235 79.9625 20.3418 79.9625 19.3526C79.9625 18.3633 80.193 17.4749 80.6541 16.6873C81.1247 15.8998 81.7538 15.2851 82.5413 14.8433C83.3385 14.4015 84.2125 14.1806 85.1633 14.1806C86.1142 14.1806 86.9834 14.4015 87.7709 14.8433C88.5681 15.2851 89.1924 15.8998 89.6438 16.6873C90.1048 17.4749 90.3353 18.3633 90.3353 19.3526C90.3353 20.3418 90.1048 21.235 89.6438 22.0322C89.1828 22.8198 88.5585 23.4344 87.7709 23.8763C86.9834 24.3181 86.1142 24.539 85.1633 24.539ZM85.1633 22.2915C85.9701 22.2915 86.6136 22.0226 87.0938 21.4848C87.5836 20.9469 87.8286 20.2362 87.8286 19.3526C87.8286 18.4594 87.5836 17.7486 87.0938 17.2204C86.6136 16.6825 85.9701 16.4136 85.1633 16.4136C84.347 16.4136 83.6939 16.6777 83.204 17.206C82.7238 17.7342 82.4837 18.4498 82.4837 19.3526C82.4837 20.2458 82.7238 20.9613 83.204 21.4992C83.6939 22.0274 84.347 22.2915 85.1633 22.2915ZM96.8634 24.4381L94.7601 20.6204H94.1694V24.4381H91.7059V14.3247H95.8406C96.6377 14.3247 97.3148 14.4639 97.8719 14.7424C98.4386 15.021 98.8611 15.4052 99.1397 15.895C99.4182 16.3752 99.5575 16.913 99.5575 17.5085C99.5575 18.1808 99.3654 18.7811 98.9812 19.3094C98.6066 19.8376 98.0496 20.2122 97.31 20.4331L99.6439 24.4381H96.8634ZM94.1694 18.8772H95.6965C96.1479 18.8772 96.4841 18.7667 96.705 18.5458C96.9355 18.3249 97.0507 18.0128 97.0507 17.6094C97.0507 17.2252 96.9355 16.9227 96.705 16.7018C96.4841 16.4808 96.1479 16.3704 95.6965 16.3704H94.1694V18.8772ZM103.567 16.2984V18.3441H106.867V20.2458H103.567V22.4644H107.299V24.4381H101.104V14.3247H107.299V16.2984H103.567ZM115.093 24.4381L113.033 21.3407L111.218 24.4381H108.423L111.664 19.2949L108.351 14.3247H111.218L113.249 17.3789L115.035 14.3247H117.83L114.618 19.4246L117.96 24.4381H115.093ZM51.7376 29.3247V31.2984H49.058V39.4381H46.5944V31.2984H43.9148V29.3247H51.7376ZM58.1315 39.4381L56.0282 35.6204H55.4375V39.4381H52.974V29.3247H57.1087C57.9058 29.3247 58.5829 29.4639 59.14 29.7424C59.7067 30.021 60.1293 30.4052 60.4078 30.895C60.6863 31.3752 60.8256 31.913 60.8256 32.5085C60.8256 33.1808 60.6335 33.7811 60.2493 34.3094C59.8747 34.8376 59.3177 35.2122 58.5781 35.4331L60.912 39.4381H58.1315ZM55.4375 33.8772H56.9646C57.416 33.8772 57.7522 33.7667 57.9731 33.5458C58.2036 33.3249 58.3188 33.0128 58.3188 32.6094C58.3188 32.2252 58.2036 31.9227 57.9731 31.7018C57.7522 31.4808 57.416 31.3704 56.9646 31.3704H55.4375V33.8772ZM68.6677 37.6517H64.8932L64.2881 39.4381H61.7093L65.3686 29.3247H68.2211L71.8804 39.4381H69.2728L68.6677 37.6517ZM68.0338 35.75L66.7805 32.0475L65.5415 35.75H68.0338ZM76.7831 29.3247C77.8492 29.3247 78.7808 29.536 79.5779 29.9585C80.3751 30.3811 80.9898 30.9766 81.422 31.745C81.8638 32.5037 82.0847 33.3825 82.0847 34.3814C82.0847 35.3706 81.8638 36.2494 81.422 37.0178C80.9898 37.7862 80.3703 38.3816 79.5635 38.8042C78.7664 39.2268 77.8395 39.4381 76.7831 39.4381H72.9941V29.3247H76.7831ZM76.6246 37.3059C77.5562 37.3059 78.2814 37.0514 78.8 36.5424C79.3186 36.0333 79.5779 35.313 79.5779 34.3814C79.5779 33.4498 79.3186 32.7246 78.8 32.206C78.2814 31.6873 77.5562 31.428 76.6246 31.428H75.4577V37.3059H76.6246ZM85.925 29.3247V39.4381H83.4614V29.3247H85.925ZM96.7576 39.4381H94.2941L90.1738 33.2V39.4381H87.7103V29.3247H90.1738L94.2941 35.5915V29.3247H96.7576V39.4381ZM105.257 32.5229C105.074 32.1868 104.81 31.9323 104.464 31.7594C104.128 31.5769 103.73 31.4857 103.269 31.4857C102.472 31.4857 101.833 31.7498 101.353 32.278C100.872 32.7967 100.632 33.493 100.632 34.367C100.632 35.2986 100.882 36.0285 101.381 36.5568C101.891 37.0754 102.587 37.3347 103.47 37.3347C104.076 37.3347 104.585 37.1811 104.998 36.8737C105.42 36.5664 105.727 36.1246 105.92 35.5483H102.793V33.7331H108.153V36.0237C107.97 36.6384 107.658 37.2099 107.216 37.7381C106.784 38.2664 106.232 38.6938 105.559 39.0203C104.887 39.3469 104.128 39.5101 103.283 39.5101C102.284 39.5101 101.391 39.294 100.604 38.8618C99.8256 38.42 99.2157 37.8102 98.7739 37.0322C98.3417 36.2542 98.1256 35.3658 98.1256 34.367C98.1256 33.3681 98.3417 32.4797 98.7739 31.7018C99.2157 30.9142 99.8256 30.3043 100.604 29.8721C101.381 29.4303 102.27 29.2094 103.269 29.2094C104.479 29.2094 105.497 29.5023 106.323 30.0882C107.159 30.6741 107.711 31.4857 107.98 32.5229H105.257ZM46.289 47.5806C46.289 48.1664 46.1545 48.7043 45.8856 49.1941C45.6166 49.6743 45.2037 50.0633 44.6466 50.361C44.0895 50.6588 43.398 50.8076 42.572 50.8076H41.0449V54.4381H38.5814V44.3247H42.572C43.3788 44.3247 44.0607 44.4639 44.6178 44.7424C45.1748 45.021 45.5926 45.4052 45.8712 45.895C46.1497 46.3848 46.289 46.9467 46.289 47.5806ZM42.3848 48.8483C42.8554 48.8483 43.2059 48.7379 43.4364 48.517C43.6669 48.2961 43.7822 47.9839 43.7822 47.5806C43.7822 47.1772 43.6669 46.865 43.4364 46.6441C43.2059 46.4232 42.8554 46.3128 42.3848 46.3128H41.0449V48.8483H42.3848ZM50.035 52.5364H53.2621V54.4381H47.5715V44.3247H50.035V52.5364ZM60.7328 52.6517H56.9583L56.3532 54.4381H53.7744L57.4337 44.3247H60.2862L63.9455 54.4381H61.3379L60.7328 52.6517ZM60.0989 50.75L58.8456 47.0475L57.6066 50.75H60.0989ZM72.3346 44.3247V46.2984H69.6549V54.4381H67.1914V46.2984H64.5118V44.3247H72.3346ZM80.1548 44.3247V46.2984H76.0345V48.4305H79.1175V50.3466H76.0345V54.4381H73.5709V44.3247H80.1548ZM86.2326 54.539C85.2817 54.539 84.4077 54.3181 83.6106 53.8763C82.823 53.4344 82.1939 52.8198 81.7233 52.0322C81.2623 51.235 81.0318 50.3418 81.0318 49.3526C81.0318 48.3633 81.2623 47.4749 81.7233 46.6873C82.1939 45.8998 82.823 45.2851 83.6106 44.8433C84.4077 44.4015 85.2817 44.1806 86.2326 44.1806C87.1834 44.1806 88.0526 44.4015 88.8402 44.8433C89.6373 45.2851 90.2616 45.8998 90.713 46.6873C91.174 47.4749 91.4046 48.3633 91.4046 49.3526C91.4046 50.3418 91.174 51.235 90.713 52.0322C90.252 52.8198 89.6277 53.4344 88.8402 53.8763C88.0526 54.3181 87.1834 54.539 86.2326 54.539ZM86.2326 52.2915C87.0393 52.2915 87.6828 52.0226 88.1631 51.4848C88.6529 50.9469 88.8978 50.2362 88.8978 49.3526C88.8978 48.4594 88.6529 47.7486 88.1631 47.2204C87.6828 46.6825 87.0393 46.4136 86.2326 46.4136C85.4162 46.4136 84.7631 46.6777 84.2733 47.206C83.7931 47.7342 83.5529 48.4498 83.5529 49.3526C83.5529 50.2458 83.7931 50.9613 84.2733 51.4992C84.7631 52.0274 85.4162 52.2915 86.2326 52.2915ZM97.9327 54.4381L95.8293 50.6204H95.2386V54.4381H92.7751V44.3247H96.9098C97.707 44.3247 98.3841 44.4639 98.9411 44.7424C99.5078 45.021 99.9304 45.4052 100.209 45.895C100.487 46.3752 100.627 46.913 100.627 47.5085C100.627 48.1808 100.435 48.7811 100.05 49.3094C99.6759 49.8376 99.1188 50.2122 98.3793 50.4331L100.713 54.4381H97.9327ZM95.2386 48.8772H96.7657C97.2171 48.8772 97.5533 48.7667 97.7742 48.5458C98.0047 48.3249 98.12 48.0128 98.12 47.6094C98.12 47.2252 98.0047 46.9227 97.7742 46.7018C97.5533 46.4808 97.2171 46.3704 96.7657 46.3704H95.2386V48.8772ZM113.626 44.3247V54.4381H111.163V48.3729L108.901 54.4381H106.913L104.637 48.3585V54.4381H102.173V44.3247H105.083L107.921 51.3263L110.731 44.3247H113.626ZM54.5301 68.5364H57.7571V70.4381H52.0665V60.3247H54.5301V68.5364ZM65.2279 68.6517H61.4533L60.8483 70.4381H58.2695L61.9288 60.3247H64.7813L68.4406 70.4381H65.833L65.2279 68.6517ZM64.594 66.75L63.3406 63.0475L62.1016 66.75H64.594ZM76.8296 60.3247V62.2984H74.15V70.4381H71.6864V62.2984H69.0068V60.3247H76.8296ZM84.3617 68.6517H80.5871L79.9821 70.4381H77.4033L81.0626 60.3247H83.9151L87.5744 70.4381H84.9668L84.3617 68.6517ZM83.7278 66.75L82.4744 63.0475L81.2354 66.75H83.7278ZM100.141 60.3247V70.4381H97.6778V64.3729L95.416 70.4381H93.4278L91.1516 64.3585V70.4381H88.6881V60.3247H91.5982L94.4363 67.3263L97.2456 60.3247H100.141Z" fill="white"/>
<path d="M50.5488 79.6403C50.3756 79.2761 50.1249 78.9955 49.7965 78.7985C49.4681 78.5955 49.086 78.494 48.6502 78.494C48.2144 78.494 47.8203 78.5955 47.4681 78.7985C47.1218 78.9955 46.8472 79.2821 46.6442 79.6582C46.4472 80.0284 46.3486 80.4582 46.3486 80.9478C46.3486 81.4373 46.4472 81.8672 46.6442 82.2374C46.8472 82.6075 47.1218 82.8941 47.4681 83.0971C47.8203 83.2941 48.2144 83.3926 48.6502 83.3926C49.2592 83.3926 49.7607 83.2105 50.1547 82.8463C50.5488 82.4822 50.7786 81.9896 50.8443 81.3687H48.3547V80.706H51.713V81.3329C51.6652 81.8463 51.504 82.318 51.2294 82.7478C50.9547 83.1717 50.5935 83.509 50.1458 83.7598C49.698 84.0046 49.1995 84.127 48.6502 84.127C48.0711 84.127 47.5427 83.9926 47.0651 83.724C46.5875 83.4493 46.2083 83.0702 45.9277 82.5866C45.6531 82.103 45.5158 81.5568 45.5158 80.9478C45.5158 80.3388 45.6531 79.7925 45.9277 79.3089C46.2083 78.8194 46.5875 78.4403 47.0651 78.1716C47.5427 77.897 48.0711 77.7596 48.6502 77.7596C49.3129 77.7596 49.898 77.9238 50.4055 78.2522C50.9189 78.5806 51.2921 79.0433 51.5249 79.6403H50.5488ZM53.6054 83.4105H55.7906V84.0732H52.7905V77.8313H53.6054V83.4105ZM59.486 84.1359C58.9069 84.1359 58.3785 84.0016 57.9009 83.7329C57.4232 83.4583 57.0441 83.0792 56.7635 82.5956C56.4889 82.106 56.3516 81.5568 56.3516 80.9478C56.3516 80.3388 56.4889 79.7925 56.7635 79.3089C57.0441 78.8194 57.4232 78.4403 57.9009 78.1716C58.3785 77.897 58.9069 77.7596 59.486 77.7596C60.0711 77.7596 60.6024 77.897 61.08 78.1716C61.5577 78.4403 61.9338 78.8164 62.2084 79.3C62.4831 79.7836 62.6204 80.3328 62.6204 80.9478C62.6204 81.5627 62.4831 82.112 62.2084 82.5956C61.9338 83.0792 61.5577 83.4583 61.08 83.7329C60.6024 84.0016 60.0711 84.1359 59.486 84.1359ZM59.486 83.4284C59.9218 83.4284 60.3129 83.327 60.6591 83.124C61.0114 82.921 61.286 82.6314 61.483 82.2553C61.686 81.8792 61.7875 81.4433 61.7875 80.9478C61.7875 80.4463 61.686 80.0104 61.483 79.6403C61.286 79.2642 61.0144 78.9746 60.6681 78.7716C60.3218 78.5686 59.9278 78.4671 59.486 78.4671C59.0442 78.4671 58.6501 78.5686 58.3039 78.7716C57.9576 78.9746 57.6829 79.2642 57.4799 79.6403C57.2829 80.0104 57.1844 80.4463 57.1844 80.9478C57.1844 81.4433 57.2829 81.8792 57.4799 82.2553C57.6829 82.6314 57.9576 82.921 58.3039 83.124C58.6561 83.327 59.0501 83.4284 59.486 83.4284ZM66.8217 80.8582C67.0486 80.894 67.2545 80.9866 67.4396 81.1358C67.6307 81.2851 67.7799 81.4702 67.8874 81.6911C68.0008 81.912 68.0575 82.1478 68.0575 82.3986C68.0575 82.715 67.9769 83.0016 67.8158 83.2583C67.6546 83.509 67.4187 83.7091 67.1083 83.8583C66.8038 84.0016 66.4426 84.0732 66.0247 84.0732H63.6962V77.8313H65.9351C66.359 77.8313 66.7202 77.9029 67.0187 78.0462C67.3172 78.1835 67.5411 78.3716 67.6904 78.6104C67.8396 78.8492 67.9143 79.1179 67.9143 79.4164C67.9143 79.7866 67.8128 80.094 67.6098 80.3388C67.4128 80.5776 67.1501 80.7508 66.8217 80.8582ZM64.5112 80.5269H65.8814C66.2635 80.5269 66.559 80.4373 66.768 80.2582C66.9769 80.0791 67.0814 79.8313 67.0814 79.5149C67.0814 79.1985 66.9769 78.9507 66.768 78.7716C66.559 78.5925 66.2575 78.5029 65.8635 78.5029H64.5112V80.5269ZM65.953 83.4016C66.359 83.4016 66.6754 83.3061 66.9023 83.115C67.1292 82.924 67.2426 82.6583 67.2426 82.318C67.2426 81.9717 67.1232 81.7 66.8844 81.503C66.6456 81.3 66.3262 81.1985 65.9261 81.1985H64.5112V83.4016H65.953ZM72.8781 82.6851H70.1556L69.6541 84.0732H68.7944L71.0512 77.8671H71.9915L74.2393 84.0732H73.3796L72.8781 82.6851ZM72.6453 82.0224L71.5169 78.8701L70.3885 82.0224H72.6453ZM76.0379 83.4105H78.223V84.0732H75.2229V77.8313H76.0379V83.4105ZM85.0045 77.8313V78.494H82.2909V80.5985H84.494V81.2612H82.2909V84.0732H81.476V77.8313H85.0045ZM88.8186 84.1359C88.2395 84.1359 87.7111 84.0016 87.2335 83.7329C86.7559 83.4583 86.3768 83.0792 86.0962 82.5956C85.8215 82.106 85.6842 81.5568 85.6842 80.9478C85.6842 80.3388 85.8215 79.7925 86.0962 79.3089C86.3768 78.8194 86.7559 78.4403 87.2335 78.1716C87.7111 77.897 88.2395 77.7596 88.8186 77.7596C89.4037 77.7596 89.9351 77.897 90.4127 78.1716C90.8903 78.4403 91.2665 78.8164 91.5411 79.3C91.8157 79.7836 91.9531 80.3328 91.9531 80.9478C91.9531 81.5627 91.8157 82.112 91.5411 82.5956C91.2665 83.0792 90.8903 83.4583 90.4127 83.7329C89.9351 84.0016 89.4037 84.1359 88.8186 84.1359ZM88.8186 83.4284C89.2545 83.4284 89.6455 83.327 89.9918 83.124C90.3441 82.921 90.6187 82.6314 90.8157 82.2553C91.0187 81.8792 91.1202 81.4433 91.1202 80.9478C91.1202 80.4463 91.0187 80.0104 90.8157 79.6403C90.6187 79.2642 90.347 78.9746 90.0008 78.7716C89.6545 78.5686 89.2604 78.4671 88.8186 78.4671C88.3768 78.4671 87.9828 78.5686 87.6365 78.7716C87.2902 78.9746 87.0156 79.2642 86.8126 79.6403C86.6156 80.0104 86.5171 80.4463 86.5171 80.9478C86.5171 81.4433 86.6156 81.8792 86.8126 82.2553C87.0156 82.6314 87.2902 82.921 87.6365 83.124C87.9888 83.327 88.3828 83.4284 88.8186 83.4284ZM96.3156 84.0732L94.829 81.5209H93.8439V84.0732H93.0289V77.8313H95.0439C95.5155 77.8313 95.9126 77.9119 96.235 78.0731C96.5633 78.2343 96.8081 78.4522 96.9693 78.7268C97.1305 79.0015 97.2111 79.3149 97.2111 79.6671C97.2111 80.097 97.0857 80.4761 96.835 80.8045C96.5902 81.1329 96.22 81.3508 95.7245 81.4582L97.2917 84.0732H96.3156ZM93.8439 80.8672H95.0439C95.4857 80.8672 95.817 80.7597 96.0379 80.5448C96.2588 80.3239 96.3693 80.0313 96.3693 79.6671C96.3693 79.297 96.2588 79.0104 96.0379 78.8074C95.823 78.6044 95.4917 78.5029 95.0439 78.5029H93.8439V80.8672ZM99.2923 78.494V80.5806H101.567V81.2523H99.2923V83.4016H101.836V84.0732H98.4774V77.8223H101.836V78.494H99.2923ZM105.621 80.9567L107.538 84.0732H106.615L105.12 81.6374L103.696 84.0732H102.791L104.699 80.9567L102.782 77.8313H103.696L105.2 80.2761L106.633 77.8313H107.547L105.621 80.9567ZM61.9942 91.6851H59.2718L58.7703 93.0732H57.9105L60.1673 86.8671H61.1076L63.3555 93.0732H62.4957L61.9942 91.6851ZM61.7614 91.0224L60.633 87.8701L59.5046 91.0224H61.7614ZM72.184 86.8313L70.375 93.0732H69.4616L68.0108 88.0492L66.5063 93.0732L65.6018 93.0822L63.8554 86.8313H64.7241L66.0854 92.124L67.5899 86.8313H68.5033L69.9362 92.1061L71.3064 86.8313H72.184ZM76.7655 91.6851H74.0431L73.5416 93.0732H72.6818L74.9386 86.8671H75.8789L78.1268 93.0732H77.267L76.7655 91.6851ZM76.5327 91.0224L75.4043 87.8701L74.2759 91.0224H76.5327ZM82.397 93.0732L80.9104 90.5209H79.9253V93.0732H79.1103V86.8313H81.1253C81.597 86.8313 81.994 86.9119 82.3164 87.0731C82.6447 87.2343 82.8895 87.4522 83.0507 87.7268C83.2119 88.0015 83.2925 88.3149 83.2925 88.6671C83.2925 89.097 83.1671 89.4761 82.9164 89.8045C82.6716 90.1329 82.3015 90.3508 81.8059 90.4582L83.3731 93.0732H82.397ZM79.9253 89.8672H81.1253C81.5671 89.8672 81.8985 89.7597 82.1194 89.5448C82.3403 89.3239 82.4507 89.0313 82.4507 88.6671C82.4507 88.297 82.3403 88.0104 82.1194 87.8074C81.9044 87.6044 81.5731 87.5029 81.1253 87.5029H79.9253V89.8672ZM86.5021 86.8313C87.1828 86.8313 87.7708 86.9596 88.2664 87.2164C88.7679 87.4671 89.15 87.8283 89.4127 88.3C89.6813 88.7716 89.8157 89.3269 89.8157 89.9657C89.8157 90.6045 89.6813 91.1598 89.4127 91.6314C89.15 92.0971 88.7679 92.4553 88.2664 92.7061C87.7708 92.9509 87.1828 93.0732 86.5021 93.0732H84.5588V86.8313H86.5021ZM86.5021 92.4016C87.3081 92.4016 87.9231 92.1896 88.347 91.7657C88.7709 91.3359 88.9828 90.7359 88.9828 89.9657C88.9828 89.1896 88.7679 88.5836 88.338 88.1477C87.9141 87.7119 87.3022 87.494 86.5021 87.494H85.3738V92.4016H86.5021ZM92.8698 93.1359C92.4578 93.1359 92.0877 93.0643 91.7593 92.921C91.4369 92.7717 91.1832 92.5688 90.9981 92.312C90.813 92.0493 90.7175 91.7478 90.7115 91.4075H91.5802C91.61 91.7001 91.7294 91.9478 91.9384 92.1508C92.1533 92.3478 92.4638 92.4464 92.8698 92.4464C93.2578 92.4464 93.5623 92.3508 93.7832 92.1598C94.0101 91.9628 94.1235 91.712 94.1235 91.4075C94.1235 91.1687 94.0579 90.9747 93.9265 90.8254C93.7952 90.6762 93.631 90.5627 93.434 90.4851C93.2369 90.4075 92.9713 90.3239 92.6369 90.2344C92.225 90.1269 91.8936 90.0194 91.6429 89.912C91.3981 89.8045 91.1861 89.6373 91.007 89.4105C90.8339 89.1776 90.7473 88.8672 90.7473 88.4791C90.7473 88.1388 90.8339 87.8373 91.007 87.5746C91.1802 87.3119 91.422 87.1089 91.7324 86.9656C92.0489 86.8223 92.4101 86.7507 92.816 86.7507C93.4011 86.7507 93.8788 86.897 94.2489 87.1895C94.625 87.482 94.837 87.8701 94.8848 88.3537H93.9892C93.9594 88.1149 93.834 87.9059 93.6131 87.7268C93.3922 87.5417 93.0996 87.4492 92.7354 87.4492C92.3951 87.4492 92.1175 87.5388 91.9026 87.7179C91.6876 87.891 91.5802 88.1358 91.5802 88.4522C91.5802 88.6791 91.6429 88.8642 91.7682 89.0075C91.8996 89.1507 92.0578 89.2612 92.2429 89.3388C92.4339 89.4105 92.6996 89.494 93.0399 89.5896C93.4519 89.703 93.7832 89.8164 94.034 89.9299C94.2847 90.0373 94.4997 90.2075 94.6788 90.4403C94.8579 90.6672 94.9474 90.9777 94.9474 91.3717C94.9474 91.6762 94.8668 91.9628 94.7056 92.2314C94.5444 92.5001 94.3056 92.718 93.9892 92.8852C93.6728 93.0523 93.2996 93.1359 92.8698 93.1359Z" fill="white"/>
<path d="M61.7991 108.118C62.0904 107.886 62.2231 107.779 62.1974 107.796C63.0369 107.103 63.6965 106.533 64.1762 106.087C64.6645 105.642 65.0757 105.175 65.4097 104.687C65.7438 104.199 65.9108 103.723 65.9108 103.261C65.9108 102.909 65.8295 102.635 65.6667 102.438C65.504 102.241 65.2598 102.143 64.9343 102.143C64.6088 102.143 64.3518 102.267 64.1634 102.515C63.9835 102.755 63.8935 103.098 63.8935 103.543H61.7734C61.7906 102.815 61.9447 102.207 62.236 101.719C62.5358 101.23 62.9256 100.871 63.4053 100.639C63.8935 100.408 64.4332 100.292 65.0243 100.292C66.0436 100.292 66.8103 100.554 67.3243 101.076C67.8468 101.599 68.1081 102.28 68.1081 103.119C68.1081 104.036 67.7954 104.888 67.1701 105.676C66.5447 106.456 65.7481 107.218 64.7801 107.963H68.2494V109.749H61.7991V108.118ZM69.2168 105.059C69.2168 103.586 69.4995 102.425 70.0648 101.577C70.6388 100.729 71.5596 100.305 72.8274 100.305C74.0952 100.305 75.0118 100.729 75.5771 101.577C76.1511 102.425 76.438 103.586 76.438 105.059C76.438 106.55 76.1511 107.719 75.5771 108.567C75.0118 109.415 74.0952 109.839 72.8274 109.839C71.5596 109.839 70.6388 109.415 70.0648 108.567C69.4995 107.719 69.2168 106.55 69.2168 105.059ZM74.2794 105.059C74.2794 104.194 74.1851 103.53 73.9967 103.068C73.8082 102.597 73.4185 102.361 72.8274 102.361C72.2363 102.361 71.8466 102.597 71.6581 103.068C71.4697 103.53 71.3755 104.194 71.3755 105.059C71.3755 105.642 71.4097 106.126 71.4782 106.511C71.5468 106.888 71.6838 107.197 71.8894 107.437C72.1036 107.668 72.4162 107.784 72.8274 107.784C73.2386 107.784 73.547 107.668 73.7525 107.437C73.9667 107.197 74.108 106.888 74.1766 106.511C74.2451 106.126 74.2794 105.642 74.2794 105.059ZM77.5218 108.118C77.813 107.886 77.9458 107.779 77.9201 107.796C78.7596 107.103 79.4192 106.533 79.8989 106.087C80.3871 105.642 80.7983 105.175 81.1324 104.687C81.4665 104.199 81.6335 103.723 81.6335 103.261C81.6335 102.909 81.5521 102.635 81.3894 102.438C81.2266 102.241 80.9825 102.143 80.657 102.143C80.3314 102.143 80.0745 102.267 79.886 102.515C79.7061 102.755 79.6162 103.098 79.6162 103.543H77.4961C77.5132 102.815 77.6674 102.207 77.9586 101.719C78.2585 101.23 78.6482 100.871 79.1279 100.639C79.6162 100.408 80.1558 100.292 80.7469 100.292C81.7663 100.292 82.5329 100.554 83.0469 101.076C83.5694 101.599 83.8307 102.28 83.8307 103.119C83.8307 104.036 83.518 104.888 82.8927 105.676C82.2674 106.456 81.4707 107.218 80.5028 107.963H83.972V109.749H77.5218V108.118ZM84.8623 108.118C85.1536 107.886 85.2864 107.779 85.2607 107.796C86.1001 107.103 86.7597 106.533 87.2394 106.087C87.7277 105.642 88.1389 105.175 88.473 104.687C88.807 104.199 88.9741 103.723 88.9741 103.261C88.9741 102.909 88.8927 102.635 88.7299 102.438C88.5672 102.241 88.3231 102.143 87.9975 102.143C87.672 102.143 87.415 102.267 87.2266 102.515C87.0467 102.755 86.9568 103.098 86.9568 103.543H84.8366C84.8538 102.815 85.008 102.207 85.2992 101.719C85.599 101.23 85.9888 100.871 86.4685 100.639C86.9568 100.408 87.4964 100.292 88.0875 100.292C89.1069 100.292 89.8735 100.554 90.3875 101.076C90.91 101.599 91.1713 102.28 91.1713 103.119C91.1713 104.036 90.8586 104.888 90.2333 105.676C89.608 106.456 88.8113 107.218 87.8434 107.963H91.3126V109.749H84.8623V108.118Z" fill="white"/>
</svg>
