<svg width="152" height="114" viewBox="0 0 152 114" fill="none" xmlns="http://www.w3.org/2000/svg">
<path d="M45.3757 105.108C45.315 105.275 45.2011 105.408 45.0645 105.442C44.089 106.349 42.7187 107.202 41.1131 107.859C40.259 108.204 39.3367 108.503 38.3726 108.739C37.4198 108.959 36.4291 109.118 35.4271 109.209C34.4971 109.273 33.4533 109.27 32.3715 109.179C31.8363 109.126 31.2897 109.05 30.7431 108.959C30.1927 108.868 29.6424 108.758 29.1072 108.613C28.572 108.473 28.0406 108.318 27.5243 108.147C27.0081 107.976 26.5223 107.771 26.0516 107.563C25.5847 107.35 25.1368 107.134 24.7307 106.899C24.3283 106.66 23.9563 106.409 23.6299 106.151C24.4118 105.802 25.319 105.514 26.3097 105.264C27.308 105.002 28.386 104.782 29.4867 104.596C30.5951 104.406 31.749 104.228 32.8763 104.095C34.0151 103.947 35.15 103.822 36.228 103.739C37.0972 103.655 37.9892 103.633 38.8622 103.652C39.7466 103.648 40.6083 103.701 41.413 103.773C41.9975 103.815 42.5479 103.879 43.0565 103.963C42.7035 103.587 42.3467 103.166 42.0013 102.715C41.5268 102.07 41.0827 101.349 40.6918 100.613C40.3122 99.8544 39.9971 99.0691 39.7656 98.299C39.4885 97.309 39.2722 96.2809 39.1393 95.2453C39.0178 94.1946 38.9571 93.1627 38.9875 92.1461C39.0216 91.1257 39.1317 90.147 39.3063 89.2403C39.4923 88.3223 39.7466 87.4764 40.0541 86.7329C40.2515 86.9225 40.445 87.1425 40.631 87.4005C40.8208 87.6509 41.0144 87.924 41.1966 88.2237C41.3826 88.5234 41.5534 88.861 41.7356 89.1948C41.9178 89.5324 42.0924 89.889 42.2632 90.2645C42.4264 90.6363 42.5934 91.0194 42.7642 91.4102C42.9275 91.8009 43.0831 92.1992 43.2273 92.6051C43.5272 93.3979 43.7967 94.2021 44.0054 94.9836C44.237 95.7878 44.4457 96.6413 44.6279 97.5176C44.8177 98.3787 44.9885 99.2512 45.1214 100.124C45.3757 101.747 45.5199 103.306 45.4326 104.653C45.4858 104.778 45.4592 104.953 45.3719 105.104L45.3757 105.108ZM28.3214 99.2019C30.0105 98.9932 31.4833 98.5874 32.6372 97.988C32.7663 97.988 32.8991 97.8969 32.9902 97.7604C33.1041 97.6428 33.1648 97.4911 33.1344 97.3697C33.4609 96.1368 33.6431 94.6005 33.6924 93.03C33.7304 92.1916 33.7418 91.3305 33.7228 90.4884C33.7 89.6462 33.681 88.7889 33.6089 87.9885C33.5406 87.2336 33.4609 86.4028 33.3166 85.6062C33.18 84.802 33.032 83.975 32.8308 83.2201C32.66 82.4387 32.4322 81.7255 32.1969 81.0806C31.9691 80.4282 31.6807 79.8895 31.3884 79.4457C30.9595 80.0905 30.5837 80.8303 30.2573 81.6534C29.9346 82.4728 29.6386 83.3908 29.445 84.3278C29.0312 86.2207 28.8908 88.3109 29.073 90.257C29.1451 91.0308 29.2856 91.8388 29.5133 92.6089C29.7335 93.3828 30.0068 94.149 30.3408 94.8319C30.5571 95.3022 30.7925 95.7347 31.0354 96.133C30.6065 95.9471 30.1434 95.765 29.6575 95.583C28.9212 95.3288 28.143 95.0633 27.3346 94.8394C26.5185 94.6232 25.6986 94.4146 24.8825 94.2704C22.829 93.9138 20.5933 93.5914 18.4487 93.3941C17.3669 93.3069 16.3383 93.2234 15.3514 93.2158C14.3683 93.2045 13.4459 93.25 12.645 93.36C13.1119 93.9859 13.78 94.6005 14.5239 95.2112C15.2793 95.8181 16.1637 96.3796 17.0747 96.8993C18.0122 97.3962 18.9725 97.8552 19.9442 98.2042C20.9235 98.5494 21.8573 98.8339 22.7493 98.9857C23.6944 99.1488 24.632 99.2702 25.5809 99.2967C26.5261 99.3233 27.4484 99.2929 28.3252 99.1981L28.3214 99.2019ZM15.3666 87.1615C16.232 87.4309 17.0709 87.6547 17.9211 87.7798C18.76 87.9126 19.5685 87.9847 20.32 87.9847C21.0222 87.9847 21.6827 87.9164 22.2672 87.795C22.3773 87.8254 22.5102 87.7761 22.6164 87.6774C22.7379 87.5978 22.8176 87.484 22.8176 87.3702C23.0795 86.8353 23.3111 86.2359 23.5312 85.5797C23.7666 84.8741 23.9753 84.1192 24.1537 83.3453C24.3245 82.5753 24.5105 81.7597 24.6434 80.9668C24.7724 80.174 24.9015 79.3698 24.9926 78.5959C25.0343 78.2318 25.0609 77.8562 25.0913 77.4731C25.1216 77.0861 25.1444 76.6916 25.152 76.2971C25.1634 75.5157 25.1748 74.7114 25.133 73.9566C25.0571 72.4392 24.8711 71.0546 24.4574 70.1176C23.9563 70.6411 23.4705 71.2708 23.015 71.9878C22.5519 72.7085 22.161 73.4976 21.7928 74.3587C21.0678 76.0695 20.5781 78.0079 20.3883 79.8781C20.2365 81.3651 20.3883 82.9925 20.7338 84.4113C20.8324 84.8513 20.9615 85.2648 21.0982 85.6479C20.7717 85.3976 20.4225 85.1396 20.0581 84.8741C18.8435 84.0281 17.4163 83.1556 15.9853 82.4766C14.1937 81.6269 12.2009 80.781 10.2803 80.0526C9.32756 79.6884 8.35585 79.3736 7.46764 79.1042C6.57564 78.8387 5.71781 78.6377 4.94348 78.539C5.51663 79.8819 6.69331 81.4486 8.14329 82.8256C8.87207 83.516 9.6426 84.1685 10.4549 84.7299C10.8534 85.0106 11.2558 85.2762 11.6506 85.5152C12.0491 85.7542 12.4552 85.9628 12.8386 86.1525C13.6585 86.5508 14.5012 86.896 15.3666 87.1615ZM6.23782 71.3922C6.87171 71.9726 7.58911 72.4999 8.29891 72.9778C8.65951 73.2168 9.01251 73.4444 9.3807 73.6493C9.74889 73.8541 10.1209 74.0476 10.4853 74.2221C11.92 74.9163 13.3472 75.3222 14.5429 75.4208C14.6302 75.4626 14.7403 75.4474 14.8466 75.3867C14.9604 75.345 15.0477 75.2729 15.0743 75.1818C15.7993 74.2297 16.4635 72.9627 17.0936 71.5819C17.2493 71.2329 17.4011 70.8801 17.5453 70.5235C17.6896 70.1669 17.8452 69.7989 17.9818 69.4386C18.2665 68.7102 18.4981 67.9895 18.7372 67.2763C19.1623 65.9334 19.5001 64.3743 19.7127 62.9252C19.8228 62.1969 19.8683 61.5027 19.9025 60.8616C19.9291 60.2205 19.8683 59.6477 19.7772 59.1621C19.2117 59.568 18.6537 60.0802 18.1147 60.6757C17.5795 61.2713 17.0253 61.9579 16.5584 62.6976C16.084 63.4373 15.6171 64.2491 15.2413 65.0837C15.0515 65.501 14.8731 65.9258 14.7099 66.3583C14.5429 66.7869 14.3911 67.2232 14.2734 67.6519C14.0798 68.3347 13.9204 69.0744 13.8407 69.8065C13.7686 70.5387 13.7344 71.2784 13.7572 71.9764C13.7762 72.3481 13.8103 72.7047 13.8521 73.0461C13.6471 72.7692 13.4194 72.4885 13.1764 72.2002C12.7323 71.6539 12.2427 71.0925 11.7037 70.5463C11.1723 69.9962 10.6295 69.4537 10.0487 68.9644C9.69195 68.6609 9.32376 68.3499 8.94419 68.0274C8.56841 67.7126 8.18504 67.4015 7.79028 67.0904C7.00077 66.4721 6.22644 65.85 5.42174 65.2734C4.61325 64.6968 3.85789 64.1467 3.08736 63.6725C2.32442 63.1984 1.58804 62.7925 0.9124 62.489C0.99211 63.1642 1.23883 63.9229 1.55008 64.7195C1.85374 65.5199 2.29405 66.3469 2.77611 67.1587C3.74782 68.7823 5.008 70.3073 6.23403 71.3922H6.23782ZM3.32649 55.5622C3.78198 56.2564 4.26783 56.9316 4.79544 57.5575C5.33823 58.1834 5.9 58.7676 6.46936 59.2873C7.62327 60.3267 8.83031 61.1006 9.88933 61.5217C9.90451 61.5292 9.92349 61.533 9.93867 61.5368C10.0032 61.5748 10.0867 61.5824 10.174 61.5596C10.2651 61.5482 10.341 61.5103 10.3828 61.4534C10.398 61.442 10.4093 61.4344 10.4245 61.423C11.29 60.6492 12.1516 59.5605 12.9867 58.3655C13.4118 57.7662 13.8179 57.1402 14.1975 56.5067C14.5922 55.8732 14.968 55.2321 15.2983 54.6024C15.9397 53.4113 16.5319 51.9963 16.9912 50.6572C17.1961 49.9858 17.4201 49.3333 17.5453 48.7302C17.6099 48.4267 17.6554 48.1384 17.6858 47.8615C17.7086 47.5884 17.7199 47.3266 17.7237 47.0876C17.1202 47.3797 16.5319 47.7742 15.9246 48.2484C15.321 48.7264 14.7099 49.284 14.1178 49.9099C13.537 50.5321 12.998 51.2225 12.478 51.947C11.9656 52.6716 11.5253 53.434 11.1191 54.2041C10.5042 55.4256 10.0563 56.8595 9.86276 58.1721C9.81721 58.4528 9.78305 58.7297 9.75648 58.9952C9.66158 58.7449 9.5553 58.4907 9.44143 58.2252C8.88725 57.0037 8.20402 55.6532 7.40312 54.4545C6.92106 53.6996 6.36688 52.9295 5.8165 52.1595C5.27371 51.3894 4.68916 50.6193 4.10841 49.8872C3.54664 49.1513 2.9659 48.4495 2.38894 47.816C1.81579 47.1825 1.22745 46.6172 0.696042 46.162C0.650493 46.4731 0.639106 46.8145 0.654289 47.1787C0.665676 47.5428 0.696042 47.926 0.745387 48.3243C0.847872 49.1209 0.988314 49.9782 1.25022 50.8317C1.73228 52.5426 2.49902 54.2534 3.33408 55.566L3.32649 55.5622ZM4.19572 39.5766C4.39689 40.3277 4.70814 41.0788 5.02319 41.7958C5.34583 42.5127 5.69124 43.1993 6.07461 43.8291C6.87551 45.0961 7.74853 46.1431 8.59498 46.8221C8.64432 46.8638 8.70126 46.8942 8.7582 46.9131C8.79236 46.9283 8.83411 46.9397 8.87966 46.9397C8.92521 46.9435 8.97076 46.9397 9.00492 46.9245C9.06565 46.9093 9.12259 46.8866 9.17952 46.8486C10.1171 46.2607 11.1305 45.3844 12.0947 44.3943C12.5919 43.9011 13.0967 43.3814 13.5674 42.8466C14.0457 42.3155 14.4708 41.7692 14.9187 41.2381C15.3286 40.7336 15.731 40.1684 16.103 39.5842C16.4787 39 16.8773 38.4006 17.1961 37.8051C17.3593 37.5092 17.5074 37.2133 17.644 36.9212C17.7959 36.6329 17.9287 36.3522 18.0464 36.0791C18.2779 35.5328 18.4373 35.0169 18.5019 34.5617C17.9135 34.7476 17.2834 35.0245 16.6344 35.3773C16.3079 35.5556 15.9777 35.749 15.6475 35.9653C15.4805 36.0715 15.3134 36.1815 15.1464 36.2991C14.9832 36.4167 14.8238 36.5381 14.6644 36.6632C14.0267 37.164 13.389 37.7216 12.7779 38.321C12.1706 38.9203 11.6392 39.569 11.1267 40.2291C10.9256 40.4908 10.732 40.7678 10.5422 41.0485C10.36 41.333 10.2044 41.6289 10.045 41.9285C9.7337 42.5279 9.4642 43.1424 9.23646 43.738C9.17952 43.9011 9.12638 44.0643 9.07704 44.2236C9.05426 44.0567 9.03149 43.886 9.00492 43.7153C8.929 43.0855 8.81134 42.4217 8.65571 41.7465C8.5798 41.4088 8.4849 41.0674 8.4014 40.7336C8.31789 40.3998 8.22679 40.066 8.1281 39.7397C7.88138 38.9241 7.56254 38.0668 7.26267 37.2171C6.96661 36.3674 6.64397 35.5138 6.29476 34.6831C6.12395 34.2772 5.95314 33.8713 5.78234 33.4692C5.61153 33.0747 5.44072 32.6915 5.26232 32.3236C4.90552 31.5876 4.53354 30.9162 4.15017 30.3434C3.9414 30.8858 3.77818 31.5611 3.66431 32.3046C3.60738 32.6763 3.56183 33.0671 3.52387 33.4692C3.50489 33.8751 3.4973 34.2924 3.50489 34.7096C3.52007 35.5518 3.55424 36.4091 3.68329 37.2361C3.81614 38.0668 3.98695 38.8597 4.19192 39.569L4.19572 39.5766ZM9.33135 28.6932C9.71093 30.0778 10.212 31.2842 10.7851 32.1566C10.8572 32.2629 10.9597 32.3387 11.0508 32.3653C11.1457 32.3956 11.271 32.388 11.3886 32.3349C12.3717 31.9328 13.4725 31.269 14.5467 30.4951C15.1009 30.112 15.6627 29.7061 16.1978 29.285C16.733 28.8639 17.2379 28.4201 17.7465 27.9952C19.5761 26.3223 21.7093 23.9514 22.2862 22.2937C21.7017 22.3847 21.064 22.5517 20.3921 22.7868C19.7241 23.0258 19.0029 23.3179 18.3273 23.6973C17.6402 24.069 16.9418 24.4977 16.2624 24.9643C15.6019 25.4423 14.9794 25.962 14.3835 26.4968C14.1519 26.7093 13.9128 26.9369 13.6965 27.1721C13.4839 27.4111 13.2789 27.6614 13.0777 27.9156C12.6792 28.4239 12.3148 28.955 11.996 29.4709C11.9808 29.4974 11.9656 29.524 11.9504 29.5543C11.9542 29.524 11.958 29.4937 11.9618 29.4595C12.0567 28.8677 12.1288 28.2266 12.1706 27.5704C12.1895 27.2403 12.2009 26.9103 12.2047 26.5765C12.2123 26.2465 12.2237 25.9202 12.2161 25.594C12.2047 24.7784 12.1554 23.9211 12.0984 23.0562C12.0605 22.1989 11.9922 21.3302 11.8973 20.4804C11.791 19.6231 11.7151 18.8113 11.586 18.0413C11.4608 17.2712 11.3051 16.5504 11.1116 15.9207C9.79823 17.6316 8.71265 21.4402 8.77338 24.2815C8.7582 25.025 8.83031 25.7913 8.92521 26.5386C9.0239 27.2859 9.15295 28.0104 9.32376 28.697L9.33135 28.6932ZM16.6306 18.6444C16.7103 18.7051 16.8545 18.7241 16.995 18.6899C17.9894 18.4623 19.1168 17.9995 20.2783 17.4495C20.8704 17.1801 21.4587 16.8843 22.0319 16.5656C22.3204 16.4025 22.6013 16.2394 22.8821 16.0838C23.1668 15.9245 23.4477 15.7614 23.721 15.5983C24.2372 15.2872 24.7534 14.9193 25.2697 14.5323C25.8011 14.1568 26.3173 13.7509 26.788 13.3336C27.251 12.9087 27.7103 12.5142 28.0861 12.1083C28.4619 11.7062 28.7655 11.3117 28.9705 10.9437C28.4012 10.9513 27.7673 11.0196 27.0954 11.1486C26.4274 11.2813 25.6872 11.4483 24.985 11.71C24.2714 11.9604 23.5426 12.2638 22.8252 12.5977C22.1192 12.9429 21.4436 13.3412 20.7983 13.7509C20.5402 13.914 20.2859 14.0923 20.0353 14.2744C19.7962 14.4678 19.5571 14.6689 19.3293 14.8737C19.0029 15.1658 18.6954 15.4693 18.4032 15.7728C18.574 15.3896 18.7372 14.9875 18.8852 14.5703C18.9915 14.2744 19.0902 13.9747 19.1813 13.6712C19.2838 13.3753 19.3787 13.0756 19.4622 12.7798C19.6747 12.0324 19.8569 11.232 20.0429 10.4278C20.2403 9.63499 20.4149 8.8194 20.5592 8.01519C20.6958 7.1996 20.8514 6.44092 20.9425 5.69361C21.0374 4.95389 21.0944 4.24831 21.0944 3.61481C20.7034 3.91449 20.2821 4.33177 19.8569 4.8325C19.4356 5.33323 18.9953 5.90225 18.6233 6.54713C18.24 7.18443 17.8794 7.85966 17.5605 8.5349C17.2531 9.21772 17.0101 9.91191 16.8166 10.553C16.7141 10.8944 16.6192 11.2396 16.5357 11.5886C16.4484 11.9338 16.3914 12.298 16.3307 12.6546C16.2168 13.3677 16.1371 14.0733 16.0954 14.7485C16.0308 16.1142 16.1599 17.3812 16.418 18.3447C16.456 18.4851 16.5433 18.5989 16.6344 18.6368L16.6306 18.6444ZM23.8387 8.38316C24.3777 8.33384 25.1786 8.03796 26.063 7.60171C26.5109 7.39686 26.9778 7.15408 27.4446 6.87716C27.6762 6.7406 27.9077 6.59266 28.1355 6.44092C28.367 6.30056 28.5947 6.14882 28.8149 5.99709C29.3691 5.61015 29.9346 5.16632 30.5002 4.72249C31.0696 4.29383 31.6389 3.83482 32.1817 3.36444C32.7245 2.88267 33.2521 2.44643 33.7266 1.98363C34.2048 1.52841 34.6338 1.0732 34.9868 0.629368C34.5578 0.599021 34.0454 0.636955 33.4874 0.727998C32.9295 0.822834 32.3184 0.951811 31.711 1.17562C31.0999 1.38426 30.485 1.63463 29.8967 1.91155C29.3121 2.19985 28.7655 2.52988 28.2759 2.85612C28.0178 3.03062 27.7635 3.2127 27.513 3.39858C27.2624 3.58446 27.0233 3.80068 26.7842 4.00932C26.3135 4.4304 25.8694 4.86664 25.467 5.30668C24.6699 6.20573 24.0588 7.15029 23.702 7.96967C23.6185 8.16693 23.6603 8.40213 23.8273 8.38695L23.8387 8.38316ZM106.595 105.108C106.656 105.275 106.77 105.408 106.906 105.442C107.882 106.349 109.252 107.202 110.858 107.859C111.712 108.204 112.634 108.503 113.594 108.739C114.547 108.959 115.541 109.118 116.54 109.209C117.47 109.273 118.514 109.27 119.592 109.179C120.127 109.126 120.673 109.05 121.22 108.959C121.77 108.868 122.321 108.758 122.856 108.613C123.391 108.473 123.922 108.318 124.439 108.147C124.955 107.976 125.441 107.771 125.911 107.563C126.378 107.35 126.826 107.134 127.232 106.899C127.635 106.66 128.007 106.409 128.333 106.151C127.551 105.802 126.644 105.514 125.653 105.264C124.655 105.002 123.577 104.782 122.476 104.596C121.368 104.406 120.214 104.228 119.087 104.095C117.948 103.947 116.813 103.822 115.735 103.739C114.866 103.655 113.974 103.633 113.101 103.652C112.213 103.648 111.355 103.701 110.55 103.773C109.966 103.815 109.415 103.879 108.907 103.963C109.26 103.587 109.616 103.166 109.962 102.715C110.436 102.07 110.88 101.349 111.271 100.613C111.651 99.8544 111.966 99.0691 112.197 98.299C112.475 97.309 112.691 96.2809 112.824 95.2453C112.945 94.1946 113.006 93.1627 112.976 92.1461C112.941 91.1257 112.831 90.147 112.657 89.2403C112.471 88.3223 112.216 87.4764 111.905 86.7329C111.708 86.9225 111.514 87.1425 111.328 87.4005C111.138 87.6509 110.945 87.924 110.763 88.2237C110.577 88.5234 110.406 88.861 110.224 89.1948C110.041 89.5324 109.867 89.889 109.7 90.2645C109.537 90.6363 109.37 91.0194 109.199 91.4102C109.036 91.8009 108.88 92.1992 108.736 92.6051C108.436 93.3979 108.166 94.2021 107.961 94.9836C107.73 95.7878 107.521 96.6413 107.339 97.5176C107.149 98.3787 106.978 99.2512 106.845 100.124C106.591 101.747 106.447 103.306 106.534 104.653C106.481 104.778 106.508 104.953 106.595 105.104V105.108ZM126.394 99.3043C127.342 99.2778 128.28 99.1564 129.225 98.9932C130.121 98.8415 131.055 98.5532 132.03 98.2118C133.002 97.8628 133.962 97.4038 134.9 96.9069C135.807 96.3872 136.695 95.8257 137.447 95.2188C138.194 94.6042 138.859 93.9897 139.326 93.3676C138.525 93.2538 137.602 93.2083 136.619 93.2234C135.632 93.2348 134.607 93.3145 133.522 93.4017C131.377 93.599 129.142 93.9176 127.088 94.278C126.272 94.4222 125.452 94.6308 124.636 94.847C123.828 95.0708 123.049 95.3326 122.313 95.5905C121.823 95.7726 121.364 95.9547 120.935 96.1406C121.178 95.7461 121.413 95.3098 121.63 94.8394C121.964 94.1566 122.237 93.3903 122.457 92.6165C122.685 91.8502 122.829 91.0422 122.898 90.2645C123.08 88.3185 122.939 86.2283 122.526 84.3354C122.332 83.3984 122.036 82.4804 121.713 81.661C121.387 80.8379 121.011 80.0981 120.582 79.4532C120.29 79.8971 120.001 80.4357 119.774 81.0882C119.538 81.7331 119.311 82.4463 119.14 83.2277C118.939 83.9826 118.791 84.8058 118.654 85.6138C118.51 86.4142 118.43 87.245 118.362 87.9961C118.293 88.7965 118.271 89.6538 118.248 90.496C118.229 91.3381 118.24 92.1992 118.278 93.0376C118.328 94.6042 118.514 96.1444 118.836 97.3773C118.806 97.4986 118.867 97.6504 118.977 97.768C119.068 97.9045 119.201 97.9956 119.33 97.9956C120.484 98.5949 121.956 99.0008 123.645 99.2095C124.522 99.3043 125.445 99.3384 126.39 99.3081L126.394 99.3043ZM139.136 86.1525C139.523 85.9666 139.925 85.7542 140.324 85.5152C140.719 85.2724 141.121 85.0106 141.52 84.7299C142.332 84.1723 143.102 83.516 143.827 82.8256C145.277 81.4448 146.454 79.8781 147.027 78.539C146.249 78.6414 145.395 78.8387 144.503 79.1042C143.615 79.3736 142.647 79.6884 141.69 80.0526C139.77 80.781 137.777 81.6269 135.985 82.4766C134.554 83.1556 133.127 84.0281 131.913 84.8741C131.548 85.1396 131.199 85.3976 130.872 85.6479C131.013 85.261 131.138 84.8513 131.237 84.4113C131.586 82.9925 131.734 81.3651 131.582 79.8781C131.392 78.0079 130.907 76.0695 130.178 74.3587C129.81 73.4976 129.419 72.7085 128.956 71.9878C128.5 71.2708 128.014 70.6373 127.513 70.1176C127.1 71.0546 126.914 72.4392 126.838 73.9566C126.796 74.7152 126.807 75.5157 126.819 76.2971C126.83 76.6916 126.849 77.0861 126.883 77.4731C126.91 77.86 126.936 78.2318 126.982 78.5959C127.073 79.3698 127.202 80.1702 127.331 80.9668C127.464 81.7597 127.65 82.579 127.821 83.3453C128.003 84.1192 128.208 84.8741 128.447 85.5797C128.663 86.2359 128.895 86.8315 129.161 87.3702C129.161 87.484 129.24 87.5978 129.362 87.6774C129.468 87.7761 129.601 87.8254 129.711 87.795C130.299 87.9126 130.956 87.9847 131.658 87.9847C132.41 87.9847 133.214 87.9126 134.057 87.7798C134.907 87.6509 135.746 87.4271 136.612 87.1615C137.481 86.896 138.324 86.547 139.14 86.1525H139.136ZM149.195 67.1625C149.677 66.3507 150.117 65.5237 150.421 64.7233C150.732 63.9229 150.979 63.1642 151.058 62.4928C150.386 62.7963 149.65 63.2022 148.883 63.6763C148.117 64.1505 147.357 64.7006 146.549 65.2772C145.744 65.8538 144.97 66.4721 144.18 67.0942C143.786 67.4053 143.402 67.7163 143.026 68.0312C142.651 68.3498 142.282 68.6647 141.922 68.9682C141.341 69.4575 140.802 70.0038 140.267 70.55C139.728 71.0963 139.238 71.6615 138.794 72.204C138.551 72.4923 138.324 72.7768 138.119 73.0499C138.16 72.7085 138.194 72.3481 138.213 71.9802C138.236 71.2822 138.206 70.5425 138.13 69.8103C138.05 69.0782 137.891 68.3385 137.697 67.6556C137.576 67.227 137.428 66.7945 137.261 66.3621C137.094 65.9334 136.919 65.5048 136.729 65.0875C136.354 64.2529 135.883 63.4411 135.412 62.7014C134.941 61.9617 134.387 61.2713 133.856 60.6795C133.317 60.084 132.759 59.5756 132.193 59.1659C132.102 59.6553 132.042 60.2281 132.068 60.8654C132.102 61.5065 132.148 62.2007 132.258 62.929C132.47 64.3781 132.808 65.9372 133.233 67.2801C133.473 67.9933 133.708 68.714 133.989 69.4424C134.125 69.8065 134.277 70.1707 134.425 70.5273C134.57 70.8839 134.721 71.2367 134.877 71.5857C135.507 72.9627 136.171 74.2297 136.896 75.1856C136.923 75.2767 137.01 75.3488 137.124 75.3905C137.23 75.4474 137.344 75.4663 137.428 75.4246C138.62 75.3298 140.051 74.9239 141.485 74.2259C141.85 74.0514 142.222 73.8617 142.59 73.6531C142.958 73.4444 143.311 73.2168 143.672 72.9816C144.382 72.5037 145.103 71.9764 145.737 71.396C146.963 70.3111 148.223 68.7861 149.195 67.1625ZM150.732 50.828C150.994 49.9744 151.134 49.1171 151.237 48.3205C151.286 47.9222 151.316 47.539 151.328 47.1749C151.343 46.8107 151.328 46.4731 151.286 46.1582C150.755 46.6134 150.17 47.1825 149.593 47.8122C149.016 48.4457 148.435 49.1475 147.874 49.8834C147.297 50.6193 146.708 51.3856 146.166 52.1557C145.615 52.9257 145.061 53.6996 144.579 54.4507C143.778 55.6494 143.095 56.9999 142.541 58.2214C142.427 58.4831 142.32 58.7411 142.226 58.9914C142.195 58.7221 142.161 58.449 142.115 58.1683C141.922 56.8557 141.474 55.4218 140.859 54.2003C140.453 53.4303 140.013 52.6716 139.5 51.9432C138.98 51.2187 138.437 50.5283 137.86 49.9061C137.264 49.2802 136.657 48.7226 136.054 48.2446C135.446 47.7704 134.858 47.3759 134.254 47.0838C134.258 47.3228 134.27 47.5808 134.292 47.8577C134.319 48.1308 134.365 48.4229 134.429 48.7264C134.554 49.3295 134.778 49.982 134.983 50.6535C135.443 51.9925 136.035 53.4075 136.676 54.5986C137.006 55.2283 137.382 55.8694 137.777 56.5029C138.156 57.1364 138.563 57.7624 138.988 58.3617C139.823 59.5567 140.684 60.6454 141.55 61.4192C141.561 61.4306 141.576 61.442 141.592 61.4496C141.637 61.5065 141.713 61.5444 141.8 61.5558C141.888 61.5786 141.975 61.571 142.036 61.533C142.051 61.5292 142.07 61.5255 142.085 61.5179C143.144 61.1006 144.351 60.3229 145.505 59.2835C146.074 58.7638 146.64 58.1834 147.179 57.5537C147.703 56.924 148.192 56.2526 148.648 55.5584C149.483 54.2458 150.254 52.5388 150.732 50.8242V50.828ZM148.284 37.2436C148.413 36.4167 148.447 35.5594 148.462 34.7172C148.466 34.2961 148.462 33.8789 148.439 33.4768C148.405 33.0747 148.359 32.6839 148.299 32.3122C148.185 31.5687 148.022 30.8972 147.813 30.351C147.429 30.9238 147.058 31.5952 146.701 32.3311C146.522 32.6991 146.348 33.0822 146.181 33.4768C146.01 33.8789 145.839 34.2848 145.668 34.6907C145.323 35.5214 144.996 36.3749 144.7 37.2247C144.4 38.0744 144.082 38.9279 143.835 39.7473C143.732 40.0736 143.641 40.4074 143.562 40.7412C143.478 41.075 143.379 41.4164 143.307 41.7541C143.152 42.4293 143.034 43.0969 142.958 43.7228C142.932 43.8973 142.909 44.0643 142.886 44.2312C142.837 44.0718 142.784 43.9087 142.727 43.7456C142.503 43.15 142.229 42.5355 141.918 41.9361C141.762 41.6365 141.603 41.3406 141.421 41.0561C141.235 40.7715 141.037 40.4984 140.836 40.2367C140.324 39.5804 139.792 38.9317 139.185 38.3286C138.574 37.7292 137.936 37.1678 137.295 36.6708C137.135 36.5457 136.976 36.4243 136.813 36.3067C136.646 36.1929 136.479 36.0791 136.312 35.9728C135.978 35.7604 135.648 35.5632 135.325 35.3849C134.676 35.0321 134.046 34.7551 133.457 34.5693C133.518 35.0245 133.678 35.5404 133.913 36.0866C134.031 36.3598 134.163 36.6405 134.315 36.9288C134.452 37.2171 134.6 37.5168 134.763 37.8127C135.082 38.4082 135.48 39.0076 135.856 39.5918C136.228 40.176 136.631 40.7412 137.041 41.2457C137.488 41.7768 137.914 42.3231 138.392 42.8541C138.863 43.3852 139.367 43.9049 139.865 44.4019C140.829 45.392 141.842 46.2682 142.78 46.8562C142.837 46.8904 142.897 46.9169 142.954 46.9321C142.992 46.9473 143.034 46.9511 143.08 46.9473C143.125 46.9473 143.167 46.9397 143.201 46.9207C143.258 46.898 143.315 46.8676 143.364 46.8297C144.211 46.1469 145.084 45.1037 145.885 43.8366C146.268 43.2031 146.613 42.5203 146.936 41.8034C147.251 41.0864 147.562 40.3353 147.764 39.5842C147.968 38.8748 148.139 38.0782 148.272 37.2512L148.284 37.2436ZM143.042 26.5386C143.137 25.7913 143.209 25.025 143.193 24.2815C143.254 21.444 142.169 17.6316 140.855 15.9207C140.662 16.5504 140.506 17.2712 140.381 18.0413C140.252 18.8151 140.176 19.6231 140.07 20.4804C139.978 21.334 139.91 22.2027 139.872 23.0562C139.811 23.9211 139.762 24.7822 139.755 25.594C139.747 25.9202 139.762 26.2465 139.766 26.5765C139.766 26.9103 139.781 27.2403 139.8 27.5704C139.838 28.2266 139.91 28.8639 140.009 29.4595C140.013 29.4899 140.016 29.5202 140.02 29.5543C140.005 29.5278 139.99 29.4974 139.975 29.4709C139.656 28.955 139.291 28.4239 138.897 27.9156C138.699 27.6614 138.491 27.4111 138.278 27.1721C138.062 26.9331 137.822 26.7093 137.591 26.4968C136.999 25.962 136.372 25.4423 135.712 24.9643C135.033 24.4977 134.338 24.069 133.647 23.6973C132.972 23.3179 132.247 23.022 131.582 22.7868C130.91 22.5517 130.273 22.3847 129.688 22.2937C130.265 23.9514 132.398 26.3223 134.228 27.9952C134.74 28.4239 135.245 28.8639 135.78 29.285C136.312 29.7099 136.877 30.1158 137.432 30.4951C138.506 31.269 139.606 31.929 140.586 32.3349C140.703 32.3843 140.832 32.3956 140.924 32.3653C141.018 32.3387 141.121 32.2629 141.189 32.1566C141.762 31.2879 142.263 30.0778 142.643 28.6932C142.814 28.0066 142.943 27.2821 143.042 26.5348V26.5386ZM135.564 18.3561C135.822 17.3926 135.951 16.1218 135.887 14.7599C135.845 14.0847 135.765 13.3791 135.651 12.666C135.591 12.3132 135.534 11.949 135.446 11.6C135.359 11.251 135.264 10.9058 135.165 10.5644C134.972 9.9233 134.725 9.2291 134.421 8.54628C134.103 7.87104 133.742 7.19581 133.359 6.55851C132.987 5.91363 132.546 5.34461 132.125 4.84388C131.7 4.34315 131.282 3.92587 130.888 3.62619C130.888 4.25969 130.945 4.96148 131.039 5.70499C131.131 6.4523 131.29 7.21099 131.423 8.02658C131.567 8.83078 131.742 9.64637 131.939 10.4392C132.121 11.2434 132.307 12.0438 132.52 12.7911C132.603 13.0908 132.698 13.3867 132.801 13.6826C132.892 13.9861 132.99 14.2858 133.097 14.5816C133.249 14.9989 133.408 15.401 133.579 15.7842C133.287 15.4807 132.979 15.1772 132.653 14.8851C132.425 14.6803 132.186 14.4792 131.947 14.2858C131.696 14.0999 131.438 13.9254 131.184 13.7623C130.535 13.3526 129.859 12.9543 129.153 12.609C128.436 12.2714 127.707 11.9718 126.993 11.7214C126.291 11.4596 125.555 11.2927 124.883 11.16C124.207 11.0348 123.573 10.9627 123.008 10.9551C123.209 11.3269 123.513 11.7214 123.892 12.1197C124.264 12.5218 124.727 12.9201 125.19 13.345C125.661 13.7623 126.177 14.1644 126.709 14.5437C127.229 14.9306 127.745 15.2986 128.257 15.6097C128.527 15.7766 128.808 15.9359 129.096 16.0952C129.377 16.2545 129.658 16.4139 129.946 16.577C130.519 16.8918 131.112 17.1915 131.7 17.4609C132.861 18.0109 133.989 18.4737 134.983 18.7013C135.128 18.7355 135.268 18.7127 135.348 18.6558C135.439 18.6179 135.526 18.5041 135.564 18.3637V18.3561ZM128.265 7.96967C127.908 7.15029 127.297 6.20573 126.5 5.30668C126.097 4.86664 125.657 4.4304 125.183 4.00932C124.947 3.80068 124.708 3.58825 124.458 3.39858C124.207 3.20891 123.953 3.03062 123.695 2.85612C123.209 2.52988 122.658 2.19985 122.074 1.91155C121.486 1.63842 120.871 1.38806 120.26 1.17562C119.652 0.951811 119.041 0.822834 118.483 0.727998C117.925 0.636955 117.409 0.599021 116.984 0.629368C117.337 1.06941 117.766 1.52462 118.244 1.98363C118.719 2.44643 119.25 2.87888 119.789 3.36444C120.332 3.83482 120.901 4.29383 121.47 4.72249C122.04 5.16632 122.602 5.61015 123.16 5.99709C123.38 6.15262 123.607 6.30056 123.839 6.44092C124.067 6.59645 124.298 6.7406 124.53 6.87716C124.997 7.15408 125.464 7.39686 125.911 7.60171C126.8 8.03416 127.597 8.33384 128.136 8.38316C128.303 8.39833 128.348 8.16693 128.261 7.96588L128.265 7.96967Z" fill="#CE993C"/>
<path d="M40.9056 19.3349C41.4915 19.4598 41.9621 19.7527 42.3175 20.2137C42.6728 20.6651 42.8505 21.1838 42.8505 21.7696C42.8505 22.6148 42.5528 23.2871 41.9573 23.7866C41.3714 24.2764 40.5502 24.5213 39.4938 24.5213H34.7828V14.4078H39.3353C40.363 14.4078 41.1649 14.6432 41.7412 15.1138C42.3271 15.5844 42.62 16.2231 42.62 17.0299C42.62 17.6253 42.4615 18.12 42.1446 18.5137C41.8372 18.9075 41.4242 19.1812 40.9056 19.3349ZM37.2463 18.4993H38.8599C39.2632 18.4993 39.5706 18.4129 39.7819 18.24C40.0028 18.0575 40.1132 17.7934 40.1132 17.4476C40.1132 17.1019 40.0028 16.8378 39.7819 16.6553C39.5706 16.4728 39.2632 16.3816 38.8599 16.3816H37.2463V18.4993ZM39.0616 22.5332C39.4745 22.5332 39.7915 22.4419 40.0124 22.2595C40.2429 22.0674 40.3581 21.7936 40.3581 21.4383C40.3581 21.0829 40.2381 20.8044 39.998 20.6027C39.7675 20.401 39.4457 20.3002 39.0327 20.3002H37.2463V22.5332H39.0616ZM46.7429 16.3816V18.4273H50.042V20.329H46.7429V22.5476H50.4742V24.5213H44.2793V14.4078H50.4742V16.3816H46.7429ZM55.7328 24.6221C54.9933 24.6221 54.3306 24.5021 53.7447 24.262C53.1589 24.0219 52.6882 23.6665 52.3329 23.1959C51.9871 22.7253 51.8046 22.1586 51.7854 21.4959H54.4074C54.4458 21.8705 54.5755 22.1586 54.7964 22.3603C55.0173 22.5524 55.3054 22.6484 55.6608 22.6484C56.0258 22.6484 56.3139 22.5668 56.5252 22.4035C56.7365 22.2306 56.8421 21.9953 56.8421 21.6976C56.8421 21.4479 56.7557 21.2414 56.5828 21.0781C56.4196 20.9148 56.2131 20.7804 55.9633 20.6747C55.7232 20.5691 55.3775 20.449 54.9261 20.3146C54.273 20.1129 53.7399 19.9112 53.3269 19.7095C52.9139 19.5078 52.5586 19.2101 52.2608 18.8163C51.9631 18.4225 51.8142 17.9087 51.8142 17.2748C51.8142 16.3335 52.1552 15.5988 52.8371 15.0706C53.519 14.5327 54.4074 14.2638 55.5023 14.2638C56.6164 14.2638 57.5145 14.5327 58.1964 15.0706C58.8783 15.5988 59.2433 16.3383 59.2913 17.2892H56.626C56.6068 16.9626 56.4868 16.7081 56.2659 16.5256C56.045 16.3335 55.7617 16.2375 55.4159 16.2375C55.1182 16.2375 54.878 16.3191 54.6956 16.4824C54.5131 16.6361 54.4218 16.8618 54.4218 17.1595C54.4218 17.4861 54.5755 17.7406 54.8828 17.9231C55.1902 18.1055 55.6704 18.3024 56.3235 18.5137C56.9766 18.7346 57.5049 18.9459 57.9082 19.1476C58.3212 19.3493 58.6766 19.6423 58.9743 20.0264C59.2721 20.4106 59.4209 20.9052 59.4209 21.5103C59.4209 22.0866 59.2721 22.61 58.9743 23.0806C58.6862 23.5513 58.2636 23.9258 57.7065 24.2044C57.1495 24.4829 56.4916 24.6221 55.7328 24.6221ZM68.2124 14.4078V16.3816H65.5327V24.5213H63.0692V16.3816H60.3896V14.4078H68.2124ZM79.0855 14.4078V16.3816H74.9652V18.5137H78.0483V20.4298H74.9652V24.5213H72.5017V14.4078H79.0855ZM85.1633 24.6221C84.2125 24.6221 83.3385 24.4012 82.5413 23.9594C81.7538 23.5176 81.1247 22.903 80.6541 22.1154C80.193 21.3182 79.9625 20.425 79.9625 19.4358C79.9625 18.4465 80.193 17.5581 80.6541 16.7705C81.1247 15.983 81.7538 15.3683 82.5413 14.9265C83.3385 14.4847 84.2125 14.2638 85.1633 14.2638C86.1142 14.2638 86.9834 14.4847 87.7709 14.9265C88.5681 15.3683 89.1924 15.983 89.6438 16.7705C90.1048 17.5581 90.3353 18.4465 90.3353 19.4358C90.3353 20.425 90.1048 21.3182 89.6438 22.1154C89.1828 22.903 88.5585 23.5176 87.7709 23.9594C86.9834 24.4012 86.1142 24.6221 85.1633 24.6221ZM85.1633 22.3747C85.9701 22.3747 86.6136 22.1058 87.0938 21.5679C87.5836 21.0301 87.8286 20.3194 87.8286 19.4358C87.8286 18.5425 87.5836 17.8318 87.0938 17.3036C86.6136 16.7657 85.9701 16.4968 85.1633 16.4968C84.347 16.4968 83.6939 16.7609 83.204 17.2892C82.7238 17.8174 82.4837 18.5329 82.4837 19.4358C82.4837 20.329 82.7238 21.0445 83.204 21.5823C83.6939 22.1106 84.347 22.3747 85.1633 22.3747ZM96.8634 24.5213L94.7601 20.7035H94.1694V24.5213H91.7059V14.4078H95.8406C96.6377 14.4078 97.3148 14.5471 97.8719 14.8256C98.4386 15.1042 98.8611 15.4883 99.1397 15.9782C99.4182 16.4584 99.5575 16.9962 99.5575 17.5917C99.5575 18.264 99.3654 18.8643 98.9812 19.3925C98.6066 19.9208 98.0496 20.2954 97.31 20.5163L99.6439 24.5213H96.8634ZM94.1694 18.9603H95.6965C96.1479 18.9603 96.4841 18.8499 96.705 18.629C96.9355 18.4081 97.0507 18.0959 97.0507 17.6926C97.0507 17.3084 96.9355 17.0058 96.705 16.7849C96.4841 16.564 96.1479 16.4536 95.6965 16.4536H94.1694V18.9603ZM103.567 16.3816V18.4273H106.867V20.329H103.567V22.5476H107.299V24.5213H101.104V14.4078H107.299V16.3816H103.567ZM115.093 24.5213L113.033 21.4239L111.218 24.5213H108.423L111.664 19.3781L108.351 14.4078H111.218L113.249 17.4621L115.035 14.4078H117.83L114.618 19.5078L117.96 24.5213H115.093ZM51.7376 29.4078V31.3816H49.058V39.5213H46.5944V31.3816H43.9148V29.4078H51.7376ZM58.1315 39.5213L56.0282 35.7035H55.4375V39.5213H52.974V29.4078H57.1087C57.9058 29.4078 58.5829 29.5471 59.14 29.8256C59.7067 30.1042 60.1293 30.4883 60.4078 30.9782C60.6863 31.4584 60.8256 31.9962 60.8256 32.5917C60.8256 33.264 60.6335 33.8643 60.2493 34.3925C59.8747 34.9208 59.3177 35.2954 58.5781 35.5163L60.912 39.5213H58.1315ZM55.4375 33.9603H56.9646C57.416 33.9603 57.7522 33.8499 57.9731 33.629C58.2036 33.4081 58.3188 33.0959 58.3188 32.6926C58.3188 32.3084 58.2036 32.0058 57.9731 31.7849C57.7522 31.564 57.416 31.4536 56.9646 31.4536H55.4375V33.9603ZM68.6677 37.7349H64.8932L64.2881 39.5213H61.7093L65.3686 29.4078H68.2211L71.8804 39.5213H69.2728L68.6677 37.7349ZM68.0338 35.8332L66.7805 32.1307L65.5415 35.8332H68.0338ZM76.7831 29.4078C77.8492 29.4078 78.7808 29.6191 79.5779 30.0417C80.3751 30.4643 80.9898 31.0598 81.422 31.8282C81.8638 32.5869 82.0847 33.4657 82.0847 34.4646C82.0847 35.4538 81.8638 36.3326 81.422 37.101C80.9898 37.8693 80.3703 38.4648 79.5635 38.8874C78.7664 39.31 77.8395 39.5213 76.7831 39.5213H72.9941V29.4078H76.7831ZM76.6246 37.3891C77.5562 37.3891 78.2814 37.1346 78.8 36.6256C79.3186 36.1165 79.5779 35.3962 79.5779 34.4646C79.5779 33.5329 79.3186 32.8078 78.8 32.2892C78.2814 31.7705 77.5562 31.5112 76.6246 31.5112H75.4577V37.3891H76.6246ZM85.925 29.4078V39.5213H83.4614V29.4078H85.925ZM96.7576 39.5213H94.2941L90.1738 33.2832V39.5213H87.7103V29.4078H90.1738L94.2941 35.6747V29.4078H96.7576V39.5213ZM105.257 32.6061C105.074 32.27 104.81 32.0154 104.464 31.8426C104.128 31.6601 103.73 31.5688 103.269 31.5688C102.472 31.5688 101.833 31.833 101.353 32.3612C100.872 32.8798 100.632 33.5762 100.632 34.4502C100.632 35.3818 100.882 36.1117 101.381 36.64C101.891 37.1586 102.587 37.4179 103.47 37.4179C104.076 37.4179 104.585 37.2643 104.998 36.9569C105.42 36.6496 105.727 36.2078 105.92 35.6315H102.793V33.8163H108.153V36.1069C107.97 36.7216 107.658 37.2931 107.216 37.8213C106.784 38.3496 106.232 38.777 105.559 39.1035C104.887 39.4301 104.128 39.5933 103.283 39.5933C102.284 39.5933 101.391 39.3772 100.604 38.945C99.8256 38.5032 99.2157 37.8934 98.7739 37.1154C98.3417 36.3374 98.1256 35.449 98.1256 34.4502C98.1256 33.4513 98.3417 32.5629 98.7739 31.7849C99.2157 30.9974 99.8256 30.3875 100.604 29.9553C101.381 29.5135 102.27 29.2926 103.269 29.2926C104.479 29.2926 105.497 29.5855 106.323 30.1714C107.159 30.7573 107.711 31.5688 107.98 32.6061H105.257ZM46.289 47.6637C46.289 48.2496 46.1545 48.7875 45.8856 49.2773C45.6166 49.7575 45.2037 50.1465 44.6466 50.4442C44.0895 50.742 43.398 50.8908 42.572 50.8908H41.0449V54.5213H38.5814V44.4078H42.572C43.3788 44.4078 44.0607 44.5471 44.6178 44.8256C45.1748 45.1042 45.5926 45.4883 45.8712 45.9782C46.1497 46.468 46.289 47.0299 46.289 47.6637ZM42.3848 48.9315C42.8554 48.9315 43.2059 48.8211 43.4364 48.6002C43.6669 48.3793 43.7822 48.0671 43.7822 47.6637C43.7822 47.2604 43.6669 46.9482 43.4364 46.7273C43.2059 46.5064 42.8554 46.396 42.3848 46.396H41.0449V48.9315H42.3848ZM50.035 52.6196H53.2621V54.5213H47.5715V44.4078H50.035V52.6196ZM60.7328 52.7349H56.9583L56.3532 54.5213H53.7744L57.4337 44.4078H60.2862L63.9455 54.5213H61.3379L60.7328 52.7349ZM60.0989 50.8332L58.8456 47.1307L57.6066 50.8332H60.0989ZM72.3346 44.4078V46.3816H69.6549V54.5213H67.1914V46.3816H64.5118V44.4078H72.3346ZM80.1548 44.4078V46.3816H76.0345V48.5137H79.1175V50.4298H76.0345V54.5213H73.5709V44.4078H80.1548ZM86.2326 54.6221C85.2817 54.6221 84.4077 54.4012 83.6106 53.9594C82.823 53.5176 82.1939 52.903 81.7233 52.1154C81.2623 51.3182 81.0318 50.425 81.0318 49.4358C81.0318 48.4465 81.2623 47.5581 81.7233 46.7705C82.1939 45.983 82.823 45.3683 83.6106 44.9265C84.4077 44.4847 85.2817 44.2638 86.2326 44.2638C87.1834 44.2638 88.0526 44.4847 88.8402 44.9265C89.6373 45.3683 90.2616 45.983 90.713 46.7705C91.174 47.5581 91.4046 48.4465 91.4046 49.4358C91.4046 50.425 91.174 51.3182 90.713 52.1154C90.252 52.903 89.6277 53.5176 88.8402 53.9594C88.0526 54.4012 87.1834 54.6221 86.2326 54.6221ZM86.2326 52.3747C87.0393 52.3747 87.6828 52.1058 88.1631 51.5679C88.6529 51.0301 88.8978 50.3194 88.8978 49.4358C88.8978 48.5425 88.6529 47.8318 88.1631 47.3036C87.6828 46.7657 87.0393 46.4968 86.2326 46.4968C85.4162 46.4968 84.7631 46.7609 84.2733 47.2892C83.7931 47.8174 83.5529 48.5329 83.5529 49.4358C83.5529 50.329 83.7931 51.0445 84.2733 51.5823C84.7631 52.1106 85.4162 52.3747 86.2326 52.3747ZM97.9327 54.5213L95.8293 50.7035H95.2386V54.5213H92.7751V44.4078H96.9098C97.707 44.4078 98.3841 44.5471 98.9411 44.8256C99.5078 45.1042 99.9304 45.4883 100.209 45.9782C100.487 46.4584 100.627 46.9962 100.627 47.5917C100.627 48.264 100.435 48.8643 100.05 49.3925C99.6759 49.9208 99.1188 50.2954 98.3793 50.5163L100.713 54.5213H97.9327ZM95.2386 48.9603H96.7657C97.2171 48.9603 97.5533 48.8499 97.7742 48.629C98.0047 48.4081 98.12 48.0959 98.12 47.6926C98.12 47.3084 98.0047 47.0058 97.7742 46.7849C97.5533 46.564 97.2171 46.4536 96.7657 46.4536H95.2386V48.9603ZM113.626 44.4078V54.5213H111.163V48.4561L108.901 54.5213H106.913L104.637 48.4417V54.5213H102.173V44.4078H105.083L107.921 51.4095L110.731 44.4078H113.626ZM51.7233 62.3816V64.4273H55.0224V66.329H51.7233V68.5476H55.4546V70.5213H49.2598V60.4078H55.4546V62.3816H51.7233ZM59.4743 60.4078V66.4586C59.4743 67.0637 59.6232 67.5295 59.9209 67.8561C60.2186 68.1826 60.6556 68.3459 61.2319 68.3459C61.8082 68.3459 62.25 68.1826 62.5573 67.8561C62.8646 67.5295 63.0183 67.0637 63.0183 66.4586V60.4078H65.4819V66.4442C65.4819 67.347 65.2898 68.1106 64.9056 68.7349C64.5214 69.3592 64.0028 69.8298 63.3497 70.1467C62.7062 70.4637 61.9858 70.6221 61.1887 70.6221C60.3915 70.6221 59.676 70.4685 59.0421 70.1611C58.4178 69.8442 57.9232 69.3736 57.5582 68.7493C57.1932 68.1154 57.0108 67.347 57.0108 66.4442V60.4078H59.4743ZM72.3693 70.5213L70.266 66.7035H69.6753V70.5213H67.2118V60.4078H71.3465C72.1436 60.4078 72.8208 60.5471 73.3778 60.8256C73.9445 61.1042 74.3671 61.4883 74.6456 61.9782C74.9241 62.4584 75.0634 62.9962 75.0634 63.5917C75.0634 64.264 74.8713 64.8643 74.4871 65.3925C74.1125 65.9208 73.5555 66.2954 72.8159 66.5163L75.1498 70.5213H72.3693ZM69.6753 64.9603H71.2024C71.6538 64.9603 71.99 64.8499 72.2109 64.629C72.4414 64.4081 72.5566 64.0959 72.5566 63.6926C72.5566 63.3084 72.4414 63.0058 72.2109 62.7849C71.99 62.564 71.6538 62.4536 71.2024 62.4536H69.6753V64.9603ZM81.3928 70.6221C80.442 70.6221 79.568 70.4012 78.7708 69.9594C77.9833 69.5176 77.3542 68.903 76.8836 68.1154C76.4226 67.3182 76.1921 66.425 76.1921 65.4358C76.1921 64.4465 76.4226 63.5581 76.8836 62.7705C77.3542 61.983 77.9833 61.3683 78.7708 60.9265C79.568 60.4847 80.442 60.2638 81.3928 60.2638C82.3437 60.2638 83.2129 60.4847 84.0004 60.9265C84.7976 61.3683 85.4219 61.983 85.8733 62.7705C86.3343 63.5581 86.5648 64.4465 86.5648 65.4358C86.5648 66.425 86.3343 67.3182 85.8733 68.1154C85.4123 68.903 84.788 69.5176 84.0004 69.9594C83.2129 70.4012 82.3437 70.6221 81.3928 70.6221ZM81.3928 68.3747C82.1996 68.3747 82.8431 68.1058 83.3233 67.5679C83.8132 67.0301 84.0581 66.3194 84.0581 65.4358C84.0581 64.5425 83.8132 63.8318 83.3233 63.3036C82.8431 62.7657 82.1996 62.4968 81.3928 62.4968C80.5765 62.4968 79.9234 62.7609 79.4335 63.2892C78.9533 63.8174 78.7132 64.5329 78.7132 65.4358C78.7132 66.329 78.9533 67.0445 79.4335 67.5823C79.9234 68.1106 80.5765 68.3747 81.3928 68.3747ZM95.6429 63.6637C95.6429 64.2496 95.5085 64.7875 95.2395 65.2773C94.9706 65.7575 94.5576 66.1465 94.0006 66.4442C93.4435 66.742 92.752 66.8908 91.926 66.8908H90.3989V70.5213H87.9354V60.4078H91.926C92.7328 60.4078 93.4147 60.5471 93.9717 60.8256C94.5288 61.1042 94.9466 61.4883 95.2251 61.9782C95.5037 62.468 95.6429 63.0299 95.6429 63.6637ZM91.7387 64.9315C92.2093 64.9315 92.5599 64.8211 92.7904 64.6002C93.0209 64.3793 93.1362 64.0671 93.1362 63.6637C93.1362 63.2604 93.0209 62.9482 92.7904 62.7273C92.5599 62.5064 92.2093 62.396 91.7387 62.396H90.3989V64.9315H91.7387ZM99.389 62.3816V64.4273H102.688V66.329H99.389V68.5476H103.12V70.5213H96.9254V60.4078H103.12V62.3816H99.389Z" fill="white"/>
<path d="M50.5488 79.7235C50.3756 79.3593 50.1249 79.0787 49.7965 78.8817C49.4681 78.6787 49.086 78.5772 48.6502 78.5772C48.2144 78.5772 47.8203 78.6787 47.4681 78.8817C47.1218 79.0787 46.8472 79.3653 46.6442 79.7414C46.4472 80.1115 46.3486 80.5414 46.3486 81.031C46.3486 81.5205 46.4472 81.9504 46.6442 82.3206C46.8472 82.6907 47.1218 82.9773 47.4681 83.1803C47.8203 83.3773 48.2144 83.4758 48.6502 83.4758C49.2592 83.4758 49.7607 83.2937 50.1547 82.9295C50.5488 82.5653 50.7786 82.0728 50.8443 81.4519H48.3547V80.7892H51.713V81.4161C51.6652 81.9295 51.504 82.4012 51.2294 82.831C50.9547 83.2549 50.5935 83.5922 50.1458 83.843C49.698 84.0878 49.1995 84.2102 48.6502 84.2102C48.0711 84.2102 47.5427 84.0758 47.0651 83.8072C46.5875 83.5325 46.2083 83.1534 45.9277 82.6698C45.6531 82.1862 45.5158 81.6399 45.5158 81.031C45.5158 80.422 45.6531 79.8757 45.9277 79.3921C46.2083 78.9026 46.5875 78.5234 47.0651 78.2548C47.5427 77.9801 48.0711 77.8428 48.6502 77.8428C49.3129 77.8428 49.898 78.007 50.4055 78.3354C50.9189 78.6637 51.2921 79.1264 51.5249 79.7235H50.5488ZM53.6054 83.4937H55.7906V84.1564H52.7905V77.9145H53.6054V83.4937ZM59.486 84.2191C58.9069 84.2191 58.3785 84.0848 57.9009 83.8161C57.4232 83.5415 57.0441 83.1624 56.7635 82.6788C56.4889 82.1892 56.3516 81.6399 56.3516 81.031C56.3516 80.422 56.4889 79.8757 56.7635 79.3921C57.0441 78.9026 57.4232 78.5234 57.9009 78.2548C58.3785 77.9801 58.9069 77.8428 59.486 77.8428C60.0711 77.8428 60.6024 77.9801 61.08 78.2548C61.5577 78.5234 61.9338 78.8996 62.2084 79.3832C62.4831 79.8668 62.6204 80.416 62.6204 81.031C62.6204 81.6459 62.4831 82.1952 62.2084 82.6788C61.9338 83.1624 61.5577 83.5415 61.08 83.8161C60.6024 84.0848 60.0711 84.2191 59.486 84.2191ZM59.486 83.5116C59.9218 83.5116 60.3129 83.4101 60.6591 83.2072C61.0114 83.0042 61.286 82.7146 61.483 82.3385C61.686 81.9623 61.7875 81.5265 61.7875 81.031C61.7875 80.5295 61.686 80.0936 61.483 79.7235C61.286 79.3473 61.0144 79.0578 60.6681 78.8548C60.3218 78.6518 59.9278 78.5503 59.486 78.5503C59.0442 78.5503 58.6501 78.6518 58.3039 78.8548C57.9576 79.0578 57.6829 79.3473 57.4799 79.7235C57.2829 80.0936 57.1844 80.5295 57.1844 81.031C57.1844 81.5265 57.2829 81.9623 57.4799 82.3385C57.6829 82.7146 57.9576 83.0042 58.3039 83.2072C58.6561 83.4101 59.0501 83.5116 59.486 83.5116ZM66.8217 80.9414C67.0486 80.9772 67.2545 81.0698 67.4396 81.219C67.6307 81.3683 67.7799 81.5534 67.8874 81.7743C68.0008 81.9952 68.0575 82.231 68.0575 82.4818C68.0575 82.7982 67.9769 83.0848 67.8158 83.3415C67.6546 83.5922 67.4187 83.7922 67.1083 83.9415C66.8038 84.0848 66.4426 84.1564 66.0247 84.1564H63.6962V77.9145H65.9351C66.359 77.9145 66.7202 77.9861 67.0187 78.1294C67.3172 78.2667 67.5411 78.4548 67.6904 78.6936C67.8396 78.9324 67.9143 79.2011 67.9143 79.4996C67.9143 79.8697 67.8128 80.1772 67.6098 80.422C67.4128 80.6608 67.1501 80.834 66.8217 80.9414ZM64.5112 80.6101H65.8814C66.2635 80.6101 66.559 80.5205 66.768 80.3414C66.9769 80.1623 67.0814 79.9145 67.0814 79.5981C67.0814 79.2817 66.9769 79.0339 66.768 78.8548C66.559 78.6757 66.2575 78.5861 65.8635 78.5861H64.5112V80.6101ZM65.953 83.4848C66.359 83.4848 66.6754 83.3892 66.9023 83.1982C67.1292 83.0071 67.2426 82.7415 67.2426 82.4012C67.2426 82.0549 67.1232 81.7832 66.8844 81.5862C66.6456 81.3832 66.3262 81.2817 65.9261 81.2817H64.5112V83.4848H65.953ZM72.8781 82.7683H70.1556L69.6541 84.1564H68.7944L71.0512 77.9503H71.9915L74.2393 84.1564H73.3796L72.8781 82.7683ZM72.6453 82.1056L71.5169 78.9533L70.3885 82.1056H72.6453ZM76.0379 83.4937H78.223V84.1564H75.2229V77.9145H76.0379V83.4937ZM85.0045 77.9145V78.5772H82.2909V80.6817H84.494V81.3444H82.2909V84.1564H81.476V77.9145H85.0045ZM88.8186 84.2191C88.2395 84.2191 87.7111 84.0848 87.2335 83.8161C86.7559 83.5415 86.3768 83.1624 86.0962 82.6788C85.8215 82.1892 85.6842 81.6399 85.6842 81.031C85.6842 80.422 85.8215 79.8757 86.0962 79.3921C86.3768 78.9026 86.7559 78.5234 87.2335 78.2548C87.7111 77.9801 88.2395 77.8428 88.8186 77.8428C89.4037 77.8428 89.9351 77.9801 90.4127 78.2548C90.8903 78.5234 91.2665 78.8996 91.5411 79.3832C91.8157 79.8668 91.9531 80.416 91.9531 81.031C91.9531 81.6459 91.8157 82.1952 91.5411 82.6788C91.2665 83.1624 90.8903 83.5415 90.4127 83.8161C89.9351 84.0848 89.4037 84.2191 88.8186 84.2191ZM88.8186 83.5116C89.2545 83.5116 89.6455 83.4101 89.9918 83.2072C90.3441 83.0042 90.6187 82.7146 90.8157 82.3385C91.0187 81.9623 91.1202 81.5265 91.1202 81.031C91.1202 80.5295 91.0187 80.0936 90.8157 79.7235C90.6187 79.3473 90.347 79.0578 90.0008 78.8548C89.6545 78.6518 89.2604 78.5503 88.8186 78.5503C88.3768 78.5503 87.9828 78.6518 87.6365 78.8548C87.2902 79.0578 87.0156 79.3473 86.8126 79.7235C86.6156 80.0936 86.5171 80.5295 86.5171 81.031C86.5171 81.5265 86.6156 81.9623 86.8126 82.3385C87.0156 82.7146 87.2902 83.0042 87.6365 83.2072C87.9888 83.4101 88.3828 83.5116 88.8186 83.5116ZM96.3156 84.1564L94.829 81.6041H93.8439V84.1564H93.0289V77.9145H95.0439C95.5155 77.9145 95.9126 77.9951 96.235 78.1563C96.5633 78.3175 96.8081 78.5354 96.9693 78.81C97.1305 79.0847 97.2111 79.3981 97.2111 79.7503C97.2111 80.1802 97.0857 80.5593 96.835 80.8877C96.5902 81.2161 96.22 81.434 95.7245 81.5414L97.2917 84.1564H96.3156ZM93.8439 80.9504H95.0439C95.4857 80.9504 95.817 80.8429 96.0379 80.628C96.2588 80.4071 96.3693 80.1145 96.3693 79.7503C96.3693 79.3802 96.2588 79.0936 96.0379 78.8906C95.823 78.6876 95.4917 78.5861 95.0439 78.5861H93.8439V80.9504ZM99.2923 78.5772V80.6638H101.567V81.3355H99.2923V83.4848H101.836V84.1564H98.4774V77.9055H101.836V78.5772H99.2923ZM105.621 81.0399L107.538 84.1564H106.615L105.12 81.7205L103.696 84.1564H102.791L104.699 81.0399L102.782 77.9145H103.696L105.2 80.3593L106.633 77.9145H107.547L105.621 81.0399ZM61.9942 91.7683H59.2718L58.7703 93.1564H57.9105L60.1673 86.9503H61.1076L63.3555 93.1564H62.4957L61.9942 91.7683ZM61.7614 91.1056L60.633 87.9533L59.5046 91.1056H61.7614ZM72.184 86.9145L70.375 93.1564H69.4616L68.0108 88.1324L66.5063 93.1564L65.6018 93.1654L63.8554 86.9145H64.7241L66.0854 92.2072L67.5899 86.9145H68.5033L69.9362 92.1892L71.3064 86.9145H72.184ZM76.7655 91.7683H74.0431L73.5416 93.1564H72.6818L74.9386 86.9503H75.8789L78.1268 93.1564H77.267L76.7655 91.7683ZM76.5327 91.1056L75.4043 87.9533L74.2759 91.1056H76.5327ZM82.397 93.1564L80.9104 90.6041H79.9253V93.1564H79.1103V86.9145H81.1253C81.597 86.9145 81.994 86.9951 82.3164 87.1563C82.6447 87.3175 82.8895 87.5354 83.0507 87.81C83.2119 88.0847 83.2925 88.3981 83.2925 88.7503C83.2925 89.1802 83.1671 89.5593 82.9164 89.8877C82.6716 90.2161 82.3015 90.434 81.8059 90.5414L83.3731 93.1564H82.397ZM79.9253 89.9504H81.1253C81.5671 89.9504 81.8985 89.8429 82.1194 89.628C82.3403 89.4071 82.4507 89.1145 82.4507 88.7503C82.4507 88.3802 82.3403 88.0936 82.1194 87.8906C81.9044 87.6876 81.5731 87.5861 81.1253 87.5861H79.9253V89.9504ZM86.5021 86.9145C87.1828 86.9145 87.7708 87.0428 88.2664 87.2996C88.7679 87.5503 89.15 87.9115 89.4127 88.3832C89.6813 88.8548 89.8157 89.4101 89.8157 90.0489C89.8157 90.6877 89.6813 91.2429 89.4127 91.7146C89.15 92.1803 88.7679 92.5385 88.2664 92.7893C87.7708 93.034 87.1828 93.1564 86.5021 93.1564H84.5588V86.9145H86.5021ZM86.5021 92.4848C87.3081 92.4848 87.9231 92.2728 88.347 91.8489C88.7709 91.4191 88.9828 90.8191 88.9828 90.0489C88.9828 89.2727 88.7679 88.6668 88.338 88.2309C87.9141 87.7951 87.3022 87.5772 86.5021 87.5772H85.3738V92.4848H86.5021ZM92.8698 93.2191C92.4578 93.2191 92.0877 93.1475 91.7593 93.0042C91.4369 92.8549 91.1832 92.6519 90.9981 92.3952C90.813 92.1325 90.7175 91.831 90.7115 91.4907H91.5802C91.61 91.7833 91.7294 92.031 91.9384 92.234C92.1533 92.431 92.4638 92.5296 92.8698 92.5296C93.2578 92.5296 93.5623 92.434 93.7832 92.243C94.0101 92.046 94.1235 91.7952 94.1235 91.4907C94.1235 91.2519 94.0579 91.0579 93.9265 90.9086C93.7952 90.7594 93.631 90.6459 93.434 90.5683C93.2369 90.4907 92.9713 90.4071 92.6369 90.3175C92.225 90.2101 91.8936 90.1026 91.6429 89.9952C91.3981 89.8877 91.1861 89.7205 91.007 89.4936C90.8339 89.2608 90.7473 88.9503 90.7473 88.5623C90.7473 88.222 90.8339 87.9205 91.007 87.6578C91.1802 87.3951 91.422 87.1921 91.7324 87.0488C92.0489 86.9055 92.4101 86.8339 92.816 86.8339C93.4011 86.8339 93.8788 86.9801 94.2489 87.2727C94.625 87.5652 94.837 87.9533 94.8848 88.4369H93.9892C93.9594 88.1981 93.834 87.9891 93.6131 87.81C93.3922 87.6249 93.0996 87.5324 92.7354 87.5324C92.3951 87.5324 92.1175 87.622 91.9026 87.8011C91.6876 87.9742 91.5802 88.219 91.5802 88.5354C91.5802 88.7623 91.6429 88.9474 91.7682 89.0906C91.8996 89.2339 92.0578 89.3444 92.2429 89.422C92.4339 89.4936 92.6996 89.5772 93.0399 89.6728C93.4519 89.7862 93.7832 89.8996 94.034 90.0131C94.2847 90.1205 94.4997 90.2907 94.6788 90.5235C94.8579 90.7504 94.9474 91.0609 94.9474 91.4549C94.9474 91.7594 94.8668 92.046 94.7056 92.3146C94.5444 92.5833 94.3056 92.8012 93.9892 92.9684C93.6728 93.1355 93.2996 93.2191 92.8698 93.2191Z" fill="white"/>
<path d="M61.7991 108.201C62.0904 107.969 62.2231 107.862 62.1974 107.879C63.0369 107.186 63.6965 106.616 64.1762 106.171C64.6645 105.725 65.0757 105.258 65.4097 104.77C65.7438 104.282 65.9108 103.806 65.9108 103.344C65.9108 102.993 65.8295 102.718 65.6667 102.521C65.504 102.324 65.2598 102.226 64.9343 102.226C64.6088 102.226 64.3518 102.35 64.1634 102.598C63.9835 102.838 63.8935 103.181 63.8935 103.626H61.7734C61.7906 102.898 61.9447 102.29 62.236 101.802C62.5358 101.314 62.9256 100.954 63.4053 100.723C63.8935 100.491 64.4332 100.376 65.0243 100.376C66.0436 100.376 66.8103 100.637 67.3243 101.159C67.8468 101.682 68.1081 102.363 68.1081 103.202C68.1081 104.119 67.7954 104.971 67.1701 105.759C66.5447 106.539 65.7481 107.301 64.7801 108.047H68.2494V109.833H61.7991V108.201ZM69.2168 105.143C69.2168 103.669 69.4995 102.509 70.0648 101.661C70.6388 100.812 71.5596 100.388 72.8274 100.388C74.0952 100.388 75.0118 100.812 75.5771 101.661C76.1511 102.509 76.438 103.669 76.438 105.143C76.438 106.633 76.1511 107.802 75.5771 108.65C75.0118 109.498 74.0952 109.923 72.8274 109.923C71.5596 109.923 70.6388 109.498 70.0648 108.65C69.4995 107.802 69.2168 106.633 69.2168 105.143ZM74.2794 105.143C74.2794 104.277 74.1851 103.614 73.9967 103.151C73.8082 102.68 73.4185 102.444 72.8274 102.444C72.2363 102.444 71.8466 102.68 71.6581 103.151C71.4697 103.614 71.3755 104.277 71.3755 105.143C71.3755 105.725 71.4097 106.209 71.4782 106.595C71.5468 106.971 71.6838 107.28 71.8894 107.52C72.1036 107.751 72.4162 107.867 72.8274 107.867C73.2386 107.867 73.547 107.751 73.7525 107.52C73.9667 107.28 74.108 106.971 74.1766 106.595C74.2451 106.209 74.2794 105.725 74.2794 105.143ZM77.5218 108.201C77.813 107.969 77.9458 107.862 77.9201 107.879C78.7596 107.186 79.4192 106.616 79.8989 106.171C80.3871 105.725 80.7983 105.258 81.1324 104.77C81.4665 104.282 81.6335 103.806 81.6335 103.344C81.6335 102.993 81.5521 102.718 81.3894 102.521C81.2266 102.324 80.9825 102.226 80.657 102.226C80.3314 102.226 80.0745 102.35 79.886 102.598C79.7061 102.838 79.6162 103.181 79.6162 103.626H77.4961C77.5132 102.898 77.6674 102.29 77.9586 101.802C78.2585 101.314 78.6482 100.954 79.1279 100.723C79.6162 100.491 80.1558 100.376 80.7469 100.376C81.7663 100.376 82.5329 100.637 83.0469 101.159C83.5694 101.682 83.8307 102.363 83.8307 103.202C83.8307 104.119 83.518 104.971 82.8927 105.759C82.2674 106.539 81.4707 107.301 80.5028 108.047H83.972V109.833H77.5218V108.201ZM84.8623 108.201C85.1536 107.969 85.2864 107.862 85.2607 107.879C86.1001 107.186 86.7597 106.616 87.2394 106.171C87.7277 105.725 88.1389 105.258 88.473 104.77C88.807 104.282 88.9741 103.806 88.9741 103.344C88.9741 102.993 88.8927 102.718 88.7299 102.521C88.5672 102.324 88.3231 102.226 87.9975 102.226C87.672 102.226 87.415 102.35 87.2266 102.598C87.0467 102.838 86.9568 103.181 86.9568 103.626H84.8366C84.8538 102.898 85.008 102.29 85.2992 101.802C85.599 101.314 85.9888 100.954 86.4685 100.723C86.9568 100.491 87.4964 100.376 88.0875 100.376C89.1069 100.376 89.8735 100.637 90.3875 101.159C90.91 101.682 91.1713 102.363 91.1713 103.202C91.1713 104.119 90.8586 104.971 90.2333 105.759C89.608 106.539 88.8113 107.301 87.8434 108.047H91.3126V109.833H84.8623V108.201Z" fill="white"/>
</svg>
