<svg xmlns="http://www.w3.org/2000/svg" width="72" height="72">
    <defs>
        <style>
            .cls-2{fill:#1abc9c}
        </style>
    </defs>
    <g id="Group_144" data-name="Group 144" transform="translate(-2057.426 -1505.523)">
        <g id="Group_143" data-name="Group 143" transform="translate(2061.926 1515.648)">
            <path id="Path_327" data-name="Path 327" d="M2483.384 1477.491h-57.375v-4.5a1.125 1.125 0 0 0 0-2.25v-4.5a1.125 1.125 0 0 0 0-2.25v-4.5a1.125 1.125 0 1 0 0-2.25v-4.5a1.125 1.125 0 1 0 0-2.25v-4.5a1.125 1.125 0 0 0 0-2.25v-4.5a1.125 1.125 0 0 0 0-2.25v-4.5a1.125 1.125 0 0 0 0-2.25v-4.5a1.125 1.125 0 0 0 0-2.25h-2.25a1.125 1.125 0 0 0 0 2.25v4.5a1.125 1.125 0 0 0 0 2.25v4.5a1.125 1.125 0 0 0 0 2.25v4.5a1.125 1.125 0 0 0 0 2.25v4.5a1.125 1.125 0 1 0 0 2.25v4.5a1.125 1.125 0 1 0 0 2.25v4.5a1.125 1.125 0 0 0 0 2.25v4.5a1.125 1.125 0 0 0 0 2.25v5.625a1.126 1.126 0 0 0 1.125 1.125h58.5a1.125 1.125 0 0 0 0-2.25z" transform="translate(-2422.634 -1423.492)" style="fill:#d0dae5"/>
            <path id="Path_328" data-name="Path 328" class="cls-2" d="M2484.176 1591.733h2.25v1.125a1.125 1.125 0 0 0 2.25 0v-1.125h2.25a1.125 1.125 0 0 0 1.125-1.125v-15.75a1.125 1.125 0 0 0-1.125-1.125h-2.25v-5.625a1.125 1.125 0 0 0-2.25 0v5.625h-2.25a1.125 1.125 0 0 0-1.125 1.125v15.75a1.125 1.125 0 0 0 1.125 1.125zm1.125-15.75h4.5v13.5h-4.5z" transform="translate(-2474.051 -1545.608)"/>
            <path id="Path_329" data-name="Path 329" class="cls-2" d="M2574.8 1547.222h2.25v4.5a1.125 1.125 0 0 0 2.25 0v-4.5h2.25a1.124 1.124 0 0 0 1.125-1.125v-13.5a1.125 1.125 0 0 0-1.125-1.125h-2.25v-1.125a1.125 1.125 0 1 0-2.25 0v1.125h-2.25a1.125 1.125 0 0 0-1.125 1.125v13.5a1.125 1.125 0 0 0 1.125 1.125zm1.125-13.5h4.5v11.25h-4.5z" transform="translate(-2551.177 -1513.472)"/>
            <path id="Path_330" data-name="Path 330" class="cls-2" d="M2665.428 1466.721h2.25v2.25a1.125 1.125 0 0 0 2.25 0v-2.25h2.25a1.125 1.125 0 0 0 1.125-1.125v-18a1.125 1.125 0 0 0-1.125-1.125h-2.25v-6.75a1.125 1.125 0 1 0-2.25 0v6.75h-2.25a1.125 1.125 0 0 0-1.125 1.125v18a1.125 1.125 0 0 0 1.125 1.125zm1.125-18h4.5v15.75h-4.5z" transform="translate(-2628.303 -1436.346)"/>
            <path id="Path_331" data-name="Path 331" class="cls-2" d="M2756.054 1541.92h2.25v2.25a1.125 1.125 0 1 0 2.25 0v-2.25h2.25a1.125 1.125 0 0 0 1.125-1.125v-11.25a1.125 1.125 0 0 0-1.125-1.125h-2.25v-5.62a1.125 1.125 0 1 0-2.25 0v5.625h-2.25a1.125 1.125 0 0 0-1.125 1.125v11.25a1.125 1.125 0 0 0 1.125 1.12zm1.125-11.25h4.5v9h-4.5z" transform="translate(-2705.429 -1507.045)"/>
        </g>
        <path id="Rectangle_64" data-name="Rectangle 64" transform="translate(2057.426 1505.523)" style="fill:none" d="M0 0h72v72H0z"/>
    </g>
</svg>
