<svg id="ef3a5d70-3bcb-4433-8b46-22e67c8cc577" data-name="Layer 19" xmlns="http://www.w3.org/2000/svg" width="260" height="111" viewBox="0 0 260 111"><title>binanceArtboard 2</title><path d="M216.338,64.96H202.546c-.055-.3-.077-17.114-.024-18.347h13.816v3.571h-9.747l-.093.094v3.615h8.585l.095.095v3.464l-.093.095H206.5v3.741l.091.1h9.749Z" fill="#f2ba30"/><path d="M60.862,38.249c.071.083.138.17.216.248l10.1,10.108c.089.088.237.149.208.289l-3.87,3.868L60.9,46.141h-.185a.461.461,0,0,1-.079.126Q57.913,49,55.174,51.723c-.354.352-.735.68-1.092,1L50.217,48.86,60.578,38.5c.078-.078.145-.17.216-.248Z" fill="#f2ba30"/><path d="M43.662,55.315a.691.691,0,0,0,.082-.05c1.219-1.1,2.35-2.3,3.519-3.452l.14-.141,3.845,3.845L47.4,59.36h-.066l-3.429-3.426c-.076-.077-.17-.143-.246-.215Z" fill="#f2ba30"/><path d="M96.405,55.362a1.408,1.408,0,0,0,.223.135,5.453,5.453,0,0,1,1.6.93,3.272,3.272,0,0,1,1.158,1.437,2.122,2.122,0,0,1,.257.872c.15.207.036.459.119.692a2.149,2.149,0,0,1,.017.7,1.017,1.017,0,0,1-.063.412c-.051.126.06.289-.073.408a3.054,3.054,0,0,1-.408,1.248,2.847,2.847,0,0,1-.548.784c-.081.078-.161.156-.238.24a4.142,4.142,0,0,1-.974.736c-.17.1-.34.157-.51.253s-.373.13-.551.213-.354.124-.529.187c-.245.09-.531.071-.779.156-.194.065-.4,0-.573.08s-.4,0-.587.051a3.505,3.505,0,0,1-1.086.058q-4.315.01-8.65,0V46.613h8.958c.171.017.341.043.51.077a1.186,1.186,0,0,1,.484.053,1.466,1.466,0,0,0,.441.068,6.011,6.011,0,0,1,.915.241,4.387,4.387,0,0,1,1.52.8,4.1,4.1,0,0,1,.984,1.068,4.179,4.179,0,0,1,.482.981,3.009,3.009,0,0,1,.194.966c-.011.207.1.4.069.614s-.051.474-.071.714a5.567,5.567,0,0,0-.134.651,5.881,5.881,0,0,1-.681,1.242c-.127.149-.255.3-.387.443A5.94,5.94,0,0,1,96.405,55.362ZM88.12,61.385h5.362a2.924,2.924,0,0,0,.819-.139,2.7,2.7,0,0,0,.851-.4,1.486,1.486,0,0,0,.481-.606,2.182,2.182,0,0,0,.17-.738,2.016,2.016,0,0,0-.068-.642,1.421,1.421,0,0,0-.255-.531,1.931,1.931,0,0,0-.663-.585,2.971,2.971,0,0,0-.832-.265,6.061,6.061,0,0,0-.85-.087c-1.573.015-3.146,0-4.719,0h-.291Zm0-7.352h3.94A1.454,1.454,0,0,0,92.552,54c.17-.064.357.039.5-.1a2.579,2.579,0,0,0,1.151-.476,1.022,1.022,0,0,0,.393-.534,1.331,1.331,0,0,0,.131-.621c.17-.241-.068-.474-.017-.712a1.772,1.772,0,0,0-.99-1.124,3.79,3.79,0,0,0-1.012-.245H88.12Z" fill="#f2ba30"/><path d="M163.466,64.946h-4.047v-18.3c.268-.048,2.846-.063,3.741-.021l8.584,11.269V46.622h3.972V64.946H172.3l-8.832-11.58Z" fill="#f2ba30"/><path d="M131.269,64.955h-3.423l-8.9-11.672V64.946h-3.972v-18.3c.26-.049,2.8-.066,3.741-.023l8.6,11.292V46.62h3.958Z" fill="#f2ba30"/><path d="M143.518,46.481h3.669a1.489,1.489,0,0,1,.2.379,3.956,3.956,0,0,0,.279.661,6.051,6.051,0,0,1,.244.6c.06.216.194.391.242.614a4.572,4.572,0,0,0,.294.65c.16.406.359.795.51,1.209a5.311,5.311,0,0,0,.262.564,3.533,3.533,0,0,1,.248.6c.056.217.2.389.244.612a3.576,3.576,0,0,0,.321.707,4.352,4.352,0,0,1,.255.6c.056.2.19.369.233.583a3.866,3.866,0,0,0,.294.649c.148.356.3.71.435,1.068.074.194.17.378.259.567.17.4.371.792.51,1.2.179.49.4.957.592,1.442a11.892,11.892,0,0,0,.51,1.17,3.4,3.4,0,0,1,.255.6c.06.2.17.38.236.579a5.8,5.8,0,0,0,.254.6,2.666,2.666,0,0,1,.257.565,5.15,5.15,0,0,0,.231.585,5.024,5.024,0,0,0,.255.6c.124.3.26.589.388.884a.611.611,0,0,1,.018.17h-4.162c-.24-.632-.526-1.266-.772-1.918-.128-.34-.25-.68-.407-1.01s-.257-.66-.418-.974a.9.9,0,0,1-.051-.191h-7.781l-1.674,4.1H135.67a1.681,1.681,0,0,1,.072-.3c.151-.354.319-.7.464-1.056.161-.395.33-.786.5-1.177s.327-.785.51-1.168a3.264,3.264,0,0,0,.2-.524,5.123,5.123,0,0,0,.215-.52,2.769,2.769,0,0,1,.247-.536c.179-.4.371-.79.52-1.2.17-.488.4-.958.592-1.44.153-.4.34-.779.51-1.17s.34-.779.492-1.181c.071-.2.17-.4.26-.6a2.725,2.725,0,0,0,.255-.564c.036-.218.18-.376.23-.585a3.334,3.334,0,0,1,.219-.51c.17-.412.382-.81.539-1.226.184-.487.437-.943.585-1.446a5.933,5.933,0,0,1,.326-.706,4.436,4.436,0,0,0,.259-.6c.054-.206.185-.371.233-.582a5.89,5.89,0,0,1,.314-.68C143.309,46.952,143.4,46.722,143.518,46.481Zm4.212,10.777c-.051-.132-.1-.256-.148-.379-.077-.182-.17-.357-.242-.539-.2-.568-.455-1.115-.68-1.673-.126-.32-.263-.633-.394-.949a10.2,10.2,0,0,1-.369-.959c-.065-.223-.191-.415-.264-.634-.083-.245-.19-.494-.326-.8-.075.18-.118.3-.17.418-.153.32-.269.653-.415.976-.131.29-.24.6-.356.9s-.251.591-.37.891-.247.573-.359.862c-.182.464-.373.925-.551,1.391-.063.161-.14.318-.219.5Z" fill="#f2ba30"/><path d="M195.237,59.4l2.486,2.522V62.1c-.362.341-.716.693-1.1,1.021a10.379,10.379,0,0,1-1.382.972,7.267,7.267,0,0,1-1.02.485,7.466,7.466,0,0,1-1.191.389c-.25.055-.5.1-.751.147a3.494,3.494,0,0,0-.478.063,1.6,1.6,0,0,1-.51.057h-.51c-.17,0-.286.075-.444.072-.408-.012-.808-.1-1.221-.083-.126,0-.267-.058-.41-.062a3.429,3.429,0,0,1-.376-.063c-.137-.018-.263-.11-.411-.068-.412-.17-.864-.236-1.269-.435-.374-.184-.765-.34-1.129-.532a8.156,8.156,0,0,1-.981-.643,8.6,8.6,0,0,1-1.209-1.07,10.115,10.115,0,0,1-1.267-1.734,9.377,9.377,0,0,1-.473-.985,7.663,7.663,0,0,1-.476-1.457c-.088-.418-.153-.84-.214-1.263a8.427,8.427,0,0,1-.051-.953c-.01-.314-.009-.629,0-.943a3.041,3.041,0,0,1,.063-.378,2.131,2.131,0,0,1,.053-.381,2.911,2.911,0,0,0,.078-.474,6.415,6.415,0,0,1,.306-1.156,9.3,9.3,0,0,1,.51-1.235A11.452,11.452,0,0,1,182.742,50,9.442,9.442,0,0,1,184,48.637a7.552,7.552,0,0,1,1.291-.944c.354-.206.718-.386,1.085-.563a5.822,5.822,0,0,1,1.263-.447c.2-.042.39-.1.582-.148.119-.03.233-.03.34-.054a.967.967,0,0,1,.34-.068c.2.027.376-.1.58-.07a3.418,3.418,0,0,0,.607,0c.092,0,.182-.053.276-.061.219-.022.421.1.646.07a1.989,1.989,0,0,1,.671,0,3.888,3.888,0,0,0,.482.057c.148.017.3.046.442.075a12.491,12.491,0,0,1,1.372.34,9.324,9.324,0,0,1,1.541.68,6.83,6.83,0,0,1,.957.619c.383.293.738.621,1.1.931a.626.626,0,0,1-.039.17,2.908,2.908,0,0,1-.237.306c-.227.255-.462.51-.69.76-.1.114-.19.236-.287.353s-.223.179-.266.329c-.01.039-.061.064-.091.1-.232.253-.463.51-.691.76a3,3,0,0,0-.187.26c-.28-.223-.536-.439-.806-.636s-.556-.388-.84-.573a3.611,3.611,0,0,0-.466-.262,4.824,4.824,0,0,0-1.267-.44c-.143-.14-.34-.038-.5-.1a1.531,1.531,0,0,0-.491-.034c-.271,0-.541-.012-.81,0a5.067,5.067,0,0,0-1.506.349,7.5,7.5,0,0,0-1.2.68,2.1,2.1,0,0,0-.314.3,5.274,5.274,0,0,0-.976,1.182,3.476,3.476,0,0,0-.34.633c-.1.3-.215.586-.313.882-.044.133.044.3-.1.4-.023.227-.057.454-.064.68-.012.36,0,.719,0,1.079a5.081,5.081,0,0,0,.24,1.383,7.306,7.306,0,0,0,.641,1.457,2.135,2.135,0,0,0,.35.526,6.669,6.669,0,0,0,1.119,1.037,5.9,5.9,0,0,0,.76.445,7.927,7.927,0,0,0,.888.3,8.1,8.1,0,0,0,2.1.131c.274-.1.566-.088.85-.17a6.173,6.173,0,0,0,1.374-.586,8.5,8.5,0,0,0,.992-.706A10.54,10.54,0,0,0,195.237,59.4Z" fill="#f2ba30"/><path d="M71.42,62.149l-10.6,10.6L50.256,62.188l3.838-3.838h.1l6.623,6.623,6.632-6.632a.613.613,0,0,1,.157.045.781.781,0,0,1,.12.117l3.571,3.571A.762.762,0,0,0,71.42,62.149Z" fill="#f2ba30"/><path d="M104.851,46.619h4.025V64.926c-.265.049-3.04.066-4.025.022Z" fill="#f2ba30"/><path d="M60.836,51.625l3.884,3.884a.439.439,0,0,1-.039.137.66.66,0,0,1-.115.121l-3.6,3.6c-.022.022-.048.042-.08.071a.591.591,0,0,1-.148-.046.638.638,0,0,1-.121-.117l-3.634-3.62a.4.4,0,0,0-.117-.068Z" fill="#f2ba30"/><path d="M70.3,55.543l3.868-3.861h.073l3.82,3.821c-.121.2-2.277,2.381-3.823,3.874a.949.949,0,0,1-.148-.039c-.029-.012-.047-.044-.071-.068l-.087-.106Z" fill="#f2ba30"/></svg>