<svg xmlns="http://www.w3.org/2000/svg" width="136.792" height="25.205">
    <defs>
        <clipPath id="clip-path">
            <path id="Clip_2" data-name="Clip 2" class="cls-1" d="M0 0h17.192v20.375H0z" transform="translate(0 .264)"/>
        </clipPath>
        <clipPath id="clip-path-2">
            <path id="Clip_5" data-name="Clip 5" class="cls-1" d="M0 25.205h136.792V0H0z" transform="translate(0 .531)"/>
        </clipPath>
        <style>
            .cls-1{fill:#b8c1cb}.cls-2{fill:none}
        </style>
    </defs>
    <g id="Group_13" data-name="Group 13" transform="translate(0 -.531)">
        <g id="Group_3" data-name="Group 3" transform="translate(0 .267)">
            <path id="Clip_2-2" data-name="Clip 2" class="cls-2" d="M0 0h17.192v20.375H0z" transform="translate(0 .264)"/>
            <g id="Group_3-2" data-name="Group 3" style="clip-path:url(#clip-path)">
                <path id="Fill_1" data-name="Fill 1" class="cls-1" d="M10.294 20.375H0V0h10.029a7.181 7.181 0 0 1 4.4 1.273 5.015 5.015 0 0 1 1.8 4.033 3.9 3.9 0 0 1-2.388 3.927v.105a4.906 4.906 0 0 1 3.343 4.882 6.028 6.028 0 0 1-2.228 4.935 7.638 7.638 0 0 1-4.662 1.22zm-4.723-8.649v4.192H9.5v-.053a1.965 1.965 0 0 0 2.121-2.065A1.927 1.927 0 0 0 9.5 11.726zM5.519 4.4v3.5h3.5v.06a1.913 1.913 0 0 0 1.365-.479 1.794 1.794 0 0 0 .492-1.325A1.686 1.686 0 0 0 8.968 4.4z" transform="translate(0 .264)"/>
            </g>
        </g>
        <path id="Clip_5-2" data-name="Clip 5" class="cls-2" d="M0 25.205h136.792V0H0z" transform="translate(0 .531)"/>
        <g id="Mask_Group_9" data-name="Mask Group 9" style="clip-path:url(#clip-path-2)">
            <path id="Fill_4" data-name="Fill 4" class="cls-1" d="M0 20.429h5.253V0H0z" transform="translate(18.094 .531)"/>
            <path id="Fill_6" data-name="Fill 6" class="cls-1" d="M7.588 15.388a7.515 7.515 0 0 1-5.525-2.116A7.759 7.759 0 0 1 0 7.694a7.759 7.759 0 0 1 2.063-5.578A7.515 7.515 0 0 1 7.588 0a7.419 7.419 0 0 1 5.5 2.136 7.8 7.8 0 0 1 2.036 5.559c-.001 4.673-2.959 7.693-7.536 7.693zM7.482 3.555c-1.505 0-2.335 1.47-2.335 4.139 0 2.7.829 4.191 2.335 4.191 1.54-.051 2.388-1.54 2.388-4.191a6.329 6.329 0 0 0-.6-3.025 1.958 1.958 0 0 0-1.788-1.114z" transform="translate(24.408 5.996)"/>
            <path id="Fill_7" data-name="Fill 7" class="cls-1" d="M7.535 15.388a7.433 7.433 0 0 1-5.479-2.116A7.782 7.782 0 0 1 0 7.694a7.759 7.759 0 0 1 2.063-5.578A7.515 7.515 0 0 1 7.588 0c4.545 0 7.482 3.02 7.482 7.694s-2.958 7.694-7.535 7.694zM7.482 3.555c-1.505 0-2.335 1.47-2.335 4.139 0 2.7.829 4.191 2.335 4.191 1.54-.051 2.388-1.54 2.388-4.191a6.329 6.329 0 0 0-.6-3.025 1.958 1.958 0 0 0-1.788-1.114z" transform="translate(40.114 5.996)"/>
            <path id="Fill_8" data-name="Fill 8" class="cls-1" d="M0 .424h4.882V2.6h.106A4.625 4.625 0 0 1 9.392 0a4.03 4.03 0 0 1 3.927 2.494h.106A4.833 4.833 0 0 1 17.935 0c3.4 0 4.829 2.494 4.829 5.837v9.127h-5.095V6.739c0-1.486-.478-2.441-1.751-2.441s-1.91 1.167-1.91 2.759v7.906H8.914V6.739c0-1.486-.478-2.441-1.751-2.441s-1.91 1.167-1.91 2.759v7.906H0z" transform="translate(56.245 5.943)"/>
            <path id="Fill_9" data-name="Fill 9" class="cls-1" d="M9.021 20.853a4.476 4.476 0 0 1-4.086-2.388h-.053v1.91H0V0h5.094v7.322H5.2A4.833 4.833 0 0 1 9.338 5.36a5.073 5.073 0 0 1 4.265 2.2 9.363 9.363 0 0 1 1.519 5.5A9.262 9.262 0 0 1 13.5 18.8a5.473 5.473 0 0 1-4.479 2.053zM7.482 9.127c-1.571 0-2.547 1.484-2.547 3.873a5.145 5.145 0 0 0 .7 2.813 2.16 2.16 0 0 0 1.85 1.061c1.5 0 2.388-1.448 2.388-3.874s-.896-3.873-2.391-3.873z" transform="translate(80.494 .531)"/>
            <path id="Fill_10" data-name="Fill 10" class="cls-1" d="M7.535 15.44a7.539 7.539 0 0 1-5.459-2.161A7.791 7.791 0 0 1 0 7.694a7.824 7.824 0 0 1 2.056-5.558A7.171 7.171 0 0 1 7.376 0a7 7 0 0 1 5.093 1.91c1.618 1.567 2.443 4.044 2.388 7.164H5.094c.216 1.83 1.09 2.759 2.6 2.759a1.988 1.988 0 0 0 2.016-1.38h4.936a6.215 6.215 0 0 1-2.5 3.747 8.036 8.036 0 0 1-4.611 1.24zM7.376 3.5c-1.311 0-2.121.943-2.282 2.655h4.67C9.665 4.519 8.791 3.5 7.483 3.5z" transform="translate(96.2 5.943)"/>
            <path id="Fill_11" data-name="Fill 11" class="cls-1" d="M4.882 2.812h.106C6.049.8 7.429 0 9.18 0a1.586 1.586 0 0 1 .849.159v4.457h-.107c-3.024-.531-4.776.9-4.776 4.192v6.1H0V.318h4.882z" transform="translate(111.959 6.049)"/>
            <path id="Fill_12" data-name="Fill 12" class="cls-1" d="M7.189 19.846a8.414 8.414 0 0 1-4.721-1.194 4.99 4.99 0 0 1-2.2-3.583H5.2a1.932 1.932 0 0 0 2.069 1.22c1.5 0 2.228-.833 2.228-2.547v-1.06h-.106a4.378 4.378 0 0 1-3.5 1.644 5.568 5.568 0 0 1-4.119-1.738A7.376 7.376 0 0 1 0 7.429a8.96 8.96 0 0 1 1.539-5.287A4.939 4.939 0 0 1 5.624 0a4.292 4.292 0 0 1 3.927 2.016h.106V.425h4.882v12.628a6.721 6.721 0 0 1-2.016 5.2 7.607 7.607 0 0 1-5.147 1.592zm.186-15.92a2.018 2.018 0 0 0-1.7.889 4.152 4.152 0 0 0-.63 2.4c0 2 .938 3.343 2.335 3.343 1.375 0 2.335-1.375 2.335-3.343-.005-1.936-.965-3.288-2.339-3.288z" transform="translate(122.253 5.89)"/>
        </g>
    </g>
</svg>
