<svg width="116" height="116" viewBox="0 0 116 116" fill="none" xmlns="http://www.w3.org/2000/svg">
<g filter="url(#filter0_d)">
<circle cx="58" cy="53" r="38" fill="#1ABC9C"/>
</g>
<path d="M58.8984 38.76C60.2318 38.76 61.4318 38.9533 62.4984 39.34C63.5784 39.7133 64.4984 40.24 65.2584 40.92C66.0184 41.5867 66.5984 42.3733 66.9984 43.28C67.4118 44.1867 67.6184 45.1667 67.6184 46.22C67.6184 47.14 67.5118 47.9533 67.2984 48.66C67.0984 49.3533 66.7984 49.96 66.3984 50.48C66.0118 51 65.5318 51.44 64.9584 51.8C64.3984 52.16 63.7584 52.46 63.0384 52.7C64.7718 53.2467 66.0651 54.08 66.9184 55.2C67.7718 56.32 68.1984 57.7267 68.1984 59.42C68.1984 60.86 67.9318 62.1333 67.3984 63.24C66.8651 64.3467 66.1451 65.28 65.2384 66.04C64.3318 66.7867 63.2784 67.3533 62.0784 67.74C60.8918 68.1267 59.6318 68.32 58.2984 68.32C56.8451 68.32 55.5784 68.1533 54.4984 67.82C53.4184 67.4867 52.4784 66.9933 51.6784 66.34C50.8784 65.6867 50.1984 64.8867 49.6384 63.94C49.0784 62.9933 48.5984 61.9 48.1984 60.66L50.3784 59.76C50.7518 59.6 51.1318 59.52 51.5184 59.52C51.8651 59.52 52.1718 59.5933 52.4384 59.74C52.7184 59.8867 52.9318 60.1 53.0784 60.38C53.3184 60.8467 53.5784 61.3067 53.8584 61.76C54.1518 62.2133 54.4984 62.62 54.8984 62.98C55.2984 63.3267 55.7651 63.6133 56.2984 63.84C56.8451 64.0533 57.4918 64.16 58.2384 64.16C59.0784 64.16 59.8118 64.0267 60.4384 63.76C61.0651 63.48 61.5851 63.12 61.9984 62.68C62.4251 62.24 62.7384 61.7533 62.9384 61.22C63.1518 60.6733 63.2584 60.1267 63.2584 59.58C63.2584 58.8867 63.1851 58.26 63.0384 57.7C62.8918 57.1267 62.5851 56.64 62.1184 56.24C61.6518 55.84 60.9784 55.5267 60.0984 55.3C59.2318 55.0733 58.0651 54.96 56.5984 54.96V51.44C57.8118 51.4267 58.8184 51.3133 59.6184 51.1C60.4184 50.8867 61.0518 50.5933 61.5184 50.22C61.9984 49.8333 62.3318 49.3733 62.5184 48.84C62.7051 48.3067 62.7984 47.72 62.7984 47.08C62.7984 45.7067 62.4251 44.6733 61.6784 43.98C60.9318 43.2733 59.9118 42.92 58.6184 42.92C57.4451 42.92 56.4718 43.2333 55.6984 43.86C54.9251 44.4733 54.3851 45.2667 54.0784 46.24C53.9184 46.7467 53.6984 47.1133 53.4184 47.34C53.1384 47.5533 52.7718 47.66 52.3184 47.66C52.1051 47.66 51.8784 47.64 51.6384 47.6L49.0384 47.14C49.2384 45.7533 49.6251 44.54 50.1984 43.5C50.7718 42.4467 51.4851 41.5733 52.3384 40.88C53.2051 40.1733 54.1918 39.6467 55.2984 39.3C56.4184 38.94 57.6184 38.76 58.8984 38.76Z" fill="white"/>
<defs>
<filter id="filter0_d" x="0" y="0" width="116" height="116" filterUnits="userSpaceOnUse" color-interpolation-filters="sRGB">
<feFlood flood-opacity="0" result="BackgroundImageFix"/>
<feColorMatrix in="SourceAlpha" type="matrix" values="0 0 0 0 0 0 0 0 0 0 0 0 0 0 0 0 0 0 127 0" result="hardAlpha"/>
<feOffset dy="5"/>
<feGaussianBlur stdDeviation="10"/>
<feColorMatrix type="matrix" values="0 0 0 0 0.533854 0 0 0 0 0.533854 0 0 0 0 0.533854 0 0 0 0.1 0"/>
<feBlend mode="normal" in2="BackgroundImageFix" result="effect1_dropShadow"/>
<feBlend mode="normal" in="SourceGraphic" in2="effect1_dropShadow" result="shape"/>
</filter>
</defs>
</svg>
