<svg width="116" height="116" viewBox="0 0 116 116" fill="none" xmlns="http://www.w3.org/2000/svg">
<g filter="url(#filter0_d)">
<circle cx="58" cy="53" r="38" fill="#1ABC9C"/>
</g>
<path d="M58.4384 38.76C59.7718 38.76 60.9918 38.96 62.0984 39.36C63.2051 39.7467 64.1518 40.3 64.9384 41.02C65.7251 41.74 66.3384 42.6067 66.7784 43.62C67.2184 44.6333 67.4384 45.76 67.4384 47C67.4384 48.0667 67.2784 49.0533 66.9584 49.96C66.6518 50.8667 66.2318 51.7333 65.6984 52.56C65.1784 53.3867 64.5651 54.1867 63.8584 54.96C63.1518 55.7333 62.4118 56.52 61.6384 57.32L55.1184 63.98C55.7584 63.7933 56.3851 63.6533 56.9984 63.56C57.6118 63.4533 58.1984 63.4 58.7584 63.4H66.1784C66.7118 63.4 67.1318 63.5533 67.4384 63.86C67.7584 64.1533 67.9184 64.5467 67.9184 65.04V68H48.0784V66.36C48.0784 66.0267 48.1451 65.68 48.2784 65.32C48.4251 64.96 48.6518 64.6267 48.9584 64.32L57.7384 55.52C58.4718 54.7733 59.1251 54.06 59.6984 53.38C60.2851 52.7 60.7718 52.0267 61.1584 51.36C61.5584 50.6933 61.8584 50.02 62.0584 49.34C62.2718 48.6467 62.3784 47.92 62.3784 47.16C62.3784 46.4667 62.2784 45.86 62.0784 45.34C61.8784 44.8067 61.5918 44.36 61.2184 44C60.8451 43.64 60.3984 43.3733 59.8784 43.2C59.3718 43.0133 58.7984 42.92 58.1584 42.92C56.9718 42.92 55.9918 43.22 55.2184 43.82C54.4584 44.42 53.9251 45.2267 53.6184 46.24C53.4718 46.7467 53.2518 47.1133 52.9584 47.34C52.6651 47.5533 52.2918 47.66 51.8384 47.66C51.6384 47.66 51.4184 47.64 51.1784 47.6L48.5784 47.14C48.7784 45.7533 49.1651 44.54 49.7384 43.5C50.3118 42.4467 51.0251 41.5733 51.8784 40.88C52.7451 40.1733 53.7318 39.6467 54.8384 39.3C55.9584 38.94 57.1584 38.76 58.4384 38.76Z" fill="white"/>
<defs>
<filter id="filter0_d" x="0" y="0" width="116" height="116" filterUnits="userSpaceOnUse" color-interpolation-filters="sRGB">
<feFlood flood-opacity="0" result="BackgroundImageFix"/>
<feColorMatrix in="SourceAlpha" type="matrix" values="0 0 0 0 0 0 0 0 0 0 0 0 0 0 0 0 0 0 127 0" result="hardAlpha"/>
<feOffset dy="5"/>
<feGaussianBlur stdDeviation="10"/>
<feColorMatrix type="matrix" values="0 0 0 0 0.533854 0 0 0 0 0.533854 0 0 0 0 0.533854 0 0 0 0.1 0"/>
<feBlend mode="normal" in2="BackgroundImageFix" result="effect1_dropShadow"/>
<feBlend mode="normal" in="SourceGraphic" in2="effect1_dropShadow" result="shape"/>
</filter>
</defs>
</svg>
