<svg xmlns="http://www.w3.org/2000/svg" width="77" height="59" viewBox="0 0 77 59">
    <g fill="none" fill-rule="evenodd" stroke-linejoin="round" stroke-width="2">
        <path stroke="#B8C1CB" d="M56 24L64 9M41 13L50 25M24 39L37 13M10 28L18 39M77 56.389L0 56.389" transform="translate(0 1)"/>
        <path stroke="#1ABC9C" d="M12.833 24.167c0 2.67-2.154 4.833-4.812 4.833-2.658 0-4.813-2.164-4.813-4.833 0-2.67 2.155-4.834 4.813-4.834s4.812 2.164 4.812 4.834zM25.667 43.5c0 2.67-2.155 4.833-4.813 4.833s-4.812-2.163-4.812-4.833c0-2.67 2.154-4.833 4.812-4.833 2.658 0 4.813 2.163 4.813 4.833zM43.313 9.667c0 2.67-2.155 4.833-4.813 4.833s-4.813-2.164-4.813-4.833c0-2.67 2.155-4.834 4.813-4.834s4.813 2.164 4.813 4.834zM57.75 29c0 2.67-2.154 4.833-4.813 4.833-2.658 0-4.812-2.163-4.812-4.833 0-2.67 2.154-4.833 4.813-4.833 2.658 0 4.812 2.163 4.812 4.833zM72.42 4.833c0 2.67-2.155 4.834-4.813 4.834s-4.813-2.164-4.813-4.834C62.794 2.163 64.95 0 67.607 0s4.812 2.164 4.812 4.833z" transform="translate(0 1)"/>
    </g>
</svg>
