<svg xmlns="http://www.w3.org/2000/svg" xmlns:xlink="http://www.w3.org/1999/xlink" width="54" height="54" viewBox="0 0 54 54">
    <defs>
        <path id="prefix__a" d="M0 0L54 0 54 53.998 0 53.998z"/>
    </defs>
    <g fill="none" fill-rule="evenodd">
        <mask id="prefix__b" fill="#fff">
            <use xlink:href="#prefix__a"/>
        </mask>
        <path fill="#B8C1CB" d="M21.407 52.362h11.188v-3.599H21.407v3.599zm-.818-10.473h11.188v-3.6H20.589v3.6zm0 5.237h11.188v-3.6H20.589v3.6zm12.824 0v-9.654c0-.453-.367-.818-.818-.818H19.77c-.453 0-.818.365-.818.817V47.944c0 .453.366.82.818.82v4.416c0 .452.365.818.818.818h12.824c.452 0 .817-.366.817-.818v-5.236c0-.452-.365-.818-.817-.818z" mask="url(#prefix__b)"/>
        <path fill="#B8C1CB" d="M52.363 31.417H41.176v-3.6h11.187v3.6zm-1.635 5.236H39.54v-3.6h11.187v3.6zM49.09 41.89H37.903v-3.6H49.09v3.6zm2.455 5.236H40.357v-3.6h11.189v3.6zm-1.637 5.236H38.72v-3.6H49.909v3.6zM12.824 33.053v3.6H1.636v-3.6h11.188zm1.638 8.837H3.274v-3.6h11.188v3.6zm-1.637 5.236H1.638v-3.6H12.826v3.6zm2.455 5.236H4.092v-3.6H15.28v3.6zm38.717-25.376C53.991 12.106 41.883 0 26.999 0 12.111 0 0 12.113 0 26.999c0 1.53.136 3.057.39 4.556-.229.145-.39.39-.39.68v5.236c0 .451.366.818.818.818h.82v3.601H.82c-.45 0-.818.366-.818.818v5.236c0 .453.367.819.818.819h1.637v4.417c0 .452.366.818.818.818h12.824c.452 0 .819-.366.819-.818v-5.236c0-.452-.367-.818-.819-.818h-1.636v-3.6h.818c.451 0 .818-.367.818-.818v-5.237c0-.452-.367-.818-.818-.818h-.82v-4.417c0-.453-.367-.82-.818-.82H2.025c-.206-1.184-.33-2.388-.369-3.598H4.94c.452 0 .818-.366.818-.82 0-.452-.366-.817-.818-.817H1.656c.13-4.02 1.192-7.805 2.986-11.146l2.844 1.643c.13.075.27.11.408.11.284 0 .558-.146.71-.408.225-.393.093-.892-.3-1.118l-2.84-1.64c2.06-3.303 4.855-6.098 8.157-8.157l1.64 2.84c.152.262.426.409.709.409.14 0 .279-.035.408-.11.392-.226.525-.727.3-1.117l-1.642-2.845c3.34-1.795 7.126-2.857 11.145-2.984v3.283c0 .45.366.818.818.818.451 0 .818-.367.818-.818V1.658c4.019.127 7.805 1.19 11.144 2.984L37.32 7.487c-.226.39-.092.89.3 1.118.129.074.27.109.408.109.282 0 .558-.147.71-.41l1.639-2.839c3.301 2.059 6.097 4.854 8.156 8.157l-2.84 1.64c-.391.226-.525.725-.299 1.118.15.262.426.408.71.408.138 0 .279-.035.407-.11l2.845-1.643c1.794 3.34 2.851 7.127 2.98 11.146H40.357c-.452 0-.817.365-.817.818v4.418h-.82c-.45 0-.817.366-.817.819v4.417h-.818c-.452 0-.818.366-.818.818v5.237c0 .451.366.818.818.818h1.636v3.6h-.818c-.451 0-.818.366-.818.818v5.236c0 .452.367.818.818.818h12.824c.452 0 .817-.366.817-.818v-4.417h.82c.45 0 .817-.366.817-.82v-5.235c0-.452-.366-.818-.818-.818h-1.636v-3.6h.819c.45 0 .817-.368.817-.819v-4.418h.818c.453 0 .82-.365.82-.817v-5.237c0-.005-.003-.008-.004-.013z" mask="url(#prefix__b)"/>
        <path fill="#1ABC9C" d="M28.84 26.999c0 1.015-.826 1.84-1.84 1.84-1.017 0-1.841-.825-1.841-1.84 0-1.014.824-1.84 1.84-1.84 1.015 0 1.84.826 1.84 1.84M27 13.669c-.452 0-.818.368-.818.819v9.142c-1.522.37-2.66 1.735-2.66 3.369 0 1.918 1.561 3.477 3.478 3.477 1.917 0 3.477-1.559 3.477-3.477 0-.192-.027-.378-.057-.563l11.628-4.94c.416-.176.61-.656.433-1.072-.176-.416-.655-.61-1.073-.433l-11.63 4.94c-.476-.64-1.162-1.108-1.96-1.301v-9.142c0-.451-.367-.82-.818-.82" mask="url(#prefix__b)"/>
    </g>
</svg>
