<svg xmlns="http://www.w3.org/2000/svg" width="72.464" height="72.464">
    <path d="M.529.548h72.465v72.464H.529z" transform="translate(-.529 -.548)" style="fill:#b8c1cb"/>
    <path d="M29.18 25.738a4.143 4.143 0 0 0-4.174 4.274V41.4a.8.8 0 0 1-.221.552.762.762 0 0 1-.532.231h-4.374a4.846 4.846 0 1 1 .02-9.692h3.712v-2.76h-3.762a7.62 7.62 0 1 0 0 15.24h7.2a.788.788 0 0 0 .732-.732v-14.2a1.729 1.729 0 0 1 1.224-1.625 1.823 1.823 0 0 1 2.067.983l4.475 7.705 4.354 7.445c.221.381.542.572.833.492a.553.553 0 0 0 .4-.572V30.042a1.732 1.732 0 0 1 1.214-1.625 1.758 1.758 0 0 1 2.077.983l4.164 7.134 4.681 8.016c.231.381.542.572.843.492a.545.545 0 0 0 .391-.572v-18.6h-2.759v11.105l-4.856-8.317c-2.95-4.966-8.518-2.92-8.518 1.375v6.923l-4.856-8.307a5.206 5.206 0 0 0-4.335-2.911zm-9.311.13a11.483 11.483 0 1 0 0 22.966h7.274a4.192 4.192 0 0 0 4.545-4.6V37.7l4.856 8.307c2.94 4.976 8.508 2.93 8.508-1.365v-6.924l4.856 8.307c2.95 4.966 8.518 2.93 8.518-1.365V25.869h-2.789v18.7a1.731 1.731 0 0 1-1.6 1.736 1.925 1.925 0 0 1-1.655-1.043L47.7 37.246l-4.194-7.2c-.231-.381-.542-.572-.823-.482a.564.564 0 0 0-.4.572V44.55a1.745 1.745 0 0 1-1.214 1.635A1.836 1.836 0 0 1 39 45.192l-4.354-7.445-4.515-7.705c-.221-.381-.532-.572-.833-.482a.553.553 0 0 0-.4.572v14.107a1.873 1.873 0 0 1-1.826 1.826h-7.223a8.729 8.729 0 1 1 0-17.458h3.742v-2.738z" transform="translate(2.858 -1.101)" style="fill:#fff"/>
</svg>
