<svg width="50" height="50" viewBox="0 0 50 50" fill="none" xmlns="http://www.w3.org/2000/svg">
<path d="M25.3571 17.9777C25.2388 17.9717 25.1198 17.9688 25 17.9688C24.59 17.9688 24.1882 18.0038 23.7974 18.0712L23.5975 14.7729C22.3866 14.4916 21.4844 13.4058 21.4844 12.1094C21.4844 10.5992 22.7086 9.375 24.2188 9.375C25.7289 9.375 26.9531 10.5992 26.9531 12.1094C26.9531 13.2899 26.2051 14.2956 25.1571 14.6785L25.3571 17.9777ZM27.9595 18.6201L36.0431 5.30594C35.4943 4.74284 35.1562 3.9734 35.1562 3.125C35.1562 1.39911 36.5554 0 38.2812 0C40.0071 0 41.4062 1.39911 41.4062 3.125C41.4062 4.85089 40.0071 6.25 38.2812 6.25C37.9673 6.25 37.6642 6.2037 37.3783 6.11757L29.2945 19.4321C28.8832 19.1145 28.4359 18.8414 27.9595 18.6201ZM30.8548 21.1051L35.2029 18.8651C35.1723 18.7012 35.1562 18.5322 35.1562 18.3594C35.1562 16.8492 36.3805 15.625 37.8906 15.625C39.4008 15.625 40.625 16.8492 40.625 18.3594C40.625 19.8695 39.4008 21.0938 37.8906 21.0938C37.1159 21.0938 36.4165 20.7716 35.9189 20.2539L31.5714 22.4936C31.3837 22.0019 31.1425 21.5367 30.8548 21.1051ZM31.9289 26.202L43.4107 29.5422C44.0111 28.4639 45.1626 27.7344 46.4844 27.7344C48.426 27.7344 50 29.3084 50 31.25C50 33.1916 48.426 34.7656 46.4844 34.7656C44.5427 34.7656 42.9688 33.1916 42.9688 31.25C42.9688 31.1804 42.9708 31.1113 42.9748 31.0427L31.4931 27.7025C31.6914 27.2266 31.839 26.7242 31.9289 26.202ZM30.6217 29.2239L43.9408 41.7746C44.344 41.5404 44.8126 41.4062 45.3125 41.4062C46.8227 41.4062 48.0469 42.6305 48.0469 44.1406C48.0469 45.6508 46.8227 46.875 45.3125 46.875C43.8023 46.875 42.5781 45.6508 42.5781 44.1406C42.5781 43.6987 42.683 43.2812 42.8692 42.9117L29.5499 30.3609C29.9477 30.0229 30.3074 29.6415 30.6217 29.2239ZM26.4108 31.8897L27.4208 42.9996C29.1413 43.2283 30.4688 44.7013 30.4688 46.4844C30.4688 48.426 28.8948 50 26.9531 50C25.0115 50 23.4375 48.426 23.4375 46.4844C23.4375 44.9227 24.4558 43.5988 25.8647 43.1405L24.8546 32.0298C24.9029 32.0308 24.9514 32.0312 25 32.0312C25.4832 32.0312 25.955 31.9825 26.4108 31.8897ZM21.5586 31.1329L16.2254 38.5613C16.5837 39.0237 16.7969 39.6041 16.7969 40.2344C16.7969 41.7445 15.5727 42.9688 14.0625 42.9688C12.5523 42.9688 11.3281 41.7445 11.3281 40.2344C11.3281 38.7242 12.5523 37.5 14.0625 37.5C14.3756 37.5 14.6764 37.5526 14.9566 37.6495L20.2901 30.2207C20.6764 30.5695 21.1017 30.876 21.5586 31.1329ZM18.4816 27.6412L5.4684 31.294C5.4449 32.7839 4.22984 33.9844 2.73438 33.9844C1.22422 33.9844 0 32.7602 0 31.25C0 29.7398 1.22422 28.5156 2.73438 28.5156C3.70748 28.5156 4.56186 29.0239 5.04647 29.7895L18.0601 26.1366C18.1452 26.6597 18.2879 27.1635 18.4816 27.6412ZM18.1577 23.3739L12.3498 21.289C11.7873 22.1143 10.8398 22.6562 9.76562 22.6562C8.03973 22.6562 6.64062 21.2571 6.64062 19.5312C6.64062 17.8054 8.03973 16.4062 9.76562 16.4062C11.4915 16.4062 12.8906 17.8054 12.8906 19.5312C12.8906 19.628 12.8862 19.7238 12.8776 19.8183L18.6857 21.9033C18.4578 22.367 18.2795 22.8595 18.1577 23.3739ZM20.2582 19.8083L10.7598 6.748C10.3348 6.9303 9.86671 7.03125 9.375 7.03125C7.43337 7.03125 5.85938 5.45725 5.85938 3.51562C5.85938 1.574 7.43337 0 9.375 0C11.3166 0 12.8906 1.574 12.8906 3.51562C12.8906 4.40111 12.5633 5.21014 12.0229 5.82828L21.5211 18.8883C21.0659 19.148 20.6425 19.4571 20.2582 19.8083ZM9.375 5.46875C10.4537 5.46875 11.3281 4.59431 11.3281 3.51562C11.3281 2.43694 10.4537 1.5625 9.375 1.5625C8.29632 1.5625 7.42188 2.43694 7.42188 3.51562C7.42188 4.59431 8.29632 5.46875 9.375 5.46875ZM26.9531 48.4375C28.0318 48.4375 28.9062 47.5631 28.9062 46.4844C28.9062 45.4057 28.0318 44.5312 26.9531 44.5312C25.8744 44.5312 25 45.4057 25 46.4844C25 47.5631 25.8744 48.4375 26.9531 48.4375ZM46.4844 33.2031C47.5631 33.2031 48.4375 32.3287 48.4375 31.25C48.4375 30.1713 47.5631 29.2969 46.4844 29.2969C45.4057 29.2969 44.5312 30.1713 44.5312 31.25C44.5312 32.3287 45.4057 33.2031 46.4844 33.2031ZM2.73438 32.4219C3.38158 32.4219 3.90625 31.8972 3.90625 31.25C3.90625 30.6028 3.38158 30.0781 2.73438 30.0781C2.08717 30.0781 1.5625 30.6028 1.5625 31.25C1.5625 31.8972 2.08717 32.4219 2.73438 32.4219ZM14.0625 41.4062C14.7097 41.4062 15.2344 40.8816 15.2344 40.2344C15.2344 39.5872 14.7097 39.0625 14.0625 39.0625C13.4153 39.0625 12.8906 39.5872 12.8906 40.2344C12.8906 40.8816 13.4153 41.4062 14.0625 41.4062ZM37.8906 19.5312C38.5378 19.5312 39.0625 19.0066 39.0625 18.3594C39.0625 17.7122 38.5378 17.1875 37.8906 17.1875C37.2434 17.1875 36.7188 17.7122 36.7188 18.3594C36.7188 19.0066 37.2434 19.5312 37.8906 19.5312ZM45.3125 45.3125C45.9597 45.3125 46.4844 44.7878 46.4844 44.1406C46.4844 43.4934 45.9597 42.9688 45.3125 42.9688C44.6653 42.9688 44.1406 43.4934 44.1406 44.1406C44.1406 44.7878 44.6653 45.3125 45.3125 45.3125ZM38.2812 4.6875C39.1442 4.6875 39.8438 3.98795 39.8438 3.125C39.8438 2.26205 39.1442 1.5625 38.2812 1.5625C37.4183 1.5625 36.7188 2.26205 36.7188 3.125C36.7188 3.98795 37.4183 4.6875 38.2812 4.6875ZM9.76562 21.0938C10.6286 21.0938 11.3281 20.3942 11.3281 19.5312C11.3281 18.6683 10.6286 17.9688 9.76562 17.9688C8.90268 17.9688 8.20312 18.6683 8.20312 19.5312C8.20312 20.3942 8.90268 21.0938 9.76562 21.0938ZM24.2188 13.2812C24.866 13.2812 25.3906 12.7566 25.3906 12.1094C25.3906 11.4622 24.866 10.9375 24.2188 10.9375C23.5715 10.9375 23.0469 11.4622 23.0469 12.1094C23.0469 12.7566 23.5715 13.2812 24.2188 13.2812Z" fill="#1ABC9C"/>
<path d="M25 28.9062C27.1574 28.9062 28.9062 27.1574 28.9062 25C28.9062 22.8426 27.1574 21.0938 25 21.0938C22.8426 21.0938 21.0938 22.8426 21.0938 25C21.0938 27.1574 22.8426 28.9062 25 28.9062ZM25 30.4688C21.9797 30.4688 19.5312 28.0203 19.5312 25C19.5312 21.9797 21.9797 19.5312 25 19.5312C28.0203 19.5312 30.4688 21.9797 30.4688 25C30.4688 28.0203 28.0203 30.4688 25 30.4688Z" fill="#D0DAE5"/>
</svg>
