<svg xmlns="http://www.w3.org/2000/svg" width="75.146" height="75.146">
    <defs>
        <style>
            .cls-2{fill:#1abc9c}
        </style>
    </defs>
    <g id="Group_146" data-name="Group 146" transform="translate(-3026.806 -1989.903)">
        <g id="Group_145" data-name="Group 145" transform="translate(3027.98 1994.578)">
            <path id="Path_332" data-name="Path 332" d="m3070.618 2168.435-7.85 9.719 4.226-15.7a1.174 1.174 0 0 0-2.268-.61l-4.537 16.852-6.687-24.837h4.715a1.174 1.174 0 0 0 0-2.348h-3.848l1.593-2.051a1.174 1.174 0 0 0-1.855-1.44l-2.138 2.752-5.818-7.48h5.49a1.174 1.174 0 1 0 0-2.348h-7.89a1.079 1.079 0 0 0-.12.028 1.1 1.1 0 0 0-.477.158 1.175 1.175 0 0 0-.124.062 1.106 1.106 0 0 0-.113.131c-.028.029-.067.043-.093.075l-8.219 10.567a1.1 1.1 0 0 0-.086.161 1.066 1.066 0 0 0-.078.146 1.153 1.153 0 0 0-.075.37c0 .016-.009.029-.009.044v.006a1.171 1.171 0 0 0 .085.419 202.607 202.607 0 0 1 .174.313l24.657 30.528c.018.022.045.031.064.051a1.17 1.17 0 0 0 .087.091c.018.016.03.036.048.051a1.125 1.125 0 0 0 .148.082 1.163 1.163 0 0 0 .112.059 1.15 1.15 0 0 0 .121.048c.011 0 .018.011.029.014a1.169 1.169 0 0 0 .295.039h.021a1.168 1.168 0 0 0 .295-.039c.011 0 .018-.011.029-.014a1.172 1.172 0 0 0 .121-.048 1.159 1.159 0 0 0 .112-.059 1.143 1.143 0 0 0 .149-.082c.019-.014.03-.035.048-.05a1.18 1.18 0 0 0 .087-.091c.019-.02.047-.029.064-.051l11.343-14.043a1.174 1.174 0 0 0-1.828-1.476zm-26.867-24.4 5.819 7.481h-11.637zm7.319 9.829 6.54 24.293-19.62-24.293z" transform="translate(-3034.358 -2122.138)" style="fill:#d0dae5"/>
            <path id="Path_333" data-name="Path 333" class="cls-2" d="M3345.31 2024.707h1.152v1.134a1.174 1.174 0 0 0 1.169 1.179 1.173 1.173 0 0 0 1.174-1.169v-1.152h1.2a1.174 1.174 0 0 0 1.169-1.179 1.143 1.143 0 0 0-1.179-1.169h-1.178v-1.2a1.174 1.174 0 0 0-1.169-1.179 1.174 1.174 0 0 0-1.174 1.17v1.214h-1.171a1.174 1.174 0 0 0 0 2.348z" transform="translate(-3295.974 -2019.971)"/>
            <path id="Path_334" data-name="Path 334" class="cls-2" d="M3221.958 2092.276v-.006c0-.006-.008-.029-.009-.044a1.152 1.152 0 0 0-.074-.37 1.085 1.085 0 0 0-.078-.146 1.155 1.155 0 0 0-.086-.161l-8.219-10.567c-.025-.032-.064-.046-.093-.075a1.118 1.118 0 0 0-.112-.131 1.1 1.1 0 0 0-.125-.062 1.142 1.142 0 0 0-.178-.088 1.121 1.121 0 0 0-.3-.069 1.136 1.136 0 0 0-.119-.028h-32.876a1.117 1.117 0 0 0-.12.028 1.141 1.141 0 0 0-.3.069 1.153 1.153 0 0 0-.179.089.394.394 0 0 0-.237.193c-.028.029-.067.043-.093.075l-8.219 10.567a1.1 1.1 0 0 0-.086.161 1.2 1.2 0 0 0-.078.145 1.168 1.168 0 0 0-.074.37c0 .016-.009.029-.009.044v.006a1.164 1.164 0 0 0 .084.419 1.081 1.081 0 0 0 .073.131 1.135 1.135 0 0 0 .1.183l24.658 30.528c.017.021.045.031.064.051s.055.063.086.091.03.036.048.051a1.219 1.219 0 0 0 .148.082 1.167 1.167 0 0 0 .112.059 1.22 1.22 0 0 0 .121.049c.011 0 .018.011.029.014a1.173 1.173 0 0 0 .294.039h.018a1.179 1.179 0 0 0 .294-.039c.011 0 .018-.011.029-.014a1.182 1.182 0 0 0 .121-.049 8.718 8.718 0 0 0 .26-.141c.019-.014.03-.035.048-.05a1.223 1.223 0 0 0 .087-.091c.019-.021.046-.029.064-.051l24.657-30.528a1.13 1.13 0 0 0 .1-.182.933.933 0 0 0 .157-.55zm-42.268-8.661 5.819 7.481h-11.637zm23.125 9.829-6.687 24.837-6.687-24.837zm-12.506-2.348 5.819-7.481 5.819 7.481zm8.219-8.219h11.638l-5.819 7.481zm-10.619 7.481-5.819-7.481h11.638zm-.9 3.086 6.541 24.292-19.621-24.292zm18.238 0h13.08l-19.621 24.292zm1.5-2.348 5.818-7.481 5.818 7.481z" transform="translate(-3149.161 -2071.114)"/>
            <path id="Path_335" data-name="Path 335" class="cls-2" d="M3085.542 2362.324h-1.178v-1.2a1.174 1.174 0 0 0-1.169-1.179 1.188 1.188 0 0 0-1.179 1.169v1.214h-1.171a1.174 1.174 0 0 0 0 2.348h1.152v1.134a1.174 1.174 0 0 0 1.169 1.179 1.174 1.174 0 0 0 1.174-1.169v-1.153h1.2a1.174 1.174 0 0 0 0-2.348z" transform="translate(-3072.626 -2307.095)"/>
            <path id="Path_336" data-name="Path 336" class="cls-2" d="M3103.5 2068.965a1.172 1.172 0 0 0 1.165 1.156 1.174 1.174 0 0 0 1.173-1.163h.016a1.174 1.174 0 0 0 0-2.348v-.006a1.174 1.174 0 0 0-1.169-1.179 1.174 1.174 0 0 0-1.174 1.17v.024a1.174 1.174 0 0 0 0 2.347z" transform="translate(-3091.76 -2058.357)"/>
        </g>
        <path id="Rectangle_65" data-name="Rectangle 65" transform="translate(3026.806 1989.903)" style="fill:none" d="M0 0h75.146v75.146H0z"/>
    </g>
</svg>
