<svg id="f1318abb-14e1-43a8-a807-a4b9495e7c82" data-name="Layer 1" xmlns="http://www.w3.org/2000/svg" xmlns:xlink="http://www.w3.org/1999/xlink" width="28.49mm" height="28.49mm" viewBox="0 0 80.759 80.759"><defs><clipPath id="a20edfd0-b920-4236-b433-f2aff4f869c3"><rect width="80.759" height="80.759" fill="none"/></clipPath></defs><title>Artboard 1</title><g clip-path="url(#a20edfd0-b920-4236-b433-f2aff4f869c3)"><path d="M40.38,80.759a40.38,40.38,0,1,1,40.38-40.38,40.38,40.38,0,0,1-40.38,40.38m0-77.229A36.849,36.849,0,1,0,77.229,40.38,36.849,36.849,0,0,0,40.38,3.53" fill="#2ab99d"/><path d="M16.5,48.3a1.765,1.765,0,0,1-1.152-.427c-5.127-4.412-5.946-5.433-6.181-5.9a14.043,14.043,0,0,0-2.3-1.682c-1.119-.556-5.27-5.629-5.729-8.378l3.482-.58c.248,1.49,3.177,5.182,4,5.906.658.384,2.949,1.786,3.642,3.036.363.44,1.829,1.8,3.456,3.237a8.3,8.3,0,0,0,.328-1.4c-.724-.977-2.127-2.734-2.428-3.032-.621-.578-2.172-2.844-2.045-4.471A2.27,2.27,0,0,1,12.7,32.771c1.086-.62,2.828-.462,4.992-.192.211.026.4.051.545.068a5.721,5.721,0,0,0,2.122-2.232c.7-2.288,3.5-5.092,6.375-6.384,2.254-1.014,3.017-1.251,4.06-1.3.765-1.027,1.749-3.919,1.415-4.7a11.606,11.606,0,0,0-2.731-1.783c-1.825-1-3.548-1.94-4.121-3.443-.185-.486-.749-1.966.024-8.91l3.508.391c-.533,4.789-.386,6.844-.233,7.262a12.22,12.22,0,0,0,2.515,1.6,11.694,11.694,0,0,1,3.937,2.871c1.779,2.491-.486,7.065-.751,7.577-.929,1.807-1.88,2.648-2.993,2.648-.8,0-.962,0-3.18,1a9.316,9.316,0,0,0-4.45,4.2c-.641,2.083-3.605,4.743-5.286,4.743a10.585,10.585,0,0,1-1.193-.115c-.354-.044-1.016-.127-1.636-.177a4.942,4.942,0,0,0,.4.584,48.568,48.568,0,0,1,3.1,3.837c.333.466,1.217,1.7-1,6.9A1.764,1.764,0,0,1,16.5,48.289M8.448,37.135l.137.078a1.238,1.238,0,0,0-.137-.078m7.457-.751a1.028,1.028,0,0,1,.109.1,1.143,1.143,0,0,0-.109-.1" fill="#2ab99d"/><path d="M42.284,21.01A3.694,3.694,0,0,1,40.7,20.6c-1.15-.547-3.1-2.011-3.1-4.026,0-1.184,0-3.559-.1-4.609A3.687,3.687,0,0,1,36.363,8.69a2.759,2.759,0,0,1,1-1.931c1.762-1.475,5.7-1.228,7.313-1.053.815.05,4.027.3,5.2,1.063a7.233,7.233,0,0,1,1.909,2.313c.244.387.5.792.764,1.157a3.03,3.03,0,0,1,.439,2.679,5.582,5.582,0,0,1-2.856,3.268,12.7,12.7,0,0,1-1.987.5,14.418,14.418,0,0,0-2.821.763,4.057,4.057,0,0,0-.577,1.218,3.935,3.935,0,0,1-1.084,1.868,2.131,2.131,0,0,1-1.38.476M41.13,16.5a1.8,1.8,0,0,0,.469.517,4.771,4.771,0,0,1,2.048-2.668,15.047,15.047,0,0,1,3.789-1.116,14.081,14.081,0,0,0,1.373-.319,2.55,2.55,0,0,0,.733-.817c-.267-.379-.507-.764-.743-1.139a10.629,10.629,0,0,0-.83-1.211,18.363,18.363,0,0,0-3.481-.522l-.19-.01a13.855,13.855,0,0,0-4.414.142v.009l.077.071a2.928,2.928,0,0,1,1.012,1.836,52.1,52.1,0,0,1,.154,5.227" fill="#2ab99d"/><path d="M30.045,75.178a1.8,1.8,0,0,1-.5-.071c-4.609-1.356-5.2-2.68-5.392-3.114a9.509,9.509,0,0,0-.78-.788c-.968-.918-2.173-2.061-2.293-3.621A33.954,33.954,0,0,0,19.81,62.7a1.868,1.868,0,0,1-.054-.208,8.849,8.849,0,0,0-.714-2.232c-.988-.515-3.385-1.915-3.955-3.623-.5-1.514-.153-6.784,2.608-7.834a5.526,5.526,0,0,0,.735-.4,5.659,5.659,0,0,1,6.852.023c1.406.936,1.788.725,2.318.434a3.558,3.558,0,0,1,1.323-.492,2.683,2.683,0,0,1,2.945,2.079c.079.2.171.442.3.711a3.871,3.871,0,0,1,.3.908h.16c2.416,0,5.941.38,7.928,1.449,2.248,1.211,1.953,5,1.577,7.149a1.793,1.793,0,0,1-.148.462c-.184.379-1.874,3.74-4.859,4.735-1.72.574-2.179,1.059-2.179,1.256a4.437,4.437,0,0,1-1.9,3.166l-.258.23a14.586,14.586,0,0,1-1.121,3.578,1.765,1.765,0,0,1-1.63,1.09M27.28,70.367a8.383,8.383,0,0,0,1.706.823,7.944,7.944,0,0,0,.292-1.026,3.129,3.129,0,0,1,1.44-2.527,6.384,6.384,0,0,0,.71-.7c.122-2.943,3.357-4.022,4.589-4.433A6.2,6.2,0,0,0,38.7,59.8a9.184,9.184,0,0,0,0-3.265,17.505,17.505,0,0,0-6.072-.937c-1.121,0-3.455,0-3.6-2.594a.843.843,0,0,0-.048-.323c-.074-.153-.143-.307-.207-.464-1.307.589-2.987.788-5.452-.854-1.415-.943-1.965-.608-3.062.058a8.82,8.82,0,0,1-1.181.634,6.923,6.923,0,0,0-.646,3.448,8.247,8.247,0,0,0,2.38,1.7c1.359.679,2.046,2.8,2.385,4.513a35.043,35.043,0,0,1,1.4,5.6,6.6,6.6,0,0,0,1.2,1.331,7.175,7.175,0,0,1,1.484,1.723" fill="#2ab99d"/><path d="M68,67.942a4.4,4.4,0,0,1-2.166-2.733,2.582,2.582,0,0,1,.648-2.145,3.728,3.728,0,0,0,.466-1.642,6.311,6.311,0,0,1,.226-1.131,7.793,7.793,0,0,1,.99-1.736,10.063,10.063,0,0,0,.847-1.4c.13-.521.63-2.243,1.047-3.664a3.49,3.49,0,0,1-1.255.215,4.858,4.858,0,0,0-.917.439c-1.1.6-2.945,1.618-5.055.445-2.761-1.534-4.771-2.842-5.608-4.236-.229-.382-.928-1.545-.928-8.336,0-1.538,3.156-5.665,4.18-6.6A15.1,15.1,0,0,1,67.4,32.484a6.313,6.313,0,0,0,.744-.159c1.054-.261,3.248-.8,4.287,1.066a5.2,5.2,0,0,0,.642.973c.106-.036.237-.086.344-.128a6.238,6.238,0,0,1,2.311-.515c1.926,0,4.312,1.015,4.938,2.9L77.32,37.735a.357.357,0,0,0,.043.093,2.649,2.649,0,0,0-1.633-.575,3.142,3.142,0,0,0-1.049.282,4.185,4.185,0,0,1-2.126.376,4.271,4.271,0,0,1-2.922-2.3c-.21.041-.46.1-.638.147a6.714,6.714,0,0,1-1.593.262,13.126,13.126,0,0,0-4.553,2.015,21.528,21.528,0,0,0-3.023,4.247,28.652,28.652,0,0,0,.459,6.324c.2.33,1.141,1.167,4.259,2.9.337.186.613.111,1.641-.454a5.8,5.8,0,0,1,2.363-.865,2.448,2.448,0,0,1,1.49-1.408c1.745-.56,3.135,1.152,3.81,2.222l.425.676-.227.767c-.389,1.312-1.439,4.874-1.615,5.582a8.866,8.866,0,0,1-1.338,2.5,10.925,10.925,0,0,0-.587.928c-.017.077-.034.257-.063.459a7.373,7.373,0,0,1-.852,2.853,2.06,2.06,0,0,0,.2.135Z" fill="#2ab99d"/></g></svg>