<svg xmlns="http://www.w3.org/2000/svg" width="206.718" height="18.851">
    <defs>
        <style>
            .cls-1{fill:#b8c1cb}
        </style>
    </defs>
    <g id="El_Economista__Mexico__logo" data-name="El_Economista_(Mexico)_logo" transform="translate(-.962 -1.4)">
        <path id="Path_590" data-name="Path 590" class="cls-1" d="m556.517 7.564 2.247 6.879H554.2l2.212-6.879zm-3.871 11.994 1.486-4.666h4.839l1.867 5.565-1.694.173v.277h7.466v-.277l-1.037-.173L558.937 3.9l-2.247 1.555-4.6 14.1-2.59 1.075v.242h5.7V20.6z" transform="translate(-358.93 -1.636)"/>
        <path id="Path_591" data-name="Path 591" class="cls-1" d="M115.623 20.523v-16l1.452-.138V4H110.3v.38l1.452.138V20.35l-1.452.173v.415h12.789l.242-4.217h-.242l-2.765 3.629z" transform="translate(-71.544 -1.701)"/>
        <path id="Path_592" data-name="Path 592" class="cls-1" d="m172.323 4.38 4.424.138 2.662 3.629h.242L179.547 4H167v.38l1.452.138V20.35l-1.452.173v.415h12.789l.242-4.217h-.242l-2.8 3.629-4.666.173v-7.847l3.353.138 1.314 2.662h.242V9.323h-.242l-1.314 2.8-3.353.1z" transform="translate(-108.645 -1.701)"/>
        <path id="Path_593" data-name="Path 593" class="cls-1" d="M457.7 20.488v.449h6.706v-.449l-1.452-.173V4.553l1.452-.173V4H457.7v.38l1.417.173v15.762z" transform="translate(-298.862 -1.701)"/>
        <path id="Path_594" data-name="Path 594" class="cls-1" d="m74.123 4.38 4.459.138 2.627 3.629h.242L81.347 4H68.8v.38l1.452.138V20.35l-1.452.173v.415h12.789l.242-4.217h-.242l-2.765 3.629-4.7.173v-7.847l3.353.138 1.348 2.662h.207V9.323h-.207l-1.348 2.8-3.353.1z" transform="translate(-44.389 -1.701)"/>
        <path id="Path_595" data-name="Path 595" class="cls-1" d="M253.844 12.338c0-5.427 1.417-8.123 4.494-8.123s4.494 2.7 4.494 8.123-1.417 8.123-4.494 8.123-4.494-2.7-4.494-8.123m-4.044 0a8.5 8.5 0 1 0 8.5-8.538 8.547 8.547 0 0 0-8.5 8.538" transform="translate(-162.825 -1.57)"/>
        <path id="Path_596" data-name="Path 596" class="cls-1" d="m220.223 19.355.242-4.01h-.242l-1.659 2.765c-.484.864-1.763 2.316-3.318 2.316-3.318 0-4.736-2.7-4.736-8.123s1.659-8.123 4.736-8.123c1.521 0 2.731 1.452 3.18 2.316l1.659 2.765h.242l-.1-4.01A11.151 11.151 0 0 0 214.8 3.8c-4.977 0-8.3 3.595-8.3 8.538s3.318 8.538 8.3 8.538a11.864 11.864 0 0 0 5.427-1.521" transform="translate(-134.492 -1.57)"/>
        <path id="Path_597" data-name="Path 597" class="cls-1" d="m312.335 14.3-7.121-10.4H299.2v.346l2.558.138V19.42l-2.558 1.072v.308h5.772v-.311l-2.7-1.072-.069-12.859h.138l10.024 14.31h.588V5.248l2.523-1.072v-.241h-5.738v.242l2.662 1.071.069 9.056z" transform="translate(-195.149 -1.636)"/>
        <path id="Path_598" data-name="Path 598" class="cls-1" d="M351.01 12.338c0-5.427 1.417-8.123 4.494-8.123S360 6.911 360 12.338s-1.417 8.123-4.494 8.123-4.494-2.7-4.494-8.123m-4.01 0A8.5 8.5 0 1 0 355.5 3.8a8.547 8.547 0 0 0-8.5 8.538" transform="translate(-226.426 -1.57)"/>
        <path id="Path_599" data-name="Path 599" class="cls-1" d="M407.988 14.646 403.426 4H397.1v.38l2.523.173v15l-2.523 1.039v.277h5.738v-.277l-2.662-1.037-.138-12.855h.173l5.98 14.172h.518l4.563-15.174h.173v14.617l-1.417.207v.415h6.706v-.415l-1.452-.207V4.484l1.452-.173V4h-5.358l-3.249 10.646z" transform="translate(-259.209 -1.701)"/>
        <path id="Path_600" data-name="Path 600" class="cls-1" d="M481.995 19.455a8.508 8.508 0 0 0 4.563 1.452c3.18 0 5.98-1.659 5.98-5.219 0-3.076-2.731-4.6-5.081-5.531-1.694-.691-3.318-1.521-3.318-3.318 0-2.247 2.143-2.592 2.9-2.592 1.59 0 2.662.933 3.733 3.18.242.518.484 1 .726 1.521h.242L491.639 4h-.239l-.242 1.037a8.447 8.447 0 0 0-4.116-1.137c-3.249 0-5.842 1.728-5.842 4.736 0 2.869 2.42 4.182 4.8 5.185 1.763.76 3.595 1.763 3.595 3.768a2.726 2.726 0 0 1-3.007 2.938c-1.97 0-3.284-1.21-4.217-3.422l-.726-1.659h-.242l.1 5.289h.242z" transform="translate(-314.239 -1.636)"/>
        <path id="Path_601" data-name="Path 601" class="cls-1" d="M516.5 8.179h.242l2.627-3.526 1.936-.1v15.9l-1.452.173v.346h6.706v-.346l-1.417-.173V4.549l1.9.1 2.627 3.526h.242l-.1-4.079h-13.17z" transform="translate(-337.337 -1.767)"/>
        <path id="Path_602" data-name="Path 602" class="cls-1" d="M20.436 9.108a.069.069 0 0 0-.138 0 9.647 9.647 0 0 1-7.017 6.844C8.061 17.231 2.773 12.91 1.77 8.97a3.572 3.572 0 0 1-.07-1.452c0 .069.035.173.035.277a5.917 5.917 0 0 0 1.486 2.973 9.979 9.979 0 0 0 11.718 1.8c3.768-2.074 4.632-6.187 1.9-9.264a8.37 8.37 0 0 0-2.489-1.9h-.035a.074.074 0 0 0-.069.069c0 .035 0 .035.035.035a5.967 5.967 0 0 1-1.175 8.814A7.8 7.8 0 0 1 3.014 9.143 5.58 5.58 0 0 1 1.943 7.38a1.009 1.009 0 0 1-.069-.311v-.035a7.744 7.744 0 0 0 4.563 1.694c7.328.035 6.6-6.879 1.763-6.913a6.693 6.693 0 0 0-4.425 1.866 9.128 9.128 0 0 0-2.109 3.111 11.481 11.481 0 0 0-.484 1.625c-.035.173-.069.415-.1.622-.035.311-.069.588-.1.9a9.785 9.785 0 0 0 17.8 6.118l-.035-.035a9.925 9.925 0 0 1-8.987 3.146A10.12 10.12 0 0 1 1.252 9.8a4.886 4.886 0 0 1 .138-1.176v-.069a5.2 5.2 0 0 0 .1 1 9.938 9.938 0 0 0 11.065 8.195 9.277 9.277 0 0 0 7.881-8.642"/>
    </g>
</svg>
