<svg xmlns="http://www.w3.org/2000/svg" width="215.922" height="43.391">
    <defs>
        <style>
            .cls-1,.cls-4{fill:#b8c1cb}.cls-1,.cls-3{fill-rule:evenodd}.cls-2,.cls-3{fill:#fff}
        </style>
    </defs>
    <g id="Group_550" data-name="Group 550" transform="translate(-72.982 -259.869)">
        <path id="Path_549" data-name="Path 549" class="cls-1" d="M87.032 282.007a32.763 32.763 0 0 1-4.473.221h-4.72a17.635 17.635 0 0 1-3.987-.689c-.044 0-.87-.314-.87.42a6.207 6.207 0 0 0 6 4.993 7.467 7.467 0 0 0 6.265 3.077 4.062 4.062 0 0 0 3.7 1.831 2.978 2.978 0 0 0 3.153 1.631 1.175 1.175 0 0 0 1.132.733 5.175 5.175 0 0 1 .623.7 16.2 16.2 0 0 0-9.153 3.113c-.075.149.3 1.382 2.155 1.382 0 0 .684-.075.758.4a3.481 3.481 0 0 0 .174.758c.5 1.222 2.529 1.2 2.554 1.2a3.045 3.045 0 0 0 2.439 1.357h2.679a2.472 2.472 0 0 0 2.414-2.155c.415-1.621.734-2.44 1.756-2.44.274 0 .424.359.6.434s.375.3.225.5-.2.2-.2.5v1.108s-.2 1.382 1.582 1.382h2.18s.035.149.409.225a3.092 3.092 0 0 0 .873 0s-.01.573.349.573h.409s.224.075.5-.3.648-.708.674-1.157c.025 0 .3.185.3-.574 0-.025.684.09.684-.908 0-.324-.135-.748-.958-.748 0-.075-.214-.439.733-.674s2.713-.409 3.337-.634a9.7 9.7 0 0 1 4.16-.973h5.268s1.93.075 1.93-1.332a1.364 1.364 0 0 0-.673-1.432 4.651 4.651 0 0 1-1.332-1.207 3.607 3.607 0 0 0-1.257-1.072c-.225-.124-1.407-.559-1.682-.758a.733.733 0 0 0-.673 0 1.354 1.354 0 0 1 .983-.673c.6-.15 2.155-.574 2.654-1.507a6.318 6.318 0 0 0 4.919-1.781c.206.046 1.606.374 2.988-1.706a4.485 4.485 0 0 0 4.11-3.387c0-.4.06-1.133-.774-1.133s-7.173-.149-7.173-.149h-4.695a6.438 6.438 0 0 0-2.489.4 16.084 16.084 0 0 0 .9-5.391 16.29 16.29 0 0 0-32.579 0 16.6 16.6 0 0 0 1.122 5.848z"/>
        <path id="Path_550" data-name="Path 550" class="cls-2" d="M111.265 301.719a17.474 17.474 0 0 1-.076-8.657 47.99 47.99 0 0 0 .076 8.657z" transform="translate(-23.438 -20.636)"/>
        <path id="Path_551" data-name="Path 551" class="cls-2" d="m124.249 277.7-2.159 1.893.986 1.013 1.173-2.905z" transform="translate(-30.531 -11.086)"/>
        <path id="Path_552" data-name="Path 552" class="cls-2" d="M136.89 267.16c-.651-1.165 1-1.854 2.652-2.205s3.136.068 3.32.935-1 1.854-2.653 2.205-2.887-.162-3.32-.936z" transform="translate(-39.642 -3.085)"/>
        <path id="Path_553" data-name="Path 553" class="cls-2" d="m120.821 273.338.016-1.574a18.03 18.03 0 0 1 3.915-3.222c.383-.13.727-.244.868-.283.386-.107.426.24.386.267a1.534 1.534 0 0 1-.642.787c-1.789.75-4.543 4.024-4.543 4.024z" transform="translate(-29.742 -5.204)"/>
        <path id="Path_554" data-name="Path 554" class="cls-2" d="M115.335 279.938a18.017 18.017 0 0 0-2.578 4.409 6.444 6.444 0 0 1-.331-.988 14.049 14.049 0 0 1 2.941-5.06l-.032 1.64z" transform="translate(-24.523 -11.458)"/>
        <path id="Path_555" data-name="Path 555" class="cls-2" d="M115.192 289.763a6.231 6.231 0 0 1-1.23-1.578 15.766 15.766 0 0 1 2.515-4.544l1.112 1.139a14.062 14.062 0 0 0-2.4 4.983z" transform="translate(-25.478 -14.779)"/>
        <path id="Path_556" data-name="Path 556" class="cls-2" d="M122.526 295.437c-.494-.141-3.178-1.682-3.178-1.682a10.754 10.754 0 0 1 2.152-4.355l1.586 2a17.16 17.16 0 0 0-.565 4.039z" transform="translate(-28.826 -18.359)"/>
        <path id="Path_557" data-name="Path 557" class="cls-2" d="M132.274 300.237a20.724 20.724 0 0 1-2.615-.431 8.548 8.548 0 0 1 .815-3.427c.082-.169.2-.265.341-.253.21.016.216.367.216.544s0 .334-.1.334c-.189 0-.164.388-.164.388s-.008.213-.008.64c0 .6 1.01 1.7 1.515 2.205z" transform="translate(-35.237 -22.54)"/>
        <path id="Path_558" data-name="Path 558" class="cls-2" d="M152.722 303.643a20.85 20.85 0 0 1-4.234.662 1.992 1.992 0 0 1 .3-.852c.444-.676.488-.513.676-.465a3.187 3.187 0 0 0 .679.114.778.778 0 0 0 .655-.348.735.735 0 0 1 1.238.093c.224.284.474.552.685.8z" transform="translate(-46.943 -26.48)"/>
        <path id="Path_559" data-name="Path 559" class="cls-2" d="m153.2 307.3-.012.915a1.167 1.167 0 0 0-1.308.094c.07.07 1.776.886 1.776 1.284v1.428a2.465 2.465 0 0 1-1.215.231c-.164 0-.608.1-.608-.793s-.258-.89-.258-.89-.606-.021-.606-.489v-.8h-.586a1.172 1.172 0 0 1-1.168.866.792.792 0 0 1-.749-.819c0-.065 0-.144-.009-.232l4.74-.8z" transform="translate(-46.922 -29.486)"/>
        <path id="Path_560" data-name="Path 560" class="cls-2" d="M155.413 279.807a21.566 21.566 0 0 0 4.87-2.617 33.99 33.99 0 0 1 1.635 4.153 29.813 29.813 0 0 0-1.335-4.387 7.284 7.284 0 0 0 1.757-1.968 12.18 12.18 0 0 1-1.87 1.686 20.85 20.85 0 0 0-2.551-4.6c.485.1 1.324.105 1.324-.614v-1.1c-.872-.473-.607-.53-1.1-.654-.093-.023-.214-.049-.375-.081s-.344-.065-.581-.109a1.153 1.153 0 0 1-.242-.066.153.153 0 0 1-.067-.226 3.716 3.716 0 0 0 .457-.532c.071-.1.1-.188.048-.262a6.1 6.1 0 0 0-2.349-.363c-.143.024-.28.255-.237.579l-.058-.045-.188-.145-.579-.451-.849-.661a.316.316 0 0 1 .054-.131 1.219 1.219 0 0 1 .418-.225c.079-.022.155-.039.215-.056.238-.065.324-.132.324-.2.01-.026 0-.052-.034-.081-.11-.143-.459-.3-.551-.485q7.861 2.746 10.385 8.8-1.523-5.023-7.844-8.35l.1-.878q3.954 1 7.234 5.419-3.647-5.808-9.623-6.435a10.4 10.4 0 0 0-1.9-.9c-.175-.126-.654-.254-.391-.283a6.065 6.065 0 0 1 2.228.25c.966.228 1.981.492 2.83.7a15.423 15.423 0 0 1 5.789 23.858s-.268-.863.532-3.422c.133-.4.24-.693-.054-.826s-.494.023-.773.266a3.287 3.287 0 0 1-1.706.987 2.423 2.423 0 0 1-1.2-.24 12.014 12.014 0 0 0 4.532-3.306c.054-.053-4 2.959-4.771 2.959a1.191 1.191 0 0 1-.835-.178c-.258-.158-.214-.143-.415-.143h-1.3s-.347.054-.45-.56a2.767 2.767 0 0 1-.052-.707v-1.308a1.918 1.918 0 0 0 1.026.39c.293 0 .373-.373.134-.64a3.519 3.519 0 0 0-.667-.56 2.318 2.318 0 0 0-.933-.08v-1.175z" transform="translate(-48.767 -2.265)"/>
        <path id="Path_561" data-name="Path 561" class="cls-2" d="M166.08 294.546a17.634 17.634 0 0 1-5.022 2.36 1.207 1.207 0 0 1-.024-.851 1.226 1.226 0 0 1 .262-.362.722.722 0 0 1 .068-.048c.655-.421 1.422-.819 1.422-.819.6.234.473-1.165.473-1.337a4.142 4.142 0 0 0-.253-.741c-.228-.495-.14-.713.039-.779a.541.541 0 0 1 .068 0 1.187 1.187 0 0 1 .331.038.586.586 0 0 1 .221.148l.039.05c.282.366.726-.108.88-.314a25.784 25.784 0 0 1 1.495 2.66z" transform="translate(-54.701 -19.905)"/>
        <path id="Path_562" data-name="Path 562" class="cls-2" d="M150.621 274.789c.138.3.29.2.239.52s-.088.48-.177.492-.7.341-.2.707 1.315.873 1.315.873.364.141.416-.417a.491.491 0 0 1 .633-.469c.089.025 1.287-.01.619-.644a24.852 24.852 0 0 0-1.958-1.618c-.522-.261-1.037.1-.883.555z" transform="translate(-48.062 -8.876)"/>
        <path id="Path_563" data-name="Path 563" class="cls-3" d="M127.6 362.247a10.446 10.446 0 0 1-4.521 2.708q4.255.21 4.521-2.708z" transform="translate(-31.145 -63.649)"/>
        <path id="Path_564" data-name="Path 564" class="cls-3" d="M127.587 367.042a4.243 4.243 0 0 0 3.518-2.09q-.549 3.032-3.518 2.09z" transform="translate(-33.948 -65.331)"/>
        <path id="Path_565" data-name="Path 565" class="cls-3" d="M147.5 363.879a1.811 1.811 0 0 0 1.13 2.389q-2.7.31-1.13-2.389z" transform="translate(-45.969 -64.664)"/>
        <path id="Path_566" data-name="Path 566" class="cls-3" d="M154.871 362.586s1.621-1.13 1.77-1.258a.554.554 0 0 0 .021-.895c-.427-.405-.833-.726-.833-.726s.384.726.128 1.173c-.114.2-1.087 1.706-1.087 1.706z" transform="translate(-50.911 -62.07)"/>
        <path id="Path_567" data-name="Path 567" class="cls-4" d="M255.207 332.646v-.446a2.921 2.921 0 0 0 1.176-.208 1.058 1.058 0 0 0 .536-1.037v-8.567a1.047 1.047 0 0 0-.555-1.046 3.168 3.168 0 0 0-1.156-.208v-.449h11.1v3.571h-.47a3.71 3.71 0 0 0-1.251-2.343 5.794 5.794 0 0 0-3.2-.631 2.307 2.307 0 0 0-1.128.173.768.768 0 0 0-.236.666v4.1a6.84 6.84 0 0 0 3.171-.545 4.1 4.1 0 0 0 .894-2.074h.489v5.982h-.489a3.589 3.589 0 0 0-.846-2.127c-.421-.415-2.121-.622-3.218-.622v4.287a.858.858 0 0 0 .31.77 2.783 2.783 0 0 0 1.3.2 6.1 6.1 0 0 0 3.009-.657 5.557 5.557 0 0 0 2.069-2.465h.536l-.781 3.683z" transform="translate(-113.291 -43.656)"/>
        <path id="Path_568" data-name="Path 568" class="cls-4" d="M303.015 332.2a2.57 2.57 0 0 0 1.038-.191 1.079 1.079 0 0 0 .528-1.055v-8.567a1.075 1.075 0 0 0-.5-1.046 2.711 2.711 0 0 0-1.064-.208v-.449h6.19v.449a2.81 2.81 0 0 0-1.444.3q-.354.267-.354 1.323v8.359a.853.853 0 0 0 .3.779 2.556 2.556 0 0 0 1.2.191 4.828 4.828 0 0 0 2.68-.7 5.559 5.559 0 0 0 1.876-2.749h.518l-.718 4.011h-10.25v-.447z" transform="translate(-146.562 -43.656)"/>
        <path id="Path_569" data-name="Path 569" class="cls-4" d="M365.159 320.681v.449a3 3 0 0 0-1.54.32q-.389.285-.388 1.306v5.922a4.859 4.859 0 0 0 .359 2.084 2.49 2.49 0 0 0 2.491 1.365 3.173 3.173 0 0 0 3.091-1.512 5 5 0 0 0 .446-2.325v-5.412a1.7 1.7 0 0 0-.4-1.305 2.585 2.585 0 0 0-1.531-.441v-.449h4.361v.449a3.123 3.123 0 0 0-1.26.407q-.3.234-.3 1.089v5.663a4.722 4.722 0 0 1-1.221 3.483A5.225 5.225 0 0 1 365.43 333q-3.421 0-4.681-1.823a4.307 4.307 0 0 1-.669-2.5v-5.922q0-1-.3-1.262a2.62 2.62 0 0 0-1.328-.364v-.449z" transform="translate(-185.143 -43.656)"/>
        <path id="Path_570" data-name="Path 570" class="cls-4" d="M408.136 332.2a2.576 2.576 0 0 0 1.606-.372 1.39 1.39 0 0 0 .361-1.037V322.4q-1.027-.907-1.268-1.063a1.415 1.415 0 0 0-.655-.208v-.449h4.742l7.691 7.461h.11v-5.265a1.673 1.673 0 0 0-.415-1.279 2.788 2.788 0 0 0-1.66-.468v-.449h4.818v.449a3.822 3.822 0 0 0-1.409.372c-.233.155-.35.5-.35 1.046v10.426h-.623l-9.844-9.466h-.153v6.951a1.8 1.8 0 0 0 .285 1.15 2.441 2.441 0 0 0 1.835.588v.449h-5.069v-.445z" transform="translate(-219.72 -43.656)"/>
        <path id="Path_571" data-name="Path 571" class="cls-4" d="M462.579 332.2a2.739 2.739 0 0 0 1.081-.181 1.085 1.085 0 0 0 .536-1.064v-8.567a1.078 1.078 0 0 0-.51-1.054 2.893 2.893 0 0 0-1.107-.2v-.449h6.191v.449a3.173 3.173 0 0 0-1.142.191 1.081 1.081 0 0 0-.518 1.063v8.567a1.068 1.068 0 0 0 .414.994 2.449 2.449 0 0 0 1.246.251v.449h-6.191v-.449z" transform="translate(-257.608 -43.656)"/>
        <path id="Path_572" data-name="Path 572" class="cls-4" d="M493.844 320.681v.449a4.975 4.975 0 0 0-1.237.165q-.276.1-.276.536a1.826 1.826 0 0 0 .018.26 1.417 1.417 0 0 0 .086.251l2.68 6.536h.1l2.317-5.983c.052-.132.1-.267.139-.406a1.985 1.985 0 0 0 .1-.544q0-.5-.3-.623a4.291 4.291 0 0 0-1.21-.191v-.449h3.769v.433a1.63 1.63 0 0 0-.977.38 3.031 3.031 0 0 0-.623 1.072l-4.03 10.408h-.466l-4.556-10.607a2.792 2.792 0 0 0-.571-.917 1.4 1.4 0 0 0-.9-.337v-.433z" transform="translate(-275.233 -43.656)"/>
        <path id="Path_573" data-name="Path 573" class="cls-4" d="M532.379 332.646v-.446a3.15 3.15 0 0 0 1.222-.208 1.049 1.049 0 0 0 .557-1.037v-8.567a1.04 1.04 0 0 0-.577-1.046 3.412 3.412 0 0 0-1.2-.208v-.449h11.533v3.571h-.489a3.673 3.673 0 0 0-1.3-2.343 6.216 6.216 0 0 0-3.323-.631 2.483 2.483 0 0 0-1.173.173.753.753 0 0 0-.245.666v4.1a6.909 6.909 0 0 0 3.2-.545 4.024 4.024 0 0 0 .928-2.074h.508v5.982h-.508a3.516 3.516 0 0 0-.88-2.127c-.437-.415-2.11-.622-3.25-.622v4.287a.845.845 0 0 0 .323.77 2.994 2.994 0 0 0 1.349.2 6.547 6.547 0 0 0 3.128-.657 5.629 5.629 0 0 0 2.15-2.465h.557l-.811 3.683z" transform="translate(-306.184 -43.656)"/>
        <path id="Path_574" data-name="Path 574" class="cls-1" d="M580.516 332.2a2.042 2.042 0 0 0 1.227-.337 1.763 1.763 0 0 0 .329-1.279v-7.824a1.7 1.7 0 0 0-.39-1.34 2.459 2.459 0 0 0-1.166-.286v-.449h5.7a9.132 9.132 0 0 1 2.87.372 2.851 2.851 0 0 1 1.064 4.979 4.071 4.071 0 0 1-1.72.8l3.562 5.04a.75.75 0 0 0 .311.276 1.452 1.452 0 0 0 .407.078v.424h-3.623l-3.673-5.533h-.467v3.467a1.292 1.292 0 0 0 1.553 1.612v.449h-5.982v-.449zm6.907-6.138q.753-.467.753-2.144a3.819 3.819 0 0 0-.286-1.625 1.818 1.818 0 0 0-1.8-1.011 1.623 1.623 0 0 0-.934.181.7.7 0 0 0-.215.58v4.5a5.1 5.1 0 0 0 2.48-.484z" transform="translate(-339.685 -43.656)"/>
        <path id="Path_575" data-name="Path 575" class="cls-4" d="M623.4 327.762h.511a5.446 5.446 0 0 0 1.392 2.879 3.156 3.156 0 0 0 2.213.9 2.124 2.124 0 0 0 1.72-.614 2.03 2.03 0 0 0 .51-1.305 1.692 1.692 0 0 0-.536-1.3 6.689 6.689 0 0 0-1.425-.856l-1.151-.571a7.559 7.559 0 0 1-2.412-1.677 3.068 3.068 0 0 1-.7-2.049 3.737 3.737 0 0 1 .926-2.42 3.494 3.494 0 0 1 2.852-1.124 6.072 6.072 0 0 1 1.885.294 7.17 7.17 0 0 0 1.047.294.454.454 0 0 0 .405-.164 1.47 1.47 0 0 0 .181-.449h.528v3.856h-.493a5.342 5.342 0 0 0-1.253-2.308 2.842 2.842 0 0 0-2.17-.969 2 2 0 0 0-1.427.493 1.721 1.721 0 0 0-.026 2.438 11.683 11.683 0 0 0 2.153 1.244l1.332.657a5.222 5.222 0 0 1 1.417.977 3.349 3.349 0 0 1 .986 2.438 3.757 3.757 0 0 1-1.064 2.533 4.328 4.328 0 0 1-3.39 1.185 5.893 5.893 0 0 1-1.089-.1 5.724 5.724 0 0 1-1.081-.3l-.346-.13a1.872 1.872 0 0 0-.234-.052.836.836 0 0 0-.19-.027.414.414 0 0 0-.38.165 1.534 1.534 0 0 0-.182.45h-.509v-4.383z" transform="translate(-369.532 -42.905)"/>
        <path id="Path_576" data-name="Path 576" class="cls-1" d="m662.09 327.918-1.787-4.1h-.155l-1.686 4.1zm-7 3.726a1.423 1.423 0 0 0 1.086-.58 7.913 7.913 0 0 0 .756-1.487l4.148-9.691h.519l4.166 9.3a12.487 12.487 0 0 0 1.048 2.023 1.128 1.128 0 0 0 .985.432v.449h-6.044v-.449a4.407 4.407 0 0 0 1.194-.147q.292-.113.292-.571a2.158 2.158 0 0 0-.146-.632q-.091-.25-.246-.606l-.475-1.072h-4.193c-.274.7-.448 1.162-.529 1.375a3.4 3.4 0 0 0-.246.995q0 .38.538.553a3.779 3.779 0 0 0 .957.1v.449h-3.811v-.449z" transform="translate(-391.582 -43.103)"/>
        <path id="Path_577" data-name="Path 577" class="cls-4" d="M700.153 332.2a2.9 2.9 0 0 0 1.106-.191 1.063 1.063 0 0 0 .563-1.055v-8.567a1.055 1.055 0 0 0-.535-1.046 3.051 3.051 0 0 0-1.133-.208v-.449h6.6v.449a3.157 3.157 0 0 0-1.539.3q-.38.267-.379 1.323v8.359a.83.83 0 0 0 .323.779 2.889 2.889 0 0 0 1.281.191 5.407 5.407 0 0 0 2.857-.7 5.562 5.562 0 0 0 2-2.749h.553l-.765 4.011h-10.93v-.447z" transform="translate(-422.944 -43.656)"/>
        <path id="Path_578" data-name="Path 578" class="cls-2" d="M112.786 297.889a6.775 6.775 0 0 0 1.259 1.585q-.146.742-.233 1.506a3.959 3.959 0 0 0-.88.533 3.166 3.166 0 0 0 .838-.118q-.054.6-.071 1.2a5.528 5.528 0 0 0-.448.367q.223-.033.442-.082-.008.541.012 1.092l-.25.124a1.141 1.141 0 0 0 .256.025q.034.79.127 1.6c-.523-.079-1.437-.375-1.437-2.787a44.792 44.792 0 0 1 .385-5.051z" transform="translate(-24.507 -23.637)"/>
        <path id="Path_579" data-name="Path 579" class="cls-2" d="M117.532 303.152a11.09 11.09 0 0 0 3.434 1.781c0 .333-.011.818-.011 1.357l-3.354 1.935 3.357-1.035c0 .236.006.472.011.7l-2.047 1.11 2.078-.29c.011.224.025.427.043.6a533.71 533.71 0 0 1-3.637-.257q-.1-.878-.135-1.73a18.724 18.724 0 0 0 3.038-1.854l-3.05 1.514q-.012-.492 0-.976a6.528 6.528 0 0 0 2.169-1.22 6.423 6.423 0 0 0-2.152.727q.025-.537.079-1.063a4.009 4.009 0 0 0 .8-.528 4.458 4.458 0 0 0-.753.132q.056-.454.134-.9z" transform="translate(-27.524 -26.909)"/>
        <path id="Path_580" data-name="Path 580" class="cls-2" d="M129.315 308.544a22.1 22.1 0 0 0 2.238.489c1.533.173 1.879.572 1.879.572v-.426h.492l.536.705v2.078a3.779 3.779 0 0 1-2.114.872l1.654-1.67-3.809 1.6 2.506-2.025-3.212 1.493v-.6l1.652-1.506-1.826.722v-.616l.851-.492-.851-.173v-1.02z" transform="translate(-35.023 -30.262)"/>
        <path id="Path_581" data-name="Path 581" class="cls-3" d="M122.457 354.324q-1.269.192-3.055.3a18.938 18.938 0 0 0 3.06.4c-.66.529-4.479.594-4.479.594v.341h2.531c.13 0 .142.264 0 .264-1.53 0-3.434 1.772-4.1 2.124a5.141 5.141 0 0 1-2.861 1.155c-1.265 0-1.441-.539-1.4-.539 1.926 0 4.765-1.9 5.272-2.256s-.154-.265-.528-.088c-.595.242-3.434 1.75-4.59 1.75-1.244 0-1.662-.33-1.618-.375a22.622 22.622 0 0 0 5.536-2.4s-5.074 1.288-6.131 1.618-1.159-.267-1.159-.267a27.768 27.768 0 0 1 8.244-2.618zm14.075 0a1.451 1.451 0 0 1-.985.387c-.559 0-.586-.12-.519-.16a1.178 1.178 0 0 0 .154-.224h1.35zm7.584 0a1.3 1.3 0 0 1 0 .4h-1.471a4.67 4.67 0 0 0-1.808.431h-.985c-.627 0-.773-.364-.182-.7h-1.332a.831.831 0 0 1-.579-.138h6.361z" transform="translate(-22.357 -58.722)"/>
        <path id="Path_582" data-name="Path 582" class="cls-3" d="M98.067 333.281q.608-.086 1.209-.135c.234-.029.267-.217 0-.291a2.713 2.713 0 0 1-1.489-1.328c-1.706-.435-1.706-1.358-1.641-1.336a4.057 4.057 0 0 1-3.238-1.924c-3.584-.216-3.522-1.815-3.52-1.815-5.009.378-6.019-2.671-6.106-2.758a5.723 5.723 0 0 1-5.093-2.82l23.4.479s2.772-.026 3.678 1.76c.869 1.713 3.412 7.037 7.624 7.037a2.44 2.44 0 0 0-1.2-.64c-.1-.031-.08-.347.134-.347 1.352 0 6.033-5.121 7.651-7.224.791-.9.618-1.466 5.944-1.466h8.85s-.613 2.213-3.839 2a2.262 2.262 0 0 1-1.946 1.626s-1.093 1.626-4.8 1.626a8.386 8.386 0 0 1-4.851 2.026c-.24 0-.267-.24-.774-.24l.907-.239-.64-.6c.387 0 1.653-.08 1.532-.093s-.466-.507-.466-.507a4.405 4.405 0 0 0 2.253-.186 3.082 3.082 0 0 1-1.96-.933c3.519.067 5.386-.42 5.8-.666H120.4c.426-.32 1.226-.426 4.212-.426s3.652-.88 3.652-.88-6.624.04-6.6 0c.947-.773 2.146-.8 5.079-.8a17.517 17.517 0 0 0 5.424-.92h-6.93c-2.293 0-4.039.28-4.732 1.266a31.49 31.49 0 0 1-6.544 6.625 39.24 39.24 0 0 1 4.424.986c.4.145.426-.48.426-.48q.625.961 1.24.853a.892.892 0 0 1 .142-.687 3.258 3.258 0 0 0 1.792.917.889.889 0 0 1 .8.47 1.262 1.262 0 0 0 .8.821q1.286.435 1.412 1.253h-6.361c-.159-.166.058-.423.139-.505.108-.109.169-.222.054-.253-.168-.047-1.333-.24-1.307-.254a11.018 11.018 0 0 0 1.586-.72h-1.226c-.48 0-.573-.186-.573-.266s-.013-.107.093-.16a.115.115 0 0 0-.066-.213c-.863 0-.894.147-.894.453 0 .28.68.413.707.44 0 .227-.053.293-.24.227-.522-.241-.1.729.32.959.089.049.24.133.227.213a.288.288 0 0 1-.042.082h-1.35c.075-.142.09-.266-.008-.266-.184.045-1.088.141-1.306-.067a3.12 3.12 0 0 0 .853-.533q-1.96.282-2.213-.08s2.146-.56.333-.56c-1.173 0-1.333-.24-1.333-.24h.48c.36 0 .307-.093.32-.107a2.833 2.833 0 0 0-1.359-.306c-2.466 0-5.2-2.452-7.224-6.611q-.963-1.992-4.425-2.08l-19.312-.426q4.436 2.086 17.086 2.186a23.957 23.957 0 0 1-4.19.314c-.372 0-.41.307-.178.447a19.432 19.432 0 0 0 6.236 1.012 15.022 15.022 0 0 0-3.521.6 18.673 18.673 0 0 0 6.058.876 9.9 9.9 0 0 0-4 .913 27.362 27.362 0 0 1 5.405.383l-3.494.67a22.659 22.659 0 0 1 4.79.612 14.315 14.315 0 0 0-3.713.451q4.849.192 5.132.711a9.531 9.531 0 0 0-3.795.352c1.058-.032 4.123.137 4.584 1.017a21.734 21.734 0 0 0-3.654-.114c.4.4 1.228.567 1.068.567a13.2 13.2 0 0 1-1.349.275h-5.27zm21.671-1.885s1.859.343 2.168.423c.41.106.741.264.384.555s-.659.41-.964.238-1.587-1.215-1.587-1.215zm-35.146-7.383a16.145 16.145 0 0 0 3.433.553h3.305a1.778 1.778 0 0 0 1.471 1.089 7.653 7.653 0 0 1 2.474.469 31.93 31.93 0 0 1-6.781-.342 7.12 7.12 0 0 1-3.9-1.77zm6.205 2.729a20.167 20.167 0 0 1 3.946.128c.747.277 2.453.9 2.453.9h-3.307a4.03 4.03 0 0 1-3.092-1.025zm3.262 1.765a17.213 17.213 0 0 1 3.419.113c.647.244 2.126.788 2.126.788h-2.865a3.466 3.466 0 0 1-2.679-.9zm2.985 1.609a18.475 18.475 0 0 1 2.943.077 4.663 4.663 0 0 1 .959.537h-2.015a2.486 2.486 0 0 1-1.886-.614zm1.643 1.316a14.966 14.966 0 0 0 1.706-.212c.34-.107.6-.233.938 0s.789.49.789.49a2.911 2.911 0 0 0-.981.149 2.522 2.522 0 0 1-1.066.171 1.819 1.819 0 0 1-1.386-.6zm1.343 1.11a4.238 4.238 0 0 0 1.343-.149 1.487 1.487 0 0 1 1.557.363 2.34 2.34 0 0 1-1.087.192h-1.236s-.513-.085-.577-.405z" transform="translate(-3.237 -37.678)"/>
        <path id="Path_583" data-name="Path 583" class="cls-2" d="M156.054 368.652a8.832 8.832 0 0 1 1.839-1.093c.347-.053.587-.08.56.213a4.1 4.1 0 0 1-.45 1.033c-.073.152-.3.62-.456.647a.533.533 0 0 1-.347-.133s.263-.319.24-.507c-.019-.154-.123-.258-.427-.32-.38-.078-.32.587-.426.533s-.533-.373-.533-.373z" transform="translate(-51.647 -66.931)"/>
        <path id="Path_584" data-name="Path 584" class="cls-3" d="M145.212 313.239v1.226h.64l-.719.746s1.359-.614 1.866-.453c0 .053-1.333 1.519-1.333 1.519a9.269 9.269 0 0 1 2.4-1.066c.027.026-1.44 1.519-1.44 1.519a8.258 8.258 0 0 1 2.826-.906c.08.08-1.253.906-1.52 1.68a14.769 14.769 0 0 1 2.533-1.146l-1.813 2.106.32.518a28 28 0 0 0 2.639-2.874c.246-.492.023-.89-.609-.785-.535.082-.429.574-1.179.117a4.112 4.112 0 0 1-1.413-1.343c-.469-.621-.757-1.043-1.5-.832s-.726.3-.9.246-.8-.273-.8-.273z" transform="translate(-44.856 -33.163)"/>
        <path id="Path_585" data-name="Path 585" class="cls-2" d="M155.807 327.315a11.6 11.6 0 0 0 3.132-1.839 4.855 4.855 0 0 1-2.8 2.279l-.333-.44z" transform="translate(-51.493 -40.789)"/>
        <path id="Path_586" data-name="Path 586" class="cls-2" d="M157.428 325.848a48.118 48.118 0 0 0 6.211-4.212 20.718 20.718 0 0 1-5.758 4.785l-.453-.573z" transform="translate(-52.501 -38.401)"/>
        <path id="Path_587" data-name="Path 587" class="cls-2" d="M159.436 332.883a11.6 11.6 0 0 0 3.132-1.84 4.858 4.858 0 0 1-2.8 2.28l-.333-.44z" transform="translate(-53.749 -44.25)"/>
        <path id="Path_588" data-name="Path 588" class="cls-2" d="M161.268 335.933a9.369 9.369 0 0 0 2.826-1.613 3.909 3.909 0 0 1-2.492 2.053l-.334-.44z" transform="translate(-54.888 -46.287)"/>
        <path id="Path_589" data-name="Path 589" class="cls-2" d="M162.854 338.446a6.837 6.837 0 0 0 2.4-1.413 2.894 2.894 0 0 1-2.066 1.853l-.333-.44z" transform="translate(-55.874 -47.974)"/>
    </g>
</svg>
