<svg width="40" height="40" viewBox="0 0 40 40" fill="none" xmlns="http://www.w3.org/2000/svg">
<path d="M33.3333 6.66663H6.66668C4.83334 6.66663 3.35001 8.16663 3.35001 9.99996L3.33334 30C3.33334 31.8333 4.83334 33.3333 6.66668 33.3333H33.3333C35.1667 33.3333 36.6667 31.8333 36.6667 30V9.99996C36.6667 8.16663 35.1667 6.66663 33.3333 6.66663ZM32.6667 13.75L20.8833 21.1166C20.35 21.45 19.65 21.45 19.1167 21.1166L7.33334 13.75C6.91668 13.4833 6.66668 13.0333 6.66668 12.55C6.66668 11.4333 7.88334 10.7666 8.83334 11.35L20 18.3333L31.1667 11.35C32.1167 10.7666 33.3333 11.4333 33.3333 12.55C33.3333 13.0333 33.0833 13.4833 32.6667 13.75Z" fill="#1ABC9C"/>
</svg>
