<svg width="64" height="63" viewBox="0 0 64 63" fill="none" xmlns="http://www.w3.org/2000/svg">
<g clip-path="url(#clip0_431_4621)">
<mask id="mask0_431_4621" style="mask-type:luminance" maskUnits="userSpaceOnUse" x="0" y="0" width="64" height="63">
<path d="M64 0H0V63H64V0Z" fill="white"/>
</mask>
<g mask="url(#mask0_431_4621)">
<path d="M37.9363 57.2764C36.7461 57.2764 35.6629 56.4881 35.3541 55.3024C34.9896 53.8975 35.8501 52.4671 37.276 52.1083C46.6667 49.7435 53.224 41.4198 53.224 31.8659C53.224 20.3455 43.7032 10.9735 32 10.9735C20.2968 10.9735 10.776 20.3455 10.776 31.8659C10.776 41.0227 16.9923 49.2526 25.8907 51.8802C27.3021 52.2968 28.1029 53.7605 27.6797 55.1486C27.2552 56.5393 25.7723 57.321 24.3595 56.9097C13.2213 53.6208 5.44266 43.3219 5.44266 31.8659C5.44266 17.4515 17.3568 5.72351 32 5.72351C46.6432 5.72351 58.5573 17.4515 58.5573 31.8659C58.5573 43.8194 50.3504 54.2348 38.5989 57.1942C38.3763 57.2507 38.1549 57.2764 37.9363 57.2764Z" fill="#081455"/>
<path d="M32.6469 33.2413H41.3483L28.4579 50.3626L30.8443 40.6087H22.4075L35.3373 22.2455L32.6469 33.2413Z" fill="#68A7F4"/>
</g>
</g>
<defs>
<clipPath id="clip0_431_4621">
<rect width="64" height="63" fill="white"/>
</clipPath>
</defs>
</svg>
