<svg id="bc74368e-3829-40aa-836c-a80a32b1c136" data-name="Layer 4" xmlns="http://www.w3.org/2000/svg" width="28.49mm" height="28.49mm" viewBox="0 0 80.759 80.759"><title>Artboard 1</title><path d="M35.417,71.671l-.078-6.306-.288-25.021a5.472,5.472,0,0,1,2.63-4.555L59.494,23.527,65,20.441a5.688,5.688,0,0,1,8.4,4.851l.38,31.387a5.477,5.477,0,0,1-2.63,4.555L43.776,76.6a5.72,5.72,0,0,1-8.359-4.928Z" fill="none" stroke="#2ab99d" stroke-linecap="round" stroke-linejoin="round" stroke-width="4"/><path d="M25.805,68.993A5.666,5.666,0,0,1,21.4,63.578l-.38-31.387a5.472,5.472,0,0,1,2.63-4.555L51.02,12.272a5.665,5.665,0,0,1,6.581.833" fill="none" stroke="#2ab99d" stroke-linecap="round" stroke-linejoin="round" stroke-width="4"/><path d="M11.535,60.85a5.687,5.687,0,0,1-4.174-5.328l-.38-31.387a5.478,5.478,0,0,1,2.63-4.555L36.983,4.216a5.6,5.6,0,0,1,6.266.563" fill="none" stroke="#2ab99d" stroke-linecap="round" stroke-linejoin="round" stroke-width="4"/></svg>