<svg id="a090d1e8-5319-443c-9b38-556cc2714d72" data-name="Layer 14" xmlns="http://www.w3.org/2000/svg" width="260" height="111" viewBox="0 0 260 111"><title>googlepayArtboard 2</title><path d="M122.394,51.7V34.925c0-.393-.051-.341.346-.341H133.9a13.769,13.769,0,0,1,1.7.1A10.336,10.336,0,0,1,141.012,37a11.28,11.28,0,0,1,2.08,2.218,9.183,9.183,0,0,1,1.581,3.934,10.644,10.644,0,0,1,.12,2.033,9.841,9.841,0,0,1-.8,3.633A9.193,9.193,0,0,1,142.55,51.1a11.345,11.345,0,0,1-2.883,2.436,10.152,10.152,0,0,1-3.29,1.218,11.1,11.1,0,0,1-1.907.2c-.375,0-.736.013-1.1.015h-6.475a.084.084,0,0,0-.087.078.066.066,0,0,0,0,.014V68.507c0,.374.049.32-.313.322H122.48a.08.08,0,0,1-.085-.076.055.055,0,0,1,0-.018V68.5Zm4.408-6.932v5.714c0,.311-.034.279.285.279h6.866a7.934,7.934,0,0,0,.886-.033,5.835,5.835,0,0,0,1.855-.459,6.163,6.163,0,0,0,2.932-2.741,5.681,5.681,0,0,0,.637-3.436,5.413,5.413,0,0,0-.838-2.377,6.924,6.924,0,0,0-1.686-1.8,5.412,5.412,0,0,0-1.959-.937,6.759,6.759,0,0,0-1.664-.187h-7.048c-.3,0-.264-.024-.264.275Q126.8,41.919,126.8,44.768Z" fill="#606469"/><path d="M161.26,55.02a8.787,8.787,0,0,0-.058-1.827,4.745,4.745,0,0,0-1.156-2.435,6.267,6.267,0,0,0-3.349-2.035,6.874,6.874,0,0,0-2.121-.142,7.229,7.229,0,0,0-1.782.359,6.434,6.434,0,0,0-2.319,1.413,7.765,7.765,0,0,0-.967,1.1q-.056.078-.114.153a.074.074,0,0,1-.1.019l0,0c-.041-.022-.082-.048-.124-.075q-1.755-1.105-3.514-2.208c-.187-.124-.187-.107-.056-.281a10.19,10.19,0,0,1,4.037-3.352,11.353,11.353,0,0,1,2.765-.851,14.725,14.725,0,0,1,2.749-.215,14.461,14.461,0,0,1,3.184.375,9.7,9.7,0,0,1,3.906,1.873,8.353,8.353,0,0,1,2.8,4.183,10.723,10.723,0,0,1,.4,2.046c.046.5.065,1.006.065,1.51v13.9c0,.375.041.321-.316.322h-3.626c-.3,0-.271.029-.271-.269V65.7c0-.058,0-.082-.041-.1a.162.162,0,0,0-.178.03,1.943,1.943,0,0,0-.128.174,10.559,10.559,0,0,1-1.193,1.409,8.175,8.175,0,0,1-5.531,2.377,12.833,12.833,0,0,1-1.686-.054,9.087,9.087,0,0,1-5.894-2.908,7.078,7.078,0,0,1-1.807-3.647,8.528,8.528,0,0,1-.066-2.29,7.179,7.179,0,0,1,.5-2.06,6.731,6.731,0,0,1,1.718-2.436,9.266,9.266,0,0,1,3.668-2.017,13.185,13.185,0,0,1,2.234-.444,17.993,17.993,0,0,1,3.044-.075,13.236,13.236,0,0,1,3.919.749,10.507,10.507,0,0,1,1.229.541A.461.461,0,0,0,161.26,55.02Zm-5.729,2.139a10.975,10.975,0,0,0-1.547.124,7.285,7.285,0,0,0-1.812.532,5.768,5.768,0,0,0-2.027,1.463,3.559,3.559,0,0,0-.852,2.9,3.283,3.283,0,0,0,.936,1.9A5.126,5.126,0,0,0,152.7,65.5a6.331,6.331,0,0,0,2.383.108A6.59,6.59,0,0,0,157.5,64.8a8.132,8.132,0,0,0,2.564-2.28,6.245,6.245,0,0,0,.956-1.926,6.544,6.544,0,0,0,.245-1.463c.023-.416.051-.317-.245-.528a7.146,7.146,0,0,0-2.368-1.076A13,13,0,0,0,155.531,57.159Z" fill="#606469"/><path d="M168.6,45.392h2.3a.115.115,0,0,1,.114.073c.021.043.038.086.056.131l4.579,11.035q1.124,2.7,2.248,5.405a1.156,1.156,0,0,0,.086.168.051.051,0,0,0,.071.012l.012-.012a1.074,1.074,0,0,0,.084-.17l1-2.469q2.584-6.394,5.167-12.788l.476-1.179c.022-.052.043-.1.067-.153a.086.086,0,0,1,.075-.053h4.611a.069.069,0,0,1,.073.065.065.065,0,0,1-.006.033c-.021.061-.043.119-.069.187q-1.362,3.133-2.728,6.268-2.3,5.289-4.607,10.58-2.133,4.913-4.277,9.826l-2.855,6.557c-.126.288-.067.249-.375.249H170.71c-.287,0-.3.019-.169-.262q2.623-5.661,5.235-11.325a.319.319,0,0,1,.028-.066.3.3,0,0,0,0-.316c-.336-.75-.663-1.5-1-2.26l-3.632-8.256-3.328-7.552q-.775-1.755-1.549-3.512c-.094-.214-.094-.216.144-.216Z" fill="#606469"/><path d="M72.5,42.681a13.933,13.933,0,0,1,.84-1.5,19.665,19.665,0,0,1,8.552-7.555,18.98,18.98,0,0,1,4.418-1.411,20.751,20.751,0,0,1,4.056-.375,22.782,22.782,0,0,1,2.392.173,18.684,18.684,0,0,1,9.545,4.121c.277.229.545.471.817.707.03.026.058.054.086.082a.071.071,0,0,1,.006.1l-.006.006c-.035.041-.077.08-.116.12l-5.262,5.255-.034.034c-.152.151-.139.153-.3,0a10.444,10.444,0,0,0-4.552-2.466,11.646,11.646,0,0,0-1.574-.264A11.472,11.472,0,0,0,83.153,42,11.931,11.931,0,0,0,79.1,47.562a.4.4,0,0,1-.075.174l-.375-.287-.9-.684L76.06,45.454l-1.124-.864L73.272,43.3C73.023,43.1,72.761,42.9,72.5,42.681Z" fill="#e94235"/><path d="M79.02,55.312a.623.623,0,0,1,.092.219,11.909,11.909,0,0,0,6.182,6.816,10.938,10.938,0,0,0,3.228.955,12.46,12.46,0,0,0,2.561.075,12.211,12.211,0,0,0,3.687-.8,10.62,10.62,0,0,0,1.815-.918c.068-.043.137-.082.2-.123l.137.1L98.9,63.164l2.486,1.924q.872.674,1.748,1.347a3.727,3.727,0,0,1-.474.44A17.515,17.515,0,0,1,96.334,70.3a19.661,19.661,0,0,1-3.136.684c-.749.1-1.5.161-2.248.2a20.936,20.936,0,0,1-2.111-.023,18.134,18.134,0,0,1-2.38-.292A19.738,19.738,0,0,1,72.68,60.752a1.551,1.551,0,0,1-.187-.41c.045-.032.092-.062.137-.1l2.688-2.08,2.666-2.07Z" fill="#34a853"/><path d="M103.139,66.435c-.583-.45-1.168-.9-1.748-1.347l-2.486-1.924q-.989-.764-1.971-1.529l-.135-.1c.3-.225.607-.443.892-.69a8.993,8.993,0,0,0,2.7-3.987,8.4,8.4,0,0,0,.313-1.18.284.284,0,0,1,.013-.1.523.523,0,0,0-.095-.022h-10.4c-.116,0-.131-.021-.137-.147V48.062a.087.087,0,0,1,.086-.087h18.2c.27,0,.281-.051.328.269.073.508.138,1.014.187,1.523a24.723,24.723,0,0,1,.073,3.453c-.017.48-.065.958-.118,1.433a21.57,21.57,0,0,1-.543,2.972,18.763,18.763,0,0,1-2.482,5.665,17.085,17.085,0,0,1-2.524,3.012A.544.544,0,0,1,103.139,66.435Z" fill="#4285f4"/><path d="M79.02,55.312c-.343.26-.688.519-1.029.781l-2.666,2.07-2.694,2.08c-.045.035-.091.065-.136.1a.475.475,0,0,1-.111-.187,19.416,19.416,0,0,1-1.928-7.024,18.213,18.213,0,0,1-.073-1.94c.027-.735.075-1.467.169-2.2a19.539,19.539,0,0,1,1.791-6.014c.049-.1.1-.187.155-.3.263.208.525.418.787.624L74.949,44.6l1.124.864,1.686,1.311.892.684.374.286-.174.587a11.836,11.836,0,0,0-.374,1.948,11.463,11.463,0,0,0-.072,1.242,12,12,0,0,0,.547,3.534A.758.758,0,0,1,79.02,55.312Z" fill="#fabb06"/></svg>