<svg width="64" height="63" viewBox="0 0 64 63" fill="none" xmlns="http://www.w3.org/2000/svg">
<g clip-path="url(#clip0_431_4592)">
<mask id="mask0_431_4592" style="mask-type:luminance" maskUnits="userSpaceOnUse" x="0" y="0" width="64" height="63">
<path d="M64 0H0V63H64V0Z" fill="white"/>
</mask>
<g mask="url(#mask0_431_4592)">
<path d="M18.8395 34.4214C11.488 34.4214 5.50613 28.533 5.50613 21.2964C5.50613 14.0598 11.4877 8.17139 18.8395 8.17139C26.1912 8.17139 32.1728 14.0598 32.1728 21.2964C32.1728 28.533 26.1909 34.4214 18.8395 34.4214ZM18.8395 13.4214C14.428 13.4214 10.8395 16.9538 10.8395 21.2964C10.8395 25.6389 14.428 29.1714 18.8395 29.1714C23.2509 29.1714 26.8395 25.6389 26.8395 21.2964C26.8395 16.9538 23.2509 13.4214 18.8395 13.4214Z" fill="#081455"/>
<path d="M18.8423 17.6383L14.8409 21.5758L18.8396 25.5134L22.841 21.5759L18.8423 17.6383Z" fill="#68A7F4"/>
<path d="M56.0091 21.3005H42.6888V34.4192H56.0091V21.3005Z" fill="#081455"/>
<path d="M56.0165 42.6476H7.98533C6.51146 42.6476 5.31866 41.4734 5.31866 40.0226C5.31866 38.5717 6.51146 37.3976 7.98533 37.3976H56.0165C57.4904 37.3976 58.6832 38.5717 58.6832 40.0226C58.6832 41.4734 57.4904 42.6476 56.0165 42.6476Z" fill="#081455"/>
<path d="M41.5165 52.2026L22.6819 52.1861L32.1029 42.9177L41.5165 52.2026Z" fill="#081455"/>
</g>
</g>
<defs>
<clipPath id="clip0_431_4592">
<rect width="64" height="63" fill="white"/>
</clipPath>
</defs>
</svg>
