<svg xmlns="http://www.w3.org/2000/svg" width="190" height="75.336" viewBox="0 0 190 75.336">
    <defs>
        <style>
            .cls-4{fill:#fff}.cls-3{fill:#2ab99d}.cls-5{fill:#b8c1cb}
        </style>
    </defs>
    <g id="img" transform="translate(1 -16.164)">
        <g id="img-2">
            <path id="Triangle" fill="#fff" stroke="#b8c1cb" stroke-linejoin="round" stroke-miterlimit="10" stroke-width="3px" d="M8 0l8 16H0z" transform="translate(44 74)"/>
            <path id="Line_3" fill="none" stroke="#b8c1cb" stroke-linecap="round" stroke-linejoin="bevel" stroke-miterlimit="10" stroke-width="3px" d="M.5.5h187" transform="translate(0 72)"/>
            <g id="money" transform="translate(106.981 -153.936)">
                <g id="Group_69" transform="translate(15.019 170.1)">
                    <g id="Group_68">
                        <path id="Path_123" d="M53.6 186.441l-19.368 5.811-15.22-8.929 30.865-8.487c.615-.19 4.42-1.437 6.363-2.043a3.593 3.593 0 0 1 2.287-.253c2.079.8 4.537 2.214 7.113 3.507a9.3 9.3 0 0 1 2.467-.217 9.332 9.332 0 0 1 4.682 1.021c.1.009.208.018.307.036l-5.332-2.259c-4.076-1.943-8.035-3.8-8.089-3.859a16.5 16.5 0 0 0-1.875-.669 10.8 10.8 0 0 0-2.133.488c-4.148 1.419-6.2 2.07-6.327 2.1l-33.449 9.192a1.106 1.106 0 0 0-.262 2.024l17.9 10.5a1.111 1.111 0 0 0 .56.154 1.216 1.216 0 0 0 .316-.045l18.519-5.558a9.322 9.322 0 0 1 .676-2.514z" class="cls-3" transform="translate(-15.074 -170.1)"/>
                        <path id="Path_124" d="M42.98 358.715a9.3 9.3 0 0 1 4.32-1.076 11.126 11.126 0 0 1 1.112-.072L53 356.193a8.351 8.351 0 0 1 .054-.949c-.063-.443-.117-.886-.181-1.329l-18.7 5.6-17.484-10.245a1.11 1.11 0 0 0-1.121 1.916l18.311 10.746 6.643-2a9.463 9.463 0 0 1 2.458-1.217z" class="cls-3" transform="translate(-15.019 -332.939)"/>
                        <path id="Path_125" d="M36.41 409.948a9.211 9.211 0 0 1 1.139-2.341l-3.371 1.012-17.489-10.249a1.11 1.11 0 0 0-1.121 1.916l18.311 10.746 2.341-.7z" class="cls-3" transform="translate(-15.019 -377.601)"/>
                        <path id="Path_126" d="M35.334 459.41a9.764 9.764 0 0 1 .136-2.07l-1.3.389-17.481-10.259a1.11 1.11 0 0 0-1.121 1.916l18.32 10.737 1.491-.443z" class="cls-3" transform="translate(-15.019 -422.264)"/>
                        <path id="Path_127" d="M35.777 507.371l-.136-.994-1.473.443-17.479-10.25a1.11 1.11 0 0 0-1.121 1.916l18.311 10.746 2.287-.687c-.145-.379-.272-.767-.389-1.174z" class="cls-3" transform="translate(-15.019 -466.926)"/>
                    </g>
                </g>
                <path id="Path_241" d="M456 419.25v29a16.277 16.277 0 0 0 11.75 3.5 26.76 26.76 0 0 0 13.25-5v-27.5s0 7.75-13.25 6.25-11.75-6.25-11.75-6.25z" class="cls-4" transform="translate(-401.981 -238.064)"/>
                <circle id="Ellipse_24" cx="12" cy="12" r="12" class="cls-4" transform="translate(36.019 195.936)"/>
                <g id="Group_70" transform="translate(34.096 175.161)">
                    <path id="Path_128" d="M267.864 227.844a26.432 26.432 0 0 0-18.864-.009c-2.892 1.274-4.483 3.109-4.483 5.161v11.686a14.015 14.015 0 0 0-4.248-.651 14.171 14.171 0 1 0 12.463 20.914 28.249 28.249 0 0 0 5.7.569 24.007 24.007 0 0 0 9.427-1.735c2.892-1.274 4.492-3.109 4.492-5.161V233c-.009-2.043-1.6-3.877-4.492-5.152zm-17.764 2.477a23.758 23.758 0 0 1 16.666 0c1.771.777 2.874 1.808 2.874 2.675s-1.1 1.9-2.874 2.675a23.758 23.758 0 0 1-16.666 0c-1.771-.777-2.874-1.808-2.874-2.675s1.098-1.889 2.874-2.675zm-9.833 39.342a11.46 11.46 0 1 1 11.46-11.46 11.475 11.475 0 0 1-11.46 11.46zm26.5-8.369a21.217 21.217 0 0 1-8.333 1.509 26.315 26.315 0 0 1-4.627-.407 13.992 13.992 0 0 0 .615-3.561 28.824 28.824 0 0 0 4 .271 24.007 24.007 0 0 0 9.427-1.735 12.168 12.168 0 0 0 1.78-.958v2.205c.009.868-1.094 1.9-2.865 2.675zm0-6.4a21.217 21.217 0 0 1-8.333 1.509 25.671 25.671 0 0 1-4.157-.325 13.963 13.963 0 0 0-1.175-3.859 28.013 28.013 0 0 0 5.323.5 24.007 24.007 0 0 0 9.427-1.735 11.609 11.609 0 0 0 1.771-.958v2.187c.018.877-1.085 1.9-2.856 2.684zm0-6.408a21.217 21.217 0 0 1-8.338 1.514 22.511 22.511 0 0 1-7.583-1.2 14.374 14.374 0 0 0-3.624-2.928v-2.259a12.057 12.057 0 0 0 1.771.958 26.472 26.472 0 0 0 18.853 0 12.172 12.172 0 0 0 1.78-.958v2.205c.009.868-1.094 1.9-2.865 2.675zm0-6.408a23.758 23.758 0 0 1-16.666 0c-1.771-.777-2.874-1.808-2.874-2.675V237.2a12.057 12.057 0 0 0 1.771.958 26.472 26.472 0 0 0 18.853 0 11.609 11.609 0 0 0 1.771-.958v2.2c.018.868-1.085 1.9-2.856 2.675z" class="cls-3" transform="translate(-226.1 -226.1)"/>
                    <path id="Path_129" d="M334.315 495.705H331.4a1.184 1.184 0 0 1 0-2.368h4.908v-2.711h-2.458V488.8h-2.711v1.826a3.895 3.895 0 0 0 .253 7.782h2.91a1.292 1.292 0 1 1 0 2.585h-6.263v2.707h3.1v1.835h2.711v-1.826h.452a4 4 0 0 0 .009-8.008z" class="cls-3" transform="translate(-318.336 -465.057)"/>
                </g>
            </g>
            <g id="money-2" transform="translate(-13.021 -128.6)">
                <g id="Group_69-2" transform="translate(15.019 170.1)">
                    <g id="Group_68-2">
                        <path id="Path_123-2" d="M33.839 178.058l-9.432 2.83L17 176.539l15.031-4.133c.3-.092 2.152-.7 3.1-.995a1.75 1.75 0 0 1 1.114-.123c1.012.392 2.21 1.078 3.464 1.708a4.53 4.53 0 0 1 1.2-.106 4.545 4.545 0 0 1 2.28.5c.048 0 .1.009.15.018l-2.6-1.1c-1.985-.946-3.913-1.853-3.939-1.879a8.034 8.034 0 0 0-.911-.326 5.262 5.262 0 0 0-1.039.238c-2.02.691-3.019 1.008-3.081 1.021l-16.29 4.476a.539.539 0 0 0-.128.986l8.715 5.114a.541.541 0 0 0 .273.075.592.592 0 0 0 .154-.022l9.018-2.707a4.54 4.54 0 0 1 .328-1.226z" class="cls-5" transform="translate(-15.077 -170.1)"/>
                        <path id="Path_124-2" d="M28.636 353.792a4.527 4.527 0 0 1 2.1-.524 5.4 5.4 0 0 1 .541-.035l2.236-.669a4.067 4.067 0 0 1 .026-.462c-.031-.216-.057-.431-.088-.647l-9.106 2.729-8.517-4.991a.54.54 0 0 0-.546.933l8.917 5.233 3.235-.973a4.609 4.609 0 0 1 1.202-.594z" class="cls-5" transform="translate(-15.018 -341.239)"/>
                        <path id="Path_125-2" d="M25.436 403.931a4.486 4.486 0 0 1 .555-1.14l-1.642.493-8.517-4.991a.54.54 0 0 0-.546.933l8.917 5.233 1.14-.343z" class="cls-5" transform="translate(-15.018 -388.178)"/>
                        <path id="Path_126-2" d="M24.912 453.207a4.755 4.755 0 0 1 .066-1.008l-.634.189-8.512-5a.54.54 0 0 0-.546.933l8.922 5.229.726-.216z" class="cls-5" transform="translate(-15.018 -435.117)"/>
                        <path id="Path_127-2" d="M25.128 501.752l-.066-.484-.717.216-8.512-4.991a.54.54 0 0 0-.546.933l8.917 5.233 1.114-.335c-.071-.185-.133-.374-.19-.572z" class="cls-5" transform="translate(-15.018 -482.056)"/>
                    </g>
                </g>
                <path id="Path_247" d="M316.286 440.143v13.143a9.348 9.348 0 0 0 6 1.571 10.09 10.09 0 0 0 5.857-2.571v-12.143a10.738 10.738 0 0 1-6.857 2.143c-3.857-.286-5-2.143-5-2.143z" class="cls-4" transform="translate(-281.979 -263.4)"/>
                <circle id="Ellipse_25" cx="6" cy="6" r="6" class="cls-4" transform="translate(25.021 182.6)"/>
                <g id="Group_70-2" transform="translate(24.309 172.565)">
                    <path id="Path_128-2" d="M246.439 226.949a12.872 12.872 0 0 0-9.186 0c-1.408.621-2.183 1.514-2.183 2.513v5.691a6.825 6.825 0 0 0-2.069-.317 6.9 6.9 0 1 0 6.07 10.185 13.756 13.756 0 0 0 2.777.277 11.691 11.691 0 0 0 4.591-.845c1.408-.621 2.187-1.514 2.187-2.513v-12.482c0-.995-.779-1.888-2.187-2.509zm-8.653 1.206a11.57 11.57 0 0 1 8.116 0c.863.379 1.4.88 1.4 1.3s-.537.924-1.4 1.3a11.57 11.57 0 0 1-8.116 0c-.863-.379-1.4-.88-1.4-1.3s.537-.917 1.4-1.3zM233 247.315a5.581 5.581 0 1 1 5.581-5.581 5.588 5.588 0 0 1-5.581 5.581zm12.9-4.076a10.333 10.333 0 0 1-4.058.735 12.815 12.815 0 0 1-2.254-.2 6.813 6.813 0 0 0 .3-1.734 14.037 14.037 0 0 0 1.95.132 11.691 11.691 0 0 0 4.591-.845 5.93 5.93 0 0 0 .867-.467v1.074c0 .423-.533.924-1.4 1.3zm0-3.116a10.333 10.333 0 0 1-4.058.735 12.5 12.5 0 0 1-2.025-.158 6.8 6.8 0 0 0-.572-1.879 13.642 13.642 0 0 0 2.592.242 11.691 11.691 0 0 0 4.591-.845 5.656 5.656 0 0 0 .863-.467v1.065c.009.427-.528.924-1.391 1.307zm0-3.121a10.332 10.332 0 0 1-4.058.735 10.963 10.963 0 0 1-3.693-.585 7 7 0 0 0-1.765-1.426v-1.1a5.872 5.872 0 0 0 .863.467 12.892 12.892 0 0 0 9.181 0 5.93 5.93 0 0 0 .867-.467v1.074c0 .423-.533.924-1.4 1.3zm0-3.121a11.57 11.57 0 0 1-8.116 0c-.863-.379-1.4-.88-1.4-1.3V231.5a5.869 5.869 0 0 0 .863.467 12.892 12.892 0 0 0 9.181 0 5.654 5.654 0 0 0 .863-.467v1.074c.009.423-.528.924-1.391 1.3z" class="cls-3" transform="translate(-226.1 -226.1)"/>
                    <path id="Path_129-2" d="M330.819 492.163H329.4a.577.577 0 1 1 0-1.153h2.39v-1.32h-1.2v-.89h-1.32v.889a1.9 1.9 0 0 0 .123 3.79h1.417a.629.629 0 0 1 0 1.259h-3.05v1.32h1.51v.893h1.32v-.889h.22a1.95 1.95 0 0 0 0-3.9z" class="cls-3" transform="translate(-323.037 -477.238)"/>
                </g>
            </g>
        </g>
    </g>
</svg>
