<svg xmlns="http://www.w3.org/2000/svg" width="190" height="91.645" viewBox="0 0 190 91.645">
    <defs>
        <style>
            .cls-4{fill:#fff}.cls-3{fill:#2ab99d}.cls-5{fill:#b8c1cb}
        </style>
    </defs>
    <g id="img" transform="translate(1 .145)">
        <path id="Triangle" fill="#fff" stroke="#b8c1cb" stroke-linejoin="round" stroke-miterlimit="10" stroke-width="3px" d="M8 0l8 16H0z" transform="translate(42 74)"/>
        <path id="Line_3" fill="none" stroke="#b8c1cb" stroke-linecap="round" stroke-linejoin="bevel" stroke-miterlimit="10" stroke-width="3px" d="M.5.5h187" transform="translate(0 72)"/>
        <g id="money" transform="translate(91.981 -170.245)">
            <g id="Group_69" transform="translate(15.019 170.1)">
                <g id="Group_68">
                    <path id="Path_123" d="M62.838 190.359l-24.013 7.2-18.869-11.066 38.266-10.522c.762-.235 5.479-1.782 7.888-2.532a4.454 4.454 0 0 1 2.835-.314c2.577 1 5.625 2.745 8.818 4.348a11.531 11.531 0 0 1 3.059-.269 11.57 11.57 0 0 1 5.8 1.266c.123.011.258.022.381.045l-6.611-2.8c-5.054-2.409-9.961-4.717-10.029-4.785a20.458 20.458 0 0 0-2.319-.829 13.392 13.392 0 0 0-2.644.605c-5.143 1.759-7.687 2.566-7.844 2.6L16.09 184.7a1.372 1.372 0 0 0-.325 2.51l22.186 13.02a1.378 1.378 0 0 0 .695.19 1.506 1.506 0 0 0 .392-.056L62 193.474a11.557 11.557 0 0 1 .838-3.115z" class="cls-3" transform="translate(-15.073 -170.1)"/>
                    <path id="Path_124" d="M49.685 361.016a11.525 11.525 0 0 1 5.356-1.333 13.773 13.773 0 0 1 1.378-.09l5.692-1.7a10.353 10.353 0 0 1 .067-1.177c-.078-.549-.146-1.1-.224-1.647l-23.183 6.947-21.682-12.709a1.376 1.376 0 0 0-1.389 2.375l22.7 13.323 8.236-2.476a11.731 11.731 0 0 1 3.049-1.513z" class="cls-3" transform="translate(-15.019 -329.059)"/>
                    <path id="Path_125" d="M41.539 412.761a11.421 11.421 0 0 1 1.412-2.9l-4.18 1.255-21.682-12.709a1.376 1.376 0 0 0-1.389 2.375l22.7 13.323 2.9-.874z" class="cls-3" transform="translate(-15.019 -372.657)"/>
                    <path id="Path_126" d="M40.206 462.309a12.106 12.106 0 0 1 .168-2.566l-1.614.482-21.671-12.718a1.376 1.376 0 0 0-1.389 2.375l22.713 13.312 1.849-.549z" class="cls-3" transform="translate(-15.019 -416.256)"/>
                    <path id="Path_127" d="M40.755 510l-.168-1.233-1.826.549-21.672-12.709a1.376 1.376 0 0 0-1.389 2.376l22.7 13.323 2.835-.852c-.178-.471-.335-.954-.48-1.454z" class="cls-3" transform="translate(-15.019 -459.854)"/>
                </g>
            </g>
            <g id="Group_92" transform="translate(14.25 121.205)">
                <path id="Path_237" d="M76.425 191.095l-53.1 15.929-21.29-12.488a1.351 1.351 0 0 0-1.368 2.33l22.3 13.083L77.2 193.682a1.35 1.35 0 1 0-.775-2.587z" class="cls-3" transform="translate(0 -103.908)"/>
                <path id="Path_238" d="M76.425 191.095l-53.1 15.929-21.29-12.488a1.351 1.351 0 0 0-1.368 2.33l22.3 13.083L77.2 193.682a1.35 1.35 0 1 0-.775-2.587z" class="cls-3" transform="translate(0 -98.908)"/>
                <path id="Path_239" d="M76.425 191.095l-53.1 15.929-21.29-12.488a1.351 1.351 0 0 0-1.368 2.33l22.3 13.083L77.2 193.682a1.35 1.35 0 1 0-.775-2.587z" class="cls-3" transform="translate(0 -93.908)"/>
            </g>
            <ellipse id="Ellipse_24" cx="15" cy="14.5" class="cls-4" rx="15" ry="14.5" transform="translate(41.019 202.245)"/>
            <path id="Path_240" d="M63.019 186.745s3.829 6.422 15 5.833a24.629 24.629 0 0 0 17-7.667v32s-.833 6.333-13 6.833-19-4.333-19-4.333z" class="cls-4"/>
            <g id="Group_70" transform="translate(38.671 176.375)">
                <path id="Path_128" d="M277.879 228.263a32.77 32.77 0 0 0-23.385-.011c-3.586 1.58-5.558 3.855-5.558 6.4v14.488a17.375 17.375 0 0 0-5.266-.807 17.57 17.57 0 1 0 15.452 25.929 35.02 35.02 0 0 0 7.07.706 29.763 29.763 0 0 0 11.687-2.151c3.586-1.58 5.569-3.855 5.569-6.4V234.65c-.011-2.532-1.983-4.807-5.569-6.387zm-22.029 3.07a29.454 29.454 0 0 1 20.662 0c2.2.964 3.563 2.241 3.563 3.317s-1.367 2.353-3.563 3.317a29.454 29.454 0 0 1-20.662 0c-2.2-.964-3.563-2.241-3.563-3.317s1.366-2.342 3.563-3.317zm-12.191 48.776a14.208 14.208 0 1 1 14.208-14.209 14.227 14.227 0 0 1-14.208 14.208zm32.854-10.376a26.3 26.3 0 0 1-10.331 1.871 32.621 32.621 0 0 1-5.737-.5 17.345 17.345 0 0 0 .762-4.415 35.737 35.737 0 0 0 4.964.336 29.763 29.763 0 0 0 11.687-2.151 15.092 15.092 0 0 0 2.207-1.188v2.734c.011 1.076-1.356 2.353-3.552 3.317zm0-7.933a26.3 26.3 0 0 1-10.331 1.871 31.823 31.823 0 0 1-5.154-.4 17.311 17.311 0 0 0-1.457-4.785 34.73 34.73 0 0 0 6.6.616 29.764 29.764 0 0 0 11.687-2.151 14.393 14.393 0 0 0 2.2-1.188v2.712c.022 1.087-1.345 2.353-3.541 3.328zm0-7.944a26.3 26.3 0 0 1-10.331 1.871 27.909 27.909 0 0 1-9.4-1.49 17.82 17.82 0 0 0-4.493-3.63v-2.8a14.947 14.947 0 0 0 2.2 1.188 32.819 32.819 0 0 0 23.374 0 15.1 15.1 0 0 0 2.207-1.188v2.734c.011 1.076-1.356 2.353-3.552 3.317zm0-7.944a29.454 29.454 0 0 1-20.662 0c-2.2-.964-3.563-2.241-3.563-3.317v-2.735a14.944 14.944 0 0 0 2.2 1.188 32.819 32.819 0 0 0 23.374 0 14.392 14.392 0 0 0 2.2-1.188v2.734c.022 1.076-1.345 2.353-3.541 3.317z" class="cls-3" transform="translate(-226.1 -226.1)"/>
                <path id="Path_129" d="M335.949 497.361h-3.608a1.468 1.468 0 0 1 0-2.936h6.084v-3.362h-3.048V488.8h-3.362v2.264a4.829 4.829 0 0 0 .314 9.648h3.608a1.6 1.6 0 1 1 0 3.2h-7.765v3.362h3.843v2.275h3.362v-2.264h.56a4.964 4.964 0 0 0 .011-9.928z" class="cls-3" transform="translate(-316.138 -459.364)"/>
            </g>
        </g>
        <g id="money-2" transform="translate(-15.021 -128.6)">
            <g id="Group_69-2" transform="translate(15.019 170.1)">
                <g id="Group_68-2">
                    <path id="Path_123-2" d="M33.839 178.058l-9.432 2.83L17 176.539l15.031-4.133c.3-.092 2.152-.7 3.1-.995a1.75 1.75 0 0 1 1.114-.123c1.012.392 2.21 1.078 3.464 1.708a4.53 4.53 0 0 1 1.2-.106 4.545 4.545 0 0 1 2.28.5c.048 0 .1.009.15.018l-2.6-1.1c-1.985-.946-3.913-1.853-3.939-1.879a8.034 8.034 0 0 0-.911-.326 5.262 5.262 0 0 0-1.039.238c-2.02.691-3.019 1.008-3.081 1.021l-16.29 4.476a.539.539 0 0 0-.128.986l8.715 5.114a.541.541 0 0 0 .273.075.592.592 0 0 0 .154-.022l9.018-2.707a4.54 4.54 0 0 1 .328-1.226z" class="cls-5" transform="translate(-15.077 -170.1)"/>
                    <path id="Path_124-2" d="M28.636 353.792a4.527 4.527 0 0 1 2.1-.524 5.4 5.4 0 0 1 .541-.035l2.236-.669a4.067 4.067 0 0 1 .026-.462c-.031-.216-.057-.431-.088-.647l-9.106 2.729-8.517-4.991a.54.54 0 0 0-.546.933l8.917 5.233 3.235-.973a4.609 4.609 0 0 1 1.202-.594z" class="cls-5" transform="translate(-15.018 -341.239)"/>
                    <path id="Path_125-2" d="M25.436 403.931a4.486 4.486 0 0 1 .555-1.14l-1.642.493-8.517-4.991a.54.54 0 0 0-.546.933l8.917 5.233 1.14-.343z" class="cls-5" transform="translate(-15.018 -388.178)"/>
                    <path id="Path_126-2" d="M24.912 453.207a4.755 4.755 0 0 1 .066-1.008l-.634.189-8.512-5a.54.54 0 0 0-.546.933l8.922 5.229.726-.216z" class="cls-5" transform="translate(-15.018 -435.117)"/>
                    <path id="Path_127-2" d="M25.128 501.752l-.066-.484-.717.216-8.512-4.991a.54.54 0 0 0-.546.933l8.917 5.233 1.114-.335c-.071-.185-.133-.374-.19-.572z" class="cls-5" transform="translate(-15.018 -482.056)"/>
                </g>
            </g>
            <path id="Path_247" d="M316.286 440.143v13.143a9.348 9.348 0 0 0 6 1.571 10.09 10.09 0 0 0 5.857-2.571v-12.143a10.738 10.738 0 0 1-6.857 2.143c-3.857-.286-5-2.143-5-2.143z" class="cls-4" transform="translate(-281.979 -263.4)"/>
            <circle id="Ellipse_25" cx="6" cy="6" r="6" class="cls-4" transform="translate(25.021 182.6)"/>
            <g id="Group_70-2" transform="translate(24.309 172.565)">
                <path id="Path_128-2" d="M246.439 226.949a12.872 12.872 0 0 0-9.186 0c-1.408.621-2.183 1.514-2.183 2.513v5.691a6.825 6.825 0 0 0-2.069-.317 6.9 6.9 0 1 0 6.07 10.185 13.756 13.756 0 0 0 2.777.277 11.691 11.691 0 0 0 4.591-.845c1.408-.621 2.187-1.514 2.187-2.513v-12.482c0-.995-.779-1.888-2.187-2.509zm-8.653 1.206a11.57 11.57 0 0 1 8.116 0c.863.379 1.4.88 1.4 1.3s-.537.924-1.4 1.3a11.57 11.57 0 0 1-8.116 0c-.863-.379-1.4-.88-1.4-1.3s.537-.917 1.4-1.3zM233 247.315a5.581 5.581 0 1 1 5.581-5.581 5.588 5.588 0 0 1-5.581 5.581zm12.9-4.076a10.333 10.333 0 0 1-4.058.735 12.815 12.815 0 0 1-2.254-.2 6.813 6.813 0 0 0 .3-1.734 14.037 14.037 0 0 0 1.95.132 11.691 11.691 0 0 0 4.591-.845 5.93 5.93 0 0 0 .867-.467v1.074c0 .423-.533.924-1.4 1.3zm0-3.116a10.333 10.333 0 0 1-4.058.735 12.5 12.5 0 0 1-2.025-.158 6.8 6.8 0 0 0-.572-1.879 13.642 13.642 0 0 0 2.592.242 11.691 11.691 0 0 0 4.591-.845 5.656 5.656 0 0 0 .863-.467v1.065c.009.427-.528.924-1.391 1.307zm0-3.121a10.332 10.332 0 0 1-4.058.735 10.963 10.963 0 0 1-3.693-.585 7 7 0 0 0-1.765-1.426v-1.1a5.872 5.872 0 0 0 .863.467 12.892 12.892 0 0 0 9.181 0 5.93 5.93 0 0 0 .867-.467v1.074c0 .423-.533.924-1.4 1.3zm0-3.121a11.57 11.57 0 0 1-8.116 0c-.863-.379-1.4-.88-1.4-1.3V231.5a5.869 5.869 0 0 0 .863.467 12.892 12.892 0 0 0 9.181 0 5.654 5.654 0 0 0 .863-.467v1.074c.009.423-.528.924-1.391 1.3z" class="cls-3" transform="translate(-226.1 -226.1)"/>
                <path id="Path_129-2" d="M330.819 492.163H329.4a.577.577 0 1 1 0-1.153h2.39v-1.32h-1.2v-.89h-1.32v.889a1.9 1.9 0 0 0 .123 3.79h1.417a.629.629 0 0 1 0 1.259h-3.05v1.32h1.51v.893h1.32v-.889h.22a1.95 1.95 0 0 0 0-3.9z" class="cls-3" transform="translate(-323.037 -477.238)"/>
            </g>
        </g>
    </g>
</svg>
