<svg width="52" height="10" viewBox="0 0 52 10" fill="none" xmlns="http://www.w3.org/2000/svg">
<path d="M24.4 9.25H22.03C21.94 9.25 21.87 9.19 21.85 9.11L20.34 3.62L18 8.28C17.7 8.87 17.1 9.25 16.43 9.25H15.94C15.56 9.25 15.22 9.04 15.04 8.71L12.28 3.59L11.67 6.04C11.2 7.93 9.5 9.25 7.56 9.25H5.07C2.38 9.25 0 7.92 0 5.57V0.37C0 0.27 0.08 0.18 0.19 0.18H2.54C2.64 0.18 2.73 0.26 2.73 0.37V5.34C2.73 6.21 3.42 7.03 4.29 7.06L7.05 7.04C8.13 7.04 9.08 6.3 9.34 5.25L10.33 1.27C10.53 0.53 11.2 0 11.97 0C12.57 0 13.12 0.33 13.4 0.85L16.33 6.28L19.21 0.92C19.52 0.36 20.12 0 20.77 0C21.49 0 22.13 0.48 22.33 1.17L24.58 9C24.61 9.13 24.52 9.25 24.4 9.25Z" fill="#68A7F4"/>
<path d="M9.85995 0.149902C9.66995 0.409902 9.51995 0.719902 9.43995 1.0499L8.97995 2.8699H8.94995V0.339902C8.94995 0.229902 9.03995 0.149902 9.13995 0.149902H9.85995Z" fill="#68A7F4"/>
<path d="M51.3083 5.88696H50.3377V5.34599H50.3218C50.0354 5.79149 49.4945 6.03015 48.9137 6.03015C47.6806 6.03015 46.6624 4.99596 46.6624 3.68332C46.6624 2.28318 47.7681 1.32059 48.9376 1.32059C49.4706 1.32059 49.8604 1.47174 50.2502 1.86155V0H51.3083V5.88696ZM49.0251 5.0596C49.7411 5.0596 50.3298 4.43113 50.3298 3.67537C50.3298 2.94348 49.7649 2.29114 49.0171 2.29114C48.3489 2.29114 47.7204 2.91166 47.7204 3.64355C47.7204 4.42317 48.2932 5.0596 49.0251 5.0596Z" fill="black"/>
<path d="M46.0921 4.15266H42.6633C42.7429 4.54247 43.2281 5.05957 43.8805 5.05957C44.318 5.05957 44.684 4.88455 44.8988 4.49474H46.0125C45.7261 5.38574 44.8192 6.03012 43.8805 6.03012C42.5519 6.03012 41.5496 4.99593 41.5496 3.69125C41.5496 2.38657 42.5281 1.32056 43.8725 1.32056C45.1533 1.32056 46.1557 2.33089 46.1557 3.61965C46.1557 3.78671 46.1318 3.96173 46.0921 4.15266ZM42.6315 3.30144H45.0738C44.9704 2.66501 44.5328 2.29111 43.8725 2.29111C43.2918 2.29111 42.7985 2.62523 42.6315 3.30144Z" fill="black"/>
<path d="M40.6604 5.88696H39.6023V2.41047H39.0852V1.47174H39.6023V0H40.6604V1.47174H41.2968V2.41047H40.6604V5.88696Z" fill="black"/>
<path d="M38.4865 0.970552H37.4285V0H38.4865V0.970552ZM38.4865 5.88696H37.4285V1.47174H38.4865V5.88696Z" fill="black"/>
<path d="M36.5885 5.88693H35.5304V3.66738C35.5304 2.76843 35.2361 2.29111 34.6394 2.29111C34.3133 2.29111 33.7246 2.5059 33.7246 3.47646V5.88693H32.6665V1.47171H33.645V1.85356C33.995 1.51148 34.353 1.32056 34.8622 1.32056C35.435 1.32056 36.5885 1.67855 36.5885 3.27757V5.88693Z" fill="black"/>
<path d="M30.7121 3.77083V0H31.802V3.88221C31.802 5.45737 30.5928 6.00629 29.7018 6.00629C28.8347 6.00629 27.5857 5.48123 27.5857 3.8663V0H28.6756V3.77083C28.6756 4.56637 29.0177 4.988 29.6939 4.988C30.386 4.988 30.7121 4.5425 30.7121 3.77083Z" fill="black"/>
<path d="M51.5513 8.12222H51.2755C51.2622 8.01614 51.2012 7.94455 51.0872 7.94455C50.9811 7.94455 50.9148 8.01614 50.9148 8.101C50.9148 8.22564 51.0421 8.26276 51.188 8.30784C51.3948 8.37148 51.5857 8.49612 51.5857 8.76925C51.5857 9.05299 51.3789 9.23862 51.0925 9.23862C50.8273 9.23862 50.5728 9.05829 50.5728 8.71887H50.8485C50.8618 8.89654 50.952 8.9867 51.0978 8.9867C51.2251 8.9867 51.3099 8.90449 51.3099 8.78516C51.3099 8.68439 51.233 8.6181 51.0607 8.56241C50.7 8.44838 50.639 8.29193 50.639 8.12487C50.639 7.86499 50.8591 7.69263 51.1005 7.69263C51.3444 7.69263 51.5433 7.86234 51.5513 8.12222Z" fill="black"/>
<path d="M50.2693 9.20158H49.9936V7.98441H49.7947V7.73249H49.9936V7.23926H50.2693V7.73249H50.5107V7.98441H50.2693V9.20158Z" fill="black"/>
<path d="M48.4621 8.37413H49.4114C49.3902 8.12487 49.1701 7.94455 48.9341 7.94455C48.7087 7.94455 48.4833 8.12222 48.4621 8.37413ZM49.6792 8.58628H48.4621C48.5257 8.83024 48.7193 8.9867 48.9447 8.9867C49.1171 8.9867 49.2788 8.89654 49.3637 8.74008H49.6395C49.5254 9.04238 49.2496 9.23862 48.9341 9.23862C48.5204 9.23862 48.1863 8.87267 48.1863 8.48021C48.1863 8.01614 48.5363 7.69263 48.9261 7.69263C49.3584 7.69263 49.6872 8.02675 49.6872 8.44838C49.6872 8.49347 49.6872 8.53589 49.6792 8.58628Z" fill="black"/>
<path d="M47.2343 9.20158H46.9585V7.23926H47.2343V9.20158ZM48.173 9.20158H47.8283L47.2396 8.44051L47.762 7.73249H48.0882L47.5551 8.4246L48.173 9.20158Z" fill="black"/>
<path d="M46.3065 9.20149H46.0308V7.7324H46.288V7.86499H46.2933C46.3596 7.76688 46.4736 7.70323 46.6672 7.69263V7.97637C46.4285 7.98432 46.3065 8.13017 46.3065 8.37679V9.20149Z" fill="black"/>
<path d="M44.8922 8.9867C45.1786 8.9867 45.404 8.74804 45.404 8.4696C45.404 8.18321 45.1972 7.94455 44.8922 7.94455C44.6164 7.94455 44.391 8.18055 44.391 8.4696C44.391 8.74538 44.6164 8.9867 44.8922 8.9867ZM45.6745 9.20149H45.3987V8.97344H45.3934C45.29 9.14846 45.1043 9.23862 44.8949 9.23862C44.4653 9.23862 44.1152 8.9151 44.1152 8.49081C44.1152 8.02145 44.452 7.69263 44.8843 7.69263C45.099 7.69263 45.2794 7.77218 45.3934 7.93924H45.3987V7.7324H45.6745V9.20149Z" fill="black"/>
<path d="M43.8192 9.20158H43.5328V7.54421H43.5248L42.8646 9.20158H42.6922L42.0292 7.54421H42.0239V9.20158H41.7375V7.23926H42.1884L42.777 8.74282L43.3684 7.23926H43.8192V9.20158Z" fill="black"/>
</svg>
