<svg width="199" height="49" viewBox="0 0 199 49" fill="none" xmlns="http://www.w3.org/2000/svg">
<path d="M52.2002 17.2892H72.312V21.0416H64.4035V42.1358H60.0551V21.0416H52.1826V17.2892H52.2002ZM71.4534 24.1451H75.1706V27.6173H75.2408C75.3743 27.1039 75.6066 26.6214 75.9247 26.1968C76.2676 25.722 76.6747 25.2971 77.1345 24.9343C77.6138 24.5509 78.1453 24.2378 78.7131 24.0046C79.2761 23.7775 79.8768 23.6587 80.4839 23.6543C80.9395 23.6543 81.2732 23.6719 81.4488 23.6894C81.6244 23.707 81.7991 23.7421 81.9922 23.7597V27.5822C81.7149 27.5295 81.4312 27.4944 81.1327 27.4593C80.8475 27.4248 80.5605 27.4072 80.2732 27.4066C79.6206 27.4065 78.9754 27.5438 78.3795 27.8096C77.7834 28.0804 77.2559 28.4819 76.836 28.9842C76.3691 29.5566 76.0124 30.2106 75.7843 30.9131C75.5112 31.7686 75.381 32.6632 75.3989 33.561V42.1183H71.4358V24.1451H71.4534ZM100.21 42.1358H96.3175V39.6284H96.2473C95.7482 40.5486 94.9928 41.3041 94.0726 41.8031C93.1794 42.33 92.164 42.6141 91.1271 42.6275C88.7602 42.6275 87.0412 42.0489 85.9894 40.8715C84.9377 39.694 84.4109 37.926 84.4109 35.5582V24.1451H88.3739V35.1746C88.2539 36.3654 88.5788 37.5585 89.2861 38.524C89.6156 38.8591 90.0129 39.1201 90.4514 39.2894C90.8898 39.4586 91.3594 39.5323 91.8286 39.5055C92.5441 39.5318 93.2566 39.4003 93.9155 39.1201C94.4434 38.8909 94.907 38.5358 95.2658 38.0859C95.6267 37.6326 95.8841 37.1058 96.0199 36.5425C96.1797 35.9062 96.2564 35.252 96.2482 34.5961V24.1626H100.211L100.21 42.1358ZM106.957 36.3669C106.968 36.8481 107.094 37.3197 107.322 37.7433C107.551 38.1669 107.876 38.5304 108.272 38.804C109.109 39.2838 110.061 39.5264 111.025 39.5055C111.448 39.4989 111.869 39.4696 112.288 39.4177C112.745 39.3651 113.193 39.2532 113.621 39.085C114.02 38.9351 114.375 38.6879 114.655 38.3659C114.929 38.0186 115.062 37.5798 115.025 37.1386C115.023 36.9035 114.972 36.6714 114.875 36.4571C114.778 36.2428 114.638 36.0509 114.464 35.8937C114.076 35.5452 113.623 35.2769 113.131 35.1044C112.524 34.8905 111.903 34.7206 111.272 34.5961C110.571 34.4556 109.869 34.2976 109.147 34.1404C108.423 33.9812 107.709 33.7822 107.007 33.5443C106.347 33.3284 105.725 33.0087 105.166 32.597C104.619 32.206 104.175 31.6885 103.872 31.0887C103.52 30.3821 103.351 29.5984 103.381 28.8096C103.354 27.9357 103.606 27.0758 104.1 26.3549C104.576 25.6951 105.193 25.1501 105.906 24.7597C106.669 24.3487 107.491 24.0588 108.343 23.9001C109.188 23.7443 110.045 23.662 110.903 23.6543C111.8 23.6534 112.694 23.7535 113.569 23.9528C114.387 24.1315 115.165 24.4582 115.866 24.9168C116.549 25.3608 117.129 25.9468 117.566 26.6349C118.044 27.4116 118.338 28.2873 118.426 29.195H114.29C114.246 28.7951 114.106 28.4119 113.88 28.0787C113.655 27.7456 113.351 27.4727 112.996 27.2837C112.26 26.9431 111.457 26.7753 110.647 26.7929C110.312 26.7937 109.979 26.8172 109.647 26.8632C109.277 26.9136 108.913 27.0019 108.561 27.1266C108.236 27.2482 107.943 27.4397 107.701 27.6876C107.463 27.9506 107.337 28.2967 107.351 28.6515C107.344 28.8727 107.385 29.0927 107.473 29.2958C107.561 29.4989 107.693 29.6801 107.859 29.8262C108.249 30.1544 108.694 30.4098 109.174 30.5804C109.781 30.7943 110.402 30.9641 111.033 31.0887C111.734 31.2292 112.453 31.3872 113.19 31.5443C113.909 31.7024 114.61 31.914 115.316 32.1404C115.983 32.3525 116.611 32.6725 117.174 33.0878C117.715 33.4845 118.163 33.9929 118.489 34.5785C118.846 35.2653 119.021 36.0316 118.998 36.805C119.026 37.7642 118.769 38.7103 118.258 39.5231C117.772 40.2608 117.125 40.8783 116.365 41.329C115.558 41.802 114.683 42.1451 113.769 42.3456C112.843 42.5533 111.896 42.659 110.946 42.6608C109.881 42.6732 108.82 42.5436 107.79 42.2754C106.891 42.0443 106.041 41.6522 105.282 41.1183C104.588 40.603 104.02 39.9377 103.619 39.1719C103.197 38.3081 102.976 37.3603 102.972 36.3992H106.97L106.957 36.3669ZM120.037 24.1451H123.036V18.7449H126.999V24.1451H130.575V27.1081H126.999V36.7199C126.996 37.0829 127.014 37.4458 127.051 37.8068C127.08 38.0781 127.163 38.3408 127.297 38.5785C127.43 38.7976 127.635 38.9645 127.876 39.0517C128.213 39.1705 128.57 39.2241 128.927 39.2098C129.205 39.2098 129.488 39.2098 129.769 39.1922C130.053 39.1771 130.335 39.1359 130.611 39.0693V42.1377C130.173 42.1903 129.734 42.2255 129.331 42.2781C128.907 42.3282 128.479 42.3517 128.051 42.3484C127.2 42.3706 126.349 42.2701 125.526 42.0499C124.96 41.8963 124.445 41.5934 124.036 41.1728C123.664 40.7689 123.409 40.272 123.296 39.7347C123.159 39.0826 123.083 38.4193 123.068 37.7532V27.1432H120.07V24.1451H120.037ZM133.381 24.1451H137.134V26.5822H137.204C137.704 25.5917 138.527 24.8005 139.536 24.3382C140.554 23.8769 141.661 23.6435 142.78 23.6543C144.053 23.622 145.317 23.8799 146.476 24.4085C147.501 24.878 148.402 25.5806 149.107 26.4602C149.818 27.3672 150.348 28.4027 150.668 29.5101C151.025 30.7166 151.202 31.9691 151.194 33.2273C151.197 34.4123 151.038 35.5922 150.72 36.7338C150.431 37.8157 149.95 38.8371 149.3 39.7495C148.666 40.623 147.838 41.3374 146.88 41.8364C145.813 42.3841 144.625 42.6554 143.426 42.6257C142.844 42.6252 142.263 42.5723 141.69 42.4676C141.118 42.3621 140.56 42.1915 140.026 41.9593C139.495 41.7334 138.999 41.4321 138.553 41.0646C138.111 40.7048 137.726 40.279 137.414 39.8022H137.343V48.78H133.38L133.381 24.1451ZM147.233 33.158C147.234 32.3585 147.128 31.5624 146.917 30.7911C146.724 30.0628 146.404 29.3744 145.971 28.7578C145.562 28.1749 145.029 27.6898 144.41 27.3373C143.434 26.8295 142.314 26.6709 141.236 26.8878C140.158 27.1047 139.186 27.684 138.483 28.5295C137.58 29.8989 137.138 31.5207 137.22 33.1589C137.21 34.0122 137.322 34.8626 137.553 35.6839C137.749 36.4102 138.089 37.0899 138.552 37.683C138.976 38.2317 139.515 38.6806 140.131 38.9981C140.825 39.3327 141.587 39.5006 142.357 39.4884C143.127 39.4762 143.884 39.2843 144.567 38.9279C145.181 38.5675 145.708 38.0766 146.11 37.4898C146.525 36.8776 146.822 36.1939 146.988 35.4732C147.149 34.7135 147.231 33.9392 147.233 33.1626V33.158ZM154.23 17.2892H158.193V21.0416H154.23V17.2892ZM154.23 24.1451H158.193V42.1358H154.23V24.1451ZM161.734 17.2892H165.697V42.1358H161.734V17.2892ZM177.849 42.6266C176.534 42.6471 175.228 42.4026 174.009 41.9075C172.922 41.4675 171.945 40.7955 171.145 39.9384C170.346 39.0812 169.743 38.0598 169.379 36.9454C168.962 35.7147 168.754 34.4225 168.766 33.1229C168.755 31.8342 168.963 30.5531 169.379 29.3336C169.758 28.2233 170.361 27.2028 171.15 26.3355C171.95 25.4815 172.925 24.8114 174.009 24.3715C176.479 23.4129 179.219 23.4129 181.689 24.3715C182.776 24.8115 183.753 25.4836 184.552 26.3407C185.352 27.1978 185.955 28.2192 186.318 29.3336C186.735 30.5531 186.942 31.8342 186.932 33.1229C186.944 34.4225 186.736 35.7147 186.318 36.9454C185.94 38.0557 185.337 39.0762 184.548 39.9436C183.748 40.7974 182.773 41.4675 181.69 41.9075C180.472 42.4022 179.167 42.6468 177.853 42.6266H177.849ZM177.849 39.4842C178.65 39.5008 179.442 39.3074 180.146 38.9233C180.779 38.5631 181.325 38.0658 181.742 37.4676C182.166 36.8483 182.481 36.1605 182.671 35.4343C183.069 33.9228 183.069 32.3341 182.671 30.8225C182.492 30.0925 182.176 29.4028 181.742 28.7892C181.324 28.1963 180.779 27.7048 180.146 27.3512C179.436 26.9825 178.648 26.79 177.848 26.79C177.049 26.79 176.261 26.9825 175.551 27.3512C174.922 27.7101 174.378 28.2007 173.955 28.7892C173.528 29.4067 173.213 30.0951 173.025 30.8225C172.628 32.3341 172.628 33.9228 173.025 35.4343C173.209 36.1632 173.524 36.8523 173.955 37.4676C174.372 38.0658 174.917 38.5631 175.551 38.9233C176.253 39.3174 177.048 39.5127 177.853 39.4879L177.849 39.4842ZM188.089 24.1423H191.092V18.7421H195.055V24.1423H198.632V27.1053H195.055V36.7172C195.052 37.0801 195.07 37.443 195.108 37.804C195.136 38.0753 195.22 38.338 195.354 38.5757C195.487 38.7949 195.691 38.9618 195.932 39.0489C196.27 39.1677 196.626 39.2213 196.984 39.207C197.261 39.207 197.545 39.207 197.826 39.1894C198.11 39.1743 198.391 39.1332 198.668 39.0665V42.1349C198.23 42.1876 197.791 42.2227 197.388 42.2754C196.963 42.3255 196.535 42.3489 196.108 42.3456C195.256 42.3678 194.406 42.2673 193.583 42.0471C193.016 41.8935 192.501 41.5906 192.092 41.17C191.72 40.7661 191.465 40.2692 191.353 39.7319C191.216 39.0799 191.139 38.4165 191.124 37.7504V27.1432H188.126V24.1451L188.089 24.1423Z" fill="white"/>
<path d="M47.5711 17.2893H29.4057L23.7948 0L18.1664 17.2893L0 17.2717L14.7116 27.9676L9.08318 45.2394L23.7948 34.561L38.4898 45.2394L32.8771 27.9676L47.5711 17.2893Z" fill="#00B67A"/>
<path d="M34.1406 31.8779L32.8781 27.9676L23.7949 34.5609L34.1406 31.8779Z" fill="#005128"/>
</svg>
