<svg id="b4196b83-248b-4d7d-a084-a0dc8412b3a6" data-name="Layer 11" xmlns="http://www.w3.org/2000/svg" xmlns:xlink="http://www.w3.org/1999/xlink" width="260" height="111" viewBox="0 0 260 111"><defs><mask id="b281356f-9e4a-4e2f-8a60-2c50843f2c2b" x="39.6" y="39.863" width="62.381" height="48.726" maskUnits="userSpaceOnUse"><g id="ecbbd080-0a56-4bdd-a1ac-dc5bffc0ce3f" data-name="mask-2"><polygon id="a67d720d-7c6e-4f72-a357-abce050f1cd5" data-name="path-1" points="39.6 88.589 101.982 88.589 101.982 39.863 39.6 39.863 39.6 88.589" fill="#fff" fill-rule="evenodd"/></g></mask></defs><title>mastercardArtboard 2</title><g id="be9fae1a-cf76-400a-b415-becf5f649cdc" data-name="Symbols"><g id="b84dc22d-2eb8-4ae0-acdd-48fbe6689ac1" data-name="mastercard-logo"><path id="fa6c8f02-f814-445b-ac40-da28438de3be" data-name="Fill-1" d="M124.23,62.617v-5.9a3.491,3.491,0,0,0-3.682-3.736,3.616,3.616,0,0,0-3.292,1.671,3.435,3.435,0,0,0-3.093-1.671,3.1,3.1,0,0,0-2.745,1.394V53.218H109.38v9.4h2.057V57.405a2.2,2.2,0,0,1,2.293-2.5c1.352,0,2.035.886,2.035,2.479v5.231h2.061V57.405a2.212,2.212,0,0,1,2.289-2.5c1.392,0,2.058.886,2.058,2.479v5.231Zm30.44-9.4h-3.329V50.366h-2.057v2.852h-1.9v1.866h1.9v4.29c0,2.18.841,3.479,3.248,3.479a4.769,4.769,0,0,0,2.55-.727l-.588-1.752a3.754,3.754,0,0,1-1.8.531c-1.018,0-1.349-.627-1.349-1.571v-4.25h3.329Zm17.375-.236a2.749,2.749,0,0,0-2.466,1.376v-1.14h-2.02v9.4H169.6V57.349c0-1.556.665-2.423,1.995-2.423a3.251,3.251,0,0,1,1.275.239l.628-1.929a4.35,4.35,0,0,0-1.451-.254Zm-26.27.981a7,7,0,0,0-3.817-.981c-2.373,0-3.9,1.14-3.9,3.009,0,1.532,1.136,2.479,3.23,2.771l.962.14c1.117.155,1.643.45,1.643.984,0,.724-.742,1.14-2.131,1.14a4.974,4.974,0,0,1-3.116-.984l-.959,1.593a6.751,6.751,0,0,0,4.053,1.218c2.7,0,4.273-1.277,4.273-3.069,0-1.649-1.235-2.516-3.274-2.811l-.959-.14c-.882-.115-1.587-.292-1.587-.922,0-.687.665-1.1,1.782-1.1a6.027,6.027,0,0,1,2.921.8Zm54.575-.981a2.757,2.757,0,0,0-2.468,1.376v-1.14h-2.018v9.4H197.9V57.349c0-1.556.665-2.423,2-2.423a3.274,3.274,0,0,1,1.277.239l.625-1.929a4.329,4.329,0,0,0-1.451-.254ZM174.1,57.917a4.739,4.739,0,0,0,5,4.936,4.888,4.888,0,0,0,3.369-1.122l-.981-1.649a4.106,4.106,0,0,1-2.45.845,3.017,3.017,0,0,1,0-6.02,4.09,4.09,0,0,1,2.45.848l.981-1.652a4.887,4.887,0,0,0-3.369-1.121,4.739,4.739,0,0,0-5,4.935Zm19.08,0v-4.7h-2.039v1.14a3.545,3.545,0,0,0-2.958-1.376,4.942,4.942,0,0,0,0,9.871,3.545,3.545,0,0,0,2.958-1.376v1.14h2.039Zm-7.583,0a2.838,2.838,0,1,1,2.84,3.01,2.818,2.818,0,0,1-2.84-3.01Zm-24.58-4.935a4.585,4.585,0,0,0-4.666,4.935,4.629,4.629,0,0,0,4.8,4.936,5.675,5.675,0,0,0,3.839-1.317l-1-1.513a4.476,4.476,0,0,1-2.726.982,2.6,2.6,0,0,1-2.8-2.3h6.952c.019-.255.04-.512.04-.786-.021-2.932-1.822-4.935-4.445-4.935Zm-.041,1.829a2.33,2.33,0,0,1,2.37,2.28h-4.86a2.417,2.417,0,0,1,2.49-2.28Zm51.107,3.106V49.441H210.05v4.917a3.552,3.552,0,0,0-2.958-1.376,4.942,4.942,0,0,0,0,9.871,3.552,3.552,0,0,0,2.958-1.376v1.14h2.035Zm-7.58,0a2.835,2.835,0,1,1,2.841,3.01,2.816,2.816,0,0,1-2.841-3.01Zm-68.8,0v-4.7h-2.036v1.14a3.549,3.549,0,0,0-2.957-1.376,4.942,4.942,0,0,0,0,9.871,3.549,3.549,0,0,0,2.957-1.376v1.14h2.036Zm-7.58,0a2.835,2.835,0,1,1,2.84,3.01,2.816,2.816,0,0,1-2.84-3.01Zm87.354,3.339a.951.951,0,0,1,.368.072.989.989,0,0,1,.3.2.968.968,0,0,1,.2.3.956.956,0,0,1,0,.723,1.064,1.064,0,0,1-.2.3.943.943,0,0,1-.3.2.9.9,0,0,1-.368.075.929.929,0,0,1-.374-.075.853.853,0,0,1-.3-.2,1.024,1.024,0,0,1-.2-.3.922.922,0,0,1,.2-1.021.889.889,0,0,1,.3-.2.981.981,0,0,1,.374-.072Zm0,1.662a.7.7,0,0,0,.279-.056.761.761,0,0,0,.229-.158.7.7,0,0,0,.154-.23.8.8,0,0,0,.056-.286.784.784,0,0,0-.056-.283.7.7,0,0,0-.662-.441.772.772,0,0,0-.284.053.712.712,0,0,0-.387.388.675.675,0,0,0-.056.283.686.686,0,0,0,.056.286.663.663,0,0,0,.155.23.712.712,0,0,0,.516.214Zm.053-1.165a.39.39,0,0,1,.257.075.245.245,0,0,1,.092.2.232.232,0,0,1-.074.177.359.359,0,0,1-.2.087l.279.326h-.22l-.263-.326h-.084v.326h-.185v-.867Zm-.214.162v.233h.214a.2.2,0,0,0,.114-.031.1.1,0,0,0,.044-.087.091.091,0,0,0-.044-.084.176.176,0,0,0-.114-.031Z" fill="#231f20" fill-rule="evenodd"/><path id="b126b614-c5c1-400f-b0d0-39e6730a8019" data-name="Fill-3" d="M100.155,71.218v-.624h.249v-.126h-.636v.126h.25v.624Zm1.237,0v-.751H101.2l-.227.514-.223-.514h-.2v.751h.139v-.566l.21.487h.144l.211-.489v.568Z" fill="#f79410" fill-rule="evenodd"/><g mask="url(#b281356f-9e4a-4e2f-8a60-2c50843f2c2b)"><polygon id="b9de606b-536d-4e20-a425-25e793a59749" data-name="Fill-5" points="58.755 68.595 73.806 68.595 73.806 43.967 58.755 43.967 58.755 68.595" fill="#ff5f00" fill-rule="evenodd"/></g><g mask="url(#b281356f-9e4a-4e2f-8a60-2c50843f2c2b)"><path id="bd6ed5db-4350-4fd3-9c23-24de19abeb0a" data-name="Fill-7" d="M59.459,56.281A16.521,16.521,0,0,1,65.6,43.374a15.782,15.782,0,0,0-9.93-3.511,16.422,16.422,0,0,0,0,32.837,15.787,15.787,0,0,0,9.93-3.51,16.526,16.526,0,0,1-6.137-12.909" fill="#eb001b" fill-rule="evenodd"/></g><g mask="url(#b281356f-9e4a-4e2f-8a60-2c50843f2c2b)"><path id="a00de197-0b1a-4dc6-96da-bb7b4c0d58b1" data-name="Fill-8" d="M92.961,56.281A16.672,16.672,0,0,1,76.05,72.7,17.172,17.172,0,0,1,65.6,69.19a16.125,16.125,0,0,0,0-25.816A17.167,17.167,0,0,1,76.05,39.863,16.671,16.671,0,0,1,92.961,56.281" fill="#f79e1b" fill-rule="evenodd"/></g></g></g></svg>