<svg id="b0f519aa-e93b-4a04-88a1-50838dfed475" data-name="Layer 9" xmlns="http://www.w3.org/2000/svg" xmlns:xlink="http://www.w3.org/1999/xlink" width="260" height="111" viewBox="0 0 260 111"><defs><mask id="fa4026b9-a065-4570-929f-4fa4ad822f5a" x="48.888" y="39.232" width="163.482" height="28.331" maskUnits="userSpaceOnUse"><g id="fc1fadc8-ac36-472b-850f-fba0744a874c" data-name="mask-2"><polygon id="b9058c19-aea2-404c-85dd-0154d60286c9" data-name="path-1" points="48.888 39.232 212.37 39.232 212.37 67.562 48.888 67.562 48.888 39.232" fill="#fff" fill-rule="evenodd"/></g></mask></defs><title>netellerArtboard 2</title><g id="f0a07d8f-5228-4ab9-a6ca-cc79f67e2fab" data-name="Symbols"><g id="b22d2c3f-99ab-4b37-8863-6dd0cd426d4a" data-name="neteller-logo"><g mask="url(#fa4026b9-a065-4570-929f-4fa4ad822f5a)"><path id="a62832d7-dcd0-4e84-a651-2adef53f27b2" data-name="Fill-1" d="M201.754,51.6a7.147,7.147,0,0,1-4.128.97H195.8l1.405-7.6h1.346a6.258,6.258,0,0,1,3.421.747,2.976,2.976,0,0,1,1.318,2.649,3.729,3.729,0,0,1-1.535,3.235ZM92.535,61.139H78.369l.916-4.971H88.17l1.008-5.6h-8.8l.847-4.917H95.37L92.533,61.139ZM209.382,41.385c-2.083-1.432-5.236-2.153-9.369-2.153H189.189l-4.022,21.907H170.988l.911-4.971h8.539l1.013-5.584-8.536.013.913-4.947h8.8l1.172-6.418H165.929l-3.818,20.781h-6.558L159.4,39.232h-9.34L146.241,60.01h-6.387L143.7,39.232h-9.332l-4.03,21.907H116.056l.9-4.971h8.574l1.014-5.55-8.567-.011.908-4.957h8.9l1.165-6.418H73.274L70.1,56.589l-6.31-17.357H54.1l-5.215,28.33h9.253L61.3,49.725l6.123,17.837h33.166l4.035-21.915h5.185l-4.031,21.915h87.266l2.531-13.831,4.094,13.831h9.258l-4.24-11.3.967-.21a8.291,8.291,0,0,0,4.967-2.923,9.075,9.075,0,0,0,1.75-5.712,6.779,6.779,0,0,0-2.991-6.031Z" fill="#83ba3b" fill-rule="evenodd"/></g></g></g></svg>