<svg width="43" height="51" viewBox="0 0 43 51" fill="none" xmlns="http://www.w3.org/2000/svg">
<path d="M6.07312 41.9275C8.2375 41.9275 9.99207 40.1729 9.99207 38.0085C9.99207 35.8442 8.2375 34.0896 6.07312 34.0896C3.90875 34.0896 2.15417 35.8442 2.15417 38.0085C2.15417 40.1729 3.90875 41.9275 6.07312 41.9275Z" fill="#1ABC9C"/>
<path d="M9.29418 42.7864C8.38154 43.4306 7.25418 43.8064 6.01944 43.8064C4.83839 43.8064 3.71102 43.4306 2.79839 42.7864C1.50996 43.3769 0.597333 44.6116 0.436281 46.0611L0.00680677 49.4969C-0.0468774 49.9264 0.221543 50.3559 0.651017 50.4632C2.31523 50.839 4.14049 51.0001 6.01944 51.0001C7.89839 51.0001 9.66997 50.7853 11.3879 50.4632C11.8173 50.3559 12.0858 49.9264 12.0321 49.4969L11.6026 46.0611C11.4952 44.6116 10.5826 43.4306 9.29418 42.7864Z" fill="#1ABC9C"/>
<path d="M36.9415 41.9275C39.1059 41.9275 40.8605 40.1729 40.8605 38.0085C40.8605 35.8442 39.1059 34.0896 36.9415 34.0896C34.7772 34.0896 33.0226 35.8442 33.0226 38.0085C33.0226 40.1729 34.7772 41.9275 36.9415 41.9275Z" fill="#1ABC9C"/>
<path d="M42.5247 46.0611C42.3636 44.6116 41.3973 43.3769 40.1626 42.7864C39.2499 43.4306 38.1226 43.8064 36.8878 43.8064C35.7068 43.8064 34.5794 43.4306 33.6668 42.7864C32.3783 43.3769 31.4657 44.6116 31.3047 46.0611L30.8752 49.4969C30.8215 49.9264 31.0899 50.3559 31.5194 50.4632C33.1836 50.839 35.0089 51.0001 36.8878 51.0001C38.7668 51.0001 40.5383 50.7853 42.2562 50.4632C42.6857 50.3559 42.9541 49.9264 42.9004 49.4969L42.5247 46.0611Z" fill="#1ABC9C"/>
<path d="M6.01939 32.1569C6.60992 32.1569 7.09308 31.6738 7.09308 31.0832V25.9832H20.4068V31.0832C20.4068 31.6738 20.8899 32.1569 21.4804 32.1569C22.071 32.1569 22.5541 31.6738 22.5541 31.0832V25.9832H35.8141V31.0832C35.8141 31.6738 36.2973 32.1569 36.8878 32.1569C37.4783 32.1569 37.9615 31.6738 37.9615 31.0832V24.8559C37.9615 24.2653 37.4783 23.7822 36.8878 23.7822H22.5541V18.7896C22.1783 18.7896 21.8562 18.7896 21.4804 18.7896C21.1047 18.7896 20.7289 18.7896 20.4068 18.7896V23.7822H6.01939C5.42887 23.7822 4.94571 24.2653 4.94571 24.8559V31.0832C4.94571 31.6738 5.42887 32.1569 6.01939 32.1569Z" fill="#D0DAE5"/>
<path d="M21.4805 7.83789C23.6448 7.83789 25.3994 6.08332 25.3994 3.91895C25.3994 1.75457 23.6448 0 21.4805 0C19.3161 0 17.5615 1.75457 17.5615 3.91895C17.5615 6.08332 19.3161 7.83789 21.4805 7.83789Z" fill="#1ABC9C"/>
<path d="M16.112 16.3736C17.7763 16.7494 19.6015 16.9105 21.4805 16.9105C23.3594 16.9105 25.131 16.6957 26.8489 16.3736C27.2784 16.2662 27.5468 15.8368 27.4931 15.4073L27.0636 11.9715C26.9026 10.522 25.9363 9.2873 24.7015 8.69678C23.7889 9.34099 22.6615 9.71678 21.4268 9.71678C20.2457 9.71678 19.1184 9.34099 18.2057 8.69678C16.9173 9.2873 16.0047 10.522 15.8436 11.9715L15.4142 15.4073C15.4142 15.8368 15.6826 16.2662 16.112 16.3736Z" fill="#1ABC9C"/>
<path d="M21.4805 41.9275C23.6448 41.9275 25.3994 40.1729 25.3994 38.0085C25.3994 35.8442 23.6448 34.0896 21.4805 34.0896C19.3161 34.0896 17.5615 35.8442 17.5615 38.0085C17.5615 40.1729 19.3161 41.9275 21.4805 41.9275Z" fill="#D0DAE5"/>
<path d="M24.7552 42.7864C23.8426 43.4306 22.7152 43.8064 21.4805 43.8064C20.2994 43.8064 19.172 43.4306 18.2594 42.7864C16.971 43.3769 16.0583 44.6116 15.8973 46.0611L15.4678 49.4969C15.4141 49.9264 15.6826 50.3559 16.112 50.4632C17.7762 50.839 19.6015 51.0001 21.4805 51.0001C23.3594 51.0001 25.131 50.7853 26.8489 50.4632C27.2783 50.3559 27.5468 49.9264 27.4931 49.4969L27.0636 46.0611C26.9026 44.6116 25.9899 43.4306 24.7552 42.7864Z" fill="#D0DAE5"/>
</svg>
