<svg width="40" height="40" viewBox="0 0 40 40" fill="none" xmlns="http://www.w3.org/2000/svg">
<path d="M20 20C23.6833 20 26.6667 17.0166 26.6667 13.3333C26.6667 9.64996 23.6833 6.66663 20 6.66663C16.3167 6.66663 13.3333 9.64996 13.3333 13.3333C13.3333 17.0166 16.3167 20 20 20ZM20 23.3333C15.55 23.3333 6.66666 25.5666 6.66666 30V33.3333H33.3333V30C33.3333 25.5666 24.45 23.3333 20 23.3333Z" fill="#C2C9D1"/>
<path d="M20 20C23.6833 20 26.6667 17.0166 26.6667 13.3333C26.6667 9.64996 23.6833 6.66663 20 6.66663C16.3167 6.66663 13.3333 9.64996 13.3333 13.3333C13.3333 17.0166 16.3167 20 20 20ZM20 23.3333C15.55 23.3333 6.66666 25.5666 6.66666 30V33.3333H33.3333V30C33.3333 25.5666 24.45 23.3333 20 23.3333Z" fill="#1ABC9C"/>
</svg>
