<svg xmlns="http://www.w3.org/2000/svg" width="156.785" height="39.885">
    <defs>
        <clipPath id="clip-path">
            <path id="Clip_34" data-name="Clip 34" class="cls-1" d="M0 0h5.8v11.339H0z" transform="translate(.18 .2)"/>
        </clipPath>
        <style>
            .cls-1{fill:#b8c1cb}
        </style>
    </defs>
    <g id="Group_38" data-name="Group 38">
        <path id="Fill_1" data-name="Fill 1" class="cls-1" d="M0 0c3.092.044 6.18-.044 9.272.048 2.988.064 6.176 1.612 7.32 4.52 1.176 3.176.756 7.316-2.064 9.512a11.126 11.126 0 0 1-7.216 1.984c-.012-1.54-.012-3.076-.012-4.616 1.408-.084 3.092-.276 3.864-1.632.764-1.436.616-3.592-.848-4.536-1.42-.956-3.212-.692-4.828-.728q.012 9.12 0 18.248c-1.824.008-3.652 0-5.48.008C-.007 15.2 0 7.6 0 0" transform="translate(24.931)"/>
        <path id="Fill_3" data-name="Fill 3" class="cls-1" d="M7.508.016c2.132-.024 4.268 0 6.4-.016 2.464 7.6 5.056 15.164 7.492 22.78-1.88-.012-3.76 0-5.644-.008-.34-1.16-.72-2.308-1.1-3.452-2.044-.012-4.084-.008-6.128-.008.464-1.52.8-3.084 1.368-4.572a20.3 20.3 0 0 1 3.272-.076c-.82-2.688-1.7-5.352-2.552-8.028-1.648 5.4-3.388 10.764-5.116 16.14-1.836 0-3.672-.008-5.5.008C2.512 15.2 5.068 7.624 7.508.016" transform="translate(2.82 .032)"/>
        <path id="Fill_5" data-name="Fill 5" class="cls-1" d="M5.268 11.044A42.804 42.804 0 0 1 4.8 8.592h-.51c-.571 0-1.246 0-1.93.011-.106.689-.215 1.438-.352 2.428H0c.568-2.373 1.105-4.788 1.625-7.124C1.909 2.627 2.2 1.3 2.5 0h.134c.654 0 1.395.008 2.151.016.31 1.693.711 3.4 1.1 5.043.457 1.945.93 3.957 1.257 5.964-.619 0-1.244.012-1.847.019h-.027zm-1.74-9.063c-.218 1.619-.462 3.35-.82 5.051l.9.006h.006l.9.006c-.116-.59-.227-1.191-.335-1.772a80.303 80.303 0 0 0-.651-3.291z" transform="translate(57.476 8.24)"/>
        <path id="Fill_7" data-name="Fill 7" class="cls-1" d="M.952.8A2.827 2.827 0 0 1 4.3.341a3.7 3.7 0 0 1 1.424 2.128l-1.264.512c-.44-.612-.784-1.516-1.716-1.332a1.4 1.4 0 0 0-.052 2.292C3.788 5.009 5.4 5.8 5.7 7.441c.428 1.676-.556 3.924-2.524 3.86C1.5 11.525.356 10.037 0 8.577l1.524-.288c.412.44.572 1.364 1.3 1.348 1.1.264 1.364-1.272.9-1.984C2.912 6.385 1.324 5.841.588 4.5A3.186 3.186 0 0 1 .952.8" transform="translate(64.98 8.099)"/>
        <path id="Fill_9" data-name="Fill 9" class="cls-1" d="M1.376 5.48C-.528 4.068-.052.172 2.612.04c1.6-.292 2.732 1.068 3.168 2.436L4.464 3a2.14 2.14 0 0 0-1.872-1.38L1.94 2.74c.66 1.836 2.872 2.36 3.6 4.136a4.846 4.846 0 0 1 .008 2.832A2.8 2.8 0 0 1 1.3 10.772 4.568 4.568 0 0 1 0 8.592c.512-.092 1.028-.18 1.544-.268.38.944 1.656 2.1 2.34.752.456-1.768-1.472-2.592-2.508-3.6" transform="translate(71.216 8.08)"/>
        <path id="Fill_11" data-name="Fill 11" class="cls-1" d="M3.032 11.335A2.8 2.8 0 0 1 .25 9.545 17.917 17.917 0 0 1 .019 5.39C.033 4.755.048 4.1.03 3.458A3.177 3.177 0 0 1 1.582.313 3.367 3.367 0 0 1 3.02 0a2.91 2.91 0 0 1 3.042 2.326 52 52 0 0 1 0 6.7 2.882 2.882 0 0 1-3.03 2.309zm.022-9.61A.916.916 0 0 0 2.362 2l-.252.22a37.156 37.156 0 0 0-.086 6.314l.007.158a.835.835 0 0 0 .218.64 1.118 1.118 0 0 0 .818.317 1.121 1.121 0 0 0 .826-.323.835.835 0 0 0 .213-.647 47.074 47.074 0 0 0 0-6 .747.747 0 0 0-.19-.6 1.177 1.177 0 0 0-.862-.353z" transform="translate(77.91 8.083)"/>
        <path id="Fill_13" data-name="Fill 13" class="cls-1" d="M.054 2.643A2.811 2.811 0 0 1 2.982.011c1.508-.072 2.456 1.352 2.68 2.684-.352.064-1.056.2-1.408.26-.316-.932-1.464-1.848-2.124-.66a48.207 48.207 0 0 0-.112 5.988 1.164 1.164 0 0 0 1.424 1.36A12.509 12.509 0 0 0 4.2 8.335c.5.08 1 .164 1.5.248-.224 1.224-.9 2.664-2.344 2.7A2.814 2.814 0 0 1 .042 8.667c-.048-2.008-.068-4.016.012-6.024" transform="translate(85.202 8.097)"/>
        <path id="Fill_15" data-name="Fill 15" class="cls-1" d="M0 .012 1.9 0q.012 5.52 0 11.036c-.636 0-1.272-.008-1.9-.016z" transform="translate(92.116 8.24)"/>
        <path id="Fill_17" data-name="Fill 17" class="cls-1" d="M5.237 11.036c-.193-.865-.365-1.644-.524-2.431-.513-.005-1.028-.013-1.529-.018L2.42 8.58a54.228 54.228 0 0 0-.5 2.444l-.967.006H.946L0 11.036c.162-.734.325-1.481.482-2.2.633-2.9 1.289-5.9 2.026-8.833h.122c.624 0 1.332.008 2.053.016l.3 1.281C5.727 4.477 6.5 7.761 7.1 11.024l-.926.006zm-1.682-9c-.293 1.54-.582 3.171-.884 4.988.6.013 1.211.021 1.8.029C4.28 6.038 4.094 5 3.913 4.005 3.8 3.361 3.677 2.7 3.556 2.036z" transform="translate(95.136 8.24)"/>
        <path id="Fill_19" data-name="Fill 19" class="cls-1" d="M0 0h5.687v1.784c-.62 0-1.232 0-1.848-.008q-.006 4.62 0 9.24c-.644.008-1.288.012-1.932.02q-.007-4.626 0-9.256h-1.9C0 1.188 0 .6 0 0" transform="translate(102.041 8.244)"/>
        <path id="Fill_21" data-name="Fill 21" class="cls-1" d="M.006 11.032Q-.006 5.512.006 0c1.656.008 3.312 0 4.968 0v1.784q-1.512-.006-3.024 0c.008.944.02 1.888.056 2.832.772-.064 1.544-.14 2.32-.2v1.772c-.78-.064-1.552-.124-2.328-.172-.028 1.08-.036 2.164-.04 3.248h3.22v1.772c-1.724 0-3.448-.008-5.172 0" transform="translate(108.734 8.244)"/>
        <path id="Fill_23" data-name="Fill 23" class="cls-1" d="M2.442 11.079c-.308 0-.622-.013-.925-.025s-.614-.025-.91-.025a7.79 7.79 0 0 0-.6.021A709.093 709.093 0 0 1 .005 6c0-1.956 0-3.976-.005-5.964.165.015.347.021.556.021.312 0 .637-.014.952-.028h.007C1.833.015 2.161 0 2.487 0a3.849 3.849 0 0 1 2.721.834c.973 1.011.956 2.413.939 3.768 0 .387-.009.753.008 1.112-.012.292-.01.589-.009.9.006 1.314.013 2.672-.947 3.629a3.942 3.942 0 0 1-2.757.836zm-.461-1.834c.149 0 .308.013.476.027h.013c.16.013.341.028.513.028a.978.978 0 0 0 1.046-.584 14.325 14.325 0 0 0 .157-3.026c-.01-.511-.02-1.038 0-1.555a6.937 6.937 0 0 1-.015-.514c0-.7-.007-1.49-.729-1.786a5.542 5.542 0 0 0-.556-.025c-.243 0-.49.011-.728.022l-.32.014a43.13 43.13 0 0 1 0 7.4l.143-.001z" transform="translate(115.088 8.218)"/>
        <path id="Fill_25" data-name="Fill 25" class="cls-1" d="M1.988 11.066H1.65c-.542 0-1.1-.006-1.645-.006Q0 8.3 0 5.547T0 .039c.177.017.373.025.6.025.3 0 .618-.016.923-.031h.025C1.862.016 2.187 0 2.507 0a3.377 3.377 0 0 1 2.505.818 4.776 4.776 0 0 1 .212 5.26C4.564 7.092 3.31 7.108 2.2 7.123h-.207v3.936zM2 1.706c-.013 1.26-.013 2.541-.013 3.78l.759.006.761.006a4.514 4.514 0 0 0 .073-3.572A17.61 17.61 0 0 0 2 1.706z" transform="translate(124.916 8.21)"/>
        <path id="Fill_27" data-name="Fill 27" class="cls-1" d="M0 11.065V.031c.183.016.387.026.625.026.29 0 .593-.014.887-.027h.027C1.84.014 2.151 0 2.456 0A3.29 3.29 0 0 1 5.08.925a4.124 4.124 0 0 1-.68 5.316 141.697 141.697 0 0 1 1.748 4.8l-1 .01-1.008.01a9.21 9.21 0 0 1-.592-1.786 4.854 4.854 0 0 0-1.512-2.918C1.979 7.469 1.983 8.6 1.987 9.7v1.348c-.714 0-1.4.013-1.985.02zm2.024-9.488a46.959 46.959 0 0 0 0 3.6 10.215 10.215 0 0 0 1.588-.517 5.444 5.444 0 0 0-.023-2.6 9.291 9.291 0 0 0-1.565-.483z" transform="translate(131.944 8.215)"/>
        <path id="Fill_29" data-name="Fill 29" class="cls-1" d="M0 0q2.488.006 4.98 0v1.784q-1.476 0-2.944-.02c-.056.876-.124 1.748-.188 2.624a22.674 22.674 0 0 0 2.332.076L4.288 6l-2.4.228a20.191 20.191 0 0 1 .02 2.992c1.056.032 2.108.04 3.168.04.044.584.092 1.172.14 1.76-1.74.008-3.476 0-5.216.008Q.006 5.514 0 0" transform="translate(139.06 8.244)"/>
        <path id="Fill_31" data-name="Fill 31" class="cls-1" d="M.32 3.9c-.708-1.8.744-4.188 2.8-3.872C4.54-.044 5.3 1.3 5.84 2.4c-.48.192-.952.392-1.432.58-.428-.392-.548-1.396-1.284-1.28-.9-.18-1.284 1.108-.844 1.74.952 1.336 2.736 1.96 3.336 3.568.18 1.18.336 2.652-.632 3.548a2.893 2.893 0 0 1-4.26-.356A11.084 11.084 0 0 1 0 8.616c.516-.124 1.036-.24 1.556-.36a1.98 1.98 0 0 0 2.08 1.472c.14-.488.264-.98.368-1.476C3.324 6.376.924 5.836.32 3.9" transform="translate(144.688 8.088)"/>
        <g id="Group_35" data-name="Group 35" transform="translate(150.8 7.885)">
            <path id="Clip_34-2" data-name="Clip 34" d="M0 0h5.8v11.339H0z" transform="translate(.18 .2)" style="fill:none"/>
            <g id="Group_35-2" data-name="Group 35" style="clip-path:url(#clip-path)">
                <path id="Fill_33" data-name="Fill 33" class="cls-1" d="M.424 4.242C-.3 2.638.484.234 2.42.05a2.756 2.756 0 0 1 3.164 2.164c-.02.552-.78.548-1.132.828-.444-.532-.74-1.616-1.652-1.336-.812.1-.872 1.284-.492 1.844.96 1.204 2.556 1.85 3.192 3.312.836 1.732-.116 4.444-2.28 4.448C1.528 11.566.312 10.074 0 8.566c.492-.084.988-.168 1.488-.248.428.448.612 1.344 1.352 1.348 1.092.212 1.264-1.2.9-1.932C2.912 6.318 1.06 5.8.424 4.242" transform="translate(.18 .2)"/>
            </g>
        </g>
        <path id="Fill_36" data-name="Fill 36" class="cls-1" d="M.008.014c14.984.02 29.976-.068 44.956.044a24.861 24.861 0 0 1-.02 5.316C29.964 5.458 14.98 5.426 0 5.39Q.048 2.7.008.014" transform="translate(0 34.458)"/>
    </g>
</svg>
