<svg xmlns="http://www.w3.org/2000/svg" width="162.47" height="21.002">
    <path d="M-54.243 252.613c0-5.007-2.246-10.393-8.011-10.393-3.14 0-7.28 2.165-7.28 8.8 0 4.493 2.192 10.339 8.2 10.339 3.6-.027 7.091-2.734 7.091-8.742m-18.35-.622A10.5 10.5 0 0 1-61.767 241.3c7.037 0 10.555 5.088 10.555 10.393A10.4 10.4 0 0 1-61.767 262.3c-6.766-.027-10.826-4.845-10.826-10.312m49.258 9.879c0-.785.027-18.215.027-18.215 0-.947 0-.974-.92-.974H-30.8v-.893h17.673v.92h-6.6c-.92 0-.92.027-.92.974 0 0 .027 17.43.027 18.215h-2.706zm59.435-.837a3.415 3.415 0 0 1-1.786-.812c-2.057-1.732-3.654-4.141-6.09-8.011-.135-.244-.3-.541-.135-.7a5.3 5.3 0 0 0 3.654-4.9 4.457 4.457 0 0 0-2.517-4.222 10.674 10.674 0 0 0-5.034-.92H17.7v11.365c0 4.574-1.651 7.984-6.035 7.984-4.6 0-6.09-3.194-6.09-8.011v-11.178H3.107V253.4c0 3.545.758 5.765 2.328 7.064a8.67 8.67 0 0 0 5.629 1.651 7.969 7.969 0 0 0 5.765-2.192c1.705-1.786 2.111-4.574 2.111-7.172v-3.41c0-1.705 0-5.224.406-6.225.162-.406.758-.65 1.489-.7l.622-.027h2.653a4.433 4.433 0 0 1 4.818 4.628c0 2.057-.541 2.977-1.38 3.6a4.559 4.559 0 0 1-2.652.785H22.3l.893 1.3h2.273l.812 1.245c.839 1.326 1.867 2.95 2.517 3.9 2.165 3.058 3.681 3.789 6.252 3.789a6.876 6.876 0 0 0 1.326-.135l-.271-.46zm-135.027-19.486h-2.463s-5.792 15.1-7.389 19.162a3.172 3.172 0 0 1-.812-.514c-2.057-1.732-3.654-4.141-6.09-8.011-.135-.244-.3-.541-.135-.7a5.405 5.405 0 0 0 3.6-4.953 4.457 4.457 0 0 0-2.517-4.222 10.674 10.674 0 0 0-5.034-.92h-6.333l.027.027.622.893h5.684a4.433 4.433 0 0 1 4.818 4.628c0 2.057-.541 2.977-1.38 3.6a4.559 4.559 0 0 1-2.652.785h-2.571l.893 1.3h2.273l.812 1.245c.839 1.326 1.867 2.95 2.517 3.9 2.165 3.058 3.681 3.789 6.252 3.789h1.3l3.329-8.931h5.169c.812 0 1.056.081 1.218.514l2.815 8.525h2.95c-.164-.496-6.903-20.117-6.903-20.117zm-.487 9.825h-4.357l2.842-7.686 2.328 7.01c.134.567.001.675-.813.675zm94.781 9.473c-2.382-.027-3-.352-3.356-.677-.487-.514-.568-1.57-.568-3.139v-4.817h7.01v-1.056h-7.01v-7.226c0-1.164 0-1.218.92-1.218H.022v-.893h-11.07V261.9h12.18v-1.028zm-27.985-19.3h-1.6v15.265c-1.38-1.462-13.722-15.265-13.722-15.265h-1.326v20h1.6V245.36l14.453 16.672h.568v-20.488zm-41.22 17.348a8.294 8.294 0 0 1-4.466 2.3.3.3 0 0 0-.135.027 6.748 6.748 0 0 1-1.326.108c-4.98 0-9.04-3.518-9.04-9.879 0-6.252 3.951-9.2 8.607-9.2 3.41 0 4.845.839 5.657 1.326a2.863 2.863 0 0 0 .758.433v-1.867a3.76 3.76 0 0 1-.622-.135 24.854 24.854 0 0 0-5.386-.7 13.252 13.252 0 0 0-8.228 2.571 9.985 9.985 0 0 0-3.843 8.011 9.76 9.76 0 0 0 4.33 8.336 13.411 13.411 0 0 0 7.578 2.03 19.14 19.14 0 0 0 5.9-1.028c.217-.081.271-.081.271-.433v-1.976l-.054.081" transform="translate(126.1 -241.3)" style="fill:#b8c1cb"/>
</svg>
