<svg width="64" height="63" viewBox="0 0 64 63" fill="none" xmlns="http://www.w3.org/2000/svg">
<g clip-path="url(#clip0_431_4607)">
<mask id="mask0_431_4607" style="mask-type:luminance" maskUnits="userSpaceOnUse" x="0" y="0" width="64" height="63">
<path d="M64 0H0V63H64V0Z" fill="white"/>
</mask>
<g mask="url(#mask0_431_4607)">
<path d="M45.3363 57.5263H18.6955C14.284 57.5263 10.6955 53.9939 10.6955 49.6513V13.3486C10.6955 9.00609 14.284 5.47363 18.6955 5.47363H45.336C49.7475 5.47363 53.336 9.00609 53.336 13.3486V49.6513C53.336 53.9939 49.7477 57.5263 45.3363 57.5263ZM18.6955 10.7236C17.2253 10.7236 16.0288 11.9015 16.0288 13.3486V49.6513C16.0288 51.0985 17.2253 52.2763 18.6955 52.2763H45.336C46.8061 52.2763 48.0027 51.0985 48.0027 49.6513V13.3486C48.0027 11.9015 46.8061 10.7236 45.336 10.7236H18.6955Z" fill="#081455"/>
<path d="M39.9027 47.0303H24.2035C22.7309 47.0303 21.5368 45.8548 21.5368 44.4053C21.5368 42.9557 22.7309 41.7803 24.2035 41.7803H39.9027C41.3752 41.7803 42.5693 42.9557 42.5693 44.4053C42.5693 45.8548 41.3752 47.0303 39.9027 47.0303Z" fill="#68A7F4"/>
<path d="M41.1592 40.2509H37.3832C35.9107 40.2509 34.7165 39.0754 34.7165 37.6259V33.9191C34.7165 33.2233 34.9965 32.5568 35.4965 32.0646L52.8245 14.979C53.8635 13.9523 55.5499 13.9484 56.5941 14.975L60.3701 18.6818C60.8715 19.174 61.1528 19.8405 61.1539 20.5377C61.1552 21.2336 60.8739 21.9014 60.3739 22.3949L43.0459 39.4805C42.5459 39.974 41.8675 40.2509 41.1592 40.2509Z" fill="white"/>
<path d="M41.1592 37.626H37.3832V33.919L54.7115 16.8336L58.4875 20.5404L41.1592 37.626Z" fill="#081455"/>
</g>
</g>
<defs>
<clipPath id="clip0_431_4607">
<rect width="64" height="63" fill="white"/>
</clipPath>
</defs>
</svg>
