<svg width="64" height="65" viewBox="0 0 64 65" fill="none" xmlns="http://www.w3.org/2000/svg">
<mask id="mask0_431_4579" style="mask-type:luminance" maskUnits="userSpaceOnUse" x="0" y="0" width="64" height="65">
<path d="M64 0.5H0V64.5H64V0.5Z" fill="white"/>
</mask>
<g mask="url(#mask0_431_4579)">
<path d="M53.3261 56.4332H33.5853C32.1128 56.4332 30.9187 55.239 30.9187 53.7665C30.9187 52.294 32.1128 51.0998 33.5853 51.0998H50.6595V34.6622L35.7363 47.4228C34.6333 48.3628 32.9837 48.2548 32.0176 47.1753L27.8224 42.4969L15.5907 53.0972C14.476 54.0593 12.7912 53.9422 11.8291 52.8276C10.8656 51.7142 10.9853 50.0308 12.0987 49.066L26.3123 36.7494C27.4152 35.799 29.0739 35.9017 30.044 36.9852L34.2496 41.6753L51.5933 26.846C52.3851 26.1716 53.4984 26.0166 54.4424 26.4516C55.3877 26.8865 55.9931 27.8332 55.9931 28.8734V53.7668C55.9931 55.2393 54.7987 56.4332 53.3261 56.4332Z" fill="#081455"/>
<path d="M19.7806 56.4329H12.6595C10.1451 56.4329 8.09949 54.394 8.09949 51.8873V45.3951C8.09949 43.9225 9.29362 42.7284 10.7662 42.7284C12.2387 42.7284 13.4328 43.9225 13.4328 45.3951V51.0996H19.7806C21.2531 51.0996 22.4472 52.2937 22.4472 53.7663C22.4472 55.2388 21.2531 56.4329 19.7806 56.4329Z" fill="#081455"/>
<path d="M10.7662 38.9579C10.3873 38.9579 10.007 38.8771 9.65025 38.7131C8.70491 38.2781 8.09958 37.3315 8.09958 36.2912V11.3979C8.09958 9.92533 9.29371 8.7312 10.7662 8.7312H30.507C31.9796 8.7312 33.1737 9.92533 33.1737 11.3979C33.1737 12.8704 31.9796 14.0645 30.507 14.0645H13.4329V30.5021L28.3561 17.7429C29.459 16.804 31.1073 16.9096 32.0748 17.9904L36.2689 22.6675L48.502 12.0672C49.6153 11.1051 51.3001 11.2235 52.2636 12.3368C53.227 13.4501 53.1073 15.1336 51.994 16.0984L37.7804 28.4149C36.6814 29.3693 35.0198 29.2651 34.0486 28.1792L29.843 23.4891L12.4993 38.3184C12.007 38.7389 11.39 38.9579 10.7662 38.9579Z" fill="#68A7F4"/>
<path d="M53.3261 22.437C51.8536 22.437 50.6595 21.2429 50.6595 19.7704V14.0648H44.3117C42.8392 14.0648 41.6451 12.8706 41.6451 11.3981C41.6451 9.92558 42.8392 8.73145 44.3117 8.73145H51.4328C53.9472 8.73145 55.9928 10.7704 55.9928 13.277V19.7706C55.9928 21.2432 54.7987 22.437 53.3261 22.437Z" fill="#68A7F4"/>
</g>
</svg>
