<svg xmlns="http://www.w3.org/2000/svg" width="50.053" height="60.188">
    <defs>
        <style>
            .cls-2{fill:#1abc9c}
        </style>
    </defs>
    <g id="Group_148" data-name="Group 148" transform="translate(-121.839 -100.952)">
        <path id="Path_339" data-name="Path 339" d="M146.865 161.139a1.04 1.04 0 0 1-.42-.089c-27.382-12.264-24.541-49.95-24.509-50.329a1.027 1.027 0 0 1 1.018-.936c15.23 0 23.076-8.429 23.153-8.514a1.06 1.06 0 0 1 1.515 0c.078.086 7.935 8.514 23.154 8.514a1.027 1.027 0 0 1 1.018.936c.032.379 2.873 38.066-24.511 50.33a1.035 1.035 0 0 1-.418.088zm-.163-57.6c-2.622 2.374-10.067 7.932-22.553 8.272l-.227.006-.008.228c-.216 5.948-.131 36.162 22.849 46.9l.1.048.1-.048c22.979-10.738 23.065-40.953 22.849-46.9l-.008-.228-.227-.006c-12.486-.34-19.932-5.9-22.554-8.272l-.163-.147z" style="fill:#d0dae5"/>
        <path id="Path_340" data-name="Path 340" class="cls-2" d="M204.755 214.745a1.014 1.014 0 0 1-.722-.3l-3.793-3.793a1.022 1.022 0 1 1 1.445-1.445l3.071 3.071 6.864-6.864a1.022 1.022 0 0 1 1.445 1.445l-7.586 7.586a1.015 1.015 0 0 1-.724.3z" transform="translate(-59.154 -78.893)"/>
        <path id="Path_341" data-name="Path 341" class="cls-2" d="M178.388 188.069a14.93 14.93 0 1 1 14.93-14.93 14.947 14.947 0 0 1-14.93 14.93zm0-27.816a12.886 12.886 0 1 0 12.887 12.886 12.9 12.9 0 0 0-12.887-12.886z" transform="translate(-31.522 -43.367)"/>
    </g>
</svg>
