<svg id="a0963fc1-ca44-4d5e-a749-fac6b39d4d38" data-name="Layer 3" xmlns="http://www.w3.org/2000/svg" xmlns:xlink="http://www.w3.org/1999/xlink" width="28.49mm" height="28.49mm" viewBox="0 0 80.759 80.759"><defs><clipPath id="bf849837-76cb-4ad4-84e4-437262bc48c7"><rect id="a8e7c841-8c47-405b-90c3-841a5ddb50d2" data-name="SVGID" x="0.944" y="11.545" width="78.87" height="57.669" fill="none"/></clipPath></defs><title>Artboard 1</title><g clip-path="url(#bf849837-76cb-4ad4-84e4-437262bc48c7)"><path d="M25.96,58.511a1.325,1.325,0,0,1-1.324-1.326A1.265,1.265,0,0,1,24.649,57l2.158-15.25L16.1,30.683a1.324,1.324,0,0,1,.726-2.223L31.991,25.8l7.218-13.607a1.379,1.379,0,0,1,2.336,0L48.767,25.8,63.934,28.46a1.323,1.323,0,0,1,.726,2.223L53.951,41.751,56.109,57a1.325,1.325,0,0,1-1.892,1.375L40.378,51.614,26.546,58.376a1.326,1.326,0,0,1-.583.135m14.415-9.7a1.321,1.321,0,0,1,.582.135L53.139,54.9l-1.9-13.417a1.328,1.328,0,0,1,.363-1.107l9.428-9.739L47.675,28.292a1.319,1.319,0,0,1-.941-.683L40.378,15.634,34.025,27.609a1.323,1.323,0,0,1-.941.683L19.735,30.636l9.425,9.737a1.328,1.328,0,0,1,.363,1.107L27.619,54.9,39.8,48.945a1.318,1.318,0,0,1,.582-.135" fill="#2ab99d"/><path d="M26.187,69.214a1.31,1.31,0,0,1-.582-.134L17.049,64.9,8.493,69.08A1.324,1.324,0,0,1,6.6,67.705l1.334-9.428L1.317,51.435a1.323,1.323,0,0,1,.725-2.223l9.378-1.646,4.464-8.414a1.378,1.378,0,0,1,2.336,0l4.766,8.985a1.323,1.323,0,1,1-2.336,1.241h0l-3.6-6.78-3.6,6.778a1.323,1.323,0,0,1-.941.683L4.956,51.388,10.291,56.9a1.327,1.327,0,0,1,.363,1.106l-1.076,7.6,6.9-3.37a1.313,1.313,0,0,1,1.163,0l6.9,3.37-.51-3.6a1.324,1.324,0,0,1,2.621-.373L27.5,67.71a1.325,1.325,0,0,1-1.127,1.5,1.41,1.41,0,0,1-.184.013" fill="#2ab99d"/><path d="M54.572,69.214a1.323,1.323,0,0,1-1.324-1.325,1.255,1.255,0,0,1,.013-.184l.858-6.074a1.354,1.354,0,0,1,1.5-1.124A1.323,1.323,0,0,1,56.741,62h0l-.51,3.6,6.9-3.371a1.313,1.313,0,0,1,1.163,0l6.9,3.371L70.112,58a1.322,1.322,0,0,1,.362-1.106l5.335-5.514-7.561-1.321a1.32,1.32,0,0,1-.941-.682l-3.6-6.78-3.6,6.78a1.323,1.323,0,0,1-2.337-1.241h0l4.767-8.985a1.378,1.378,0,0,1,2.336,0l4.464,8.414,9.378,1.646a1.323,1.323,0,0,1,.725,2.223l-6.618,6.842,1.333,9.428a1.324,1.324,0,0,1-1.892,1.375L63.711,64.9l-8.556,4.182a1.3,1.3,0,0,1-.582.134" fill="#2ab99d"/></g></svg>