<svg xmlns="http://www.w3.org/2000/svg" width="72" height="52" viewBox="0 0 72 52">
    <g fill="none" fill-rule="evenodd">
        <path fill="#B9C2CC" d="M70.416 51.314H1.083C.485 51.314 0 50.829 0 50.231V1.083C0 .485.485 0 1.083 0c.599 0 1.084.485 1.084 1.083v48.064h68.25c.598 0 1.083.485 1.083 1.084 0 .598-.485 1.083-1.084 1.083"/>
        <path fill="#B9C2CC" d="M30.687 27.688c-.202 0-.406-.057-.588-.174L18.982 20.31 7.876 26.677c-.519.297-1.181.118-1.479-.401-.297-.52-.118-1.181.401-1.48l11.68-6.694c.352-.202.787-.19 1.128.03l10.819 7.01 11.052-14.865c.194-.26.495-.42.82-.436.324-.014.64.118.856.36l11.086 12.38 10.85-6.561c.512-.31 1.178-.146 1.488.366.31.512.145 1.178-.367 1.488L54.592 24.9c-.446.27-1.02.184-1.368-.204l-10.8-12.061L31.558 27.25c-.212.285-.539.437-.87.437"/>
        <path fill="#1ABC9C" d="M7.342 45.945c-.248 0-.498-.084-.701-.257-.456-.388-.512-1.072-.124-1.528l11.66-13.712c.284-.335.742-.465 1.16-.33l.055.02c.078.024.153.058.223.1L30.6 36.82l11.08-8.68c.313-.245.736-.299 1.101-.14l.041.019c.07.03.137.068.2.113l11.22 8.065L65.384 33.7c.584-.131 1.163.236 1.294.82.13.584-.236 1.163-.82 1.294L54.24 38.417c-.301.068-.618.003-.869-.178l-10.988-7.898-11.033 8.643c-.353.276-.84.307-1.225.076l-10.883-6.52L8.168 45.564c-.215.252-.52.381-.826.381"/>
        <path fill="#B9C2CC" d="M13.65 45.946c-.598 0-1.083-.485-1.083-1.084v-.866c0-.599.485-1.084 1.083-1.084s1.083.485 1.083 1.084v.866c0 .599-.485 1.084-1.083 1.084M19.139 45.946c-.598 0-1.083-.485-1.083-1.084v-7.8c0-.598.485-1.083 1.083-1.083s1.083.485 1.083 1.083v7.8c0 .599-.485 1.084-1.083 1.084M24.628 45.946c-.599 0-1.084-.485-1.084-1.084v-5.2c0-.598.485-1.083 1.084-1.083.598 0 1.083.485 1.083 1.083v5.2c0 .599-.485 1.084-1.083 1.084M30.117 45.946c-.599 0-1.084-.485-1.084-1.084v-2.6c0-.598.485-1.083 1.084-1.083.598 0 1.083.485 1.083 1.083v2.6c0 .599-.485 1.084-1.083 1.084M35.605 45.946c-.598 0-1.083-.485-1.083-1.084V40.53c0-.598.485-1.083 1.083-1.083.599 0 1.084.485 1.084 1.083v4.333c0 .599-.485 1.084-1.084 1.084M41.094 45.946c-.598 0-1.083-.485-1.083-1.084V35.33c0-.598.485-1.083 1.083-1.083s1.083.485 1.083 1.083v9.533c0 .599-.485 1.084-1.083 1.084M46.583 45.946c-.598 0-1.083-.485-1.083-1.084V37.93c0-.598.485-1.083 1.083-1.083s1.083.485 1.083 1.083v6.933c0 .599-.485 1.084-1.083 1.084M52.072 45.946c-.598 0-1.083-.485-1.083-1.084v-3.466c0-.599.485-1.084 1.083-1.084s1.083.485 1.083 1.084v3.466c0 .599-.485 1.084-1.083 1.084M57.56 45.946c-.598 0-1.082-.485-1.082-1.084v-3.466c0-.599.484-1.084 1.083-1.084.598 0 1.083.485 1.083 1.084v3.466c0 .599-.485 1.084-1.083 1.084M63.05 45.946c-.599 0-1.084-.485-1.084-1.084v-5.2c0-.598.485-1.083 1.084-1.083.598 0 1.083.485 1.083 1.083v5.2c0 .599-.485 1.084-1.083 1.084"/>
    </g>
</svg>
