<svg id="ab64d891-5ae3-47ed-83be-a2741b76d4d4" data-name="Layer 1 copy" xmlns="http://www.w3.org/2000/svg" width="107" height="20" viewBox="0 0 107 20"><title>trsutpilot-4starsArtboard 1</title><path d="M19.931,0H0V19.931H19.931Z" fill="#68c812"/><path d="M41.961,0H21.505V19.931H41.961Z" fill="#68c812"/><path d="M63.465,0H43.534V19.931H63.465Z" fill="#68c812"/><path d="M84.97,0H65.039V19.931H84.97Z" fill="#68c812"/><path d="M107,0H96.51V19.931H107Z" fill="#d7d7e2"/><path d="M96.51,0H86.544V19.931H96.51Z" fill="#d7d7e2"/><path d="M10.016,13.5l3.046-.772,1.272,3.923Zm7.01-5.07H11.663L10.016,3.38,8.367,8.429H3.005l4.34,3.13L5.7,16.608l4.34-3.13,2.671-1.919,4.318-3.13Z" fill="#fff"/><path d="M31.714,13.5l3.047-.772,1.272,3.923Zm7.011-5.07H33.362L31.714,3.38,30.066,8.429H24.7l4.339,3.13L27.4,16.608l4.34-3.13,2.67-1.92,4.319-3.13Z" fill="#fff"/><path d="M53.412,13.5l3.046-.772,1.273,3.923Zm7.011-5.07H55.06L53.412,3.38,51.763,8.429H46.4l4.34,3.13-1.648,5.049,4.339-3.13,2.671-1.92,4.319-3.13Z" fill="#fff"/><path d="M75.111,13.5l3.047-.772L79.43,16.65Zm7.011-5.07H76.759L75.111,3.38,73.463,8.429H68.1l4.339,3.13-1.648,5.049,4.34-3.13,2.67-1.92,4.319-3.13Z" fill="#fff"/><path d="M96.81,13.5l3.047-.772,1.272,3.923Zm7.011-5.07H98.458L96.81,3.38,95.162,8.429H89.8l4.34,3.13-1.649,5.049,4.34-3.13,2.671-1.92,4.318-3.13Z" fill="#fff"/></svg>