<svg id="b31dd294-d0a7-4095-9914-286f16888551" data-name="Layer 2" xmlns="http://www.w3.org/2000/svg" width="201" height="50" viewBox="0 0 201 50"><title>trustpilot-starsArtboard 1</title><path d="M37.615,6.331H.278V43.669H37.615Z" fill="#00b67a"/><path d="M78.883,6.331H40.563V43.669h38.32Z" fill="#00b67a"/><path d="M119.169,6.331H81.831V43.669h37.338Z" fill="#00b67a"/><path d="M159.454,6.331H122.117V43.669h37.337Z" fill="#00b67a"/><path d="M200.722,6.331H181.071V43.669h19.651Z" fill="#dcdce6"/><path d="M181.071,6.331H162.4V43.669h18.669Z" fill="#00b67a"/><path d="M19.039,31.62l5.707-1.447,2.383,7.349Zm13.133-9.5H22.126l-3.087-9.459-3.088,9.458H5.906l8.13,5.863-3.088,9.459,8.129-5.863,5-3.6,8.091-5.863Z" fill="#fff"/><path d="M59.688,31.62,65.4,30.173l2.383,7.349Zm13.133-9.5H62.775l-3.087-9.459L56.6,22.121H46.555l8.13,5.863L51.6,37.442l8.13-5.863,5-3.6,8.09-5.863Z" fill="#fff"/><path d="M100.336,31.62l5.707-1.447,2.383,7.349Zm13.133-9.5H103.423l-3.087-9.459-3.088,9.458H87.2l8.13,5.863-3.089,9.458,8.13-5.863,5-3.6,8.091-5.863Z" fill="#fff"/><path d="M140.985,31.62l5.706-1.447,2.384,7.349Zm13.133-9.5H144.072l-3.087-9.459L137.9,22.121H127.851l8.13,5.863-3.088,9.458,8.13-5.863,5-3.6,8.09-5.863Z" fill="#fff"/><path d="M181.634,31.62l5.706-1.447,2.385,7.349Zm13.133-9.5H184.721l-3.087-9.459-3.088,9.458H168.5l8.129,5.863-3.088,9.458,8.13-5.863,5-3.6,8.09-5.863Z" fill="#fff"/></svg>