<svg width="107" height="20" viewBox="0 0 107 20" fill="none" xmlns="http://www.w3.org/2000/svg">
<path d="M19.9313 0H0V19.9313H19.9313V0Z" fill="#00B67A"/>
<path d="M41.9612 0H21.5054V19.9313H41.9612V0Z" fill="#00B67A"/>
<path d="M63.4655 0H43.5342V19.9313H63.4655V0Z" fill="#00B67A"/>
<path d="M84.9704 0H65.0391V19.9313H84.9704V0Z" fill="#00B67A"/>
<path d="M107 0H96.5098V19.9313H107V0Z" fill="#00B67A"/>
<path d="M96.5096 0H86.5439V19.9313H96.5096V0Z" fill="#00B67A"/>
<path d="M10.0155 13.4993L13.0618 12.7272L14.3343 16.65L10.0155 13.4993ZM17.026 8.42939H11.6635L10.0155 3.37994L8.36693 8.42886H3.00488L7.34467 11.5586L5.69614 16.608L10.0359 13.4783L12.7067 11.5586L17.0255 8.42886L17.026 8.42939Z" fill="white"/>
<path d="M31.7142 13.4993L34.7605 12.7272L36.033 16.65L31.7142 13.4993ZM38.7248 8.42939H33.3622L31.7142 3.37994L30.0657 8.42886H24.7036L29.0434 11.5586L27.3949 16.6075L31.7346 13.4778L34.4054 11.5581L38.7242 8.42834L38.7248 8.42939Z" fill="white"/>
<path d="M53.412 13.4993L56.4583 12.7272L57.7308 16.65L53.412 13.4993ZM60.4225 8.42939H55.06L53.412 3.37994L51.7634 8.42886H46.4014L50.7412 11.5586L49.0926 16.6075L53.4324 13.4778L56.1032 11.5581L60.422 8.42834L60.4225 8.42939Z" fill="white"/>
<path d="M75.1112 13.4993L78.1575 12.7272L79.43 16.65L75.1112 13.4993ZM82.1217 8.42939H76.7592L75.1112 3.37994L73.4626 8.42886H68.1006L72.4404 11.5586L70.7918 16.6075L75.1316 13.4778L77.8024 11.5581L82.1212 8.42834L82.1217 8.42939Z" fill="white"/>
<path d="M96.8104 13.4993L99.8567 12.7272L101.129 16.65L96.8104 13.4993ZM103.821 8.42939H98.4584L96.8104 3.37994L95.1618 8.42886H89.7998L94.1396 11.5586L92.4911 16.6075L96.8308 13.4778L99.5016 11.5581L103.82 8.42834L103.821 8.42939Z" fill="white"/>
</svg>
