<svg id="ee0260f3-e330-4076-b25a-fb014a42a36a" data-name="Layer 1" xmlns="http://www.w3.org/2000/svg" width="111" height="22" viewBox="0 0 111 22"><title>trustpilot-starsArtboard 1</title><path d="M20.8.48H.232V21.045H20.8Z" fill="#00b67a"/><path d="M43.525.48H22.419V21.044H43.525Z" fill="#00b67a"/><path d="M65.713.48H45.148V21.044H65.713Z" fill="#00b67a"/><path d="M87.9.48H67.336V21.044H87.9Z" fill="#00b67a"/><path d="M110.629.48H99.806V21.044h10.823Z" fill="#dcdce6"/><path d="M99.805.48H89.523V21.044H99.805Z" fill="#00b67a"/><path d="M10.565,14.408l3.143-.8,1.313,4.047ZM17.8,9.177H12.265l-1.7-5.209-1.7,5.209H3.332l4.477,3.229-1.7,5.21,4.478-3.229,2.755-1.981L17.8,9.177Z" fill="#fff"/><path d="M32.953,14.408l3.143-.8,1.313,4.047Zm7.233-5.231H34.653l-1.7-5.209-1.7,5.209H25.72L30.2,12.406l-1.7,5.209,4.478-3.229,2.756-1.981,4.456-3.229Z" fill="#fff"/><path d="M55.34,14.408l3.143-.8L59.8,17.659Zm7.233-5.231H57.04l-1.7-5.209-1.7,5.209H48.107l4.477,3.229-1.7,5.209,4.477-3.229,2.756-1.981,4.456-3.229Z" fill="#fff"/><path d="M77.728,14.408l3.143-.8,1.313,4.047Zm7.233-5.231H79.428l-1.7-5.209-1.7,5.209H70.5l4.477,3.229-1.7,5.209,4.478-3.229,2.756-1.981L84.96,9.176Z" fill="#fff"/><path d="M100.116,14.408l3.143-.8,1.313,4.047Zm7.233-5.231h-5.533l-1.7-5.209-1.7,5.209H92.883l4.477,3.229-1.7,5.209,4.477-3.229,2.756-1.981,4.456-3.229Z" fill="#fff"/></svg>