<svg id="a5b6634e-9ae7-4275-9dde-563f3b8cfb17" data-name="Layer 2" xmlns="http://www.w3.org/2000/svg" width="111" height="22" viewBox="0 0 111 22"><title>trustpilotArtboard 1</title><path d="M34.376,7.818H43.39V9.5H39.845v9.454H37.9V9.5H34.368V7.818Zm8.629,3.072h1.666v1.556H44.7a1.822,1.822,0,0,1,.307-.636,2.851,2.851,0,0,1,.542-.566,2.9,2.9,0,0,1,.708-.417,2.176,2.176,0,0,1,.793-.157c.2,0,.354.008.433.016s.157.024.243.032v1.713c-.124-.024-.251-.04-.385-.055a3.109,3.109,0,0,0-.385-.024,2.069,2.069,0,0,0-.849.181,1.953,1.953,0,0,0-.692.526,2.685,2.685,0,0,0-.471.864,3.679,3.679,0,0,0-.173,1.187v3.835H43V10.89Zm12.888,8.063H54.148V17.829h-.031a2.421,2.421,0,0,1-.975.975,2.666,2.666,0,0,1-1.32.37,2.953,2.953,0,0,1-2.3-.787,3.478,3.478,0,0,1-.708-2.382V10.89h1.776v4.943a2.169,2.169,0,0,0,.409,1.5,1.464,1.464,0,0,0,.522.343,1.479,1.479,0,0,0,.617.1,2.194,2.194,0,0,0,.936-.172,1.583,1.583,0,0,0,.6-.464,1.775,1.775,0,0,0,.338-.692,3.372,3.372,0,0,0,.1-.872V10.9h1.776Zm3.024-2.585a1.362,1.362,0,0,0,.589,1.092,2.372,2.372,0,0,0,1.234.314,5.363,5.363,0,0,0,.566-.039,2.419,2.419,0,0,0,.6-.149,1.155,1.155,0,0,0,.464-.322.781.781,0,0,0,.165-.55.766.766,0,0,0-.067-.306.753.753,0,0,0-.184-.252,1.757,1.757,0,0,0-.6-.354,6.039,6.039,0,0,0-.833-.228c-.315-.063-.629-.134-.953-.2a9.082,9.082,0,0,1-.959-.267,2.923,2.923,0,0,1-.825-.425,1.864,1.864,0,0,1-.58-.676,2.114,2.114,0,0,1-.22-1.021,1.848,1.848,0,0,1,.322-1.1,2.439,2.439,0,0,1,.81-.715,3.782,3.782,0,0,1,1.092-.386,6.782,6.782,0,0,1,1.147-.11,5.4,5.4,0,0,1,1.2.134,3.092,3.092,0,0,1,1.029.432,2.555,2.555,0,0,1,.762.77,2.681,2.681,0,0,1,.385,1.147H62.2a1.107,1.107,0,0,0-.58-.856,2.378,2.378,0,0,0-1.053-.22,3.361,3.361,0,0,0-.448.031,2.544,2.544,0,0,0-.487.118,1.064,1.064,0,0,0-.385.252.608.608,0,0,0-.157.432.683.683,0,0,0,.055.289.655.655,0,0,0,.173.237,1.9,1.9,0,0,0,.589.338,6,6,0,0,0,.833.228c.315.063.637.134.967.2s.637.166.953.268a2.875,2.875,0,0,1,.833.424,2.1,2.1,0,0,1,.589.668,2.036,2.036,0,0,1,.228,1,2.165,2.165,0,0,1-.332,1.218,2.605,2.605,0,0,1-.848.81,4,4,0,0,1-1.163.455,5.8,5.8,0,0,1-1.266.141,5.354,5.354,0,0,1-1.414-.172,3.457,3.457,0,0,1-1.124-.519,2.579,2.579,0,0,1-.746-.872,2.876,2.876,0,0,1-.289-1.243h1.791Zm5.862-5.478h1.344V8.47H67.9v2.42h1.6v1.328H67.9v4.308a4.168,4.168,0,0,0,.023.487.9.9,0,0,0,.11.346.507.507,0,0,0,.26.212,1.278,1.278,0,0,0,.471.071c.124,0,.252,0,.377-.008a2.089,2.089,0,0,0,.378-.055v1.375c-.2.024-.393.039-.574.063a4.58,4.58,0,0,1-.574.031,4,4,0,0,1-1.131-.133,1.471,1.471,0,0,1-.668-.393,1.368,1.368,0,0,1-.332-.645,4.912,4.912,0,0,1-.1-.888V12.234H64.793V10.89Zm5.98,0h1.682v1.093h.031a2.2,2.2,0,0,1,1.045-1.006,3.44,3.44,0,0,1,1.454-.307,3.767,3.767,0,0,1,1.657.338,3.253,3.253,0,0,1,1.179.92,4,4,0,0,1,.7,1.367,5.725,5.725,0,0,1,.236,1.666,5.794,5.794,0,0,1-.212,1.571,4.194,4.194,0,0,1-.637,1.352,3.13,3.13,0,0,1-1.084.935,3.226,3.226,0,0,1-1.548.354,4.314,4.314,0,0,1-.778-.071,3.4,3.4,0,0,1-.746-.228,2.685,2.685,0,0,1-.66-.4,2.482,2.482,0,0,1-.511-.566h-.031v4.024H70.759Zm6.208,4.04a4,4,0,0,0-.141-1.061,2.864,2.864,0,0,0-.425-.911,2.118,2.118,0,0,0-3.355-.1,3.453,3.453,0,0,0-.566,2.075,3.979,3.979,0,0,0,.149,1.132,2.527,2.527,0,0,0,.448.9,2.119,2.119,0,0,0,.707.589,2.212,2.212,0,0,0,1.988-.032,2.163,2.163,0,0,0,.692-.644,2.672,2.672,0,0,0,.393-.9,5.068,5.068,0,0,0,.11-1.035ZM80.1,7.818h1.776V9.5H80.1Zm0,3.072h1.776v8.063H80.1Zm3.363-3.072h1.776V18.953H83.466Zm7.222,11.355a4.393,4.393,0,0,1-1.721-.322,3.613,3.613,0,0,1-2.075-2.224,5.426,5.426,0,0,1,0-3.411,3.838,3.838,0,0,1,.794-1.344,3.626,3.626,0,0,1,1.281-.88,4.753,4.753,0,0,1,3.442,0,3.6,3.6,0,0,1,2.075,2.224,5.129,5.129,0,0,1,.275,1.7,5.2,5.2,0,0,1-.275,1.713,3.823,3.823,0,0,1-.794,1.344,3.626,3.626,0,0,1-1.28.88,4.388,4.388,0,0,1-1.72.322Zm0-1.408a2.06,2.06,0,0,0,1.03-.252,2.188,2.188,0,0,0,.715-.652,2.953,2.953,0,0,0,.417-.911,4.089,4.089,0,0,0,0-2.067,2.694,2.694,0,0,0-.417-.911,2.177,2.177,0,0,0-.715-.645,2.127,2.127,0,0,0-2.775.645,2.834,2.834,0,0,0-.417.911,4.067,4.067,0,0,0,0,2.067,2.792,2.792,0,0,0,.417.911,2.188,2.188,0,0,0,.715.652,1.971,1.971,0,0,0,1.032.253Zm4.59-6.876h1.345V8.469H98.4v2.42H100v1.328H98.4v4.308a4.178,4.178,0,0,0,.023.487.905.905,0,0,0,.11.346.505.505,0,0,0,.259.212,1.287,1.287,0,0,0,.472.071c.124,0,.252,0,.377-.008a2.195,2.195,0,0,0,.378-.055v1.375c-.2.023-.394.039-.574.063a4.58,4.58,0,0,1-.574.031,3.955,3.955,0,0,1-1.131-.134,1.453,1.453,0,0,1-.668-.393,1.355,1.355,0,0,1-.332-.644,4.912,4.912,0,0,1-.1-.888V12.234H95.294V10.89Z" fill="#1a1a1a"/><path d="M32.3,7.818H24.16L21.646.069,19.123,7.818,10.981,7.81,17.575,12.6l-2.523,7.741,6.594-4.786,6.585,4.786L25.716,12.6Z" fill="#00b67a"/><path d="M26.282,14.356,25.717,12.6l-4.071,2.955Z" fill="#005128"/></svg>