<svg width="20" height="20" viewBox="0 0 20 20" fill="none" xmlns="http://www.w3.org/2000/svg">
<g clip-path="url(#clip0_4691_713)">
<path d="M14.6085 0.809524C16.9772 0.809524 18.9042 2.73655 18.9042 5.10522V14.3234C18.9042 16.692 16.9772 18.619 14.6085 18.619H5.39034C3.02171 18.619 1.09468 16.692 1.09468 14.3234V5.10518C1.09468 2.73655 3.02171 0.809524 5.39034 0.809524H14.6085ZM14.6085 0H5.39034C2.57081 0 0.285156 2.28565 0.285156 5.10518V14.3234C0.285156 17.1429 2.57081 19.4286 5.39034 19.4286H14.6085C17.4281 19.4286 19.7137 17.1429 19.7137 14.3234V5.10522C19.7137 2.28569 17.428 0 14.6085 0Z" fill="#242424"/>
<path d="M11.1355 9.28691L14.7857 5H13.7284L10.607 8.66615L7.48526 5H4L8.8642 10.7128L5.21366 15H6.27095L9.39268 11.3335L12.5147 15H16L11.1355 9.28691ZM5.71872 5.77709H7.0894L14.281 14.2228H12.9103L5.71872 5.77709Z" fill="#242424"/>
</g>
<defs>
<clipPath id="clip0_4691_713">
<rect width="19.4286" height="19.4286" fill="white" transform="translate(0.285156)"/>
</clipPath>
</defs>
</svg>
