<svg width="56" height="26" viewBox="0 0 56 26" fill="none" xmlns="http://www.w3.org/2000/svg">
<path d="M43.0905 25.9886C39.9074 25.9886 36.8421 24.8513 34.3663 22.6966L28 17.0103L21.6337 22.6966C17.92 25.9886 12.7326 26.8864 8.07579 25.0908C3.65474 23.2951 0.648421 19.4644 0.117895 14.7957C0.0589474 14.1971 0 13.5986 0 13C0 12.4014 0.0589474 11.8029 0.117895 11.2043C0.648421 6.47577 3.65474 2.64504 8.07579 0.909233C12.7326 -0.886425 17.92 0.0114042 21.6337 3.30344L28 8.9897L34.3663 3.30344C38.08 0.0114042 43.2674 -0.886425 47.9242 0.909233C52.3453 2.64504 55.3516 6.47577 55.8821 11.2043C55.9411 11.8029 56 12.4014 56 13C56 13.5986 55.9411 14.1971 55.8821 14.7957C55.3516 19.5242 52.3453 23.355 47.9242 25.0908C46.3326 25.6893 44.6821 25.9886 43.0905 25.9886ZM32.48 13L38.2568 18.1476C40.32 19.9432 43.2084 20.4819 45.8021 19.4644C48.2189 18.5067 49.7516 16.5913 50.0463 14.0774C50.1053 13.7183 50.1053 13.3591 50.1053 13C50.1053 12.6409 50.1053 12.2817 50.0463 11.9226C49.7516 9.40868 48.2189 7.49332 45.8021 6.53563C43.2084 5.51809 40.32 6.05679 38.2568 7.85245L32.48 13ZM12.9095 6.05679C12.0253 6.05679 11.0821 6.23635 10.1979 6.59549C7.78105 7.55317 6.24842 9.46854 5.95368 11.9825C5.89474 12.3416 5.89474 12.7007 5.89474 13.0599C5.89474 13.419 5.89474 13.7781 5.95368 14.1373C6.24842 16.6512 7.78105 18.5665 10.1979 19.5242C12.7916 20.5418 15.68 20.0031 17.7432 18.2074L23.52 13.0599L17.7432 7.9123C16.3874 6.65534 14.6779 6.05679 12.9095 6.05679Z" fill="#1ABC9C"/>
</svg>
