<svg xmlns="http://www.w3.org/2000/svg" width="62.69" height="70.082">
    <defs>
        <style>
            .cls-1{fill:#1abc9c}
        </style>
    </defs>
    <g id="Group_147" data-name="Group 147" transform="rotate(-45 1734.003 4813.875)">
        <path id="Path_337" data-name="Path 337" class="cls-1" d="M3904.873 263.756h-21.229a4.251 4.251 0 0 1-4.247-4.245v-21.229a4.245 4.245 0 0 1 7.248-3l4.761 4.76 10.237-10.236a1.192 1.192 0 1 1 1.685 1.685l-11.079 11.078a1.192 1.192 0 0 1-1.686 0l-5.6-5.6a1.862 1.862 0 0 0-3.179 1.317v21.229a1.865 1.865 0 0 0 1.864 1.862h21.229a1.862 1.862 0 0 0 1.317-3.179l-5.6-5.6a1.193 1.193 0 0 1 0-1.685l11.08-11.078a1.191 1.191 0 1 1 1.685 1.685l-10.236 10.236 4.76 4.76a4.245 4.245 0 0 1-3 7.247z" transform="translate(0 -13.224)"/>
        <path id="Path_338" data-name="Path 338" class="cls-1" d="M3979.843 245.3a1.192 1.192 0 0 1-.842-2.034l11.08-11.079a1.191 1.191 0 0 1 1.685 0l5.6 5.6a1.862 1.862 0 0 0 3.179-1.317v-21.222a1.865 1.865 0 0 0-1.862-1.862h-21.23a1.862 1.862 0 0 0-1.317 3.179l5.6 5.6a1.192 1.192 0 0 1 0 1.685l-11.08 11.079a1.192 1.192 0 0 1-1.686-1.685l10.237-10.236-4.76-4.76a4.245 4.245 0 0 1 3-7.247h21.23a4.249 4.249 0 0 1 4.245 4.245v21.228a4.245 4.245 0 0 1-7.247 3l-4.76-4.76-10.237 10.236a1.187 1.187 0 0 1-.835.35z" transform="translate(-63.95)"/>
    </g>
</svg>
