<svg id="e57410de-b9ac-4dce-9d07-b51f2fc05ab7" data-name="Layer 1" xmlns="http://www.w3.org/2000/svg" width="24.041mm" height="17.947mm" viewBox="0 0 68.148 50.872"><title>Artboard 1</title><path d="M34.207,22.5a7.632,7.632,0,1,0-7.632-7.633A7.632,7.632,0,0,0,34.207,22.5Z" fill="none" stroke="#2ab99d" stroke-linecap="round" stroke-linejoin="round" stroke-width="4"/><path d="M18.816,43.632V39.285a9.146,9.146,0,0,1,9.143-9.149H41.666a9.147,9.147,0,0,1,9.149,9.143v4.353" fill="none" stroke="#2ab99d" stroke-linecap="round" stroke-linejoin="round" stroke-width="4"/><path d="M53.262,24.677A5.661,5.661,0,1,0,47.6,19.016h0A5.661,5.661,0,0,0,53.262,24.677Z" fill="none" stroke="#2ab99d" stroke-linecap="round" stroke-linejoin="round" stroke-width="4"/><path d="M54.881,30.339h3.892a6.774,6.774,0,0,1,6.773,6.773v3.235" fill="none" stroke="#2ab99d" stroke-linecap="round" stroke-linejoin="round" stroke-width="4"/><path d="M14.884,24.677a5.661,5.661,0,1,1,5.661-5.661h0A5.66,5.66,0,0,1,14.884,24.677Z" fill="none" stroke="#2ab99d" stroke-linecap="round" stroke-linejoin="round" stroke-width="4"/><path d="M13.267,30.338H9.375A6.775,6.775,0,0,0,2.6,37.111v3.235" fill="none" stroke="#2ab99d" stroke-linecap="round" stroke-linejoin="round" stroke-width="4"/></svg>