<svg id="a027c4b1-05bf-41cf-9957-aa29c7df0b57" data-name="Layer 3" xmlns="http://www.w3.org/2000/svg" width="24.041mm" height="17.947mm" viewBox="0 0 68.148 50.872"><title>Artboard 1</title><path d="M12.832,16.335V11.542a7.118,7.118,0,0,1,7.107-7.131h5.024" fill="none" stroke="#2ab99d" stroke-linecap="round" stroke-linejoin="round" stroke-width="4"/><path d="M55.317,16.335V11.542A7.119,7.119,0,0,0,48.21,4.411H43.186" fill="none" stroke="#2ab99d" stroke-linecap="round" stroke-linejoin="round" stroke-width="4"/><path d="M12.832,35.135v4.793a7.119,7.119,0,0,0,7.107,7.131h5.024" fill="none" stroke="#2ab99d" stroke-linecap="round" stroke-linejoin="round" stroke-width="4"/><path d="M55.317,35.135v4.793a7.121,7.121,0,0,1-7.107,7.131H43.186" fill="none" stroke="#2ab99d" stroke-linecap="round" stroke-linejoin="round" stroke-width="4"/><path d="M33.786,22.82A5.719,5.719,0,1,0,28.067,17.1a5.72,5.72,0,0,0,5.719,5.721Z" fill="none" stroke="#2ab99d" stroke-linecap="round" stroke-linejoin="round" stroke-width="4"/><path d="M22.255,38.631V35.366a6.851,6.851,0,0,1,6.851-6.853H39.365a6.853,6.853,0,0,1,6.853,6.853h0v3.265" fill="none" stroke="#2ab99d" stroke-linecap="round" stroke-linejoin="round" stroke-width="4"/></svg>