<svg id="f92f8efc-a5dc-4c40-9da9-aaba4945798e" data-name="Layer 2" xmlns="http://www.w3.org/2000/svg" width="24.041mm" height="17.947mm" viewBox="0 0 68.148 50.872"><title>Artboard 1</title><path d="M26.1,22.5a7.632,7.632,0,1,0-7.632-7.633A7.632,7.632,0,0,0,26.1,22.5Z" fill="none" stroke="#2ab99d" stroke-linecap="round" stroke-linejoin="round" stroke-width="4"/><path d="M10.709,43.632V39.285a9.146,9.146,0,0,1,9.143-9.149H33.559a9.147,9.147,0,0,1,9.149,9.143v4.353" fill="none" stroke="#2ab99d" stroke-linecap="round" stroke-linejoin="round" stroke-width="4"/><path d="M45.155,24.677a5.661,5.661,0,1,0-5.661-5.661h0A5.661,5.661,0,0,0,45.155,24.677Z" fill="none" stroke="#2ab99d" stroke-linecap="round" stroke-linejoin="round" stroke-width="4"/><path d="M46.774,30.339h3.892a6.774,6.774,0,0,1,6.773,6.773v3.235" fill="none" stroke="#2ab99d" stroke-linecap="round" stroke-linejoin="round" stroke-width="4"/></svg>