<svg xmlns="http://www.w3.org/2000/svg" xmlns:xlink="http://www.w3.org/1999/xlink" width="73" height="72" viewBox="0 0 73 72">
    <defs>
        <path id="prefix__a" d="M0.006 0.014L36.802 0.014 36.802 41.407 0.006 41.407z"/>
        <path id="prefix__c" d="M0 0.017L28.875 0.017 28.875 28.892 0 28.892z"/>
    </defs>
    <g fill="none" fill-rule="evenodd">
        <path fill="#B9C2CC" d="M27.659 46.537c-10.894 0-19.757-8.863-19.757-19.757 0-10.893 8.863-19.756 19.757-19.756 10.893 0 19.756 8.863 19.756 19.756 0 .54-.022 1.085-.066 1.62-.055.683-.653 1.19-1.337 1.136-.683-.055-1.192-.654-1.136-1.337.038-.468.057-.946.057-1.419 0-9.525-7.75-17.274-17.274-17.274-9.526 0-17.275 7.75-17.275 17.274 0 9.526 7.75 17.275 17.275 17.275 3.474 0 6.824-1.027 9.686-2.97.567-.384 1.339-.237 1.724.33.385.568.237 1.34-.33 1.724-3.276 2.223-7.107 3.398-11.08 3.398"/>
        <path fill="#B9C2CC" d="M21.951 22.78c-.027 0-.05.022-.05.05 0 .027.023.05.05.05.028 0 .05-.023.05-.05 0-.028-.022-.05-.05-.05m0 2.683c-1.452 0-2.634-1.181-2.634-2.634 0-1.452 1.182-2.634 2.634-2.634 1.453 0 2.634 1.182 2.634 2.634 0 1.453-1.181 2.634-2.634 2.634M32.488 22.78c-.028 0-.05.022-.05.05 0 .027.022.05.05.05.027 0 .05-.023.05-.05 0-.028-.023-.05-.05-.05m0 2.683c-1.453 0-2.634-1.181-2.634-2.634 0-1.452 1.181-2.634 2.634-2.634 1.452 0 2.634 1.182 2.634 2.634 0 1.453-1.182 2.634-2.634 2.634"/>
        <path fill="#1ABC9C" d="M27.659 37.756c-3.444 0-6.586-1.971-8.199-5.144-.318-.626-.088-1.4.513-1.731.6-.331 1.346-.092 1.664.533 1.185 2.332 3.492 3.78 6.022 3.78 2.529 0 4.836-1.448 6.022-3.78.317-.625 1.062-.864 1.663-.533.601.33.83 1.105.513 1.73-1.613 3.174-4.755 5.145-8.198 5.145"/>
        <g transform="translate(36 29.854)">
            <mask id="prefix__b" fill="#fff">
                <use xlink:href="#prefix__a"/>
            </mask>
            <path fill="#1ABC9C" d="M3.43 20.557c-.276 0-.523.06-.726.192-.147.096-.156.147-.16.164-.115.669 1.26 2.483 2.083 3.567.414.545.841 1.11 1.215 1.657 1.475 2.163 4.398 6.131 5.17 6.967 1.485 1.605 2.836 2.81 3.905 3.485l.067.045c4.308 3.117 8.773 2.402 11.76 1.254 2.71-1.042 4.993-2.942 6.265-5.215 1.599-2.854 1.69-6.227.27-10.027-.037-.07-.069-.146-.093-.224l-.008-.025c-.012-.037-.022-.075-.036-.112-.121-.303-2.793-6.984-4.172-9.59l-.037-.074c-.05-.113-.151-.266-.292-.479l-.081-.124c-.318-.484-1.159-.59-1.714-.382-.426.16-.667.414-.834.88-.173.488-.624.82-1.14.842-.513.02-.993-.272-1.206-.743-.456-1.006-1.461-1.445-2.446-1.066-.725.278-1.032.893-1.161 1.36-.135.484-.544.844-1.041.915-.497.073-.99-.158-1.256-.586-.527-.852-1.5-1.186-2.417-.833-.786.302-1.274 1.01-1.274 1.847 0 .612-.436 1.137-1.036 1.248-.6.112-1.195-.222-1.414-.793L7.594 4.185c-.233-.609-.657-1.118-1.164-1.4-.257-.14-.767-.348-1.305-.141-.888.341-1.258 1.624-.808 2.8l7.054 18.43c.222.58-.007 1.236-.542 1.55-.535.314-1.218.194-1.614-.283-.906-1.091-1.62-1.928-2.124-2.487-1.042-1.156-2.573-2.097-3.662-2.097m18.334 20.85c-.428 0-.853-.02-1.276-.057-2.498-.225-4.837-1.11-6.953-2.633-1.265-.805-2.738-2.112-4.38-3.888-.936-1.013-3.985-5.18-5.404-7.259-.337-.495-.727-1.01-1.14-1.554-1.474-1.943-2.867-3.78-2.561-5.538.092-.53.388-1.281 1.275-1.859 1.47-.956 3.567-.702 5.525.53L1.952 6.353C.993 3.85 2.01 1.122 4.217.273c1.109-.426 2.33-.323 3.437.29C8.691 1.137 9.51 2.1 9.96 3.276l2.955 7.721c.427-.41.94-.74 1.522-.963 1.409-.541 2.91-.352 4.092.43.474-.573 1.081-1.016 1.783-1.286 1.576-.606 3.256-.267 4.46.77.34-.291.736-.522 1.187-.69 1.487-.557 3.646-.268 4.717 1.364l.078.12c.182.275.34.514.472.797 1.471 2.794 4.159 9.528 4.273 9.814l.006.017c.018.047.034.092.048.134.013.027.025.055.035.083 1.736 4.535 1.608 8.798-.37 12.33-2.131 3.806-5.656 5.607-7.566 6.341-1.987.764-3.963 1.149-5.89 1.149" mask="url(#prefix__b)"/>
        </g>
        <g transform="translate(0 26.341)">
            <mask id="prefix__d" fill="#fff">
                <use xlink:href="#prefix__c"/>
            </mask>
            <path fill="#B8C1CB" d="M27.612 28.892c-7.375 0-14.31-2.872-19.525-8.087C2.872 15.589 0 8.655 0 1.28 0 .582.566.017 1.263.017c.698 0 1.263.565 1.263 1.263 0 6.7 2.61 13 7.348 17.738 4.738 4.738 11.037 7.348 17.738 7.348.698 0 1.263.565 1.263 1.263 0 .697-.565 1.263-1.263 1.263" mask="url(#prefix__d)"/>
        </g>
        <path fill="#B9C2CC" d="M53.961 28.884c-.698 0-1.263-.565-1.263-1.263 0-6.7-2.61-13-7.348-17.738-4.738-4.738-11.037-7.347-17.738-7.347-.697 0-1.263-.566-1.263-1.264 0-.697.566-1.263 1.263-1.263 7.376 0 14.31 2.872 19.525 8.088 5.215 5.215 8.087 12.149 8.087 19.524 0 .698-.565 1.263-1.263 1.263"/>
    </g>
</svg>
