<svg id="f544d50b-9d94-4b5f-a050-71c42eafdc87" data-name="Layer 3" xmlns="http://www.w3.org/2000/svg" width="260" height="111" viewBox="0 0 260 111"><title>visaArtboard 2</title><g id="af845e37-ec7c-413b-a3c6-a7d9a48e0f97" data-name="a080b744-35a4-4e2b-a6fd-b70f8de721ad"><g id="e25ebeb3-ef5d-49c9-928f-7be65fe84dc6" data-name="eec67fa2-f932-40df-bed0-a89d42054711"><path d="M202.717,78.3H191.846l-1.433-6.8H175.368c-.721,1.991-1.476,4-2.163,6.027a.938.938,0,0,1-1.081.75c-3.828-.029-7.656-.015-11.594-.015l1.862-4.445Q170.2,55.162,178.017,36.5a5.465,5.465,0,0,1,5.552-3.718h9.67c.348,1.656.7,3.3,1.04,4.946l5.445,26.068q1.424,6.817,2.848,13.637a1.319,1.319,0,0,0,.145.288ZM178.783,62.085h9.666l-3.532-16.913Z" fill="#1535ca"/><path d="M57.283,33.513l.346-.734h.92c6.027,0,12.072.084,18.1-.032a6.029,6.029,0,0,1,6.534,5.474l.007.087c1.462,8.315,3.091,16.6,4.654,24.894,0,.04.047.073.118.178a4.43,4.43,0,0,0,.266-.482q5.84-14.766,11.672-29.535c.141-.352.252-.6.741-.6,3.831.027,7.661.014,11.49.016.091,0,.185.02.341.038-.087.248-.152.471-.241.694Q103,55.551,93.775,77.59a.951.951,0,0,1-1.051.7q-5.525-.052-11.052,0a.7.7,0,0,1-.816-.563c0-.026-.008-.052-.01-.078q-4.593-17.888-9.2-35.762a5.9,5.9,0,0,0-3.468-4.242,55.771,55.771,0,0,0-10.61-3.424,1.141,1.141,0,0,0-.286,0Z" fill="#1535ca"/><path d="M138.726,79.028q-1.587-.218-3.177-.446a33.073,33.073,0,0,1-7.317-1.766c-.462-.174-.607-.373-.489-.893.694-3.089,1.34-6.19,2.009-9.313,1.34.54,2.612,1.13,3.933,1.578a20.137,20.137,0,0,0,10.65.918,8.355,8.355,0,0,0,3.125-1.4,3.18,3.18,0,0,0,.279-5.134,22.974,22.974,0,0,0-4.154-2.746,37.649,37.649,0,0,1-6.56-3.989,11.36,11.36,0,0,1-4.253-6.326,12.5,12.5,0,0,1,3.349-11.576A18.946,18.946,0,0,1,147.3,32.381a30.753,30.753,0,0,1,15.728,1.473c.087.032.167.088.328.17l-2.04,9.547c-1.29-.433-2.5-.913-3.744-1.247a17.109,17.109,0,0,0-9.375-.349,6.852,6.852,0,0,0-2.636,1.563,2.527,2.527,0,0,0-.236,3.566,2.563,2.563,0,0,0,.193.2,10.57,10.57,0,0,0,2.275,1.786c2.232,1.311,4.543,2.482,6.761,3.811a13.2,13.2,0,0,1,5.4,5.357,12.635,12.635,0,0,1-.893,12.724,15.759,15.759,0,0,1-9.9,6.866c-1.924.522-3.939.71-5.915,1.056a3.046,3.046,0,0,0-.446.143Z" fill="#1535ca"/><path d="M117.524,32.8H129.31c-.326,1.54-.64,3.042-.962,4.545q-4.268,19.962-8.52,39.93c-.165.777-.427,1.038-1.246,1.024-3.295-.055-6.589-.024-9.884-.024h-.9C111.048,63.072,114.283,47.953,117.524,32.8Z" fill="#1535ca"/></g></g></svg>