<svg width="64" height="63" viewBox="0 0 64 63" fill="none" xmlns="http://www.w3.org/2000/svg">
<g clip-path="url(#clip0_431_4633)">
<mask id="mask0_431_4633" style="mask-type:luminance" maskUnits="userSpaceOnUse" x="0" y="0" width="64" height="63">
<path d="M64 0H0V63H64V0Z" fill="white"/>
</mask>
<g mask="url(#mask0_431_4633)">
<path d="M21.9069 27.9294H16.5736V39.4369H21.9069V27.9294Z" fill="#081455"/>
<path d="M30.0917 23.6127H24.7584V35.1188H30.0917V23.6127Z" fill="#081455"/>
<path d="M38.6805 27.9294H33.3472V39.4369H38.6805V27.9294Z" fill="#081455"/>
<path d="M47.4264 23.6127H42.0931V35.1188H47.4264V23.6127Z" fill="#68A7F4"/>
<path d="M10.8821 23.5397H5.5488V12.4244C5.5488 9.95193 7.59946 7.94092 10.1192 7.94092H21.5424V13.1909H10.8821V23.5397Z" fill="#081455"/>
<path d="M21.4693 55.109H10.1779C7.66612 55.109 5.62186 53.0904 5.62186 50.61V39.3653H10.9552V49.859H21.4696L21.4693 55.109Z" fill="#081455"/>
<path d="M58.4512 23.5397H53.1179V13.1909H42.4576V7.94092H53.8808C56.4003 7.94092 58.4512 9.95193 58.4512 12.4244V23.5397Z" fill="#081455"/>
<path d="M53.8224 55.109H42.5307V49.859H53.0451V39.3653H58.3784V50.61C58.3784 53.0901 56.3341 55.109 53.8224 55.109Z" fill="#081455"/>
</g>
</g>
<defs>
<clipPath id="clip0_431_4633">
<rect width="64" height="63" fill="white"/>
</clipPath>
</defs>
</svg>
